<?xml version="1.0" encoding="UTF-8" standalone="no"?>
<!DOCTYPE svg PUBLIC "-//W3C//DTD SVG 1.1//EN"
 "http://www.w3.org/Graphics/SVG/1.1/DTD/svg11.dtd">
<!-- Generated by graphviz version 2.38.0 (20140413.2041)
 -->
<!-- Title: __public__ADF7030_1_fw_macro.h Pages: 1 -->
<!--zoomable 218 -->
<svg id="main" version="1.1" xmlns="http://www.w3.org/2000/svg" xmlns:xlink="http://www.w3.org/1999/xlink" xml:space="preserve" onload="init(evt)">
<style type="text/css"><![CDATA[
.edge:hover path { stroke: red; }
.edge:hover polygon { stroke: red; fill: red; }
]]></style>
<script type="text/javascript"><![CDATA[
var edges = document.getElementsByTagName('g');
if (edges && edges.length) {
  for (var i=0;i<edges.length;i++) {
    if (edges[i].id.substr(0,4)=='edge') {
      edges[i].setAttribute('class','edge');
    }
  }
}
]]></script>
        <defs>
                <circle id="rim" cx="0" cy="0" r="7"/>
                <circle id="rim2" cx="0" cy="0" r="3.5"/>
                <g id="zoomPlus">
                        <use xlink:href="#rim" fill="#404040">
                                <set attributeName="fill" to="#808080" begin="zoomplus.mouseover" end="zoomplus.mouseout"/>
                        </use>
                        <path d="M-4,0h8M0,-4v8" fill="none" stroke="white" stroke-width="1.5" pointer-events="none"/>
                </g>
                <g id="zoomMin">
                        <use xlink:href="#rim" fill="#404040">
                                <set attributeName="fill" to="#808080" begin="zoomminus.mouseover" end="zoomminus.mouseout"/>
                        </use>
                        <path d="M-4,0h8" fill="none" stroke="white" stroke-width="1.5" pointer-events="none"/>
                </g>
                <g id="dirArrow">
                        <path fill="none" stroke="white" stroke-width="1.5" d="M0,-3.0v7 M-2.5,-0.5L0,-3.0L2.5,-0.5"/>
                </g>
               <g id="resetDef">
                       <use xlink:href="#rim2" fill="#404040">
                               <set attributeName="fill" to="#808080" begin="reset.mouseover" end="reset.mouseout"/>
                       </use>
               </g>
        </defs>

<script type="text/javascript">
var viewWidth = 1018;
var viewHeight = 218;
var sectionId = 'dynsection-0';
</script>
<script xlink:href="svgpan.js"/>
<svg id="graph" class="graph">
<g id="viewport">
<title>__public__ADF7030_1_fw_macro.h</title>
<polygon fill="white" stroke="none" points="-4,4 -4,-214 1014,-214 1014,4 -4,4"/>
<!-- Node1 -->
<g id="node1" class="node"><title>Node1</title>
<polygon fill="#bfbfbf" stroke="black" points="490,-179.5 490,-209.5 604,-209.5 604,-179.5 490,-179.5"/>
<text text-anchor="start" x="498" y="-197.5" font-family="Helvetica,sans-Serif" font-size="10.00">__public__ADF7030_1</text>
<text text-anchor="middle" x="547" y="-186.5" font-family="Helvetica,sans-Serif" font-size="10.00">_fw_macro.h</text>
</g>
<!-- Node2 -->
<g id="node2" class="node"><title>Node2</title>
<g id="a_node2"><a xlink:href="adi__adf7030-1__reg_8h.html" target="_top" xlink:title=": ... ">
<polygon fill="white" stroke="black" points="495,-123.5 495,-142.5 599,-142.5 599,-123.5 495,-123.5"/>
<text text-anchor="middle" x="547" y="-130.5" font-family="Helvetica,sans-Serif" font-size="10.00">adi_adf7030&#45;1_reg.h</text>
</a>
</g>
</g>
<!-- Node1&#45;&gt;Node2 -->
<g id="edge1" class="edge"><title>Node1&#45;&gt;Node2</title>
<path fill="none" stroke="midnightblue" d="M547,-169.289C547,-159.857 547,-149.655 547,-142.658"/>
<polygon fill="midnightblue" stroke="midnightblue" points="543.5,-169.399 547,-179.399 550.5,-169.399 543.5,-169.399"/>
</g>
<!-- Node3 -->
<g id="node3" class="node"><title>Node3</title>
<g id="a_node3"><a xlink:href="adf7030-1____irq_8h.html" target="_top" xlink:title=": ... ">
<polygon fill="white" stroke="black" points="503,-67.5 503,-86.5 591,-86.5 591,-67.5 503,-67.5"/>
<text text-anchor="middle" x="547" y="-74.5" font-family="Helvetica,sans-Serif" font-size="10.00">adf7030&#45;1__irq.h</text>
</a>
</g>
</g>
<!-- Node2&#45;&gt;Node3 -->
<g id="edge2" class="edge"><title>Node2&#45;&gt;Node3</title>
<path fill="none" stroke="midnightblue" d="M547,-112.805C547,-103.91 547,-93.7798 547,-86.7511"/>
<polygon fill="midnightblue" stroke="midnightblue" points="543.5,-113.083 547,-123.083 550.5,-113.083 543.5,-113.083"/>
</g>
<!-- Node4 -->
<g id="node4" class="node"><title>Node4</title>
<g id="a_node4"><a xlink:href="adf703x__tx__test__modes_8c.html" target="_top" xlink:title=": This is a test file for adf7030_1 Radio driver development. ">
<polygon fill="white" stroke="black" points="0,-6 0,-25 128,-25 128,-6 0,-6"/>
<text text-anchor="middle" x="64" y="-13" font-family="Helvetica,sans-Serif" font-size="10.00">adf703x_tx_test_modes.c</text>
</a>
</g>
</g>
<!-- Node2&#45;&gt;Node4 -->
<g id="edge11" class="edge"><title>Node2&#45;&gt;Node4</title>
<path fill="none" stroke="midnightblue" d="M499.945,-121.242C460.635,-112.218 403.126,-98.9273 353,-87 261.057,-65.1227 152.884,-38.4975 98.6683,-25.0917"/>
<polygon fill="midnightblue" stroke="midnightblue" points="499.25,-124.674 509.78,-123.498 500.815,-117.851 499.25,-124.674"/>
</g>
<!-- Node5 -->
<g id="node5" class="node"><title>Node5</title>
<g id="a_node5"><a xlink:href="adf703x__tx__test__modes__bis_8c.html" target="_top" xlink:title=": This is a test file for adf7030_1 Radio driver development. Press PB0 to transmit change tx testmod...">
<polygon fill="white" stroke="black" points="146,-0.5 146,-30.5 266,-30.5 266,-0.5 146,-0.5"/>
<text text-anchor="start" x="154" y="-18.5" font-family="Helvetica,sans-Serif" font-size="10.00">adf703x_tx_test_modes</text>
<text text-anchor="middle" x="206" y="-7.5" font-family="Helvetica,sans-Serif" font-size="10.00">_bis.c</text>
</a>
</g>
</g>
<!-- Node2&#45;&gt;Node5 -->
<g id="edge12" class="edge"><title>Node2&#45;&gt;Node5</title>
<path fill="none" stroke="midnightblue" d="M512.116,-120.184C448.842,-98.7528 315.43,-53.5651 247.556,-30.5755"/>
<polygon fill="midnightblue" stroke="midnightblue" points="511.054,-123.52 521.648,-123.413 513.3,-116.89 511.054,-123.52"/>
</g>
<!-- Node6 -->
<g id="node6" class="node"><title>Node6</title>
<g id="a_node6"><a xlink:href="adf703x___offline_calibration_8c.html" target="_top" xlink:title=": This is a test file for adf7030_1 Radio driver development. ">
<polygon fill="white" stroke="black" points="284.5,-6 284.5,-25 421.5,-25 421.5,-6 284.5,-6"/>
<text text-anchor="middle" x="353" y="-13" font-family="Helvetica,sans-Serif" font-size="10.00">adf703x_OfflineCalibration.c</text>
</a>
</g>
</g>
<!-- Node2&#45;&gt;Node6 -->
<g id="edge13" class="edge"><title>Node2&#45;&gt;Node6</title>
<path fill="none" stroke="midnightblue" d="M523.756,-118.162C483.241,-94.0405 400.829,-44.9754 367.486,-25.1245"/>
<polygon fill="midnightblue" stroke="midnightblue" points="522.036,-121.21 532.418,-123.319 525.616,-115.196 522.036,-121.21"/>
</g>
<!-- Node7 -->
<g id="node7" class="node"><title>Node7</title>
<g id="a_node7"><a xlink:href="adf703x___p_e_r__tx_8c.html" target="_top" xlink:title=": This is a test file for adf7030_1 Radio driver development. ">
<polygon fill="white" stroke="black" points="440,-6 440,-25 538,-25 538,-6 440,-6"/>
<text text-anchor="middle" x="489" y="-13" font-family="Helvetica,sans-Serif" font-size="10.00">adf703x_PER_tx.c</text>
</a>
</g>
</g>
<!-- Node2&#45;&gt;Node7 -->
<g id="edge14" class="edge"><title>Node2&#45;&gt;Node7</title>
<path fill="none" stroke="midnightblue" d="M522.893,-117.862C512.113,-110.183 500.412,-99.6602 494,-87 483.799,-66.8587 485.679,-39.2501 487.543,-25.3135"/>
<polygon fill="midnightblue" stroke="midnightblue" points="520.956,-120.777 531.222,-123.396 524.83,-114.947 520.956,-120.777"/>
</g>
<!-- Node8 -->
<g id="node8" class="node"><title>Node8</title>
<g id="a_node8"><a xlink:href="adf703x___p_e_r__rx_8c.html" target="_top" xlink:title=": This is a test file for adf7030_1 Radio driver development. ">
<polygon fill="white" stroke="black" points="556,-6 556,-25 654,-25 654,-6 556,-6"/>
<text text-anchor="middle" x="605" y="-13" font-family="Helvetica,sans-Serif" font-size="10.00">adf703x_PER_rx.c</text>
</a>
</g>
</g>
<!-- Node2&#45;&gt;Node8 -->
<g id="edge15" class="edge"><title>Node2&#45;&gt;Node8</title>
<path fill="none" stroke="midnightblue" d="M571.107,-117.862C581.887,-110.183 593.588,-99.6602 600,-87 610.201,-66.8587 608.321,-39.2501 606.457,-25.3135"/>
<polygon fill="midnightblue" stroke="midnightblue" points="569.17,-114.947 562.778,-123.396 573.044,-120.777 569.17,-114.947"/>
</g>
<!-- Node9 -->
<g id="node9" class="node"><title>Node9</title>
<g id="a_node9"><a xlink:href="adf703x___t_x__packet_8c.html" target="_top" xlink:title=": This is a test file for adf7030_1 Radio driver development. ">
<polygon fill="white" stroke="black" points="672.5,-6 672.5,-25 781.5,-25 781.5,-6 672.5,-6"/>
<text text-anchor="middle" x="727" y="-13" font-family="Helvetica,sans-Serif" font-size="10.00">adf703x_TX_packet.c</text>
</a>
</g>
</g>
<!-- Node2&#45;&gt;Node9 -->
<g id="edge16" class="edge"><title>Node2&#45;&gt;Node9</title>
<path fill="none" stroke="midnightblue" d="M569.135,-118.044C583.159,-109.184 601.667,-97.4574 618,-87 652.733,-64.7613 693.508,-38.2914 713.938,-25.0036"/>
<polygon fill="midnightblue" stroke="midnightblue" points="567.222,-115.112 560.635,-123.41 570.959,-121.032 567.222,-115.112"/>
</g>
<!-- Node10 -->
<g id="node10" class="node"><title>Node10</title>
<g id="a_node10"><a xlink:href="adf703x___r_x__packet_8c.html" target="_top" xlink:title=": This is a test file for adf7030_1 Radio driver development. ">
<polygon fill="white" stroke="black" points="800,-6 800,-25 910,-25 910,-6 800,-6"/>
<text text-anchor="middle" x="855" y="-13" font-family="Helvetica,sans-Serif" font-size="10.00">adf703x_RX_packet.c</text>
</a>
</g>
</g>
<!-- Node2&#45;&gt;Node10 -->
<g id="edge17" class="edge"><title>Node2&#45;&gt;Node10</title>
<path fill="none" stroke="midnightblue" d="M579.264,-119.901C641.701,-96.4871 777.675,-45.497 831.951,-25.1434"/>
<polygon fill="midnightblue" stroke="midnightblue" points="578.033,-116.625 569.898,-123.413 580.491,-123.179 578.033,-116.625"/>
</g>
<!-- Node11 -->
<g id="node11" class="node"><title>Node11</title>
<g id="a_node11"><a xlink:href="adf703x__utils_8c.html" target="_top" xlink:title=": This file contains a collection of small general purpose routines used in various tests...">
<polygon fill="white" stroke="black" points="928,-6 928,-25 1010,-25 1010,-6 928,-6"/>
<text text-anchor="middle" x="969" y="-13" font-family="Helvetica,sans-Serif" font-size="10.00">adf703x_utils.c</text>
</a>
</g>
</g>
<!-- Node2&#45;&gt;Node11 -->
<g id="edge18" class="edge"><title>Node2&#45;&gt;Node11</title>
<path fill="none" stroke="midnightblue" d="M589.461,-120.725C658.608,-102.308 799.801,-64.4627 919,-31 925.787,-29.0946 933.08,-27.0042 939.941,-25.0184"/>
<polygon fill="midnightblue" stroke="midnightblue" points="588.158,-117.45 579.395,-123.405 589.959,-124.215 588.158,-117.45"/>
</g>
<!-- Node3&#45;&gt;Node4 -->
<g id="edge3" class="edge"><title>Node3&#45;&gt;Node4</title>
<path fill="none" stroke="midnightblue" d="M492.689,-71.5504C414.004,-64.7617 263.831,-50.5189 137,-31 126.145,-29.3294 114.45,-27.1697 103.67,-25.0297"/>
<polygon fill="midnightblue" stroke="midnightblue" points="492.585,-75.0542 502.847,-72.4196 493.181,-68.0797 492.585,-75.0542"/>
</g>
<!-- Node3&#45;&gt;Node5 -->
<g id="edge4" class="edge"><title>Node3&#45;&gt;Node5</title>
<path fill="none" stroke="midnightblue" d="M492.389,-67.675C437.381,-59.1227 350.13,-45.1021 275,-31 272.113,-30.458 269.16,-29.8902 266.18,-29.3062"/>
<polygon fill="midnightblue" stroke="midnightblue" points="492.193,-71.1863 502.611,-69.2589 493.265,-64.2688 492.193,-71.1863"/>
</g>
<!-- Node3&#45;&gt;Node6 -->
<g id="edge5" class="edge"><title>Node3&#45;&gt;Node6</title>
<path fill="none" stroke="midnightblue" d="M509.597,-64.5286C471.893,-52.9647 414.574,-35.3849 380.744,-25.0091"/>
<polygon fill="midnightblue" stroke="midnightblue" points="508.618,-67.889 519.205,-67.4751 510.67,-61.1967 508.618,-67.889"/>
</g>
<!-- Node3&#45;&gt;Node7 -->
<g id="edge6" class="edge"><title>Node3&#45;&gt;Node7</title>
<path fill="none" stroke="midnightblue" d="M531.401,-59.9975C520.423,-48.7356 506.161,-34.1044 497.295,-25.0091"/>
<polygon fill="midnightblue" stroke="midnightblue" points="529.203,-62.7574 538.69,-67.4751 534.216,-57.8712 529.203,-62.7574"/>
</g>
<!-- Node3&#45;&gt;Node8 -->
<g id="edge7" class="edge"><title>Node3&#45;&gt;Node8</title>
<path fill="none" stroke="midnightblue" d="M562.599,-59.9975C573.577,-48.7356 587.839,-34.1044 596.705,-25.0091"/>
<polygon fill="midnightblue" stroke="midnightblue" points="559.784,-57.8712 555.31,-67.4751 564.797,-62.7574 559.784,-57.8712"/>
</g>
<!-- Node3&#45;&gt;Node9 -->
<g id="edge8" class="edge"><title>Node3&#45;&gt;Node9</title>
<path fill="none" stroke="midnightblue" d="M582.601,-64.232C617.59,-52.666 670.136,-35.2966 701.258,-25.0091"/>
<polygon fill="midnightblue" stroke="midnightblue" points="581.186,-61.0134 572.79,-67.4751 583.383,-67.6597 581.186,-61.0134"/>
</g>
<!-- Node3&#45;&gt;Node10 -->
<g id="edge9" class="edge"><title>Node3&#45;&gt;Node10</title>
<path fill="none" stroke="midnightblue" d="M601.565,-66.4806C650.886,-57.7369 725.439,-44.1744 790,-31 799.063,-29.1506 808.809,-27.0411 817.927,-25.0146"/>
<polygon fill="midnightblue" stroke="midnightblue" points="600.674,-63.0838 591.436,-68.2714 601.892,-69.9769 600.674,-63.0838"/>
</g>
<!-- Node3&#45;&gt;Node11 -->
<g id="edge10" class="edge"><title>Node3&#45;&gt;Node11</title>
<path fill="none" stroke="midnightblue" d="M601.487,-72.1862C674.369,-66.4541 807.367,-53.7825 919,-31 926.704,-29.4276 934.947,-27.2493 942.472,-25.0585"/>
<polygon fill="midnightblue" stroke="midnightblue" points="600.88,-68.7225 591.179,-72.9819 601.419,-75.7017 600.88,-68.7225"/>
</g>
</g>
</svg>
        <g id="navigator" transform="translate(0 0)" fill="#404254">
                <rect fill="#f2f5e9" fill-opacity="0.5" stroke="#606060" stroke-width=".5" x="0" y="0" width="60" height="60"/>
                <use id="zoomplus" xlink:href="#zoomPlus" x="17" y="9" onmousedown="handleZoom(evt,'in')"/>
                <use id="zoomminus" xlink:href="#zoomMin" x="42" y="9" onmousedown="handleZoom(evt,'out')"/>
                <use id="reset" xlink:href="#resetDef" x="30" y="36" onmousedown="handleReset()"/>
                <g id="arrowUp" xlink:href="#dirArrow" transform="translate(30 24)" onmousedown="handlePan(0,-1)">
                  <use xlink:href="#rim" fill="#404040">
                        <set attributeName="fill" to="#808080" begin="arrowUp.mouseover" end="arrowUp.mouseout"/>
                  </use>
                  <path fill="none" stroke="white" stroke-width="1.5" d="M0,-3.0v7 M-2.5,-0.5L0,-3.0L2.5,-0.5"/>
                </g>
                <g id="arrowRight" xlink:href="#dirArrow" transform="rotate(90) translate(36 -43)" onmousedown="handlePan(1,0)">
                  <use xlink:href="#rim" fill="#404040">
                        <set attributeName="fill" to="#808080" begin="arrowRight.mouseover" end="arrowRight.mouseout"/>
                  </use>
                  <path fill="none" stroke="white" stroke-width="1.5" d="M0,-3.0v7 M-2.5,-0.5L0,-3.0L2.5,-0.5"/>
                </g>
                <g id="arrowDown" xlink:href="#dirArrow" transform="rotate(180) translate(-30 -48)" onmousedown="handlePan(0,1)">
                  <use xlink:href="#rim" fill="#404040">
                        <set attributeName="fill" to="#808080" begin="arrowDown.mouseover" end="arrowDown.mouseout"/>
                  </use>
                  <path fill="none" stroke="white" stroke-width="1.5" d="M0,-3.0v7 M-2.5,-0.5L0,-3.0L2.5,-0.5"/>
                </g>
                <g id="arrowLeft" xlink:href="#dirArrow" transform="rotate(270) translate(-36 17)" onmousedown="handlePan(-1,0)">
                  <use xlink:href="#rim" fill="#404040">
                        <set attributeName="fill" to="#808080" begin="arrowLeft.mouseover" end="arrowLeft.mouseout"/>
                  </use>
                  <path fill="none" stroke="white" stroke-width="1.5" d="M0,-3.0v7 M-2.5,-0.5L0,-3.0L2.5,-0.5"/>
                </g>
        </g>
        <svg viewBox="0 0 15 15" width="100%" height="30px" preserveAspectRatio="xMaxYMin meet">
         <g id="arrow_out" transform="scale(0.3 0.3)">
          <a xlink:href="____public_____a_d_f7030__1__fw__macro_8h__dep__incl_org.svg" target="_base">
           <rect id="button" ry="5" rx="5" y="6" x="6" height="38" width="38"
                fill="#f2f5e9" fill-opacity="0.5" stroke="#606060" stroke-width="1.0"/>
           <path id="arrow"
             d="M 11.500037,31.436501 C 11.940474,20.09759 22.043105,11.32322 32.158766,21.979434 L 37.068811,17.246167 C 37.068811,17.246167 37.088388,32 37.088388,32 L 22.160133,31.978069 C 22.160133,31.978069 26.997745,27.140456 26.997745,27.140456 C 18.528582,18.264221 13.291696,25.230495 11.500037,31.436501 z"
             style="fill:#404040;"/>
          </a>
         </g>
        </svg>
</svg>
