<?xml version="1.0" encoding="UTF-8" standalone="no"?>
<!DOCTYPE svg PUBLIC "-//W3C//DTD SVG 1.1//EN"
 "http://www.w3.org/Graphics/SVG/1.1/DTD/svg11.dtd">
<!-- Generated by graphviz version 2.38.0 (20140413.2041)
 -->
<!-- Title: adf703x_OfflineCalibration.c Pages: 1 -->
<!--zoomable 218 -->
<svg id="main" version="1.1" xmlns="http://www.w3.org/2000/svg" xmlns:xlink="http://www.w3.org/1999/xlink" xml:space="preserve" onload="init(evt)">
<style type="text/css"><![CDATA[
.edge:hover path { stroke: red; }
.edge:hover polygon { stroke: red; fill: red; }
]]></style>
<script type="text/javascript"><![CDATA[
var edges = document.getElementsByTagName('g');
if (edges && edges.length) {
  for (var i=0;i<edges.length;i++) {
    if (edges[i].id.substr(0,4)=='edge') {
      edges[i].setAttribute('class','edge');
    }
  }
}
]]></script>
        <defs>
                <circle id="rim" cx="0" cy="0" r="7"/>
                <circle id="rim2" cx="0" cy="0" r="3.5"/>
                <g id="zoomPlus">
                        <use xlink:href="#rim" fill="#404040">
                                <set attributeName="fill" to="#808080" begin="zoomplus.mouseover" end="zoomplus.mouseout"/>
                        </use>
                        <path d="M-4,0h8M0,-4v8" fill="none" stroke="white" stroke-width="1.5" pointer-events="none"/>
                </g>
                <g id="zoomMin">
                        <use xlink:href="#rim" fill="#404040">
                                <set attributeName="fill" to="#808080" begin="zoomminus.mouseover" end="zoomminus.mouseout"/>
                        </use>
                        <path d="M-4,0h8" fill="none" stroke="white" stroke-width="1.5" pointer-events="none"/>
                </g>
                <g id="dirArrow">
                        <path fill="none" stroke="white" stroke-width="1.5" d="M0,-3.0v7 M-2.5,-0.5L0,-3.0L2.5,-0.5"/>
                </g>
               <g id="resetDef">
                       <use xlink:href="#rim2" fill="#404040">
                               <set attributeName="fill" to="#808080" begin="reset.mouseover" end="reset.mouseout"/>
                       </use>
               </g>
        </defs>

<script type="text/javascript">
var viewWidth = 1994;
var viewHeight = 218;
var sectionId = 'dynsection-0';
</script>
<script xlink:href="svgpan.js"/>
<svg id="graph" class="graph">
<g id="viewport">
<title>adf703x_OfflineCalibration.c</title>
<polygon fill="white" stroke="none" points="-4,4 -4,-214 1990,-214 1990,4 -4,4"/>
<!-- Node0 -->
<g id="node1" class="node"><title>Node0</title>
<polygon fill="#bfbfbf" stroke="black" points="759,-190.5 759,-209.5 896,-209.5 896,-190.5 759,-190.5"/>
<text text-anchor="middle" x="827.5" y="-197.5" font-family="Helvetica,sans-Serif" font-size="10.00">adf703x_OfflineCalibration.c</text>
</g>
<!-- Node1 -->
<g id="node2" class="node"><title>Node1</title>
<polygon fill="white" stroke="#bfbfbf" points="158,-67.5 158,-86.5 207,-86.5 207,-67.5 158,-67.5"/>
<text text-anchor="middle" x="182.5" y="-74.5" font-family="Helvetica,sans-Serif" font-size="10.00">string.h</text>
</g>
<!-- Node0&#45;&gt;Node1 -->
<g id="edge1" class="edge"><title>Node0&#45;&gt;Node1</title>
<path fill="none" stroke="midnightblue" d="M758.801,-196.544C615.462,-191.002 294.077,-176.251 249.5,-154 223.739,-141.141 203.529,-113.655 192.304,-95.5036"/>
<polygon fill="midnightblue" stroke="midnightblue" points="195.108,-93.3684 187.014,-86.5323 189.078,-96.9241 195.108,-93.3684"/>
</g>
<!-- Node2 -->
<g id="node3" class="node"><title>Node2</title>
<polygon fill="white" stroke="#bfbfbf" points="684.5,-129 684.5,-148 730.5,-148 730.5,-129 684.5,-129"/>
<text text-anchor="middle" x="707.5" y="-136" font-family="Helvetica,sans-Serif" font-size="10.00">stdio.h</text>
</g>
<!-- Node0&#45;&gt;Node2 -->
<g id="edge2" class="edge"><title>Node0&#45;&gt;Node2</title>
<path fill="none" stroke="midnightblue" d="M810.307,-190.475C790.257,-180.534 756.901,-163.995 733.64,-152.461"/>
<polygon fill="midnightblue" stroke="midnightblue" points="735.175,-149.316 724.661,-148.009 732.066,-155.587 735.175,-149.316"/>
</g>
<!-- Node3 -->
<g id="node4" class="node"><title>Node3</title>
<polygon fill="white" stroke="#bfbfbf" points="225,-67.5 225,-86.5 276,-86.5 276,-67.5 225,-67.5"/>
<text text-anchor="middle" x="250.5" y="-74.5" font-family="Helvetica,sans-Serif" font-size="10.00">stddef.h</text>
</g>
<!-- Node0&#45;&gt;Node3 -->
<g id="edge3" class="edge"><title>Node0&#45;&gt;Node3</title>
<path fill="none" stroke="midnightblue" d="M758.869,-197.88C617.95,-194.952 306.082,-185.01 269.5,-154 253.16,-140.149 249.734,-114.574 249.517,-96.9441"/>
<polygon fill="midnightblue" stroke="midnightblue" points="253.021,-96.781 249.734,-86.709 246.023,-96.6325 253.021,-96.781"/>
</g>
<!-- Node4 -->
<g id="node5" class="node"><title>Node4</title>
<polygon fill="white" stroke="#bfbfbf" points="294.5,-67.5 294.5,-86.5 342.5,-86.5 342.5,-67.5 294.5,-67.5"/>
<text text-anchor="middle" x="318.5" y="-74.5" font-family="Helvetica,sans-Serif" font-size="10.00">stdlib.h</text>
</g>
<!-- Node0&#45;&gt;Node4 -->
<g id="edge4" class="edge"><title>Node0&#45;&gt;Node4</title>
<path fill="none" stroke="midnightblue" d="M758.863,-195.416C660.721,-189.595 485.616,-176.419 426.5,-154 407.515,-146.8 363.103,-113.184 337.536,-93.1503"/>
<polygon fill="midnightblue" stroke="midnightblue" points="339.371,-90.1397 329.351,-86.6963 335.036,-95.6365 339.371,-90.1397"/>
</g>
<!-- Node5 -->
<g id="node6" class="node"><title>Node5</title>
<polygon fill="white" stroke="#bfbfbf" points="748.5,-129 748.5,-148 810.5,-148 810.5,-129 748.5,-129"/>
<text text-anchor="middle" x="779.5" y="-136" font-family="Helvetica,sans-Serif" font-size="10.00">common.h</text>
</g>
<!-- Node0&#45;&gt;Node5 -->
<g id="edge5" class="edge"><title>Node0&#45;&gt;Node5</title>
<path fill="none" stroke="midnightblue" d="M820.623,-190.475C813.351,-181.462 801.705,-167.025 792.659,-155.812"/>
<polygon fill="midnightblue" stroke="midnightblue" points="795.367,-153.595 786.364,-148.009 789.919,-157.99 795.367,-153.595"/>
</g>
<!-- Node6 -->
<g id="node7" class="node"><title>Node6</title>
<polygon fill="white" stroke="#bfbfbf" points="592.5,-6 592.5,-25 694.5,-25 694.5,-6 592.5,-6"/>
<text text-anchor="middle" x="643.5" y="-13" font-family="Helvetica,sans-Serif" font-size="10.00">drivers/spi/adi_spi.h</text>
</g>
<!-- Node0&#45;&gt;Node6 -->
<g id="edge6" class="edge"><title>Node0&#45;&gt;Node6</title>
<path fill="none" stroke="midnightblue" d="M758.666,-199.02C677.253,-197.407 548.91,-189.16 518.5,-154 509.737,-143.869 512.945,-80.2891 522.5,-67 532.482,-53.1164 572.423,-38.1354 603.72,-28.1268"/>
<polygon fill="midnightblue" stroke="midnightblue" points="605.029,-31.3846 613.529,-25.0597 602.94,-24.7036 605.029,-31.3846"/>
</g>
<!-- Node7 -->
<g id="node8" class="node"><title>Node7</title>
<g id="a_node8"><a xlink:href="adi__adf7030-1__reg_8h.html" target="_top" xlink:title=": ... ">
<polygon fill="white" stroke="black" points="360.5,-67.5 360.5,-86.5 464.5,-86.5 464.5,-67.5 360.5,-67.5"/>
<text text-anchor="middle" x="412.5" y="-74.5" font-family="Helvetica,sans-Serif" font-size="10.00">adi_adf7030&#45;1_reg.h</text>
</a>
</g>
</g>
<!-- Node0&#45;&gt;Node7 -->
<g id="edge7" class="edge"><title>Node0&#45;&gt;Node7</title>
<path fill="none" stroke="midnightblue" d="M758.978,-197.883C665.683,-195.164 504.763,-185.852 456.5,-154 436.172,-140.584 424.081,-114.317 417.862,-96.462"/>
<polygon fill="midnightblue" stroke="midnightblue" points="421.169,-95.3138 414.794,-86.8517 414.501,-97.4425 421.169,-95.3138"/>
</g>
<!-- Node12 -->
<g id="node13" class="node"><title>Node12</title>
<g id="a_node13"><a xlink:href="adf7030-1____common_8h.html" target="_top" xlink:title=": ... ">
<polygon fill="white" stroke="black" points="532,-67.5 532,-86.5 647,-86.5 647,-67.5 532,-67.5"/>
<text text-anchor="middle" x="589.5" y="-74.5" font-family="Helvetica,sans-Serif" font-size="10.00">adf7030&#45;1__common.h</text>
</a>
</g>
</g>
<!-- Node0&#45;&gt;Node12 -->
<g id="edge12" class="edge"><title>Node0&#45;&gt;Node12</title>
<path fill="none" stroke="midnightblue" d="M758.918,-198.67C679.782,-196.66 556.755,-187.971 527.5,-154 518.509,-143.56 521.242,-135.275 527.5,-123 534.5,-109.27 547.866,-98.7496 560.4,-91.3465"/>
<polygon fill="midnightblue" stroke="midnightblue" points="562.174,-94.366 569.277,-86.5055 558.822,-88.2204 562.174,-94.366"/>
</g>
<!-- Node13 -->
<g id="node14" class="node"><title>Node13</title>
<g id="a_node14"><a xlink:href="adf7030-1____core_8h.html" target="_top" xlink:title=": ... ">
<polygon fill="white" stroke="black" points="828.5,-129 828.5,-148 924.5,-148 924.5,-129 828.5,-129"/>
<text text-anchor="middle" x="876.5" y="-136" font-family="Helvetica,sans-Serif" font-size="10.00">adf7030&#45;1__core.h</text>
</a>
</g>
</g>
<!-- Node0&#45;&gt;Node13 -->
<g id="edge14" class="edge"><title>Node0&#45;&gt;Node13</title>
<path fill="none" stroke="midnightblue" d="M834.521,-190.475C841.943,-181.462 853.833,-167.025 863.067,-155.812"/>
<polygon fill="midnightblue" stroke="midnightblue" points="865.837,-157.953 869.493,-148.009 860.434,-153.503 865.837,-157.953"/>
</g>
<!-- Node14 -->
<g id="node15" class="node"><title>Node14</title>
<g id="a_node15"><a xlink:href="adf7030-1____irq_8h.html" target="_top" xlink:title=": ... ">
<polygon fill="white" stroke="black" points="278.5,-129 278.5,-148 366.5,-148 366.5,-129 278.5,-129"/>
<text text-anchor="middle" x="322.5" y="-136" font-family="Helvetica,sans-Serif" font-size="10.00">adf7030&#45;1__irq.h</text>
</a>
</g>
</g>
<!-- Node0&#45;&gt;Node14 -->
<g id="edge15" class="edge"><title>Node0&#45;&gt;Node14</title>
<path fill="none" stroke="midnightblue" d="M758.925,-195.187C670.831,-189.582 513.428,-177.182 380.5,-154 374.736,-152.995 368.697,-151.729 362.785,-150.366"/>
<polygon fill="midnightblue" stroke="midnightblue" points="363.568,-146.955 353.026,-148.01 361.925,-153.759 363.568,-146.955"/>
</g>
<!-- Node15 -->
<g id="node16" class="node"><title>Node15</title>
<g id="a_node16"><a xlink:href="adf7030-1____spi_8h.html" target="_top" xlink:title=": ... ">
<polygon fill="white" stroke="black" points="942.5,-129 942.5,-148 1032.5,-148 1032.5,-129 942.5,-129"/>
<text text-anchor="middle" x="987.5" y="-136" font-family="Helvetica,sans-Serif" font-size="10.00">adf7030&#45;1__spi.h</text>
</a>
</g>
</g>
<!-- Node0&#45;&gt;Node15 -->
<g id="edge21" class="edge"><title>Node0&#45;&gt;Node15</title>
<path fill="none" stroke="midnightblue" d="M850.424,-190.475C877.87,-180.269 924.016,-163.108 955.099,-151.549"/>
<polygon fill="midnightblue" stroke="midnightblue" points="956.465,-154.775 964.618,-148.009 954.026,-148.214 956.465,-154.775"/>
</g>
<!-- Node16 -->
<g id="node17" class="node"><title>Node16</title>
<g id="a_node17"><a xlink:href="adf7030-1____mem_8h.html" target="_top" xlink:title=": ... ">
<polygon fill="white" stroke="black" points="1051,-129 1051,-148 1150,-148 1150,-129 1051,-129"/>
<text text-anchor="middle" x="1100.5" y="-136" font-family="Helvetica,sans-Serif" font-size="10.00">adf7030&#45;1__mem.h</text>
</a>
</g>
</g>
<!-- Node0&#45;&gt;Node16 -->
<g id="edge22" class="edge"><title>Node0&#45;&gt;Node16</title>
<path fill="none" stroke="midnightblue" d="M870.225,-190.457C913.487,-181.704 982.275,-167.501 1041.5,-154 1046.45,-152.871 1051.63,-151.655 1056.77,-150.423"/>
<polygon fill="midnightblue" stroke="midnightblue" points="1057.65,-153.811 1066.54,-148.054 1056,-147.008 1057.65,-153.811"/>
</g>
<!-- Node17 -->
<g id="node18" class="node"><title>Node17</title>
<g id="a_node18"><a xlink:href="adf7030-1____patch_8h.html" target="_top" xlink:title=": ... ">
<polygon fill="white" stroke="black" points="1168,-129 1168,-148 1269,-148 1269,-129 1168,-129"/>
<text text-anchor="middle" x="1218.5" y="-136" font-family="Helvetica,sans-Serif" font-size="10.00">adf7030&#45;1__patch.h</text>
</a>
</g>
</g>
<!-- Node0&#45;&gt;Node17 -->
<g id="edge23" class="edge"><title>Node0&#45;&gt;Node17</title>
<path fill="none" stroke="midnightblue" d="M896.197,-191.846C963.576,-184.323 1069.07,-171.19 1159.5,-154 1165,-152.954 1170.77,-151.717 1176.44,-150.414"/>
<polygon fill="midnightblue" stroke="midnightblue" points="1177.57,-153.744 1186.48,-148.025 1175.95,-146.934 1177.57,-153.744"/>
</g>
<!-- Node18 -->
<g id="node19" class="node"><title>Node18</title>
<g id="a_node19"><a xlink:href="adf7030-1____cfg_8h.html" target="_top" xlink:title=": ... ">
<polygon fill="white" stroke="black" points="1287.5,-129 1287.5,-148 1377.5,-148 1377.5,-129 1287.5,-129"/>
<text text-anchor="middle" x="1332.5" y="-136" font-family="Helvetica,sans-Serif" font-size="10.00">adf7030&#45;1__cfg.h</text>
</a>
</g>
</g>
<!-- Node0&#45;&gt;Node18 -->
<g id="edge24" class="edge"><title>Node0&#45;&gt;Node18</title>
<path fill="none" stroke="midnightblue" d="M896.37,-195.622C985.247,-190.466 1144.4,-178.526 1278.5,-154 1283.62,-153.064 1288.97,-151.883 1294.22,-150.602"/>
<polygon fill="midnightblue" stroke="midnightblue" points="1295.3,-153.937 1304.11,-148.052 1293.56,-147.158 1295.3,-153.937"/>
</g>
<!-- Node19 -->
<g id="node20" class="node"><title>Node19</title>
<g id="a_node20"><a xlink:href="adf7030-1____state_8h.html" target="_top" xlink:title=": ... ">
<polygon fill="white" stroke="black" points="1396,-129 1396,-148 1495,-148 1495,-129 1396,-129"/>
<text text-anchor="middle" x="1445.5" y="-136" font-family="Helvetica,sans-Serif" font-size="10.00">adf7030&#45;1__state.h</text>
</a>
</g>
</g>
<!-- Node0&#45;&gt;Node19 -->
<g id="edge25" class="edge"><title>Node0&#45;&gt;Node19</title>
<path fill="none" stroke="midnightblue" d="M896.339,-197.015C1002.27,-193.162 1211.34,-182.385 1386.5,-154 1392.44,-153.038 1398.66,-151.785 1404.74,-150.419"/>
<polygon fill="midnightblue" stroke="midnightblue" points="1405.84,-153.754 1414.77,-148.044 1404.23,-146.943 1405.84,-153.754"/>
</g>
<!-- Node20 -->
<g id="node21" class="node"><title>Node20</title>
<g id="a_node21"><a xlink:href="adf7030-1____gpio_8h.html" target="_top" xlink:title=": ... ">
<polygon fill="white" stroke="black" points="1513,-129 1513,-148 1608,-148 1608,-129 1513,-129"/>
<text text-anchor="middle" x="1560.5" y="-136" font-family="Helvetica,sans-Serif" font-size="10.00">adf7030&#45;1__gpio.h</text>
</a>
</g>
</g>
<!-- Node0&#45;&gt;Node20 -->
<g id="edge26" class="edge"><title>Node0&#45;&gt;Node20</title>
<path fill="none" stroke="midnightblue" d="M896.203,-198.661C1019.05,-197.119 1284.13,-189.534 1504.5,-154 1510.08,-153.101 1515.91,-151.897 1521.61,-150.565"/>
<polygon fill="midnightblue" stroke="midnightblue" points="1522.79,-153.877 1531.65,-148.069 1521.1,-147.084 1522.79,-153.877"/>
</g>
<!-- Node21 -->
<g id="node22" class="node"><title>Node21</title>
<g id="a_node22"><a xlink:href="adf703x__utils_8h.html" target="_top" xlink:title=": ... ">
<polygon fill="white" stroke="black" points="1626.5,-129 1626.5,-148 1708.5,-148 1708.5,-129 1626.5,-129"/>
<text text-anchor="middle" x="1667.5" y="-136" font-family="Helvetica,sans-Serif" font-size="10.00">adf703x_utils.h</text>
</a>
</g>
</g>
<!-- Node0&#45;&gt;Node21 -->
<g id="edge27" class="edge"><title>Node0&#45;&gt;Node21</title>
<path fill="none" stroke="midnightblue" d="M896.165,-197.075C1061.79,-192.111 1479.73,-177.59 1617.5,-154 1622.37,-153.167 1627.43,-152.029 1632.39,-150.754"/>
<polygon fill="midnightblue" stroke="midnightblue" points="1633.62,-154.046 1642.32,-148 1631.75,-147.3 1633.62,-154.046"/>
</g>
<!-- Node22 -->
<g id="node23" class="node"><title>Node22</title>
<g id="a_node23"><a xlink:href="_c_a_l_i_b_r_a_t_i_o_n_s_8h.html" target="_top" xlink:title="Firmware header file containing binaries of CALIBRATIONS patch. ">
<polygon fill="white" stroke="black" points="1726.5,-129 1726.5,-148 1848.5,-148 1848.5,-129 1726.5,-129"/>
<text text-anchor="middle" x="1787.5" y="-136" font-family="Helvetica,sans-Serif" font-size="10.00">patch/CALIBRATIONS.h</text>
</a>
</g>
</g>
<!-- Node0&#45;&gt;Node22 -->
<g id="edge28" class="edge"><title>Node0&#45;&gt;Node22</title>
<path fill="none" stroke="midnightblue" d="M896.21,-199.113C1046.03,-198.575 1413.08,-192.99 1717.5,-154 1725.38,-152.991 1733.69,-151.581 1741.73,-150.033"/>
<polygon fill="midnightblue" stroke="midnightblue" points="1742.6,-153.427 1751.71,-148.018 1741.21,-146.566 1742.6,-153.427"/>
</g>
<!-- Node23 -->
<g id="node24" class="node"><title>Node23</title>
<g id="a_node24"><a xlink:href="_u_s_e_r___c_o_n_f_i_g__20_8h.html" target="_top" xlink:title="Firmware header file containing defaults configuration. ">
<polygon fill="white" stroke="black" points="537,-123.5 537,-153.5 666,-153.5 666,-123.5 537,-123.5"/>
<text text-anchor="start" x="545" y="-141.5" font-family="Helvetica,sans-Serif" font-size="10.00">config/Usecase_20/USER</text>
<text text-anchor="middle" x="601.5" y="-130.5" font-family="Helvetica,sans-Serif" font-size="10.00">_CONFIG_20.h</text>
</a>
</g>
</g>
<!-- Node0&#45;&gt;Node23 -->
<g id="edge29" class="edge"><title>Node0&#45;&gt;Node23</title>
<path fill="none" stroke="midnightblue" d="M795.12,-190.475C761.15,-181.532 706.898,-167.249 664.453,-156.074"/>
<polygon fill="midnightblue" stroke="midnightblue" points="665.325,-152.684 654.764,-153.523 663.543,-159.454 665.325,-152.684"/>
</g>
<!-- Node24 -->
<g id="node25" class="node"><title>Node24</title>
<polygon fill="white" stroke="#bfbfbf" points="1867,-123.5 1867,-153.5 1986,-153.5 1986,-123.5 1867,-123.5"/>
<text text-anchor="start" x="1875" y="-141.5" font-family="Helvetica,sans-Serif" font-size="10.00">TRX_168_test_125kbps</text>
<text text-anchor="middle" x="1926.5" y="-130.5" font-family="Helvetica,sans-Serif" font-size="10.00">_868MHz.cfg</text>
</g>
<!-- Node0&#45;&gt;Node24 -->
<g id="edge31" class="edge"><title>Node0&#45;&gt;Node24</title>
<path fill="none" stroke="midnightblue" d="M896.187,-197.465C1092.03,-192.86 1651.7,-178.05 1856.69,-153.908"/>
<polygon fill="midnightblue" stroke="midnightblue" points="1857.26,-157.364 1866.76,-152.677 1856.41,-150.416 1857.26,-157.364"/>
</g>
<!-- Node8 -->
<g id="node9" class="node"><title>Node8</title>
<g id="a_node9"><a xlink:href="____public_____a_d_f7030__1__hw__cdef_8h.html" target="_top" xlink:title=": ... ">
<polygon fill="white" stroke="black" points="151,-0.5 151,-30.5 278,-30.5 278,-0.5 151,-0.5"/>
<text text-anchor="start" x="159" y="-18.5" font-family="Helvetica,sans-Serif" font-size="10.00">adf7030&#45;1/__public</text>
<text text-anchor="middle" x="214.5" y="-7.5" font-family="Helvetica,sans-Serif" font-size="10.00">__ADF7030_1_hw_cdef.h</text>
</a>
</g>
</g>
<!-- Node7&#45;&gt;Node8 -->
<g id="edge8" class="edge"><title>Node7&#45;&gt;Node8</title>
<path fill="none" stroke="midnightblue" d="M384.131,-67.4751C354.684,-58.6259 307.839,-44.5487 270.831,-33.4277"/>
<polygon fill="midnightblue" stroke="midnightblue" points="271.749,-30.049 261.165,-30.523 269.734,-36.7529 271.749,-30.049"/>
</g>
<!-- Node9 -->
<g id="node10" class="node"><title>Node9</title>
<g id="a_node10"><a xlink:href="____public_____a_d_f7030__1__fw__cdef_8h.html" target="_top" xlink:title=": ... ">
<polygon fill="white" stroke="black" points="296.5,-0.5 296.5,-30.5 420.5,-30.5 420.5,-0.5 296.5,-0.5"/>
<text text-anchor="start" x="304.5" y="-18.5" font-family="Helvetica,sans-Serif" font-size="10.00">adf7030&#45;1/__public</text>
<text text-anchor="middle" x="358.5" y="-7.5" font-family="Helvetica,sans-Serif" font-size="10.00">__ADF7030_1_fw_cdef.h</text>
</a>
</g>
</g>
<!-- Node7&#45;&gt;Node9 -->
<g id="edge9" class="edge"><title>Node7&#45;&gt;Node9</title>
<path fill="none" stroke="midnightblue" d="M404.763,-67.4751C397.791,-59.7932 387.244,-48.1717 377.98,-37.9643"/>
<polygon fill="midnightblue" stroke="midnightblue" points="380.539,-35.5758 371.227,-30.523 375.356,-40.2802 380.539,-35.5758"/>
</g>
<!-- Node10 -->
<g id="node11" class="node"><title>Node10</title>
<g id="a_node11"><a xlink:href="____public_____a_d_f7030__1__hw__macro_8h.html" target="_top" xlink:title=": ... ">
<polygon fill="white" stroke="black" points="438.5,-0.5 438.5,-30.5 574.5,-30.5 574.5,-0.5 438.5,-0.5"/>
<text text-anchor="start" x="446.5" y="-18.5" font-family="Helvetica,sans-Serif" font-size="10.00">adf7030&#45;1/__public</text>
<text text-anchor="middle" x="506.5" y="-7.5" font-family="Helvetica,sans-Serif" font-size="10.00">__ADF7030_1_hw_macro.h</text>
</a>
</g>
</g>
<!-- Node7&#45;&gt;Node10 -->
<g id="edge10" class="edge"><title>Node7&#45;&gt;Node10</title>
<path fill="none" stroke="midnightblue" d="M425.968,-67.4751C438.937,-59.266 459.013,-46.5581 475.876,-35.8845"/>
<polygon fill="midnightblue" stroke="midnightblue" points="477.768,-38.8287 484.346,-30.523 474.025,-32.9141 477.768,-38.8287"/>
</g>
<!-- Node11 -->
<g id="node12" class="node"><title>Node11</title>
<g id="a_node12"><a xlink:href="____public_____a_d_f7030__1__fw__macro_8h.html" target="_top" xlink:title=": ... ">
<polygon fill="white" stroke="black" points="0,-0.5 0,-30.5 133,-30.5 133,-0.5 0,-0.5"/>
<text text-anchor="start" x="8" y="-18.5" font-family="Helvetica,sans-Serif" font-size="10.00">adf7030&#45;1/__public</text>
<text text-anchor="middle" x="66.5" y="-7.5" font-family="Helvetica,sans-Serif" font-size="10.00">__ADF7030_1_fw_macro.h</text>
</a>
</g>
</g>
<!-- Node7&#45;&gt;Node11 -->
<g id="edge11" class="edge"><title>Node7&#45;&gt;Node11</title>
<path fill="none" stroke="midnightblue" d="M360.477,-67.7801C308.001,-59.3944 224.394,-45.7779 143.046,-31.2538"/>
<polygon fill="midnightblue" stroke="midnightblue" points="143.6,-27.7973 133.139,-29.4783 142.365,-34.6875 143.6,-27.7973"/>
</g>
<!-- Node12&#45;&gt;Node6 -->
<g id="edge13" class="edge"><title>Node12&#45;&gt;Node6</title>
<path fill="none" stroke="midnightblue" d="M597.237,-67.4751C605.497,-58.3733 618.777,-43.741 628.994,-32.483"/>
<polygon fill="midnightblue" stroke="midnightblue" points="631.649,-34.7663 635.777,-25.0091 626.465,-30.0619 631.649,-34.7663"/>
</g>
<!-- Node14&#45;&gt;Node1 -->
<g id="edge17" class="edge"><title>Node14&#45;&gt;Node1</title>
<path fill="none" stroke="midnightblue" d="M302.441,-128.975C278.738,-118.901 239.094,-102.053 211.917,-90.5023"/>
<polygon fill="midnightblue" stroke="midnightblue" points="213.094,-87.1994 202.521,-86.5091 210.356,-93.6417 213.094,-87.1994"/>
</g>
<!-- Node14&#45;&gt;Node3 -->
<g id="edge16" class="edge"><title>Node14&#45;&gt;Node3</title>
<path fill="none" stroke="midnightblue" d="M312.184,-128.975C300.849,-119.608 282.427,-104.384 268.661,-93.0081"/>
<polygon fill="midnightblue" stroke="midnightblue" points="270.735,-90.1813 260.797,-86.5091 266.276,-95.5773 270.735,-90.1813"/>
</g>
<!-- Node14&#45;&gt;Node4 -->
<g id="edge18" class="edge"><title>Node14&#45;&gt;Node4</title>
<path fill="none" stroke="midnightblue" d="M321.927,-128.975C321.363,-120.58 320.482,-107.481 319.755,-96.6631"/>
<polygon fill="midnightblue" stroke="midnightblue" points="323.235,-96.2518 319.072,-86.5091 316.251,-96.7214 323.235,-96.2518"/>
</g>
<!-- Node14&#45;&gt;Node7 -->
<g id="edge19" class="edge"><title>Node14&#45;&gt;Node7</title>
<path fill="none" stroke="midnightblue" d="M335.395,-128.975C349.964,-119.343 373.902,-103.517 391.245,-92.0517"/>
<polygon fill="midnightblue" stroke="midnightblue" points="393.217,-94.9437 399.629,-86.5091 389.357,-89.1044 393.217,-94.9437"/>
</g>
<!-- Node14&#45;&gt;Node12 -->
<g id="edge20" class="edge"><title>Node14&#45;&gt;Node12</title>
<path fill="none" stroke="midnightblue" d="M360.755,-128.975C408.339,-118.371 489.61,-100.26 541.375,-88.7244"/>
<polygon fill="midnightblue" stroke="midnightblue" points="542.317,-92.1005 551.316,-86.5091 540.794,-85.2681 542.317,-92.1005"/>
</g>
<!-- Node23&#45;&gt;Node12 -->
<g id="edge30" class="edge"><title>Node23&#45;&gt;Node12</title>
<path fill="none" stroke="midnightblue" d="M598.656,-123.399C597.038,-115.377 594.992,-105.233 593.245,-96.569"/>
<polygon fill="midnightblue" stroke="midnightblue" points="596.654,-95.7684 591.246,-86.6578 589.792,-97.1524 596.654,-95.7684"/>
</g>
</g>
</svg>
        <g id="navigator" transform="translate(0 0)" fill="#404254">
                <rect fill="#f2f5e9" fill-opacity="0.5" stroke="#606060" stroke-width=".5" x="0" y="0" width="60" height="60"/>
                <use id="zoomplus" xlink:href="#zoomPlus" x="17" y="9" onmousedown="handleZoom(evt,'in')"/>
                <use id="zoomminus" xlink:href="#zoomMin" x="42" y="9" onmousedown="handleZoom(evt,'out')"/>
                <use id="reset" xlink:href="#resetDef" x="30" y="36" onmousedown="handleReset()"/>
                <g id="arrowUp" xlink:href="#dirArrow" transform="translate(30 24)" onmousedown="handlePan(0,-1)">
                  <use xlink:href="#rim" fill="#404040">
                        <set attributeName="fill" to="#808080" begin="arrowUp.mouseover" end="arrowUp.mouseout"/>
                  </use>
                  <path fill="none" stroke="white" stroke-width="1.5" d="M0,-3.0v7 M-2.5,-0.5L0,-3.0L2.5,-0.5"/>
                </g>
                <g id="arrowRight" xlink:href="#dirArrow" transform="rotate(90) translate(36 -43)" onmousedown="handlePan(1,0)">
                  <use xlink:href="#rim" fill="#404040">
                        <set attributeName="fill" to="#808080" begin="arrowRight.mouseover" end="arrowRight.mouseout"/>
                  </use>
                  <path fill="none" stroke="white" stroke-width="1.5" d="M0,-3.0v7 M-2.5,-0.5L0,-3.0L2.5,-0.5"/>
                </g>
                <g id="arrowDown" xlink:href="#dirArrow" transform="rotate(180) translate(-30 -48)" onmousedown="handlePan(0,1)">
                  <use xlink:href="#rim" fill="#404040">
                        <set attributeName="fill" to="#808080" begin="arrowDown.mouseover" end="arrowDown.mouseout"/>
                  </use>
                  <path fill="none" stroke="white" stroke-width="1.5" d="M0,-3.0v7 M-2.5,-0.5L0,-3.0L2.5,-0.5"/>
                </g>
                <g id="arrowLeft" xlink:href="#dirArrow" transform="rotate(270) translate(-36 17)" onmousedown="handlePan(-1,0)">
                  <use xlink:href="#rim" fill="#404040">
                        <set attributeName="fill" to="#808080" begin="arrowLeft.mouseover" end="arrowLeft.mouseout"/>
                  </use>
                  <path fill="none" stroke="white" stroke-width="1.5" d="M0,-3.0v7 M-2.5,-0.5L0,-3.0L2.5,-0.5"/>
                </g>
        </g>
        <svg viewBox="0 0 15 15" width="100%" height="30px" preserveAspectRatio="xMaxYMin meet">
         <g id="arrow_out" transform="scale(0.3 0.3)">
          <a xlink:href="adf703x___offline_calibration_8c__incl_org.svg" target="_base">
           <rect id="button" ry="5" rx="5" y="6" x="6" height="38" width="38"
                fill="#f2f5e9" fill-opacity="0.5" stroke="#606060" stroke-width="1.0"/>
           <path id="arrow"
             d="M 11.500037,31.436501 C 11.940474,20.09759 22.043105,11.32322 32.158766,21.979434 L 37.068811,17.246167 C 37.068811,17.246167 37.088388,32 37.088388,32 L 22.160133,31.978069 C 22.160133,31.978069 26.997745,27.140456 26.997745,27.140456 C 18.528582,18.264221 13.291696,25.230495 11.500037,31.436501 z"
             style="fill:#404040;"/>
          </a>
         </g>
        </svg>
</svg>
