<?xml version="1.0" encoding="UTF-8" standalone="no"?>
<!DOCTYPE svg PUBLIC "-//W3C//DTD SVG 1.1//EN"
 "http://www.w3.org/Graphics/SVG/1.1/DTD/svg11.dtd">
<!-- Generated by graphviz version 2.38.0 (20140413.2041)
 -->
<!-- Title: adf703x_utils.c Pages: 1 -->
<svg width="1467pt" height="207pt"
 viewBox="0.00 0.00 1466.50 207.00" xmlns="http://www.w3.org/2000/svg" xmlns:xlink="http://www.w3.org/1999/xlink">
<g id="graph0" class="graph" transform="scale(1 1) rotate(0) translate(4 203)">
<title>adf703x_utils.c</title>
<polygon fill="white" stroke="none" points="-4,4 -4,-203 1462.5,-203 1462.5,4 -4,4"/>
<!-- Node0 -->
<g id="node1" class="node"><title>Node0</title>
<polygon fill="#bfbfbf" stroke="black" points="488.5,-179.5 488.5,-198.5 570.5,-198.5 570.5,-179.5 488.5,-179.5"/>
<text text-anchor="middle" x="529.5" y="-186.5" font-family="Helvetica,sans-Serif" font-size="10.00">adf703x_utils.c</text>
</g>
<!-- Node1 -->
<g id="node2" class="node"><title>Node1</title>
<polygon fill="white" stroke="#bfbfbf" points="42.5,-123.5 42.5,-142.5 120.5,-142.5 120.5,-123.5 42.5,-123.5"/>
<text text-anchor="middle" x="81.5" y="-130.5" font-family="Helvetica,sans-Serif" font-size="10.00">sys/platform.h</text>
</g>
<!-- Node0&#45;&gt;Node1 -->
<g id="edge1" class="edge"><title>Node0&#45;&gt;Node1</title>
<path fill="none" stroke="midnightblue" d="M488.464,-184.073C416.59,-177.028 263.315,-161.261 134.5,-143 133.227,-142.819 131.937,-142.632 130.636,-142.44"/>
<polygon fill="midnightblue" stroke="midnightblue" points="130.954,-138.947 120.537,-140.878 129.884,-145.865 130.954,-138.947"/>
</g>
<!-- Node2 -->
<g id="node3" class="node"><title>Node2</title>
<polygon fill="white" stroke="#bfbfbf" points="104,-67.5 104,-86.5 153,-86.5 153,-67.5 104,-67.5"/>
<text text-anchor="middle" x="128.5" y="-74.5" font-family="Helvetica,sans-Serif" font-size="10.00">string.h</text>
</g>
<!-- Node0&#45;&gt;Node2 -->
<g id="edge2" class="edge"><title>Node0&#45;&gt;Node2</title>
<path fill="none" stroke="midnightblue" d="M488.454,-188.763C426.265,-188.492 305.562,-182.323 212.5,-143 185.597,-131.632 159.828,-109.449 144.09,-94.1849"/>
<polygon fill="midnightblue" stroke="midnightblue" points="146.37,-91.5161 136.82,-86.9277 141.424,-96.4699 146.37,-91.5161"/>
</g>
<!-- Node3 -->
<g id="node4" class="node"><title>Node3</title>
<polygon fill="white" stroke="#bfbfbf" points="434.5,-123.5 434.5,-142.5 480.5,-142.5 480.5,-123.5 434.5,-123.5"/>
<text text-anchor="middle" x="457.5" y="-130.5" font-family="Helvetica,sans-Serif" font-size="10.00">stdio.h</text>
</g>
<!-- Node0&#45;&gt;Node3 -->
<g id="edge3" class="edge"><title>Node0&#45;&gt;Node3</title>
<path fill="none" stroke="midnightblue" d="M517.932,-179.324C507.08,-171.185 490.619,-158.839 477.617,-149.087"/>
<polygon fill="midnightblue" stroke="midnightblue" points="479.379,-146.034 469.279,-142.834 475.179,-151.634 479.379,-146.034"/>
</g>
<!-- Node4 -->
<g id="node5" class="node"><title>Node4</title>
<polygon fill="white" stroke="#bfbfbf" points="171,-67.5 171,-86.5 222,-86.5 222,-67.5 171,-67.5"/>
<text text-anchor="middle" x="196.5" y="-74.5" font-family="Helvetica,sans-Serif" font-size="10.00">stddef.h</text>
</g>
<!-- Node0&#45;&gt;Node4 -->
<g id="edge4" class="edge"><title>Node0&#45;&gt;Node4</title>
<path fill="none" stroke="midnightblue" d="M488.344,-186.051C417.242,-181.985 275.109,-170.578 234.5,-143 218.315,-132.008 208.066,-111.651 202.344,-96.6364"/>
<polygon fill="midnightblue" stroke="midnightblue" points="205.538,-95.1623 198.958,-86.8581 198.923,-97.4529 205.538,-95.1623"/>
</g>
<!-- Node5 -->
<g id="node6" class="node"><title>Node5</title>
<polygon fill="white" stroke="#bfbfbf" points="240.5,-67.5 240.5,-86.5 288.5,-86.5 288.5,-67.5 240.5,-67.5"/>
<text text-anchor="middle" x="264.5" y="-74.5" font-family="Helvetica,sans-Serif" font-size="10.00">stdlib.h</text>
</g>
<!-- Node0&#45;&gt;Node5 -->
<g id="edge5" class="edge"><title>Node0&#45;&gt;Node5</title>
<path fill="none" stroke="midnightblue" d="M488.46,-187.806C417.041,-186.502 274.53,-179.294 243.5,-143 231.868,-129.395 241.253,-109.237 250.915,-94.9831"/>
<polygon fill="midnightblue" stroke="midnightblue" points="253.978,-96.7256 257.086,-86.5969 248.34,-92.5766 253.978,-96.7256"/>
</g>
<!-- Node6 -->
<g id="node7" class="node"><title>Node6</title>
<polygon fill="white" stroke="#bfbfbf" points="498.5,-123.5 498.5,-142.5 560.5,-142.5 560.5,-123.5 498.5,-123.5"/>
<text text-anchor="middle" x="529.5" y="-130.5" font-family="Helvetica,sans-Serif" font-size="10.00">common.h</text>
</g>
<!-- Node0&#45;&gt;Node6 -->
<g id="edge6" class="edge"><title>Node0&#45;&gt;Node6</title>
<path fill="none" stroke="midnightblue" d="M529.5,-179.083C529.5,-172.006 529.5,-161.861 529.5,-152.986"/>
<polygon fill="midnightblue" stroke="midnightblue" points="533,-152.751 529.5,-142.751 526,-152.751 533,-152.751"/>
</g>
<!-- Node7 -->
<g id="node8" class="node"><title>Node7</title>
<g id="a_node8"><a xlink:href="adi__adf7030-1__reg_8h.html" target="_top" xlink:title=": ... ">
<polygon fill="white" stroke="black" points="306.5,-67.5 306.5,-86.5 410.5,-86.5 410.5,-67.5 306.5,-67.5"/>
<text text-anchor="middle" x="358.5" y="-74.5" font-family="Helvetica,sans-Serif" font-size="10.00">adi_adf7030&#45;1_reg.h</text>
</a>
</g>
</g>
<!-- Node0&#45;&gt;Node7 -->
<g id="edge7" class="edge"><title>Node0&#45;&gt;Node7</title>
<path fill="none" stroke="midnightblue" d="M497.676,-179.441C474.162,-172.15 442.098,-160.115 417.5,-143 398.618,-129.862 381.491,-109.62 370.614,-95.219"/>
<polygon fill="midnightblue" stroke="midnightblue" points="373.139,-92.7416 364.413,-86.732 367.487,-96.8713 373.139,-92.7416"/>
</g>
<!-- Node12 -->
<g id="node13" class="node"><title>Node12</title>
<g id="a_node13"><a xlink:href="adf7030-1____common_8h.html" target="_top" xlink:title=": ... ">
<polygon fill="white" stroke="black" points="429,-67.5 429,-86.5 544,-86.5 544,-67.5 429,-67.5"/>
<text text-anchor="middle" x="486.5" y="-74.5" font-family="Helvetica,sans-Serif" font-size="10.00">adf7030&#45;1__common.h</text>
</a>
</g>
</g>
<!-- Node0&#45;&gt;Node12 -->
<g id="edge12" class="edge"><title>Node0&#45;&gt;Node12</title>
<path fill="none" stroke="midnightblue" d="M488.397,-181.425C465.733,-175.472 439.434,-164.211 425.5,-143 412.489,-123.194 436.868,-103.826 458.562,-91.4585"/>
<polygon fill="midnightblue" stroke="midnightblue" points="460.431,-94.4271 467.578,-86.6058 457.114,-88.2632 460.431,-94.4271"/>
</g>
<!-- Node14 -->
<g id="node15" class="node"><title>Node14</title>
<g id="a_node15"><a xlink:href="adf7030-1____core_8h.html" target="_top" xlink:title=": ... ">
<polygon fill="white" stroke="black" points="578.5,-123.5 578.5,-142.5 674.5,-142.5 674.5,-123.5 578.5,-123.5"/>
<text text-anchor="middle" x="626.5" y="-130.5" font-family="Helvetica,sans-Serif" font-size="10.00">adf7030&#45;1__core.h</text>
</a>
</g>
</g>
<!-- Node0&#45;&gt;Node14 -->
<g id="edge14" class="edge"><title>Node0&#45;&gt;Node14</title>
<path fill="none" stroke="midnightblue" d="M545.085,-179.324C560.499,-170.743 584.312,-157.486 602.21,-147.522"/>
<polygon fill="midnightblue" stroke="midnightblue" points="603.919,-150.577 610.954,-142.655 600.514,-144.461 603.919,-150.577"/>
</g>
<!-- Node15 -->
<g id="node16" class="node"><title>Node15</title>
<g id="a_node16"><a xlink:href="adf7030-1____irq_8h.html" target="_top" xlink:title=": ... ">
<polygon fill="white" stroke="black" points="252.5,-123.5 252.5,-142.5 340.5,-142.5 340.5,-123.5 252.5,-123.5"/>
<text text-anchor="middle" x="296.5" y="-130.5" font-family="Helvetica,sans-Serif" font-size="10.00">adf7030&#45;1__irq.h</text>
</a>
</g>
</g>
<!-- Node0&#45;&gt;Node15 -->
<g id="edge15" class="edge"><title>Node0&#45;&gt;Node15</title>
<path fill="none" stroke="midnightblue" d="M492.58,-179.444C452.105,-170.063 387.079,-154.993 343.116,-144.804"/>
<polygon fill="midnightblue" stroke="midnightblue" points="343.779,-141.365 333.247,-142.516 342.198,-148.184 343.779,-141.365"/>
</g>
<!-- Node16 -->
<g id="node17" class="node"><title>Node16</title>
<g id="a_node17"><a xlink:href="adf7030-1____spi_8h.html" target="_top" xlink:title=": ... ">
<polygon fill="white" stroke="black" points="692.5,-123.5 692.5,-142.5 782.5,-142.5 782.5,-123.5 692.5,-123.5"/>
<text text-anchor="middle" x="737.5" y="-130.5" font-family="Helvetica,sans-Serif" font-size="10.00">adf7030&#45;1__spi.h</text>
</a>
</g>
</g>
<!-- Node0&#45;&gt;Node16 -->
<g id="edge21" class="edge"><title>Node0&#45;&gt;Node16</title>
<path fill="none" stroke="midnightblue" d="M562.458,-179.444C598.287,-170.142 655.663,-155.246 694.891,-145.062"/>
<polygon fill="midnightblue" stroke="midnightblue" points="695.896,-148.417 704.696,-142.516 694.137,-141.642 695.896,-148.417"/>
</g>
<!-- Node17 -->
<g id="node18" class="node"><title>Node17</title>
<g id="a_node18"><a xlink:href="adf7030-1____mem_8h.html" target="_top" xlink:title=": ... ">
<polygon fill="white" stroke="black" points="801,-123.5 801,-142.5 900,-142.5 900,-123.5 801,-123.5"/>
<text text-anchor="middle" x="850.5" y="-130.5" font-family="Helvetica,sans-Serif" font-size="10.00">adf7030&#45;1__mem.h</text>
</a>
</g>
</g>
<!-- Node0&#45;&gt;Node17 -->
<g id="edge22" class="edge"><title>Node0&#45;&gt;Node17</title>
<path fill="none" stroke="midnightblue" d="M570.808,-181.051C626.742,-171.641 726.923,-154.789 790.975,-144.014"/>
<polygon fill="midnightblue" stroke="midnightblue" points="791.651,-147.449 800.932,-142.339 790.49,-140.546 791.651,-147.449"/>
</g>
<!-- Node18 -->
<g id="node19" class="node"><title>Node18</title>
<g id="a_node19"><a xlink:href="adf7030-1____patch_8h.html" target="_top" xlink:title=": ... ">
<polygon fill="white" stroke="black" points="918,-123.5 918,-142.5 1019,-142.5 1019,-123.5 918,-123.5"/>
<text text-anchor="middle" x="968.5" y="-130.5" font-family="Helvetica,sans-Serif" font-size="10.00">adf7030&#45;1__patch.h</text>
</a>
</g>
</g>
<!-- Node0&#45;&gt;Node18 -->
<g id="edge23" class="edge"><title>Node0&#45;&gt;Node18</title>
<path fill="none" stroke="midnightblue" d="M570.606,-183.589C638.605,-176.192 779.028,-160.497 907.936,-143.176"/>
<polygon fill="midnightblue" stroke="midnightblue" points="908.544,-146.626 917.986,-141.819 907.607,-139.689 908.544,-146.626"/>
</g>
<!-- Node19 -->
<g id="node20" class="node"><title>Node19</title>
<g id="a_node20"><a xlink:href="adf7030-1____cfg_8h.html" target="_top" xlink:title=": ... ">
<polygon fill="white" stroke="black" points="1037.5,-123.5 1037.5,-142.5 1127.5,-142.5 1127.5,-123.5 1037.5,-123.5"/>
<text text-anchor="middle" x="1082.5" y="-130.5" font-family="Helvetica,sans-Serif" font-size="10.00">adf7030&#45;1__cfg.h</text>
</a>
</g>
</g>
<!-- Node0&#45;&gt;Node19 -->
<g id="edge24" class="edge"><title>Node0&#45;&gt;Node19</title>
<path fill="none" stroke="midnightblue" d="M570.689,-185.339C654.624,-179.688 851.69,-165.262 1027.51,-143.036"/>
<polygon fill="midnightblue" stroke="midnightblue" points="1027.98,-146.505 1037.46,-141.768 1027.09,-139.561 1027.98,-146.505"/>
</g>
<!-- Node20 -->
<g id="node21" class="node"><title>Node20</title>
<g id="a_node21"><a xlink:href="adf7030-1____state_8h.html" target="_top" xlink:title=": ... ">
<polygon fill="white" stroke="black" points="1146,-123.5 1146,-142.5 1245,-142.5 1245,-123.5 1146,-123.5"/>
<text text-anchor="middle" x="1195.5" y="-130.5" font-family="Helvetica,sans-Serif" font-size="10.00">adf7030&#45;1__state.h</text>
</a>
</g>
</g>
<!-- Node0&#45;&gt;Node20 -->
<g id="edge25" class="edge"><title>Node0&#45;&gt;Node20</title>
<path fill="none" stroke="midnightblue" d="M570.818,-186.042C667.602,-181.218 916.705,-167.429 1135.88,-142.976"/>
<polygon fill="midnightblue" stroke="midnightblue" points="1136.42,-146.438 1145.96,-141.841 1135.63,-139.482 1136.42,-146.438"/>
</g>
<!-- Node21 -->
<g id="node22" class="node"><title>Node21</title>
<g id="a_node22"><a xlink:href="adf7030-1____gpio_8h.html" target="_top" xlink:title=": ... ">
<polygon fill="white" stroke="black" points="1263,-123.5 1263,-142.5 1358,-142.5 1358,-123.5 1263,-123.5"/>
<text text-anchor="middle" x="1310.5" y="-130.5" font-family="Helvetica,sans-Serif" font-size="10.00">adf7030&#45;1__gpio.h</text>
</a>
</g>
</g>
<!-- Node0&#45;&gt;Node21 -->
<g id="edge26" class="edge"><title>Node0&#45;&gt;Node21</title>
<path fill="none" stroke="midnightblue" d="M570.5,-186.854C679.752,-183.502 987.112,-172.125 1252.66,-143.104"/>
<polygon fill="midnightblue" stroke="midnightblue" points="1253.33,-146.552 1262.88,-141.976 1252.56,-139.594 1253.33,-146.552"/>
</g>
<!-- Node22 -->
<g id="node23" class="node"><title>Node22</title>
<g id="a_node23"><a xlink:href="adf703x__utils_8h.html" target="_top" xlink:title=": ... ">
<polygon fill="white" stroke="black" points="1376.5,-123.5 1376.5,-142.5 1458.5,-142.5 1458.5,-123.5 1376.5,-123.5"/>
<text text-anchor="middle" x="1417.5" y="-130.5" font-family="Helvetica,sans-Serif" font-size="10.00">adf703x_utils.h</text>
</a>
</g>
</g>
<!-- Node0&#45;&gt;Node22 -->
<g id="edge27" class="edge"><title>Node0&#45;&gt;Node22</title>
<path fill="none" stroke="midnightblue" d="M570.636,-187.601C691.313,-186.046 1054.94,-178.619 1366.24,-142.994"/>
<polygon fill="midnightblue" stroke="midnightblue" points="1366.83,-146.45 1376.36,-141.824 1366.02,-139.496 1366.83,-146.45"/>
</g>
<!-- Node8 -->
<g id="node9" class="node"><title>Node8</title>
<g id="a_node9"><a xlink:href="____public_____a_d_f7030__1__hw__cdef_8h.html" target="_top" xlink:title=": ... ">
<polygon fill="white" stroke="black" points="151,-0.5 151,-30.5 278,-30.5 278,-0.5 151,-0.5"/>
<text text-anchor="start" x="159" y="-18.5" font-family="Helvetica,sans-Serif" font-size="10.00">adf7030&#45;1/__public</text>
<text text-anchor="middle" x="214.5" y="-7.5" font-family="Helvetica,sans-Serif" font-size="10.00">__ADF7030_1_hw_cdef.h</text>
</a>
</g>
</g>
<!-- Node7&#45;&gt;Node8 -->
<g id="edge8" class="edge"><title>Node7&#45;&gt;Node8</title>
<path fill="none" stroke="midnightblue" d="M337.868,-67.4751C317.09,-58.8895 284.401,-45.3827 257.892,-34.4291"/>
<polygon fill="midnightblue" stroke="midnightblue" points="259.017,-31.1071 248.438,-30.523 256.343,-37.5766 259.017,-31.1071"/>
</g>
<!-- Node9 -->
<g id="node10" class="node"><title>Node9</title>
<g id="a_node10"><a xlink:href="____public_____a_d_f7030__1__fw__cdef_8h.html" target="_top" xlink:title=": ... ">
<polygon fill="white" stroke="black" points="296.5,-0.5 296.5,-30.5 420.5,-30.5 420.5,-0.5 296.5,-0.5"/>
<text text-anchor="start" x="304.5" y="-18.5" font-family="Helvetica,sans-Serif" font-size="10.00">adf7030&#45;1/__public</text>
<text text-anchor="middle" x="358.5" y="-7.5" font-family="Helvetica,sans-Serif" font-size="10.00">__ADF7030_1_fw_cdef.h</text>
</a>
</g>
</g>
<!-- Node7&#45;&gt;Node9 -->
<g id="edge9" class="edge"><title>Node7&#45;&gt;Node9</title>
<path fill="none" stroke="midnightblue" d="M358.5,-67.4751C358.5,-60.471 358.5,-50.1919 358.5,-40.6956"/>
<polygon fill="midnightblue" stroke="midnightblue" points="362,-40.5229 358.5,-30.523 355,-40.523 362,-40.5229"/>
</g>
<!-- Node10 -->
<g id="node11" class="node"><title>Node10</title>
<g id="a_node11"><a xlink:href="____public_____a_d_f7030__1__hw__macro_8h.html" target="_top" xlink:title=": ... ">
<polygon fill="white" stroke="black" points="438.5,-0.5 438.5,-30.5 574.5,-30.5 574.5,-0.5 438.5,-0.5"/>
<text text-anchor="start" x="446.5" y="-18.5" font-family="Helvetica,sans-Serif" font-size="10.00">adf7030&#45;1/__public</text>
<text text-anchor="middle" x="506.5" y="-7.5" font-family="Helvetica,sans-Serif" font-size="10.00">__ADF7030_1_hw_macro.h</text>
</a>
</g>
</g>
<!-- Node7&#45;&gt;Node10 -->
<g id="edge10" class="edge"><title>Node7&#45;&gt;Node10</title>
<path fill="none" stroke="midnightblue" d="M379.705,-67.4751C401.154,-58.8518 434.952,-45.2641 462.261,-34.2852"/>
<polygon fill="midnightblue" stroke="midnightblue" points="463.647,-37.5005 471.619,-30.523 461.035,-31.0058 463.647,-37.5005"/>
</g>
<!-- Node11 -->
<g id="node12" class="node"><title>Node11</title>
<g id="a_node12"><a xlink:href="____public_____a_d_f7030__1__fw__macro_8h.html" target="_top" xlink:title=": ... ">
<polygon fill="white" stroke="black" points="0,-0.5 0,-30.5 133,-30.5 133,-0.5 0,-0.5"/>
<text text-anchor="start" x="8" y="-18.5" font-family="Helvetica,sans-Serif" font-size="10.00">adf7030&#45;1/__public</text>
<text text-anchor="middle" x="66.5" y="-7.5" font-family="Helvetica,sans-Serif" font-size="10.00">__ADF7030_1_fw_macro.h</text>
</a>
</g>
</g>
<!-- Node7&#45;&gt;Node11 -->
<g id="edge11" class="edge"><title>Node7&#45;&gt;Node11</title>
<path fill="none" stroke="midnightblue" d="M316.664,-67.4751C271.439,-58.2599 198.392,-43.3753 142.879,-32.0635"/>
<polygon fill="midnightblue" stroke="midnightblue" points="143.576,-28.6338 133.079,-30.0666 142.179,-35.4929 143.576,-28.6338"/>
</g>
<!-- Node13 -->
<g id="node14" class="node"><title>Node13</title>
<polygon fill="white" stroke="#bfbfbf" points="592.5,-6 592.5,-25 694.5,-25 694.5,-6 592.5,-6"/>
<text text-anchor="middle" x="643.5" y="-13" font-family="Helvetica,sans-Serif" font-size="10.00">drivers/spi/adi_spi.h</text>
</g>
<!-- Node12&#45;&gt;Node13 -->
<g id="edge13" class="edge"><title>Node12&#45;&gt;Node13</title>
<path fill="none" stroke="midnightblue" d="M508.994,-67.4751C535.809,-57.3129 580.815,-40.2564 611.309,-28.6996"/>
<polygon fill="midnightblue" stroke="midnightblue" points="612.937,-31.8258 621.047,-25.0091 610.456,-25.2801 612.937,-31.8258"/>
</g>
<!-- Node15&#45;&gt;Node2 -->
<g id="edge17" class="edge"><title>Node15&#45;&gt;Node2</title>
<path fill="none" stroke="midnightblue" d="M269.88,-123.444C240.91,-114.132 194.498,-99.2137 162.812,-89.0289"/>
<polygon fill="midnightblue" stroke="midnightblue" points="163.674,-85.6296 153.083,-85.9015 161.532,-92.2938 163.674,-85.6296"/>
</g>
<!-- Node15&#45;&gt;Node4 -->
<g id="edge16" class="edge"><title>Node15&#45;&gt;Node4</title>
<path fill="none" stroke="midnightblue" d="M280.433,-123.324C264.542,-114.743 239.993,-101.486 221.542,-91.5224"/>
<polygon fill="midnightblue" stroke="midnightblue" points="222.989,-88.3264 212.527,-86.6545 219.663,-94.4857 222.989,-88.3264"/>
</g>
<!-- Node15&#45;&gt;Node5 -->
<g id="edge18" class="edge"><title>Node15&#45;&gt;Node5</title>
<path fill="none" stroke="midnightblue" d="M291.216,-123.083C286.789,-115.613 280.337,-104.724 274.882,-95.5199"/>
<polygon fill="midnightblue" stroke="midnightblue" points="277.795,-93.5697 269.686,-86.7511 271.773,-97.1383 277.795,-93.5697"/>
</g>
<!-- Node15&#45;&gt;Node7 -->
<g id="edge19" class="edge"><title>Node15&#45;&gt;Node7</title>
<path fill="none" stroke="midnightblue" d="M306.461,-123.324C315.627,-115.341 329.437,-103.313 340.528,-93.6529"/>
<polygon fill="midnightblue" stroke="midnightblue" points="343.115,-96.041 348.357,-86.8339 338.518,-90.7624 343.115,-96.041"/>
</g>
<!-- Node15&#45;&gt;Node12 -->
<g id="edge20" class="edge"><title>Node15&#45;&gt;Node12</title>
<path fill="none" stroke="midnightblue" d="M326.606,-123.444C359.126,-114.201 411.079,-99.4356 446.891,-89.2572"/>
<polygon fill="midnightblue" stroke="midnightblue" points="447.873,-92.617 456.535,-86.5164 445.959,-85.8837 447.873,-92.617"/>
</g>
</g>
</svg>
