<?xml version="1.0" encoding="UTF-8" standalone="no"?>
<!DOCTYPE svg PUBLIC "-//W3C//DTD SVG 1.1//EN"
 "http://www.w3.org/Graphics/SVG/1.1/DTD/svg11.dtd">
<!-- Generated by graphviz version 2.38.0 (20140413.2041)
 -->
<!-- Title: adf7030&#45;1__patch.h Pages: 1 -->
<svg width="1018pt" height="95pt"
 viewBox="0.00 0.00 1018.00 95.00" xmlns="http://www.w3.org/2000/svg" xmlns:xlink="http://www.w3.org/1999/xlink">
<g id="graph0" class="graph" transform="scale(1 1) rotate(0) translate(4 91)">
<title>adf7030&#45;1__patch.h</title>
<polygon fill="white" stroke="none" points="-4,4 -4,-91 1014,-91 1014,4 -4,4"/>
<!-- Node1 -->
<g id="node1" class="node"><title>Node1</title>
<polygon fill="#bfbfbf" stroke="black" points="496.5,-67.5 496.5,-86.5 597.5,-86.5 597.5,-67.5 496.5,-67.5"/>
<text text-anchor="middle" x="547" y="-74.5" font-family="Helvetica,sans-Serif" font-size="10.00">adf7030&#45;1__patch.h</text>
</g>
<!-- Node2 -->
<g id="node2" class="node"><title>Node2</title>
<g id="a_node2"><a xlink:href="adf703x__tx__test__modes_8c.html" target="_top" xlink:title=": This is a test file for adf7030_1 Radio driver development. ">
<polygon fill="white" stroke="black" points="0,-6 0,-25 128,-25 128,-6 0,-6"/>
<text text-anchor="middle" x="64" y="-13" font-family="Helvetica,sans-Serif" font-size="10.00">adf703x_tx_test_modes.c</text>
</a>
</g>
</g>
<!-- Node1&#45;&gt;Node2 -->
<g id="edge1" class="edge"><title>Node1&#45;&gt;Node2</title>
<path fill="none" stroke="midnightblue" d="M485.904,-70.9619C405.601,-63.9589 260.275,-49.9716 137,-31 126.145,-29.3294 114.45,-27.1697 103.67,-25.0297"/>
<polygon fill="midnightblue" stroke="midnightblue" points="486.055,-74.4879 496.319,-71.8627 486.658,-67.514 486.055,-74.4879"/>
</g>
<!-- Node3 -->
<g id="node3" class="node"><title>Node3</title>
<g id="a_node3"><a xlink:href="adf703x__tx__test__modes__bis_8c.html" target="_top" xlink:title=": This is a test file for adf7030_1 Radio driver development. Press PB0 to transmit change tx testmod...">
<polygon fill="white" stroke="black" points="146,-0.5 146,-30.5 266,-30.5 266,-0.5 146,-0.5"/>
<text text-anchor="start" x="154" y="-18.5" font-family="Helvetica,sans-Serif" font-size="10.00">adf703x_tx_test_modes</text>
<text text-anchor="middle" x="206" y="-7.5" font-family="Helvetica,sans-Serif" font-size="10.00">_bis.c</text>
</a>
</g>
</g>
<!-- Node1&#45;&gt;Node3 -->
<g id="edge2" class="edge"><title>Node1&#45;&gt;Node3</title>
<path fill="none" stroke="midnightblue" d="M486.284,-66.724C431.074,-58.1065 347.408,-44.5911 275,-31 272.113,-30.458 269.16,-29.8902 266.18,-29.3062"/>
<polygon fill="midnightblue" stroke="midnightblue" points="485.834,-70.1959 496.253,-68.275 486.91,-63.2791 485.834,-70.1959"/>
</g>
<!-- Node4 -->
<g id="node4" class="node"><title>Node4</title>
<g id="a_node4"><a xlink:href="adf703x___offline_calibration_8c.html" target="_top" xlink:title=": This is a test file for adf7030_1 Radio driver development. ">
<polygon fill="white" stroke="black" points="284.5,-6 284.5,-25 421.5,-25 421.5,-6 284.5,-6"/>
<text text-anchor="middle" x="353" y="-13" font-family="Helvetica,sans-Serif" font-size="10.00">adf703x_OfflineCalibration.c</text>
</a>
</g>
</g>
<!-- Node1&#45;&gt;Node4 -->
<g id="edge3" class="edge"><title>Node1&#45;&gt;Node4</title>
<path fill="none" stroke="midnightblue" d="M509.597,-64.5286C471.893,-52.9647 414.574,-35.3849 380.744,-25.0091"/>
<polygon fill="midnightblue" stroke="midnightblue" points="508.618,-67.889 519.205,-67.4751 510.67,-61.1967 508.618,-67.889"/>
</g>
<!-- Node5 -->
<g id="node5" class="node"><title>Node5</title>
<g id="a_node5"><a xlink:href="adf703x___p_e_r__tx_8c.html" target="_top" xlink:title=": This is a test file for adf7030_1 Radio driver development. ">
<polygon fill="white" stroke="black" points="440,-6 440,-25 538,-25 538,-6 440,-6"/>
<text text-anchor="middle" x="489" y="-13" font-family="Helvetica,sans-Serif" font-size="10.00">adf703x_PER_tx.c</text>
</a>
</g>
</g>
<!-- Node1&#45;&gt;Node5 -->
<g id="edge4" class="edge"><title>Node1&#45;&gt;Node5</title>
<path fill="none" stroke="midnightblue" d="M531.401,-59.9975C520.423,-48.7356 506.161,-34.1044 497.295,-25.0091"/>
<polygon fill="midnightblue" stroke="midnightblue" points="529.203,-62.7574 538.69,-67.4751 534.216,-57.8712 529.203,-62.7574"/>
</g>
<!-- Node6 -->
<g id="node6" class="node"><title>Node6</title>
<g id="a_node6"><a xlink:href="adf703x___p_e_r__rx_8c.html" target="_top" xlink:title=": This is a test file for adf7030_1 Radio driver development. ">
<polygon fill="white" stroke="black" points="556,-6 556,-25 654,-25 654,-6 556,-6"/>
<text text-anchor="middle" x="605" y="-13" font-family="Helvetica,sans-Serif" font-size="10.00">adf703x_PER_rx.c</text>
</a>
</g>
</g>
<!-- Node1&#45;&gt;Node6 -->
<g id="edge5" class="edge"><title>Node1&#45;&gt;Node6</title>
<path fill="none" stroke="midnightblue" d="M562.599,-59.9975C573.577,-48.7356 587.839,-34.1044 596.705,-25.0091"/>
<polygon fill="midnightblue" stroke="midnightblue" points="559.784,-57.8712 555.31,-67.4751 564.797,-62.7574 559.784,-57.8712"/>
</g>
<!-- Node7 -->
<g id="node7" class="node"><title>Node7</title>
<g id="a_node7"><a xlink:href="adf703x___t_x__packet_8c.html" target="_top" xlink:title=": This is a test file for adf7030_1 Radio driver development. ">
<polygon fill="white" stroke="black" points="672.5,-6 672.5,-25 781.5,-25 781.5,-6 672.5,-6"/>
<text text-anchor="middle" x="727" y="-13" font-family="Helvetica,sans-Serif" font-size="10.00">adf703x_TX_packet.c</text>
</a>
</g>
</g>
<!-- Node1&#45;&gt;Node7 -->
<g id="edge6" class="edge"><title>Node1&#45;&gt;Node7</title>
<path fill="none" stroke="midnightblue" d="M582.601,-64.232C617.59,-52.666 670.136,-35.2966 701.258,-25.0091"/>
<polygon fill="midnightblue" stroke="midnightblue" points="581.186,-61.0134 572.79,-67.4751 583.383,-67.6597 581.186,-61.0134"/>
</g>
<!-- Node8 -->
<g id="node8" class="node"><title>Node8</title>
<g id="a_node8"><a xlink:href="adf703x___r_x__packet_8c.html" target="_top" xlink:title=": This is a test file for adf7030_1 Radio driver development. ">
<polygon fill="white" stroke="black" points="800,-6 800,-25 910,-25 910,-6 800,-6"/>
<text text-anchor="middle" x="855" y="-13" font-family="Helvetica,sans-Serif" font-size="10.00">adf703x_RX_packet.c</text>
</a>
</g>
</g>
<!-- Node1&#45;&gt;Node8 -->
<g id="edge7" class="edge"><title>Node1&#45;&gt;Node8</title>
<path fill="none" stroke="midnightblue" d="M606.544,-65.712C656.028,-56.9957 728.235,-43.8924 791,-31 799.928,-29.1662 809.526,-27.0625 818.503,-25.0367"/>
<polygon fill="midnightblue" stroke="midnightblue" points="605.894,-62.2724 596.65,-67.4495 607.105,-69.1669 605.894,-62.2724"/>
</g>
<!-- Node9 -->
<g id="node9" class="node"><title>Node9</title>
<g id="a_node9"><a xlink:href="adf703x__utils_8c.html" target="_top" xlink:title=": This file contains a collection of small general purpose routines used in various tests...">
<polygon fill="white" stroke="black" points="928,-6 928,-25 1010,-25 1010,-6 928,-6"/>
<text text-anchor="middle" x="969" y="-13" font-family="Helvetica,sans-Serif" font-size="10.00">adf703x_utils.c</text>
</a>
</g>
</g>
<!-- Node1&#45;&gt;Node9 -->
<g id="edge8" class="edge"><title>Node1&#45;&gt;Node9</title>
<path fill="none" stroke="midnightblue" d="M607.736,-71.6893C681.786,-65.738 810.487,-53.1459 919,-31 926.704,-29.4276 934.947,-27.2493 942.472,-25.0585"/>
<polygon fill="midnightblue" stroke="midnightblue" points="607.351,-68.2087 597.657,-72.4853 607.902,-75.187 607.351,-68.2087"/>
</g>
</g>
</svg>
