<?xml version="1.0" encoding="UTF-8" standalone="no"?>
<!DOCTYPE svg PUBLIC "-//W3C//DTD SVG 1.1//EN"
 "http://www.w3.org/Graphics/SVG/1.1/DTD/svg11.dtd">
<!-- Generated by graphviz version 2.38.0 (20140413.2041)
 -->
<!-- Title: adf7030&#45;1__common.h Pages: 1 -->
<!--zoomable 151 -->
<svg id="main" version="1.1" xmlns="http://www.w3.org/2000/svg" xmlns:xlink="http://www.w3.org/1999/xlink" xml:space="preserve" onload="init(evt)">
<style type="text/css"><![CDATA[
.edge:hover path { stroke: red; }
.edge:hover polygon { stroke: red; fill: red; }
]]></style>
<script type="text/javascript"><![CDATA[
var edges = document.getElementsByTagName('g');
if (edges && edges.length) {
  for (var i=0;i<edges.length;i++) {
    if (edges[i].id.substr(0,4)=='edge') {
      edges[i].setAttribute('class','edge');
    }
  }
}
]]></script>
        <defs>
                <circle id="rim" cx="0" cy="0" r="7"/>
                <circle id="rim2" cx="0" cy="0" r="3.5"/>
                <g id="zoomPlus">
                        <use xlink:href="#rim" fill="#404040">
                                <set attributeName="fill" to="#808080" begin="zoomplus.mouseover" end="zoomplus.mouseout"/>
                        </use>
                        <path d="M-4,0h8M0,-4v8" fill="none" stroke="white" stroke-width="1.5" pointer-events="none"/>
                </g>
                <g id="zoomMin">
                        <use xlink:href="#rim" fill="#404040">
                                <set attributeName="fill" to="#808080" begin="zoomminus.mouseover" end="zoomminus.mouseout"/>
                        </use>
                        <path d="M-4,0h8" fill="none" stroke="white" stroke-width="1.5" pointer-events="none"/>
                </g>
                <g id="dirArrow">
                        <path fill="none" stroke="white" stroke-width="1.5" d="M0,-3.0v7 M-2.5,-0.5L0,-3.0L2.5,-0.5"/>
                </g>
               <g id="resetDef">
                       <use xlink:href="#rim2" fill="#404040">
                               <set attributeName="fill" to="#808080" begin="reset.mouseover" end="reset.mouseout"/>
                       </use>
               </g>
        </defs>

<script type="text/javascript">
var viewWidth = 1018;
var viewHeight = 151;
var sectionId = 'dynsection-1';
</script>
<script xlink:href="svgpan.js"/>
<svg id="graph" class="graph">
<g id="viewport">
<title>adf7030&#45;1__common.h</title>
<polygon fill="white" stroke="none" points="-4,4 -4,-147 1014,-147 1014,4 -4,4"/>
<!-- Node2 -->
<g id="node1" class="node"><title>Node2</title>
<polygon fill="#bfbfbf" stroke="black" points="506.5,-123.5 506.5,-142.5 621.5,-142.5 621.5,-123.5 506.5,-123.5"/>
<text text-anchor="middle" x="564" y="-130.5" font-family="Helvetica,sans-Serif" font-size="10.00">adf7030&#45;1__common.h</text>
</g>
<!-- Node3 -->
<g id="node2" class="node"><title>Node3</title>
<g id="a_node2"><a xlink:href="adf7030-1____irq_8h.html" target="_top" xlink:title=": ... ">
<polygon fill="white" stroke="black" points="556,-67.5 556,-86.5 644,-86.5 644,-67.5 556,-67.5"/>
<text text-anchor="middle" x="600" y="-74.5" font-family="Helvetica,sans-Serif" font-size="10.00">adf7030&#45;1__irq.h</text>
</a>
</g>
</g>
<!-- Node2&#45;&gt;Node3 -->
<g id="edge1" class="edge"><title>Node2&#45;&gt;Node3</title>
<path fill="none" stroke="midnightblue" d="M575.623,-114.566C581.817,-105.275 589.168,-94.2484 594.166,-86.7511"/>
<polygon fill="midnightblue" stroke="midnightblue" points="572.58,-112.821 569.945,-123.083 578.404,-116.704 572.58,-112.821"/>
</g>
<!-- Node4 -->
<g id="node3" class="node"><title>Node4</title>
<g id="a_node3"><a xlink:href="adf703x__tx__test__modes_8c.html" target="_top" xlink:title=": This is a test file for adf7030_1 Radio driver development. ">
<polygon fill="white" stroke="black" points="0,-6 0,-25 128,-25 128,-6 0,-6"/>
<text text-anchor="middle" x="64" y="-13" font-family="Helvetica,sans-Serif" font-size="10.00">adf703x_tx_test_modes.c</text>
</a>
</g>
</g>
<!-- Node2&#45;&gt;Node4 -->
<g id="edge18" class="edge"><title>Node2&#45;&gt;Node4</title>
<path fill="none" stroke="midnightblue" d="M498.198,-121.86C447.798,-113.671 376.677,-101.201 315,-87 232.738,-68.059 137.12,-39.2988 91.2651,-25.0789"/>
<polygon fill="midnightblue" stroke="midnightblue" points="497.88,-125.354 508.31,-123.491 498.995,-118.443 497.88,-125.354"/>
</g>
<!-- Node5 -->
<g id="node4" class="node"><title>Node5</title>
<g id="a_node4"><a xlink:href="adf703x__tx__test__modes__bis_8c.html" target="_top" xlink:title=": This is a test file for adf7030_1 Radio driver development. Press PB0 to transmit change tx testmod...">
<polygon fill="white" stroke="black" points="302,-0.5 302,-30.5 422,-30.5 422,-0.5 302,-0.5"/>
<text text-anchor="start" x="310" y="-18.5" font-family="Helvetica,sans-Serif" font-size="10.00">adf703x_tx_test_modes</text>
<text text-anchor="middle" x="362" y="-7.5" font-family="Helvetica,sans-Serif" font-size="10.00">_bis.c</text>
</a>
</g>
</g>
<!-- Node2&#45;&gt;Node5 -->
<g id="edge19" class="edge"><title>Node2&#45;&gt;Node5</title>
<path fill="none" stroke="midnightblue" d="M496.228,-122.656C451.213,-115.116 397.472,-103.111 381,-87 365.866,-72.1975 362.392,-46.7062 361.805,-30.7709"/>
<polygon fill="midnightblue" stroke="midnightblue" points="495.84,-126.138 506.272,-124.289 496.964,-119.229 495.84,-126.138"/>
</g>
<!-- Node6 -->
<g id="node5" class="node"><title>Node6</title>
<g id="a_node5"><a xlink:href="adf703x___offline_calibration_8c.html" target="_top" xlink:title=": This is a test file for adf7030_1 Radio driver development. ">
<polygon fill="white" stroke="black" points="146.5,-6 146.5,-25 283.5,-25 283.5,-6 146.5,-6"/>
<text text-anchor="middle" x="215" y="-13" font-family="Helvetica,sans-Serif" font-size="10.00">adf703x_OfflineCalibration.c</text>
</a>
</g>
</g>
<!-- Node2&#45;&gt;Node6 -->
<g id="edge20" class="edge"><title>Node2&#45;&gt;Node6</title>
<path fill="none" stroke="midnightblue" d="M501.941,-121.561C462.19,-114 409.839,-102.402 365,-87 313.838,-69.4257 256.924,-39.6425 230.299,-25.0602"/>
<polygon fill="midnightblue" stroke="midnightblue" points="501.549,-125.049 512.022,-123.444 502.835,-118.167 501.549,-125.049"/>
</g>
<!-- Node7 -->
<g id="node6" class="node"><title>Node7</title>
<g id="a_node6"><a xlink:href="adf703x___p_e_r__tx_8c.html" target="_top" xlink:title=": This is a test file for adf7030_1 Radio driver development. ">
<polygon fill="white" stroke="black" points="440,-6 440,-25 538,-25 538,-6 440,-6"/>
<text text-anchor="middle" x="489" y="-13" font-family="Helvetica,sans-Serif" font-size="10.00">adf703x_PER_tx.c</text>
</a>
</g>
</g>
<!-- Node2&#45;&gt;Node7 -->
<g id="edge21" class="edge"><title>Node2&#45;&gt;Node7</title>
<path fill="none" stroke="midnightblue" d="M552.86,-114.844C536.634,-89.8568 507.088,-44.3554 494.703,-25.282"/>
<polygon fill="midnightblue" stroke="midnightblue" points="549.981,-116.838 558.363,-123.319 555.852,-113.026 549.981,-116.838"/>
</g>
<!-- Node8 -->
<g id="node7" class="node"><title>Node8</title>
<g id="a_node7"><a xlink:href="adf703x___p_e_r__rx_8c.html" target="_top" xlink:title=": This is a test file for adf7030_1 Radio driver development. ">
<polygon fill="white" stroke="black" points="556,-6 556,-25 654,-25 654,-6 556,-6"/>
<text text-anchor="middle" x="605" y="-13" font-family="Helvetica,sans-Serif" font-size="10.00">adf703x_PER_rx.c</text>
</a>
</g>
</g>
<!-- Node2&#45;&gt;Node8 -->
<g id="edge22" class="edge"><title>Node2&#45;&gt;Node8</title>
<path fill="none" stroke="midnightblue" d="M610.272,-119.728C626.689,-112.904 643.447,-102.535 653,-87 667.117,-64.0441 636.9,-38.0956 618.252,-25.0123"/>
<polygon fill="midnightblue" stroke="midnightblue" points="608.817,-116.537 600.702,-123.349 611.294,-123.084 608.817,-116.537"/>
</g>
<!-- Node9 -->
<g id="node8" class="node"><title>Node9</title>
<g id="a_node8"><a xlink:href="adf703x___t_x__packet_8c.html" target="_top" xlink:title=": This is a test file for adf7030_1 Radio driver development. ">
<polygon fill="white" stroke="black" points="800.5,-6 800.5,-25 909.5,-25 909.5,-6 800.5,-6"/>
<text text-anchor="middle" x="855" y="-13" font-family="Helvetica,sans-Serif" font-size="10.00">adf703x_TX_packet.c</text>
</a>
</g>
</g>
<!-- Node2&#45;&gt;Node9 -->
<g id="edge23" class="edge"><title>Node2&#45;&gt;Node9</title>
<path fill="none" stroke="midnightblue" d="M600.153,-120.343C626.394,-111.674 662.643,-99.2704 694,-87 746.569,-66.4294 807.239,-38.7724 836.848,-25.0137"/>
<polygon fill="midnightblue" stroke="midnightblue" points="599.026,-117.029 590.617,-123.474 601.21,-123.68 599.026,-117.029"/>
</g>
<!-- Node10 -->
<g id="node9" class="node"><title>Node10</title>
<g id="a_node9"><a xlink:href="adf703x___r_x__packet_8c.html" target="_top" xlink:title=": This is a test file for adf7030_1 Radio driver development. ">
<polygon fill="white" stroke="black" points="672,-6 672,-25 782,-25 782,-6 672,-6"/>
<text text-anchor="middle" x="727" y="-13" font-family="Helvetica,sans-Serif" font-size="10.00">adf703x_RX_packet.c</text>
</a>
</g>
</g>
<!-- Node2&#45;&gt;Node10 -->
<g id="edge24" class="edge"><title>Node2&#45;&gt;Node10</title>
<path fill="none" stroke="midnightblue" d="M603.547,-120.117C624.302,-112.679 649.415,-101.693 669,-87 692.582,-69.3091 712.514,-40.1088 721.651,-25.4626"/>
<polygon fill="midnightblue" stroke="midnightblue" points="602.37,-116.821 594.053,-123.385 604.648,-123.44 602.37,-116.821"/>
</g>
<!-- Node11 -->
<g id="node10" class="node"><title>Node11</title>
<g id="a_node10"><a xlink:href="adf703x__utils_8c.html" target="_top" xlink:title=": This file contains a collection of small general purpose routines used in various tests...">
<polygon fill="white" stroke="black" points="928,-6 928,-25 1010,-25 1010,-6 928,-6"/>
<text text-anchor="middle" x="969" y="-13" font-family="Helvetica,sans-Serif" font-size="10.00">adf703x_utils.c</text>
</a>
</g>
</g>
<!-- Node2&#45;&gt;Node11 -->
<g id="edge25" class="edge"><title>Node2&#45;&gt;Node11</title>
<path fill="none" stroke="midnightblue" d="M606.702,-120.805C640.491,-111.872 688.842,-98.9221 731,-87 807.094,-65.4813 896.384,-38.5889 940.855,-25.0828"/>
<polygon fill="midnightblue" stroke="midnightblue" points="605.482,-117.507 596.706,-123.443 607.268,-124.276 605.482,-117.507"/>
</g>
<!-- Node12 -->
<g id="node11" class="node"><title>Node12</title>
<g id="a_node11"><a xlink:href="_u_s_e_r___c_o_n_f_i_g__20_8h.html" target="_top" xlink:title="Firmware header file containing defaults configuration. ">
<polygon fill="white" stroke="black" points="390,-67.5 390,-86.5 500,-86.5 500,-67.5 390,-67.5"/>
<text text-anchor="middle" x="445" y="-74.5" font-family="Helvetica,sans-Serif" font-size="10.00">USER_CONFIG_20.h</text>
</a>
</g>
</g>
<!-- Node2&#45;&gt;Node12 -->
<g id="edge10" class="edge"><title>Node2&#45;&gt;Node12</title>
<path fill="none" stroke="midnightblue" d="M535.863,-119.232C513.604,-109.131 483.144,-95.3091 463.768,-86.5164"/>
<polygon fill="midnightblue" stroke="midnightblue" points="534.591,-122.498 545.144,-123.444 537.484,-116.124 534.591,-122.498"/>
</g>
<!-- Node3&#45;&gt;Node4 -->
<g id="edge2" class="edge"><title>Node3&#45;&gt;Node4</title>
<path fill="none" stroke="midnightblue" d="M545.265,-70.5678C533.313,-69.3869 520.732,-68.1478 509,-67 343.684,-50.8259 301.332,-55.2107 137,-31 126.006,-29.3803 114.161,-27.2125 103.276,-25.0476"/>
<polygon fill="midnightblue" stroke="midnightblue" points="545.272,-74.0855 555.568,-71.5867 545.961,-67.1195 545.272,-74.0855"/>
</g>
<!-- Node3&#45;&gt;Node5 -->
<g id="edge3" class="edge"><title>Node3&#45;&gt;Node5</title>
<path fill="none" stroke="midnightblue" d="M555.933,-64.9834C517.061,-55.2651 460.201,-41.0503 418.092,-30.523"/>
<polygon fill="midnightblue" stroke="midnightblue" points="555.35,-68.4452 565.9,-67.4751 557.048,-61.6542 555.35,-68.4452"/>
</g>
<!-- Node3&#45;&gt;Node6 -->
<g id="edge4" class="edge"><title>Node3&#45;&gt;Node6</title>
<path fill="none" stroke="midnightblue" d="M545.709,-68.6816C484.28,-60.2524 381.285,-45.6709 293,-31 282.13,-29.1937 270.437,-27.1003 259.496,-25.0757"/>
<polygon fill="midnightblue" stroke="midnightblue" points="545.56,-72.1937 555.942,-70.0815 546.509,-65.2583 545.56,-72.1937"/>
</g>
<!-- Node3&#45;&gt;Node7 -->
<g id="edge5" class="edge"><title>Node3&#45;&gt;Node7</title>
<path fill="none" stroke="midnightblue" d="M575.21,-62.7118C553.712,-51.1881 523.242,-34.855 504.874,-25.0091"/>
<polygon fill="midnightblue" stroke="midnightblue" points="573.629,-65.8354 584.096,-67.4751 576.936,-59.6659 573.629,-65.8354"/>
</g>
<!-- Node3&#45;&gt;Node8 -->
<g id="edge6" class="edge"><title>Node3&#45;&gt;Node8</title>
<path fill="none" stroke="midnightblue" d="M601.57,-57.3165C602.479,-46.4962 603.58,-33.398 604.285,-25.0091"/>
<polygon fill="midnightblue" stroke="midnightblue" points="598.066,-57.2171 600.716,-67.4751 605.042,-57.8033 598.066,-57.2171"/>
</g>
<!-- Node3&#45;&gt;Node9 -->
<g id="edge7" class="edge"><title>Node3&#45;&gt;Node9</title>
<path fill="none" stroke="midnightblue" d="M646.345,-65.1862C695.826,-53.6406 773.213,-35.5835 818.532,-25.0091"/>
<polygon fill="midnightblue" stroke="midnightblue" points="645.478,-61.7943 636.535,-67.4751 647.069,-68.6112 645.478,-61.7943"/>
</g>
<!-- Node3&#45;&gt;Node10 -->
<g id="edge8" class="edge"><title>Node3&#45;&gt;Node10</title>
<path fill="none" stroke="midnightblue" d="M627.376,-63.1742C652.019,-51.6287 687.539,-34.9875 708.838,-25.0091"/>
<polygon fill="midnightblue" stroke="midnightblue" points="625.767,-60.0631 618.196,-67.4751 628.736,-66.4019 625.767,-60.0631"/>
</g>
<!-- Node3&#45;&gt;Node11 -->
<g id="edge9" class="edge"><title>Node3&#45;&gt;Node11</title>
<path fill="none" stroke="midnightblue" d="M654.251,-70.6036C717.866,-63.7508 826.284,-50.4326 918,-31 925.744,-29.3591 934.041,-27.1843 941.645,-25.0195"/>
<polygon fill="midnightblue" stroke="midnightblue" points="653.627,-67.1501 644.053,-71.6879 654.367,-74.1108 653.627,-67.1501"/>
</g>
<!-- Node12&#45;&gt;Node4 -->
<g id="edge11" class="edge"><title>Node12&#45;&gt;Node4</title>
<path fill="none" stroke="midnightblue" d="M379.681,-67.4406C317.23,-59.0247 220.49,-45.3813 137,-31 126.686,-29.2233 115.59,-27.1193 105.24,-25.073"/>
<polygon fill="midnightblue" stroke="midnightblue" points="379.408,-70.9352 389.784,-68.7968 380.339,-63.9974 379.408,-70.9352"/>
</g>
<!-- Node12&#45;&gt;Node5 -->
<g id="edge12" class="edge"><title>Node12&#45;&gt;Node5</title>
<path fill="none" stroke="midnightblue" d="M424.728,-61.468C411.587,-52.0474 394.559,-39.8408 381.561,-30.523"/>
<polygon fill="midnightblue" stroke="midnightblue" points="422.941,-64.4934 433.108,-67.4751 427.02,-58.8042 422.941,-64.4934"/>
</g>
<!-- Node12&#45;&gt;Node6 -->
<g id="edge13" class="edge"><title>Node12&#45;&gt;Node6</title>
<path fill="none" stroke="midnightblue" d="M402.357,-64.9685C357.696,-53.4147 288.512,-35.5173 247.892,-25.0091"/>
<polygon fill="midnightblue" stroke="midnightblue" points="401.489,-68.359 412.047,-67.4751 403.242,-61.5821 401.489,-68.359"/>
</g>
<!-- Node12&#45;&gt;Node7 -->
<g id="edge14" class="edge"><title>Node12&#45;&gt;Node7</title>
<path fill="none" stroke="midnightblue" d="M457.322,-59.3377C465.581,-48.1694 476.112,-33.9278 482.708,-25.0091"/>
<polygon fill="midnightblue" stroke="midnightblue" points="454.436,-57.3537 451.304,-67.4751 460.064,-61.5158 454.436,-57.3537"/>
</g>
<!-- Node12&#45;&gt;Node8 -->
<g id="edge15" class="edge"><title>Node12&#45;&gt;Node8</title>
<path fill="none" stroke="midnightblue" d="M477.449,-63.9329C508.547,-52.3683 554.692,-35.2083 582.118,-25.0091"/>
<polygon fill="midnightblue" stroke="midnightblue" points="476.077,-60.709 467.924,-67.4751 478.517,-67.27 476.077,-60.709"/>
</g>
<!-- Node12&#45;&gt;Node9 -->
<g id="edge16" class="edge"><title>Node12&#45;&gt;Node9</title>
<path fill="none" stroke="midnightblue" d="M510.038,-69.3767C579.787,-61.8461 693.656,-48.3184 791,-31 800.422,-29.3238 810.551,-27.1864 819.91,-25.071"/>
<polygon fill="midnightblue" stroke="midnightblue" points="509.645,-65.8987 500.074,-70.444 510.39,-72.8589 509.645,-65.8987"/>
</g>
<!-- Node12&#45;&gt;Node10 -->
<g id="edge17" class="edge"><title>Node12&#45;&gt;Node10</title>
<path fill="none" stroke="midnightblue" d="M497.597,-65.4379C541.789,-56.493 606.584,-43.2124 663,-31 671.685,-29.1199 681.019,-27.0394 689.8,-25.0551"/>
<polygon fill="midnightblue" stroke="midnightblue" points="496.767,-62.0348 487.659,-67.4467 498.154,-68.896 496.767,-62.0348"/>
</g>
</g>
</svg>
        <g id="navigator" transform="translate(0 0)" fill="#404254">
                <rect fill="#f2f5e9" fill-opacity="0.5" stroke="#606060" stroke-width=".5" x="0" y="0" width="60" height="60"/>
                <use id="zoomplus" xlink:href="#zoomPlus" x="17" y="9" onmousedown="handleZoom(evt,'in')"/>
                <use id="zoomminus" xlink:href="#zoomMin" x="42" y="9" onmousedown="handleZoom(evt,'out')"/>
                <use id="reset" xlink:href="#resetDef" x="30" y="36" onmousedown="handleReset()"/>
                <g id="arrowUp" xlink:href="#dirArrow" transform="translate(30 24)" onmousedown="handlePan(0,-1)">
                  <use xlink:href="#rim" fill="#404040">
                        <set attributeName="fill" to="#808080" begin="arrowUp.mouseover" end="arrowUp.mouseout"/>
                  </use>
                  <path fill="none" stroke="white" stroke-width="1.5" d="M0,-3.0v7 M-2.5,-0.5L0,-3.0L2.5,-0.5"/>
                </g>
                <g id="arrowRight" xlink:href="#dirArrow" transform="rotate(90) translate(36 -43)" onmousedown="handlePan(1,0)">
                  <use xlink:href="#rim" fill="#404040">
                        <set attributeName="fill" to="#808080" begin="arrowRight.mouseover" end="arrowRight.mouseout"/>
                  </use>
                  <path fill="none" stroke="white" stroke-width="1.5" d="M0,-3.0v7 M-2.5,-0.5L0,-3.0L2.5,-0.5"/>
                </g>
                <g id="arrowDown" xlink:href="#dirArrow" transform="rotate(180) translate(-30 -48)" onmousedown="handlePan(0,1)">
                  <use xlink:href="#rim" fill="#404040">
                        <set attributeName="fill" to="#808080" begin="arrowDown.mouseover" end="arrowDown.mouseout"/>
                  </use>
                  <path fill="none" stroke="white" stroke-width="1.5" d="M0,-3.0v7 M-2.5,-0.5L0,-3.0L2.5,-0.5"/>
                </g>
                <g id="arrowLeft" xlink:href="#dirArrow" transform="rotate(270) translate(-36 17)" onmousedown="handlePan(-1,0)">
                  <use xlink:href="#rim" fill="#404040">
                        <set attributeName="fill" to="#808080" begin="arrowLeft.mouseover" end="arrowLeft.mouseout"/>
                  </use>
                  <path fill="none" stroke="white" stroke-width="1.5" d="M0,-3.0v7 M-2.5,-0.5L0,-3.0L2.5,-0.5"/>
                </g>
        </g>
        <svg viewBox="0 0 15 15" width="100%" height="30px" preserveAspectRatio="xMaxYMin meet">
         <g id="arrow_out" transform="scale(0.3 0.3)">
          <a xlink:href="adf7030-1____common_8h__dep__incl_org.svg" target="_base">
           <rect id="button" ry="5" rx="5" y="6" x="6" height="38" width="38"
                fill="#f2f5e9" fill-opacity="0.5" stroke="#606060" stroke-width="1.0"/>
           <path id="arrow"
             d="M 11.500037,31.436501 C 11.940474,20.09759 22.043105,11.32322 32.158766,21.979434 L 37.068811,17.246167 C 37.068811,17.246167 37.088388,32 37.088388,32 L 22.160133,31.978069 C 22.160133,31.978069 26.997745,27.140456 26.997745,27.140456 C 18.528582,18.264221 13.291696,25.230495 11.500037,31.436501 z"
             style="fill:#404040;"/>
          </a>
         </g>
        </svg>
</svg>
