<?xml version="1.0" encoding="UTF-8" standalone="no"?>
<!DOCTYPE svg PUBLIC "-//W3C//DTD SVG 1.1//EN"
 "http://www.w3.org/Graphics/SVG/1.1/DTD/svg11.dtd">
<!-- Generated by graphviz version 2.38.0 (20140413.2041)
 -->
<!-- Title: adf703x_PER_rx.c Pages: 1 -->
<svg width="1855pt" height="218pt"
 viewBox="0.00 0.00 1855.00 218.00" xmlns="http://www.w3.org/2000/svg" xmlns:xlink="http://www.w3.org/1999/xlink">
<g id="graph0" class="graph" transform="scale(1 1) rotate(0) translate(4 214)">
<title>adf703x_PER_rx.c</title>
<polygon fill="white" stroke="none" points="-4,4 -4,-214 1851,-214 1851,4 -4,4"/>
<!-- Node0 -->
<g id="node1" class="node"><title>Node0</title>
<polygon fill="#bfbfbf" stroke="black" points="731.5,-190.5 731.5,-209.5 829.5,-209.5 829.5,-190.5 731.5,-190.5"/>
<text text-anchor="middle" x="780.5" y="-197.5" font-family="Helvetica,sans-Serif" font-size="10.00">adf703x_PER_rx.c</text>
</g>
<!-- Node1 -->
<g id="node2" class="node"><title>Node1</title>
<polygon fill="white" stroke="#bfbfbf" points="137,-67.5 137,-86.5 186,-86.5 186,-67.5 137,-67.5"/>
<text text-anchor="middle" x="161.5" y="-74.5" font-family="Helvetica,sans-Serif" font-size="10.00">string.h</text>
</g>
<!-- Node0&#45;&gt;Node1 -->
<g id="edge1" class="edge"><title>Node0&#45;&gt;Node1</title>
<path fill="none" stroke="midnightblue" d="M731.19,-198.475C617.501,-196.674 340.179,-188.743 254.5,-154 221.992,-140.818 192.047,-112.139 175.335,-94.0251"/>
<polygon fill="midnightblue" stroke="midnightblue" points="177.907,-91.6503 168.626,-86.5392 172.694,-96.3221 177.907,-91.6503"/>
</g>
<!-- Node2 -->
<g id="node3" class="node"><title>Node2</title>
<polygon fill="white" stroke="#bfbfbf" points="685.5,-129 685.5,-148 731.5,-148 731.5,-129 685.5,-129"/>
<text text-anchor="middle" x="708.5" y="-136" font-family="Helvetica,sans-Serif" font-size="10.00">stdio.h</text>
</g>
<!-- Node0&#45;&gt;Node2 -->
<g id="edge2" class="edge"><title>Node0&#45;&gt;Node2</title>
<path fill="none" stroke="midnightblue" d="M770.184,-190.475C758.849,-181.108 740.427,-165.884 726.661,-154.508"/>
<polygon fill="midnightblue" stroke="midnightblue" points="728.735,-151.681 718.797,-148.009 724.276,-157.077 728.735,-151.681"/>
</g>
<!-- Node3 -->
<g id="node4" class="node"><title>Node3</title>
<polygon fill="white" stroke="#bfbfbf" points="204,-67.5 204,-86.5 255,-86.5 255,-67.5 204,-67.5"/>
<text text-anchor="middle" x="229.5" y="-74.5" font-family="Helvetica,sans-Serif" font-size="10.00">stddef.h</text>
</g>
<!-- Node0&#45;&gt;Node3 -->
<g id="edge3" class="edge"><title>Node0&#45;&gt;Node3</title>
<path fill="none" stroke="midnightblue" d="M731.343,-199.233C622.887,-198.991 366.758,-194.058 291.5,-154 267.149,-141.039 248.789,-114.047 238.59,-95.9729"/>
<polygon fill="midnightblue" stroke="midnightblue" points="241.586,-94.1543 233.776,-86.9947 235.417,-97.4618 241.586,-94.1543"/>
</g>
<!-- Node4 -->
<g id="node5" class="node"><title>Node4</title>
<polygon fill="white" stroke="#bfbfbf" points="273.5,-67.5 273.5,-86.5 321.5,-86.5 321.5,-67.5 273.5,-67.5"/>
<text text-anchor="middle" x="297.5" y="-74.5" font-family="Helvetica,sans-Serif" font-size="10.00">stdlib.h</text>
</g>
<!-- Node0&#45;&gt;Node4 -->
<g id="edge4" class="edge"><title>Node0&#45;&gt;Node4</title>
<path fill="none" stroke="midnightblue" d="M731.227,-197.691C616.445,-194.17 338.675,-182.741 308.5,-154 293.295,-139.518 292.636,-114.089 294.379,-96.664"/>
<polygon fill="midnightblue" stroke="midnightblue" points="297.873,-96.9434 295.743,-86.5649 290.936,-96.0064 297.873,-96.9434"/>
</g>
<!-- Node5 -->
<g id="node6" class="node"><title>Node5</title>
<polygon fill="white" stroke="#bfbfbf" points="749.5,-129 749.5,-148 811.5,-148 811.5,-129 749.5,-129"/>
<text text-anchor="middle" x="780.5" y="-136" font-family="Helvetica,sans-Serif" font-size="10.00">common.h</text>
</g>
<!-- Node0&#45;&gt;Node5 -->
<g id="edge5" class="edge"><title>Node0&#45;&gt;Node5</title>
<path fill="none" stroke="midnightblue" d="M780.5,-190.475C780.5,-182.08 780.5,-168.981 780.5,-158.163"/>
<polygon fill="midnightblue" stroke="midnightblue" points="784,-158.009 780.5,-148.009 777,-158.009 784,-158.009"/>
</g>
<!-- Node6 -->
<g id="node7" class="node"><title>Node6</title>
<polygon fill="white" stroke="#bfbfbf" points="592.5,-6 592.5,-25 694.5,-25 694.5,-6 592.5,-6"/>
<text text-anchor="middle" x="643.5" y="-13" font-family="Helvetica,sans-Serif" font-size="10.00">drivers/spi/adi_spi.h</text>
</g>
<!-- Node0&#45;&gt;Node6 -->
<g id="edge6" class="edge"><title>Node0&#45;&gt;Node6</title>
<path fill="none" stroke="midnightblue" d="M731.215,-198.758C656.729,-197.228 520.915,-189.499 490.5,-154 446.239,-102.342 552.55,-51.4333 609.866,-28.7584"/>
<polygon fill="midnightblue" stroke="midnightblue" points="611.222,-31.9869 619.283,-25.1119 608.694,-25.4592 611.222,-31.9869"/>
</g>
<!-- Node7 -->
<g id="node8" class="node"><title>Node7</title>
<g id="a_node8"><a xlink:href="adi__adf7030-1__reg_8h.html" target="_top" xlink:title=": ... ">
<polygon fill="white" stroke="black" points="339.5,-67.5 339.5,-86.5 443.5,-86.5 443.5,-67.5 339.5,-67.5"/>
<text text-anchor="middle" x="391.5" y="-74.5" font-family="Helvetica,sans-Serif" font-size="10.00">adi_adf7030&#45;1_reg.h</text>
</a>
</g>
</g>
<!-- Node0&#45;&gt;Node7 -->
<g id="edge7" class="edge"><title>Node0&#45;&gt;Node7</title>
<path fill="none" stroke="midnightblue" d="M731.322,-196.358C652.919,-191.453 503.721,-179.075 457.5,-154 432.616,-140.5 412.796,-113.652 401.596,-95.7551"/>
<polygon fill="midnightblue" stroke="midnightblue" points="404.42,-93.6594 396.283,-86.8751 398.414,-97.2534 404.42,-93.6594"/>
</g>
<!-- Node12 -->
<g id="node13" class="node"><title>Node12</title>
<g id="a_node13"><a xlink:href="adf7030-1____common_8h.html" target="_top" xlink:title=": ... ">
<polygon fill="white" stroke="black" points="553,-67.5 553,-86.5 668,-86.5 668,-67.5 553,-67.5"/>
<text text-anchor="middle" x="610.5" y="-74.5" font-family="Helvetica,sans-Serif" font-size="10.00">adf7030&#45;1__common.h</text>
</a>
</g>
</g>
<!-- Node0&#45;&gt;Node12 -->
<g id="edge12" class="edge"><title>Node0&#45;&gt;Node12</title>
<path fill="none" stroke="midnightblue" d="M751.78,-190.461C729.824,-183.051 699.516,-170.853 676.5,-154 653.897,-137.449 633.721,-111.824 621.796,-94.9794"/>
<polygon fill="midnightblue" stroke="midnightblue" points="624.609,-92.8928 616.057,-86.6384 618.842,-96.8606 624.609,-92.8928"/>
</g>
<!-- Node13 -->
<g id="node14" class="node"><title>Node13</title>
<g id="a_node14"><a xlink:href="adf7030-1____core_8h.html" target="_top" xlink:title=": ... ">
<polygon fill="white" stroke="black" points="829.5,-129 829.5,-148 925.5,-148 925.5,-129 829.5,-129"/>
<text text-anchor="middle" x="877.5" y="-136" font-family="Helvetica,sans-Serif" font-size="10.00">adf7030&#45;1__core.h</text>
</a>
</g>
</g>
<!-- Node0&#45;&gt;Node13 -->
<g id="edge14" class="edge"><title>Node0&#45;&gt;Node13</title>
<path fill="none" stroke="midnightblue" d="M794.398,-190.475C810.172,-180.799 836.137,-164.872 854.849,-153.394"/>
<polygon fill="midnightblue" stroke="midnightblue" points="856.934,-156.221 863.628,-148.009 853.274,-150.254 856.934,-156.221"/>
</g>
<!-- Node14 -->
<g id="node15" class="node"><title>Node14</title>
<g id="a_node15"><a xlink:href="adf7030-1____irq_8h.html" target="_top" xlink:title=": ... ">
<polygon fill="white" stroke="black" points="317.5,-129 317.5,-148 405.5,-148 405.5,-129 317.5,-129"/>
<text text-anchor="middle" x="361.5" y="-136" font-family="Helvetica,sans-Serif" font-size="10.00">adf7030&#45;1__irq.h</text>
</a>
</g>
</g>
<!-- Node0&#45;&gt;Node14 -->
<g id="edge15" class="edge"><title>Node0&#45;&gt;Node14</title>
<path fill="none" stroke="midnightblue" d="M731.455,-194.784C661.743,-188.362 530.17,-174.653 419.5,-154 414.016,-152.977 408.278,-151.744 402.634,-150.434"/>
<polygon fill="midnightblue" stroke="midnightblue" points="403.195,-146.969 392.653,-148.024 401.552,-153.774 403.195,-146.969"/>
</g>
<!-- Node15 -->
<g id="node16" class="node"><title>Node15</title>
<g id="a_node16"><a xlink:href="adf7030-1____spi_8h.html" target="_top" xlink:title=": ... ">
<polygon fill="white" stroke="black" points="943.5,-129 943.5,-148 1033.5,-148 1033.5,-129 943.5,-129"/>
<text text-anchor="middle" x="988.5" y="-136" font-family="Helvetica,sans-Serif" font-size="10.00">adf7030&#45;1__spi.h</text>
</a>
</g>
</g>
<!-- Node0&#45;&gt;Node15 -->
<g id="edge21" class="edge"><title>Node0&#45;&gt;Node15</title>
<path fill="none" stroke="midnightblue" d="M810.301,-190.475C846.753,-180.048 908.58,-162.362 948.974,-150.807"/>
<polygon fill="midnightblue" stroke="midnightblue" points="950.102,-154.124 958.754,-148.009 948.177,-147.394 950.102,-154.124"/>
</g>
<!-- Node16 -->
<g id="node17" class="node"><title>Node16</title>
<g id="a_node17"><a xlink:href="adf7030-1____mem_8h.html" target="_top" xlink:title=": ... ">
<polygon fill="white" stroke="black" points="1052,-129 1052,-148 1151,-148 1151,-129 1052,-129"/>
<text text-anchor="middle" x="1101.5" y="-136" font-family="Helvetica,sans-Serif" font-size="10.00">adf7030&#45;1__mem.h</text>
</a>
</g>
</g>
<!-- Node0&#45;&gt;Node16 -->
<g id="edge22" class="edge"><title>Node0&#45;&gt;Node16</title>
<path fill="none" stroke="midnightblue" d="M829.951,-191.577C882.775,-183.399 968.855,-169.354 1042.5,-154 1047.66,-152.924 1053.05,-151.716 1058.39,-150.468"/>
<polygon fill="midnightblue" stroke="midnightblue" points="1059.61,-153.776 1068.52,-148.043 1057.98,-146.969 1059.61,-153.776"/>
</g>
<!-- Node17 -->
<g id="node18" class="node"><title>Node17</title>
<g id="a_node18"><a xlink:href="adf7030-1____patch_8h.html" target="_top" xlink:title=": ... ">
<polygon fill="white" stroke="black" points="1169,-129 1169,-148 1270,-148 1270,-129 1169,-129"/>
<text text-anchor="middle" x="1219.5" y="-136" font-family="Helvetica,sans-Serif" font-size="10.00">adf7030&#45;1__patch.h</text>
</a>
</g>
</g>
<!-- Node0&#45;&gt;Node17 -->
<g id="edge23" class="edge"><title>Node0&#45;&gt;Node17</title>
<path fill="none" stroke="midnightblue" d="M829.676,-195.125C902.384,-188.956 1042.68,-175.371 1160.5,-154 1166.08,-152.988 1171.92,-151.762 1177.66,-150.456"/>
<polygon fill="midnightblue" stroke="midnightblue" points="1178.89,-153.761 1187.81,-148.049 1177.27,-146.95 1178.89,-153.761"/>
</g>
<!-- Node18 -->
<g id="node19" class="node"><title>Node18</title>
<g id="a_node19"><a xlink:href="adf7030-1____cfg_8h.html" target="_top" xlink:title=": ... ">
<polygon fill="white" stroke="black" points="1288.5,-129 1288.5,-148 1378.5,-148 1378.5,-129 1288.5,-129"/>
<text text-anchor="middle" x="1333.5" y="-136" font-family="Helvetica,sans-Serif" font-size="10.00">adf7030&#45;1__cfg.h</text>
</a>
</g>
</g>
<!-- Node0&#45;&gt;Node18 -->
<g id="edge24" class="edge"><title>Node0&#45;&gt;Node18</title>
<path fill="none" stroke="midnightblue" d="M829.744,-197.372C919.699,-193.776 1116.36,-183.035 1279.5,-154 1284.68,-153.078 1290.09,-151.895 1295.4,-150.604"/>
<polygon fill="midnightblue" stroke="midnightblue" points="1296.59,-153.913 1305.4,-148.028 1294.84,-147.134 1296.59,-153.913"/>
</g>
<!-- Node19 -->
<g id="node20" class="node"><title>Node19</title>
<g id="a_node20"><a xlink:href="adf7030-1____state_8h.html" target="_top" xlink:title=": ... ">
<polygon fill="white" stroke="black" points="1397,-129 1397,-148 1496,-148 1496,-129 1397,-129"/>
<text text-anchor="middle" x="1446.5" y="-136" font-family="Helvetica,sans-Serif" font-size="10.00">adf7030&#45;1__state.h</text>
</a>
</g>
</g>
<!-- Node0&#45;&gt;Node19 -->
<g id="edge25" class="edge"><title>Node0&#45;&gt;Node19</title>
<path fill="none" stroke="midnightblue" d="M829.602,-198.134C933.281,-195.698 1181.9,-186.65 1387.5,-154 1393.51,-153.046 1399.8,-151.786 1405.95,-150.407"/>
<polygon fill="midnightblue" stroke="midnightblue" points="1407.15,-153.718 1416.08,-148.006 1405.54,-146.907 1407.15,-153.718"/>
</g>
<!-- Node20 -->
<g id="node21" class="node"><title>Node20</title>
<g id="a_node21"><a xlink:href="adf7030-1____gpio_8h.html" target="_top" xlink:title=": ... ">
<polygon fill="white" stroke="black" points="1514,-129 1514,-148 1609,-148 1609,-129 1514,-129"/>
<text text-anchor="middle" x="1561.5" y="-136" font-family="Helvetica,sans-Serif" font-size="10.00">adf7030&#45;1__gpio.h</text>
</a>
</g>
</g>
<!-- Node0&#45;&gt;Node20 -->
<g id="edge26" class="edge"><title>Node0&#45;&gt;Node20</title>
<path fill="none" stroke="midnightblue" d="M829.648,-199.178C947.207,-198.905 1253.61,-194.05 1505.5,-154 1511.28,-153.081 1517.33,-151.828 1523.23,-150.442"/>
<polygon fill="midnightblue" stroke="midnightblue" points="1524.09,-153.835 1532.95,-148.018 1522.4,-147.044 1524.09,-153.835"/>
</g>
<!-- Node21 -->
<g id="node22" class="node"><title>Node21</title>
<g id="a_node22"><a xlink:href="adf703x__utils_8h.html" target="_top" xlink:title=": ... ">
<polygon fill="white" stroke="black" points="1627.5,-129 1627.5,-148 1709.5,-148 1709.5,-129 1627.5,-129"/>
<text text-anchor="middle" x="1668.5" y="-136" font-family="Helvetica,sans-Serif" font-size="10.00">adf703x_utils.h</text>
</a>
</g>
</g>
<!-- Node0&#45;&gt;Node21 -->
<g id="edge27" class="edge"><title>Node0&#45;&gt;Node21</title>
<path fill="none" stroke="midnightblue" d="M829.714,-197.834C985.294,-193.915 1465.25,-179.984 1618.5,-154 1623.37,-153.175 1628.43,-152.041 1633.39,-150.769"/>
<polygon fill="midnightblue" stroke="midnightblue" points="1634.62,-154.061 1643.32,-148.017 1632.75,-147.315 1634.62,-154.061"/>
</g>
<!-- Node22 -->
<g id="node23" class="node"><title>Node22</title>
<g id="a_node23"><a xlink:href="_u_s_e_r___c_o_n_f_i_g__20_8h.html" target="_top" xlink:title="Firmware header file containing defaults configuration. ">
<polygon fill="white" stroke="black" points="500,-123.5 500,-153.5 629,-153.5 629,-123.5 500,-123.5"/>
<text text-anchor="start" x="508" y="-141.5" font-family="Helvetica,sans-Serif" font-size="10.00">config/Usecase_20/USER</text>
<text text-anchor="middle" x="564.5" y="-130.5" font-family="Helvetica,sans-Serif" font-size="10.00">_CONFIG_20.h</text>
</a>
</g>
</g>
<!-- Node0&#45;&gt;Node22 -->
<g id="edge28" class="edge"><title>Node0&#45;&gt;Node22</title>
<path fill="none" stroke="midnightblue" d="M749.552,-190.475C717.222,-181.569 665.671,-167.369 625.18,-156.215"/>
<polygon fill="midnightblue" stroke="midnightblue" points="625.977,-152.804 615.407,-153.523 624.118,-159.553 625.977,-152.804"/>
</g>
<!-- Node23 -->
<g id="node24" class="node"><title>Node23</title>
<polygon fill="white" stroke="#bfbfbf" points="1728,-123.5 1728,-153.5 1847,-153.5 1847,-123.5 1728,-123.5"/>
<text text-anchor="start" x="1736" y="-141.5" font-family="Helvetica,sans-Serif" font-size="10.00">TRX_168_test_125kbps</text>
<text text-anchor="middle" x="1787.5" y="-130.5" font-family="Helvetica,sans-Serif" font-size="10.00">_868MHz.cfg</text>
</g>
<!-- Node0&#45;&gt;Node23 -->
<g id="edge30" class="edge"><title>Node0&#45;&gt;Node23</title>
<path fill="none" stroke="midnightblue" d="M829.565,-199.389C967.875,-199.902 1372.72,-197.387 1717.82,-153.926"/>
<polygon fill="midnightblue" stroke="midnightblue" points="1718.28,-157.396 1727.76,-152.661 1717.4,-150.452 1718.28,-157.396"/>
</g>
<!-- Node8 -->
<g id="node9" class="node"><title>Node8</title>
<g id="a_node9"><a xlink:href="____public_____a_d_f7030__1__hw__cdef_8h.html" target="_top" xlink:title=": ... ">
<polygon fill="white" stroke="black" points="151,-0.5 151,-30.5 278,-30.5 278,-0.5 151,-0.5"/>
<text text-anchor="start" x="159" y="-18.5" font-family="Helvetica,sans-Serif" font-size="10.00">adf7030&#45;1/__public</text>
<text text-anchor="middle" x="214.5" y="-7.5" font-family="Helvetica,sans-Serif" font-size="10.00">__ADF7030_1_hw_cdef.h</text>
</a>
</g>
</g>
<!-- Node7&#45;&gt;Node8 -->
<g id="edge8" class="edge"><title>Node7&#45;&gt;Node8</title>
<path fill="none" stroke="midnightblue" d="M366.14,-67.4751C340.04,-58.7012 298.651,-44.788 265.703,-33.7123"/>
<polygon fill="midnightblue" stroke="midnightblue" points="266.809,-30.3918 256.215,-30.523 264.579,-37.027 266.809,-30.3918"/>
</g>
<!-- Node9 -->
<g id="node10" class="node"><title>Node9</title>
<g id="a_node10"><a xlink:href="____public_____a_d_f7030__1__fw__cdef_8h.html" target="_top" xlink:title=": ... ">
<polygon fill="white" stroke="black" points="296.5,-0.5 296.5,-30.5 420.5,-30.5 420.5,-0.5 296.5,-0.5"/>
<text text-anchor="start" x="304.5" y="-18.5" font-family="Helvetica,sans-Serif" font-size="10.00">adf7030&#45;1/__public</text>
<text text-anchor="middle" x="358.5" y="-7.5" font-family="Helvetica,sans-Serif" font-size="10.00">__ADF7030_1_fw_cdef.h</text>
</a>
</g>
</g>
<!-- Node7&#45;&gt;Node9 -->
<g id="edge9" class="edge"><title>Node7&#45;&gt;Node9</title>
<path fill="none" stroke="midnightblue" d="M386.772,-67.4751C382.72,-60.1698 376.692,-49.3016 371.242,-39.475"/>
<polygon fill="midnightblue" stroke="midnightblue" points="374.188,-37.5704 366.277,-30.523 368.067,-40.9656 374.188,-37.5704"/>
</g>
<!-- Node10 -->
<g id="node11" class="node"><title>Node10</title>
<g id="a_node11"><a xlink:href="____public_____a_d_f7030__1__hw__macro_8h.html" target="_top" xlink:title=": ... ">
<polygon fill="white" stroke="black" points="438.5,-0.5 438.5,-30.5 574.5,-30.5 574.5,-0.5 438.5,-0.5"/>
<text text-anchor="start" x="446.5" y="-18.5" font-family="Helvetica,sans-Serif" font-size="10.00">adf7030&#45;1/__public</text>
<text text-anchor="middle" x="506.5" y="-7.5" font-family="Helvetica,sans-Serif" font-size="10.00">__ADF7030_1_hw_macro.h</text>
</a>
</g>
</g>
<!-- Node7&#45;&gt;Node10 -->
<g id="edge10" class="edge"><title>Node7&#45;&gt;Node10</title>
<path fill="none" stroke="midnightblue" d="M407.977,-67.4751C424.207,-59.0777 449.536,-45.9728 470.447,-35.1534"/>
<polygon fill="midnightblue" stroke="midnightblue" points="472.123,-38.2269 479.397,-30.523 468.907,-32.0097 472.123,-38.2269"/>
</g>
<!-- Node11 -->
<g id="node12" class="node"><title>Node11</title>
<g id="a_node12"><a xlink:href="____public_____a_d_f7030__1__fw__macro_8h.html" target="_top" xlink:title=": ... ">
<polygon fill="white" stroke="black" points="0,-0.5 0,-30.5 133,-30.5 133,-0.5 0,-0.5"/>
<text text-anchor="start" x="8" y="-18.5" font-family="Helvetica,sans-Serif" font-size="10.00">adf7030&#45;1/__public</text>
<text text-anchor="middle" x="66.5" y="-7.5" font-family="Helvetica,sans-Serif" font-size="10.00">__ADF7030_1_fw_macro.h</text>
</a>
</g>
</g>
<!-- Node7&#45;&gt;Node11 -->
<g id="edge11" class="edge"><title>Node7&#45;&gt;Node11</title>
<path fill="none" stroke="midnightblue" d="M343.073,-67.4737C294.85,-58.9406 218.432,-45.3033 143.262,-31.317"/>
<polygon fill="midnightblue" stroke="midnightblue" points="143.62,-27.8234 133.148,-29.4314 142.337,-34.7049 143.62,-27.8234"/>
</g>
<!-- Node12&#45;&gt;Node6 -->
<g id="edge13" class="edge"><title>Node12&#45;&gt;Node6</title>
<path fill="none" stroke="midnightblue" d="M615.228,-67.4751C620.08,-58.7268 627.766,-44.8691 633.9,-33.8093"/>
<polygon fill="midnightblue" stroke="midnightblue" points="636.991,-35.4517 638.781,-25.0091 630.87,-32.0566 636.991,-35.4517"/>
</g>
<!-- Node14&#45;&gt;Node1 -->
<g id="edge17" class="edge"><title>Node14&#45;&gt;Node1</title>
<path fill="none" stroke="midnightblue" d="M332.845,-128.975C296.655,-118.209 234.452,-99.7032 195.781,-88.1986"/>
<polygon fill="midnightblue" stroke="midnightblue" points="196.596,-84.7895 186.013,-85.2926 194.6,-91.4989 196.596,-84.7895"/>
</g>
<!-- Node14&#45;&gt;Node3 -->
<g id="edge16" class="edge"><title>Node14&#45;&gt;Node3</title>
<path fill="none" stroke="midnightblue" d="M342.588,-128.975C320.337,-118.945 283.188,-102.2 257.574,-90.6546"/>
<polygon fill="midnightblue" stroke="midnightblue" points="258.932,-87.4277 248.377,-86.5091 256.056,-93.8094 258.932,-87.4277"/>
</g>
<!-- Node14&#45;&gt;Node4 -->
<g id="edge18" class="edge"><title>Node14&#45;&gt;Node4</title>
<path fill="none" stroke="midnightblue" d="M352.33,-128.975C342.35,-119.697 326.188,-104.671 313.991,-93.331"/>
<polygon fill="midnightblue" stroke="midnightblue" points="316.36,-90.7547 306.653,-86.5091 311.593,-95.8814 316.36,-90.7547"/>
</g>
<!-- Node14&#45;&gt;Node7 -->
<g id="edge19" class="edge"><title>Node14&#45;&gt;Node7</title>
<path fill="none" stroke="midnightblue" d="M365.798,-128.975C370.165,-120.315 377.055,-106.649 382.603,-95.6453"/>
<polygon fill="midnightblue" stroke="midnightblue" points="385.833,-97.0141 387.21,-86.5091 379.582,-93.8625 385.833,-97.0141"/>
</g>
<!-- Node14&#45;&gt;Node12 -->
<g id="edge20" class="edge"><title>Node14&#45;&gt;Node12</title>
<path fill="none" stroke="midnightblue" d="M397.176,-128.975C441.367,-118.415 516.713,-100.411 565.015,-88.8689"/>
<polygon fill="midnightblue" stroke="midnightblue" points="565.978,-92.2374 574.891,-86.5091 564.351,-85.4291 565.978,-92.2374"/>
</g>
<!-- Node22&#45;&gt;Node12 -->
<g id="edge29" class="edge"><title>Node22&#45;&gt;Node12</title>
<path fill="none" stroke="midnightblue" d="M575.401,-123.399C582.086,-114.753 590.676,-103.642 597.685,-94.576"/>
<polygon fill="midnightblue" stroke="midnightblue" points="600.459,-96.7099 603.807,-86.6578 594.921,-92.4284 600.459,-96.7099"/>
</g>
</g>
</svg>
