<?xml version="1.0" encoding="UTF-8" standalone="no"?>
<!DOCTYPE svg PUBLIC "-//W3C//DTD SVG 1.1//EN"
 "http://www.w3.org/Graphics/SVG/1.1/DTD/svg11.dtd">
<!-- Generated by graphviz version 2.38.0 (20140413.2041)
 -->
<!-- Title: adf7030&#45;1__irq.h Pages: 1 -->
<svg width="704pt" height="151pt"
 viewBox="0.00 0.00 703.50 151.00" xmlns="http://www.w3.org/2000/svg" xmlns:xlink="http://www.w3.org/1999/xlink">
<g id="graph0" class="graph" transform="scale(1 1) rotate(0) translate(4 147)">
<title>adf7030&#45;1__irq.h</title>
<polygon fill="white" stroke="none" points="-4,4 -4,-147 699.5,-147 699.5,4 -4,4"/>
<!-- Node0 -->
<g id="node1" class="node"><title>Node0</title>
<polygon fill="#bfbfbf" stroke="black" points="217.5,-123.5 217.5,-142.5 305.5,-142.5 305.5,-123.5 217.5,-123.5"/>
<text text-anchor="middle" x="261.5" y="-130.5" font-family="Helvetica,sans-Serif" font-size="10.00">adf7030&#45;1__irq.h</text>
</g>
<!-- Node1 -->
<g id="node2" class="node"><title>Node1</title>
<polygon fill="white" stroke="#bfbfbf" points="101,-67.5 101,-86.5 152,-86.5 152,-67.5 101,-67.5"/>
<text text-anchor="middle" x="126.5" y="-74.5" font-family="Helvetica,sans-Serif" font-size="10.00">stddef.h</text>
</g>
<!-- Node0&#45;&gt;Node1 -->
<g id="edge1" class="edge"><title>Node0&#45;&gt;Node1</title>
<path fill="none" stroke="midnightblue" d="M240.109,-123.444C217.793,-114.517 182.597,-100.439 157.292,-90.3168"/>
<polygon fill="midnightblue" stroke="midnightblue" points="158.376,-86.9807 147.791,-86.5164 155.776,-93.4801 158.376,-86.9807"/>
</g>
<!-- Node2 -->
<g id="node3" class="node"><title>Node2</title>
<polygon fill="white" stroke="#bfbfbf" points="170,-67.5 170,-86.5 219,-86.5 219,-67.5 170,-67.5"/>
<text text-anchor="middle" x="194.5" y="-74.5" font-family="Helvetica,sans-Serif" font-size="10.00">string.h</text>
</g>
<!-- Node0&#45;&gt;Node2 -->
<g id="edge2" class="edge"><title>Node0&#45;&gt;Node2</title>
<path fill="none" stroke="midnightblue" d="M250.735,-123.324C240.734,-115.263 225.613,-103.077 213.57,-93.3695"/>
<polygon fill="midnightblue" stroke="midnightblue" points="215.443,-90.3841 205.461,-86.8339 211.05,-95.8343 215.443,-90.3841"/>
</g>
<!-- Node3 -->
<g id="node4" class="node"><title>Node3</title>
<polygon fill="white" stroke="#bfbfbf" points="237.5,-67.5 237.5,-86.5 285.5,-86.5 285.5,-67.5 237.5,-67.5"/>
<text text-anchor="middle" x="261.5" y="-74.5" font-family="Helvetica,sans-Serif" font-size="10.00">stdlib.h</text>
</g>
<!-- Node0&#45;&gt;Node3 -->
<g id="edge3" class="edge"><title>Node0&#45;&gt;Node3</title>
<path fill="none" stroke="midnightblue" d="M261.5,-123.083C261.5,-116.006 261.5,-105.861 261.5,-96.9865"/>
<polygon fill="midnightblue" stroke="midnightblue" points="265,-96.751 261.5,-86.7511 258,-96.7511 265,-96.751"/>
</g>
<!-- Node4 -->
<g id="node5" class="node"><title>Node4</title>
<g id="a_node5"><a xlink:href="adi__adf7030-1__reg_8h.html" target="_top" xlink:title=": ... ">
<polygon fill="white" stroke="black" points="303.5,-67.5 303.5,-86.5 407.5,-86.5 407.5,-67.5 303.5,-67.5"/>
<text text-anchor="middle" x="355.5" y="-74.5" font-family="Helvetica,sans-Serif" font-size="10.00">adi_adf7030&#45;1_reg.h</text>
</a>
</g>
</g>
<!-- Node0&#45;&gt;Node4 -->
<g id="edge4" class="edge"><title>Node0&#45;&gt;Node4</title>
<path fill="none" stroke="midnightblue" d="M276.603,-123.324C291.403,-114.822 314.194,-101.729 331.482,-91.7975"/>
<polygon fill="midnightblue" stroke="midnightblue" points="333.507,-94.6707 340.435,-86.6545 330.02,-88.6009 333.507,-94.6707"/>
</g>
<!-- Node9 -->
<g id="node10" class="node"><title>Node9</title>
<g id="a_node10"><a xlink:href="adf7030-1____common_8h.html" target="_top" xlink:title=": ... ">
<polygon fill="white" stroke="black" points="507,-67.5 507,-86.5 622,-86.5 622,-67.5 507,-67.5"/>
<text text-anchor="middle" x="564.5" y="-74.5" font-family="Helvetica,sans-Serif" font-size="10.00">adf7030&#45;1__common.h</text>
</a>
</g>
</g>
<!-- Node0&#45;&gt;Node9 -->
<g id="edge9" class="edge"><title>Node0&#45;&gt;Node9</title>
<path fill="none" stroke="midnightblue" d="M305.559,-124.148C358.7,-114.677 448.178,-98.7306 506.787,-88.2855"/>
<polygon fill="midnightblue" stroke="midnightblue" points="507.405,-91.7306 516.636,-86.5303 506.177,-84.8392 507.405,-91.7306"/>
</g>
<!-- Node5 -->
<g id="node6" class="node"><title>Node5</title>
<g id="a_node6"><a xlink:href="____public_____a_d_f7030__1__hw__cdef_8h.html" target="_top" xlink:title=": ... ">
<polygon fill="white" stroke="black" points="0,-0.5 0,-30.5 127,-30.5 127,-0.5 0,-0.5"/>
<text text-anchor="start" x="8" y="-18.5" font-family="Helvetica,sans-Serif" font-size="10.00">adf7030&#45;1/__public</text>
<text text-anchor="middle" x="63.5" y="-7.5" font-family="Helvetica,sans-Serif" font-size="10.00">__ADF7030_1_hw_cdef.h</text>
</a>
</g>
</g>
<!-- Node4&#45;&gt;Node5 -->
<g id="edge5" class="edge"><title>Node4&#45;&gt;Node5</title>
<path fill="none" stroke="midnightblue" d="M313.664,-67.4751C267.621,-58.0931 192.74,-42.8348 136.883,-31.4531"/>
<polygon fill="midnightblue" stroke="midnightblue" points="137.536,-28.0142 127.038,-29.447 136.138,-34.8733 137.536,-28.0142"/>
</g>
<!-- Node6 -->
<g id="node7" class="node"><title>Node6</title>
<g id="a_node7"><a xlink:href="____public_____a_d_f7030__1__fw__cdef_8h.html" target="_top" xlink:title=": ... ">
<polygon fill="white" stroke="black" points="145.5,-0.5 145.5,-30.5 269.5,-30.5 269.5,-0.5 145.5,-0.5"/>
<text text-anchor="start" x="153.5" y="-18.5" font-family="Helvetica,sans-Serif" font-size="10.00">adf7030&#45;1/__public</text>
<text text-anchor="middle" x="207.5" y="-7.5" font-family="Helvetica,sans-Serif" font-size="10.00">__ADF7030_1_fw_cdef.h</text>
</a>
</g>
</g>
<!-- Node4&#45;&gt;Node6 -->
<g id="edge6" class="edge"><title>Node4&#45;&gt;Node6</title>
<path fill="none" stroke="midnightblue" d="M334.295,-67.4751C312.846,-58.8518 279.048,-45.2641 251.739,-34.2852"/>
<polygon fill="midnightblue" stroke="midnightblue" points="252.965,-31.0058 242.381,-30.523 250.353,-37.5005 252.965,-31.0058"/>
</g>
<!-- Node7 -->
<g id="node8" class="node"><title>Node7</title>
<g id="a_node8"><a xlink:href="____public_____a_d_f7030__1__hw__macro_8h.html" target="_top" xlink:title=": ... ">
<polygon fill="white" stroke="black" points="287.5,-0.5 287.5,-30.5 423.5,-30.5 423.5,-0.5 287.5,-0.5"/>
<text text-anchor="start" x="295.5" y="-18.5" font-family="Helvetica,sans-Serif" font-size="10.00">adf7030&#45;1/__public</text>
<text text-anchor="middle" x="355.5" y="-7.5" font-family="Helvetica,sans-Serif" font-size="10.00">__ADF7030_1_hw_macro.h</text>
</a>
</g>
</g>
<!-- Node4&#45;&gt;Node7 -->
<g id="edge7" class="edge"><title>Node4&#45;&gt;Node7</title>
<path fill="none" stroke="midnightblue" d="M355.5,-67.4751C355.5,-60.471 355.5,-50.1919 355.5,-40.6956"/>
<polygon fill="midnightblue" stroke="midnightblue" points="359,-40.5229 355.5,-30.523 352,-40.523 359,-40.5229"/>
</g>
<!-- Node8 -->
<g id="node9" class="node"><title>Node8</title>
<g id="a_node9"><a xlink:href="____public_____a_d_f7030__1__fw__macro_8h.html" target="_top" xlink:title=": ... ">
<polygon fill="white" stroke="black" points="442,-0.5 442,-30.5 575,-30.5 575,-0.5 442,-0.5"/>
<text text-anchor="start" x="450" y="-18.5" font-family="Helvetica,sans-Serif" font-size="10.00">adf7030&#45;1/__public</text>
<text text-anchor="middle" x="508.5" y="-7.5" font-family="Helvetica,sans-Serif" font-size="10.00">__ADF7030_1_fw_macro.h</text>
</a>
</g>
</g>
<!-- Node4&#45;&gt;Node8 -->
<g id="edge8" class="edge"><title>Node4&#45;&gt;Node8</title>
<path fill="none" stroke="midnightblue" d="M377.421,-67.4751C399.595,-58.8518 434.535,-45.2641 462.767,-34.2852"/>
<polygon fill="midnightblue" stroke="midnightblue" points="464.389,-37.4095 472.441,-30.523 461.852,-30.8855 464.389,-37.4095"/>
</g>
<!-- Node10 -->
<g id="node11" class="node"><title>Node10</title>
<polygon fill="white" stroke="#bfbfbf" points="593.5,-6 593.5,-25 695.5,-25 695.5,-6 593.5,-6"/>
<text text-anchor="middle" x="644.5" y="-13" font-family="Helvetica,sans-Serif" font-size="10.00">drivers/spi/adi_spi.h</text>
</g>
<!-- Node9&#45;&gt;Node10 -->
<g id="edge10" class="edge"><title>Node9&#45;&gt;Node10</title>
<path fill="none" stroke="midnightblue" d="M575.962,-67.4751C588.675,-58.0199 609.413,-42.5961 624.753,-31.1871"/>
<polygon fill="midnightblue" stroke="midnightblue" points="627.124,-33.7854 633.059,-25.0091 622.946,-28.1686 627.124,-33.7854"/>
</g>
</g>
</svg>
