<?xml version="1.0" encoding="UTF-8" standalone="no"?>
<!DOCTYPE svg PUBLIC "-//W3C//DTD SVG 1.1//EN"
 "http://www.w3.org/Graphics/SVG/1.1/DTD/svg11.dtd">
<!-- Generated by graphviz version 2.38.0 (20140413.2041)
 -->
<!-- Title: adi_adf7030&#45;1_reg.h Pages: 1 -->
<svg width="583pt" height="95pt"
 viewBox="0.00 0.00 583.00 95.00" xmlns="http://www.w3.org/2000/svg" xmlns:xlink="http://www.w3.org/1999/xlink">
<g id="graph0" class="graph" transform="scale(1 1) rotate(0) translate(4 91)">
<title>adi_adf7030&#45;1_reg.h</title>
<polygon fill="white" stroke="none" points="-4,4 -4,-91 579,-91 579,4 -4,4"/>
<!-- Node0 -->
<g id="node1" class="node"><title>Node0</title>
<polygon fill="#bfbfbf" stroke="black" points="229.5,-67.5 229.5,-86.5 333.5,-86.5 333.5,-67.5 229.5,-67.5"/>
<text text-anchor="middle" x="281.5" y="-74.5" font-family="Helvetica,sans-Serif" font-size="10.00">adi_adf7030&#45;1_reg.h</text>
</g>
<!-- Node1 -->
<g id="node2" class="node"><title>Node1</title>
<g id="a_node2"><a xlink:href="____public_____a_d_f7030__1__hw__cdef_8h.html" target="_top" xlink:title=": ... ">
<polygon fill="white" stroke="black" points="0,-0.5 0,-30.5 127,-30.5 127,-0.5 0,-0.5"/>
<text text-anchor="start" x="8" y="-18.5" font-family="Helvetica,sans-Serif" font-size="10.00">adf7030&#45;1/__public</text>
<text text-anchor="middle" x="63.5" y="-7.5" font-family="Helvetica,sans-Serif" font-size="10.00">__ADF7030_1_hw_cdef.h</text>
</a>
</g>
</g>
<!-- Node0&#45;&gt;Node1 -->
<g id="edge1" class="edge"><title>Node0&#45;&gt;Node1</title>
<path fill="none" stroke="midnightblue" d="M250.266,-67.4751C217.637,-58.5694 165.608,-44.3688 124.742,-33.2151"/>
<polygon fill="midnightblue" stroke="midnightblue" points="125.447,-29.7796 114.878,-30.523 123.604,-36.5326 125.447,-29.7796"/>
</g>
<!-- Node2 -->
<g id="node3" class="node"><title>Node2</title>
<g id="a_node3"><a xlink:href="____public_____a_d_f7030__1__fw__cdef_8h.html" target="_top" xlink:title=": ... ">
<polygon fill="white" stroke="black" points="145.5,-0.5 145.5,-30.5 269.5,-30.5 269.5,-0.5 145.5,-0.5"/>
<text text-anchor="start" x="153.5" y="-18.5" font-family="Helvetica,sans-Serif" font-size="10.00">adf7030&#45;1/__public</text>
<text text-anchor="middle" x="207.5" y="-7.5" font-family="Helvetica,sans-Serif" font-size="10.00">__ADF7030_1_fw_cdef.h</text>
</a>
</g>
</g>
<!-- Node0&#45;&gt;Node2 -->
<g id="edge2" class="edge"><title>Node0&#45;&gt;Node2</title>
<path fill="none" stroke="midnightblue" d="M270.898,-67.4751C261.063,-59.5673 246.036,-47.4847 233.08,-37.0675"/>
<polygon fill="midnightblue" stroke="midnightblue" points="234.927,-34.0616 224.94,-30.523 230.54,-39.5169 234.927,-34.0616"/>
</g>
<!-- Node3 -->
<g id="node4" class="node"><title>Node3</title>
<g id="a_node4"><a xlink:href="____public_____a_d_f7030__1__hw__macro_8h.html" target="_top" xlink:title=": ... ">
<polygon fill="white" stroke="black" points="287.5,-0.5 287.5,-30.5 423.5,-30.5 423.5,-0.5 287.5,-0.5"/>
<text text-anchor="start" x="295.5" y="-18.5" font-family="Helvetica,sans-Serif" font-size="10.00">adf7030&#45;1/__public</text>
<text text-anchor="middle" x="355.5" y="-7.5" font-family="Helvetica,sans-Serif" font-size="10.00">__ADF7030_1_hw_macro.h</text>
</a>
</g>
</g>
<!-- Node0&#45;&gt;Node3 -->
<g id="edge3" class="edge"><title>Node0&#45;&gt;Node3</title>
<path fill="none" stroke="midnightblue" d="M292.102,-67.4751C301.937,-59.5673 316.964,-47.4847 329.92,-37.0675"/>
<polygon fill="midnightblue" stroke="midnightblue" points="332.46,-39.5169 338.06,-30.523 328.073,-34.0616 332.46,-39.5169"/>
</g>
<!-- Node4 -->
<g id="node5" class="node"><title>Node4</title>
<g id="a_node5"><a xlink:href="____public_____a_d_f7030__1__fw__macro_8h.html" target="_top" xlink:title=": ... ">
<polygon fill="white" stroke="black" points="442,-0.5 442,-30.5 575,-30.5 575,-0.5 442,-0.5"/>
<text text-anchor="start" x="450" y="-18.5" font-family="Helvetica,sans-Serif" font-size="10.00">adf7030&#45;1/__public</text>
<text text-anchor="middle" x="508.5" y="-7.5" font-family="Helvetica,sans-Serif" font-size="10.00">__ADF7030_1_fw_macro.h</text>
</a>
</g>
</g>
<!-- Node0&#45;&gt;Node4 -->
<g id="edge4" class="edge"><title>Node0&#45;&gt;Node4</title>
<path fill="none" stroke="midnightblue" d="M314.024,-67.4751C348.144,-58.5317 402.636,-44.2486 445.269,-33.0738"/>
<polygon fill="midnightblue" stroke="midnightblue" points="446.215,-36.4442 455.001,-30.523 444.44,-29.6729 446.215,-36.4442"/>
</g>
</g>
</svg>
