<?xml version="1.0" encoding="UTF-8" standalone="no"?>
<!DOCTYPE svg PUBLIC "-//W3C//DTD SVG 1.1//EN"
 "http://www.w3.org/Graphics/SVG/1.1/DTD/svg11.dtd">
<!-- Generated by graphviz version 2.38.0 (20140413.2041)
 -->
<!-- Title: adf703x Pages: 1 -->
<svg width="254pt" height="183pt"
 viewBox="0.00 0.00 254.00 183.00" xmlns="http://www.w3.org/2000/svg" xmlns:xlink="http://www.w3.org/1999/xlink">
<g id="graph0" class="graph" transform="scale(1 1) rotate(0) translate(4 179)">
<title>adf703x</title>
<polygon fill="white" stroke="none" points="-4,4 -4,-179 250,-179 250,4 -4,4"/>
<g id="clust1" class="cluster"><title>clusterdir_3e87ee72d3181a5fc3d8f9cf40506f88</title>
<g id="a_clust1"><a xlink:href="dir_3e87ee72d3181a5fc3d8f9cf40506f88.html" target="_top" xlink:title="rf">
<polygon fill="#ddddee" stroke="black" points="8,-8 8,-167 238,-167 238,-8 8,-8"/>
<text text-anchor="middle" x="123" y="-155" font-family="Helvetica,sans-Serif" font-size="10.00">rf</text>
</a>
</g>
</g>
<g id="clust2" class="cluster"><title>clusterdir_009247b343644e21173ec8f0035b6bef</title>
<g id="a_clust2"><a xlink:href="dir_009247b343644e21173ec8f0035b6bef.html" target="_top">
<polygon fill="#eeeeff" stroke="black" points="16,-16 16,-140 230,-140 230,-16 16,-16"/>
</a>
</g>
</g>
<!-- dir_009247b343644e21173ec8f0035b6bef -->
<g id="node1" class="node"><title>dir_009247b343644e21173ec8f0035b6bef</title>
<text text-anchor="middle" x="195" y="-111.5" font-family="Helvetica,sans-Serif" font-size="10.00">adf703x</text>
</g>
<!-- dir_65db144a59b55c0da9510cd772c1e7be -->
<g id="node2" class="node"><title>dir_65db144a59b55c0da9510cd772c1e7be</title>
<g id="a_node2"><a xlink:href="dir_65db144a59b55c0da9510cd772c1e7be.html" target="_top" xlink:title="adf7030&#45;1">
<polygon fill="white" stroke="black" points="221.5,-60 162.5,-60 162.5,-24 221.5,-24 221.5,-60"/>
<text text-anchor="middle" x="192" y="-39.5" font-family="Helvetica,sans-Serif" font-size="10.00">adf7030&#45;1</text>
</a>
</g>
</g>
<!-- dir_009247b343644e21173ec8f0035b6bef&#45;&gt;dir_65db144a59b55c0da9510cd772c1e7be -->
<g id="edge1" class="edge"><title>dir_009247b343644e21173ec8f0035b6bef&#45;&gt;dir_65db144a59b55c0da9510cd772c1e7be</title>
<path fill="none" stroke="black" d="M194.258,-95.6966C193.928,-87.9827 193.531,-78.7125 193.162,-70.1124"/>
<polygon fill="black" stroke="black" points="196.658,-69.9453 192.733,-60.1043 189.665,-70.2451 196.658,-69.9453"/>
<g id="a_edge1&#45;headlabel"><a xlink:href="dir_000003_000004.html" target="_top" xlink:title="4">
<text text-anchor="middle" x="199.649" y="-70.915" font-family="Helvetica,sans-Serif" font-size="10.00">4</text>
</a>
</g>
</g>
<!-- dir_c300270162853ff03593c9e2019e5cba -->
<g id="node3" class="node"><title>dir_c300270162853ff03593c9e2019e5cba</title>
<g id="a_node3"><a xlink:href="dir_c300270162853ff03593c9e2019e5cba.html" target="_top" xlink:title="config">
<polygon fill="white" stroke="red" points="150,-132 96,-132 96,-96 150,-96 150,-132"/>
<text text-anchor="middle" x="123" y="-111.5" font-family="Helvetica,sans-Serif" font-size="10.00">config</text>
</a>
</g>
</g>
<!-- dir_f6b7c0378c81f03c748c43a7c835a925 -->
<g id="node4" class="node"><title>dir_f6b7c0378c81f03c748c43a7c835a925</title>
<g id="a_node4"><a xlink:href="dir_f6b7c0378c81f03c748c43a7c835a925.html" target="_top" xlink:title="patch">
<polygon fill="white" stroke="black" points="78,-132 24,-132 24,-96 78,-96 78,-132"/>
<text text-anchor="middle" x="51" y="-111.5" font-family="Helvetica,sans-Serif" font-size="10.00">patch</text>
</a>
</g>
</g>
</g>
</svg>
