<?xml version="1.0" encoding="UTF-8" standalone="no"?>
<!DOCTYPE svg PUBLIC "-//W3C//DTD SVG 1.1//EN"
 "http://www.w3.org/Graphics/SVG/1.1/DTD/svg11.dtd">
<!-- Generated by graphviz version 2.38.0 (20140413.2041)
 -->
<!-- Title: adf7030_1__SPI_SetMMapCustomPntr0 Pages: 1 -->
<!--zoomable 520 -->
<svg id="main" version="1.1" xmlns="http://www.w3.org/2000/svg" xmlns:xlink="http://www.w3.org/1999/xlink" xml:space="preserve" onload="init(evt)">
<style type="text/css"><![CDATA[
.edge:hover path { stroke: red; }
.edge:hover polygon { stroke: red; fill: red; }
]]></style>
<script type="text/javascript"><![CDATA[
var edges = document.getElementsByTagName('g');
if (edges && edges.length) {
  for (var i=0;i<edges.length;i++) {
    if (edges[i].id.substr(0,4)=='edge') {
      edges[i].setAttribute('class','edge');
    }
  }
}
]]></script>
        <defs>
                <circle id="rim" cx="0" cy="0" r="7"/>
                <circle id="rim2" cx="0" cy="0" r="3.5"/>
                <g id="zoomPlus">
                        <use xlink:href="#rim" fill="#404040">
                                <set attributeName="fill" to="#808080" begin="zoomplus.mouseover" end="zoomplus.mouseout"/>
                        </use>
                        <path d="M-4,0h8M0,-4v8" fill="none" stroke="white" stroke-width="1.5" pointer-events="none"/>
                </g>
                <g id="zoomMin">
                        <use xlink:href="#rim" fill="#404040">
                                <set attributeName="fill" to="#808080" begin="zoomminus.mouseover" end="zoomminus.mouseout"/>
                        </use>
                        <path d="M-4,0h8" fill="none" stroke="white" stroke-width="1.5" pointer-events="none"/>
                </g>
                <g id="dirArrow">
                        <path fill="none" stroke="white" stroke-width="1.5" d="M0,-3.0v7 M-2.5,-0.5L0,-3.0L2.5,-0.5"/>
                </g>
               <g id="resetDef">
                       <use xlink:href="#rim2" fill="#404040">
                               <set attributeName="fill" to="#808080" begin="reset.mouseover" end="reset.mouseout"/>
                       </use>
               </g>
        </defs>

<script type="text/javascript">
var viewWidth = 716;
var viewHeight = 520;
var sectionId = 'dynsection-9';
</script>
<script xlink:href="svgpan.js"/>
<svg id="graph" class="graph">
<g id="viewport">
<title>adf7030_1__SPI_SetMMapCustomPntr0</title>
<polygon fill="white" stroke="none" points="-4,4 -4,-516 712,-516 712,4 -4,4"/>
<!-- Node86 -->
<g id="node1" class="node"><title>Node86</title>
<polygon fill="#bfbfbf" stroke="black" points="0,-240 0,-270 168,-270 168,-240 0,-240"/>
<text text-anchor="start" x="8" y="-258" font-family="Helvetica,sans-Serif" font-size="10.00">adf7030_1__SPI_SetMMapCustom</text>
<text text-anchor="middle" x="84" y="-247" font-family="Helvetica,sans-Serif" font-size="10.00">Pntr0</text>
</g>
<!-- Node87 -->
<g id="node2" class="node"><title>Node87</title>
<g id="a_node2"><a xlink:href="group__adf7030-1____mem.html#ga1ca676315976719ad485f1a4772e876d" target="_top" xlink:title="Generic Data block transfers function between Host and the Radio PHY. ">
<polygon fill="white" stroke="black" points="206.5,-338.5 206.5,-357.5 338.5,-357.5 338.5,-338.5 206.5,-338.5"/>
<text text-anchor="middle" x="272.5" y="-345.5" font-family="Helvetica,sans-Serif" font-size="10.00">adf7030_1__XferDataBlock</text>
</a>
</g>
</g>
<!-- Node86&#45;&gt;Node87 -->
<g id="edge1" class="edge"><title>Node86&#45;&gt;Node87</title>
<path fill="none" stroke="midnightblue" d="M124.42,-274.657C163.663,-294.226 222.249,-323.441 252.262,-338.407"/>
<polygon fill="midnightblue" stroke="midnightblue" points="125.891,-271.479 115.38,-270.149 122.767,-277.744 125.891,-271.479"/>
</g>
<!-- Node99 -->
<g id="node14" class="node"><title>Node99</title>
<g id="a_node14"><a xlink:href="group__adf7030-1____patch.html#ga71c53aa1ca866512fbfaa5d99a3181e8" target="_top" xlink:title="Generic Patch Section transfer function between Host and the Radio PHY. ">
<polygon fill="white" stroke="black" points="204,-133.5 204,-152.5 341,-152.5 341,-133.5 204,-133.5"/>
<text text-anchor="middle" x="272.5" y="-140.5" font-family="Helvetica,sans-Serif" font-size="10.00">adf7030_1__XferPatchBlock</text>
</a>
</g>
</g>
<!-- Node86&#45;&gt;Node99 -->
<g id="edge13" class="edge"><title>Node86&#45;&gt;Node99</title>
<path fill="none" stroke="midnightblue" d="M118.865,-234.663C159.311,-210.373 225.285,-170.754 255.488,-152.616"/>
<polygon fill="midnightblue" stroke="midnightblue" points="116.923,-231.746 110.152,-239.895 120.527,-237.747 116.923,-231.746"/>
</g>
<!-- Node88 -->
<g id="node3" class="node"><title>Node88</title>
<g id="a_node3"><a xlink:href="group__adf7030-1____mem.html#gaa184749ff4ec2d53c167d51cbadb9b18" target="_top" xlink:title="Function call to read the Data block. ">
<polygon fill="white" stroke="black" points="380.5,-492.5 380.5,-511.5 519.5,-511.5 519.5,-492.5 380.5,-492.5"/>
<text text-anchor="middle" x="450" y="-499.5" font-family="Helvetica,sans-Serif" font-size="10.00">adf7030_1__ReadDataBlock</text>
</a>
</g>
</g>
<!-- Node87&#45;&gt;Node88 -->
<g id="edge2" class="edge"><title>Node87&#45;&gt;Node88</title>
<path fill="none" stroke="midnightblue" d="M282.653,-366.752C297.988,-396.152 331.699,-452.842 377,-483 382.811,-486.869 389.374,-489.951 396.114,-492.406"/>
<polygon fill="midnightblue" stroke="midnightblue" points="285.648,-364.919 278.007,-357.58 279.404,-368.082 285.648,-364.919"/>
</g>
<!-- Node90 -->
<g id="node5" class="node"><title>Node90</title>
<g id="a_node5"><a xlink:href="group__adf7030-1____mem.html#gaaed60fb0edafdf66ac0dd799752e9a5a" target="_top" xlink:title="Function call to partially read a section of the Host Data block. ">
<polygon fill="white" stroke="black" points="380,-443 380,-473 520,-473 520,-443 380,-443"/>
<text text-anchor="start" x="388" y="-461" font-family="Helvetica,sans-Serif" font-size="10.00">adf7030_1__ReadPartiaData</text>
<text text-anchor="middle" x="450" y="-450" font-family="Helvetica,sans-Serif" font-size="10.00">Block</text>
</a>
</g>
</g>
<!-- Node87&#45;&gt;Node90 -->
<g id="edge4" class="edge"><title>Node87&#45;&gt;Node90</title>
<path fill="none" stroke="midnightblue" d="M290.051,-364.796C309.407,-383.63 343.129,-414.015 377,-433 383.579,-436.688 390.798,-439.973 398.046,-442.851"/>
<polygon fill="midnightblue" stroke="midnightblue" points="292.478,-362.273 282.907,-357.729 287.555,-367.249 292.478,-362.273"/>
</g>
<!-- Node91 -->
<g id="node6" class="node"><title>Node91</title>
<g id="a_node6"><a xlink:href="group__adf7030-1____mem.html#gacf6942abdfef8b5994cb07ffc51acd05" target="_top" xlink:title="Function call to verify the integrity of Data block. ">
<polygon fill="white" stroke="black" points="379.5,-404.5 379.5,-423.5 520.5,-423.5 520.5,-404.5 379.5,-404.5"/>
<text text-anchor="middle" x="450" y="-411.5" font-family="Helvetica,sans-Serif" font-size="10.00">adf7030_1__VerifyDataBlock</text>
</a>
</g>
</g>
<!-- Node87&#45;&gt;Node91 -->
<g id="edge5" class="edge"><title>Node87&#45;&gt;Node91</title>
<path fill="none" stroke="midnightblue" d="M301.272,-362.157C321.816,-372.245 350.679,-385.626 377,-395 386.865,-398.513 397.695,-401.705 407.892,-404.428"/>
<polygon fill="midnightblue" stroke="midnightblue" points="302.694,-358.955 292.181,-357.64 299.579,-365.224 302.694,-358.955"/>
</g>
<!-- Node92 -->
<g id="node7" class="node"><title>Node92</title>
<g id="a_node7"><a xlink:href="group__adf7030-1____mem.html#ga4373955bd51900d2f60a961005aa83cb" target="_top" xlink:title="Function call to verify the integrity of a portion of a Host Data block. ">
<polygon fill="white" stroke="black" points="388,-355 388,-385 512,-385 512,-355 388,-355"/>
<text text-anchor="start" x="396" y="-373" font-family="Helvetica,sans-Serif" font-size="10.00">adf7030_1__VerifyPartial</text>
<text text-anchor="middle" x="450" y="-362" font-family="Helvetica,sans-Serif" font-size="10.00">DataBlock</text>
</a>
</g>
</g>
<!-- Node87&#45;&gt;Node92 -->
<g id="edge6" class="edge"><title>Node87&#45;&gt;Node92</title>
<path fill="none" stroke="midnightblue" d="M349.147,-357.483C362.11,-359.108 375.433,-360.778 387.953,-362.347"/>
<polygon fill="midnightblue" stroke="midnightblue" points="349.207,-353.963 338.85,-356.192 348.337,-360.909 349.207,-353.963"/>
</g>
<!-- Node93 -->
<g id="node8" class="node"><title>Node93</title>
<g id="a_node8"><a xlink:href="group__adf7030-1____mem.html#gab45789e38821a80b3f9cce11b91277bc" target="_top" xlink:title="Function call to write the Data block. ">
<polygon fill="white" stroke="black" points="380,-316.5 380,-335.5 520,-335.5 520,-316.5 380,-316.5"/>
<text text-anchor="middle" x="450" y="-323.5" font-family="Helvetica,sans-Serif" font-size="10.00">adf7030_1__WriteDataBlock</text>
</a>
</g>
</g>
<!-- Node87&#45;&gt;Node93 -->
<g id="edge7" class="edge"><title>Node87&#45;&gt;Node93</title>
<path fill="none" stroke="midnightblue" d="M348.981,-338.538C359.209,-337.256 369.664,-335.945 379.776,-334.678"/>
<polygon fill="midnightblue" stroke="midnightblue" points="348.337,-335.091 338.85,-339.808 349.207,-342.037 348.337,-335.091"/>
</g>
<!-- Node94 -->
<g id="node9" class="node"><title>Node94</title>
<g id="a_node9"><a xlink:href="group__adf7030-1____mem.html#gae2459967f63b227938db62e1b5388afc" target="_top" xlink:title="Function call to partially write a section of the Host Data block. ">
<polygon fill="white" stroke="black" points="378.5,-267 378.5,-297 521.5,-297 521.5,-267 378.5,-267"/>
<text text-anchor="start" x="386.5" y="-285" font-family="Helvetica,sans-Serif" font-size="10.00">adf7030_1__WritePartialData</text>
<text text-anchor="middle" x="450" y="-274" font-family="Helvetica,sans-Serif" font-size="10.00">Block</text>
</a>
</g>
</g>
<!-- Node87&#45;&gt;Node94 -->
<g id="edge8" class="edge"><title>Node87&#45;&gt;Node94</title>
<path fill="none" stroke="midnightblue" d="M306.231,-334.617C326.524,-326.424 353.178,-315.849 377,-307 385.931,-303.682 395.533,-300.253 404.723,-297.038"/>
<polygon fill="midnightblue" stroke="midnightblue" points="304.774,-331.431 296.82,-338.43 307.402,-337.919 304.774,-331.431"/>
</g>
<!-- Node95 -->
<g id="node10" class="node"><title>Node95</title>
<g id="a_node10"><a xlink:href="group__adf7030-1____mem.html#gae8fab7f4a9d7bc3432f2b85b789510e1" target="_top" xlink:title="Generic Configuration transfers function between Host and the Radio PHY. ">
<polygon fill="white" stroke="black" points="393,-228.5 393,-247.5 507,-247.5 507,-228.5 393,-228.5"/>
<text text-anchor="middle" x="450" y="-235.5" font-family="Helvetica,sans-Serif" font-size="10.00">adf7030_1__XferConfig</text>
</a>
</g>
</g>
<!-- Node87&#45;&gt;Node95 -->
<g id="edge9" class="edge"><title>Node87&#45;&gt;Node95</title>
<path fill="none" stroke="midnightblue" d="M288.373,-330.751C307.039,-310.184 340.997,-276.186 377,-257 384.188,-253.17 392.198,-250.074 400.191,-247.583"/>
<polygon fill="midnightblue" stroke="midnightblue" points="285.59,-328.614 281.564,-338.414 290.823,-333.264 285.59,-328.614"/>
</g>
<!-- Node89 -->
<g id="node4" class="node"><title>Node89</title>
<g id="a_node4"><a xlink:href="group__adf7030-1____core.html#gaa8110804874966018d0b7bfe40cbc001" target="_top" xlink:title="Initialise the Host shadow configuration of the PHY Radio. ">
<polygon fill="white" stroke="black" points="559,-492.5 559,-511.5 708,-511.5 708,-492.5 559,-492.5"/>
<text text-anchor="middle" x="633.5" y="-499.5" font-family="Helvetica,sans-Serif" font-size="10.00">adf7030_1__SetupHostPhyCfg</text>
</a>
</g>
</g>
<!-- Node88&#45;&gt;Node89 -->
<g id="edge3" class="edge"><title>Node88&#45;&gt;Node89</title>
<path fill="none" stroke="midnightblue" d="M529.662,-502C539.385,-502 549.296,-502 558.939,-502"/>
<polygon fill="midnightblue" stroke="midnightblue" points="529.617,-498.5 519.617,-502 529.617,-505.5 529.617,-498.5"/>
</g>
<!-- Node96 -->
<g id="node11" class="node"><title>Node96</title>
<g id="a_node11"><a xlink:href="group__adf7030-1____mem.html#gaf9027afec4eb550d5d563efbb1ed3cbb" target="_top" xlink:title="Function call to read Configuration from Radio PHY. ">
<polygon fill="white" stroke="black" points="573,-266.5 573,-285.5 694,-285.5 694,-266.5 573,-266.5"/>
<text text-anchor="middle" x="633.5" y="-273.5" font-family="Helvetica,sans-Serif" font-size="10.00">adf7030_1__ReadConfig</text>
</a>
</g>
</g>
<!-- Node95&#45;&gt;Node96 -->
<g id="edge10" class="edge"><title>Node95&#45;&gt;Node96</title>
<path fill="none" stroke="midnightblue" d="M506.792,-249.681C532.531,-255.07 562.699,-261.386 587.029,-266.48"/>
<polygon fill="midnightblue" stroke="midnightblue" points="507.305,-246.213 496.8,-247.589 505.871,-253.064 507.305,-246.213"/>
</g>
<!-- Node97 -->
<g id="node12" class="node"><title>Node97</title>
<g id="a_node12"><a xlink:href="group__adf7030-1____mem.html#gaeb52c8834f7abccae8965541f562fe80" target="_top" xlink:title="Function call to verify the integrity of the patch. ">
<polygon fill="white" stroke="black" points="572,-228.5 572,-247.5 695,-247.5 695,-228.5 572,-228.5"/>
<text text-anchor="middle" x="633.5" y="-235.5" font-family="Helvetica,sans-Serif" font-size="10.00">adf7030_1__VerifyConfig</text>
</a>
</g>
</g>
<!-- Node95&#45;&gt;Node97 -->
<g id="edge11" class="edge"><title>Node95&#45;&gt;Node97</title>
<path fill="none" stroke="midnightblue" d="M517.668,-238C535.348,-238 554.342,-238 571.692,-238"/>
<polygon fill="midnightblue" stroke="midnightblue" points="517.433,-234.5 507.433,-238 517.433,-241.5 517.433,-234.5"/>
</g>
<!-- Node98 -->
<g id="node13" class="node"><title>Node98</title>
<g id="a_node13"><a xlink:href="group__adf7030-1____mem.html#ga79e0355d8a6b661e6b0d7d6be01d04a2" target="_top" xlink:title="Function call to write Configuration to Radio PHY. ">
<polygon fill="white" stroke="black" points="572.5,-190.5 572.5,-209.5 694.5,-209.5 694.5,-190.5 572.5,-190.5"/>
<text text-anchor="middle" x="633.5" y="-197.5" font-family="Helvetica,sans-Serif" font-size="10.00">adf7030_1__WriteConfig</text>
</a>
</g>
</g>
<!-- Node95&#45;&gt;Node98 -->
<g id="edge12" class="edge"><title>Node95&#45;&gt;Node98</title>
<path fill="none" stroke="midnightblue" d="M506.792,-226.319C532.531,-220.93 562.699,-214.614 587.029,-209.52"/>
<polygon fill="midnightblue" stroke="midnightblue" points="505.871,-222.936 496.8,-228.411 507.305,-229.787 505.871,-222.936"/>
</g>
<!-- Node100 -->
<g id="node15" class="node"><title>Node100</title>
<g id="a_node15"><a xlink:href="group__adf7030-1____patch.html#gac583b9f3bee6f80cf1f418c6e35f57c2" target="_top" xlink:title="Function to read a single Patch block to the PHY Radio. ">
<polygon fill="white" stroke="black" points="378,-190.5 378,-209.5 522,-209.5 522,-190.5 378,-190.5"/>
<text text-anchor="middle" x="450" y="-197.5" font-family="Helvetica,sans-Serif" font-size="10.00">adf7030_1__ReadPatchBlock</text>
</a>
</g>
</g>
<!-- Node99&#45;&gt;Node100 -->
<g id="edge14" class="edge"><title>Node99&#45;&gt;Node100</title>
<path fill="none" stroke="midnightblue" d="M306.896,-156.167C327.04,-163.881 353.307,-173.542 377,-181 387.605,-184.338 399.21,-187.578 409.947,-190.408"/>
<polygon fill="midnightblue" stroke="midnightblue" points="308.127,-152.89 297.538,-152.554 305.606,-159.421 308.127,-152.89"/>
</g>
<!-- Node101 -->
<g id="node16" class="node"><title>Node101</title>
<g id="a_node16"><a xlink:href="group__adf7030-1____patch.html#ga390ff5ab41b522ebfebba9251e135c0a" target="_top" xlink:title="Function to verify content of a single Patch block in the PHY. ">
<polygon fill="white" stroke="black" points="377,-152.5 377,-171.5 523,-171.5 523,-152.5 377,-152.5"/>
<text text-anchor="middle" x="450" y="-159.5" font-family="Helvetica,sans-Serif" font-size="10.00">adf7030_1__VerifyPatchBlock</text>
</a>
</g>
</g>
<!-- Node99&#45;&gt;Node101 -->
<g id="edge15" class="edge"><title>Node99&#45;&gt;Node101</title>
<path fill="none" stroke="midnightblue" d="M351.06,-151.397C359.611,-152.323 368.292,-153.262 376.774,-154.181"/>
<polygon fill="midnightblue" stroke="midnightblue" points="351.421,-147.915 341.102,-150.319 350.667,-154.875 351.421,-147.915"/>
</g>
<!-- Node103 -->
<g id="node18" class="node"><title>Node103</title>
<g id="a_node18"><a xlink:href="group__adf7030-1____patch.html#ga3a7fd2ebaf84d3a0eb18b50ab89403b0" target="_top" xlink:title="Function to write a single Patch block to the PHY Radio. ">
<polygon fill="white" stroke="black" points="377.5,-114.5 377.5,-133.5 522.5,-133.5 522.5,-114.5 377.5,-114.5"/>
<text text-anchor="middle" x="450" y="-121.5" font-family="Helvetica,sans-Serif" font-size="10.00">adf7030_1__WritePatchBlock</text>
</a>
</g>
</g>
<!-- Node99&#45;&gt;Node103 -->
<g id="edge17" class="edge"><title>Node99&#45;&gt;Node103</title>
<path fill="none" stroke="midnightblue" d="M351.226,-134.585C359.92,-133.644 368.746,-132.688 377.359,-131.756"/>
<polygon fill="midnightblue" stroke="midnightblue" points="350.667,-131.125 341.102,-135.681 351.42,-138.085 350.667,-131.125"/>
</g>
<!-- Node104 -->
<g id="node19" class="node"><title>Node104</title>
<g id="a_node19"><a xlink:href="group__adf7030-1____patch.html#ga6c7b2435960b91a621d2b7b59eae91f6" target="_top" xlink:title="Generic Patch checksum configuration transfers function between Host and the Radio PHY...">
<polygon fill="white" stroke="black" points="383,-76.5 383,-95.5 517,-95.5 517,-76.5 383,-76.5"/>
<text text-anchor="middle" x="450" y="-83.5" font-family="Helvetica,sans-Serif" font-size="10.00">adf7030_1__XferChecksum</text>
</a>
</g>
</g>
<!-- Node99&#45;&gt;Node104 -->
<g id="edge19" class="edge"><title>Node99&#45;&gt;Node104</title>
<path fill="none" stroke="midnightblue" d="M306.896,-129.833C327.04,-122.119 353.307,-112.458 377,-105 387.605,-101.662 399.21,-98.4225 409.947,-95.592"/>
<polygon fill="midnightblue" stroke="midnightblue" points="305.606,-126.579 297.538,-133.446 308.127,-133.11 305.606,-126.579"/>
</g>
<!-- Node105 -->
<g id="node20" class="node"><title>Node105</title>
<g id="a_node20"><a xlink:href="group__adf7030-1____patch.html#ga4c271dbe767d130f0efd24c9e98bd2f9" target="_top" xlink:title="Generic Patch transfers function between Host and the Radio PHY. ">
<polygon fill="white" stroke="black" points="393.5,-38.5 393.5,-57.5 506.5,-57.5 506.5,-38.5 393.5,-38.5"/>
<text text-anchor="middle" x="450" y="-45.5" font-family="Helvetica,sans-Serif" font-size="10.00">adf7030_1__XferPatch</text>
</a>
</g>
</g>
<!-- Node99&#45;&gt;Node105 -->
<g id="edge20" class="edge"><title>Node99&#45;&gt;Node105</title>
<path fill="none" stroke="midnightblue" d="M291.347,-126.597C310.965,-109.396 344.087,-82.7244 377,-67 384.932,-63.2104 393.731,-60.0934 402.375,-57.5591"/>
<polygon fill="midnightblue" stroke="midnightblue" points="288.935,-124.059 283.806,-133.329 293.596,-129.28 288.935,-124.059"/>
</g>
<!-- Node102 -->
<g id="node17" class="node"><title>Node102</title>
<g id="a_node17"><a xlink:href="group__adf7030-1____patch.html#ga3102258e3a1861d13c16c82d1e68537f" target="_top" xlink:title="Function call to perform PHY Radio patch self&#45;checking. ">
<polygon fill="white" stroke="black" points="563,-133.5 563,-152.5 704,-152.5 704,-133.5 563,-133.5"/>
<text text-anchor="middle" x="633.5" y="-140.5" font-family="Helvetica,sans-Serif" font-size="10.00">adf7030_1__SelfCheckPatch</text>
</a>
</g>
</g>
<!-- Node101&#45;&gt;Node102 -->
<g id="edge16" class="edge"><title>Node101&#45;&gt;Node102</title>
<path fill="none" stroke="midnightblue" d="M533.434,-153.371C543.267,-152.341 553.231,-151.298 562.859,-150.29"/>
<polygon fill="midnightblue" stroke="midnightblue" points="532.836,-149.914 523.255,-154.436 533.565,-156.876 532.836,-149.914"/>
</g>
<!-- Node103&#45;&gt;Node102 -->
<g id="edge18" class="edge"><title>Node103&#45;&gt;Node102</title>
<path fill="none" stroke="midnightblue" d="M532.704,-132.553C542.743,-133.604 552.93,-134.67 562.769,-135.7"/>
<polygon fill="midnightblue" stroke="midnightblue" points="533.044,-129.07 522.734,-131.509 532.315,-136.032 533.044,-129.07"/>
</g>
<!-- Node106 -->
<g id="node21" class="node"><title>Node106</title>
<g id="a_node21"><a xlink:href="group__adf7030-1____patch.html#ga7c495e105742698cc777a712e2da9ad2" target="_top" xlink:title="Function call to readback the patch from Radio PHY. ">
<polygon fill="white" stroke="black" points="574,-76.5 574,-95.5 693,-95.5 693,-76.5 574,-76.5"/>
<text text-anchor="middle" x="633.5" y="-83.5" font-family="Helvetica,sans-Serif" font-size="10.00">adf7030_1__ReadPatch</text>
</a>
</g>
</g>
<!-- Node105&#45;&gt;Node106 -->
<g id="edge21" class="edge"><title>Node105&#45;&gt;Node106</title>
<path fill="none" stroke="midnightblue" d="M506.792,-59.681C532.531,-65.0699 562.699,-71.3861 587.029,-76.4799"/>
<polygon fill="midnightblue" stroke="midnightblue" points="507.305,-56.2126 496.8,-57.589 505.871,-63.064 507.305,-56.2126"/>
</g>
<!-- Node107 -->
<g id="node22" class="node"><title>Node107</title>
<g id="a_node22"><a xlink:href="group__adf7030-1____patch.html#ga1f1e316b541da1c27fb0a24f0b7efc7d" target="_top" xlink:title="Function call to verify the integrity of the patch. ">
<polygon fill="white" stroke="black" points="572.5,-38.5 572.5,-57.5 694.5,-57.5 694.5,-38.5 572.5,-38.5"/>
<text text-anchor="middle" x="633.5" y="-45.5" font-family="Helvetica,sans-Serif" font-size="10.00">adf7030_1__VerifyPatch</text>
</a>
</g>
</g>
<!-- Node105&#45;&gt;Node107 -->
<g id="edge22" class="edge"><title>Node105&#45;&gt;Node107</title>
<path fill="none" stroke="midnightblue" d="M517.094,-48C535.155,-48 554.625,-48 572.336,-48"/>
<polygon fill="midnightblue" stroke="midnightblue" points="516.937,-44.5001 506.937,-48 516.937,-51.5001 516.937,-44.5001"/>
</g>
<!-- Node108 -->
<g id="node23" class="node"><title>Node108</title>
<g id="a_node23"><a xlink:href="group__adf7030-1____patch.html#gaf6c0681c1cf8597650889b34d1b4bd2f" target="_top" xlink:title="Function call to write patch to Radio PHY. ">
<polygon fill="white" stroke="black" points="573.5,-0.5 573.5,-19.5 693.5,-19.5 693.5,-0.5 573.5,-0.5"/>
<text text-anchor="middle" x="633.5" y="-7.5" font-family="Helvetica,sans-Serif" font-size="10.00">adf7030_1__WritePatch</text>
</a>
</g>
</g>
<!-- Node105&#45;&gt;Node108 -->
<g id="edge23" class="edge"><title>Node105&#45;&gt;Node108</title>
<path fill="none" stroke="midnightblue" d="M506.792,-36.319C532.531,-30.9301 562.699,-24.6139 587.029,-19.5201"/>
<polygon fill="midnightblue" stroke="midnightblue" points="505.871,-32.936 496.8,-38.411 507.305,-39.7874 505.871,-32.936"/>
</g>
</g>
</svg>
        <g id="navigator" transform="translate(0 0)" fill="#404254">
                <rect fill="#f2f5e9" fill-opacity="0.5" stroke="#606060" stroke-width=".5" x="0" y="0" width="60" height="60"/>
                <use id="zoomplus" xlink:href="#zoomPlus" x="17" y="9" onmousedown="handleZoom(evt,'in')"/>
                <use id="zoomminus" xlink:href="#zoomMin" x="42" y="9" onmousedown="handleZoom(evt,'out')"/>
                <use id="reset" xlink:href="#resetDef" x="30" y="36" onmousedown="handleReset()"/>
                <g id="arrowUp" xlink:href="#dirArrow" transform="translate(30 24)" onmousedown="handlePan(0,-1)">
                  <use xlink:href="#rim" fill="#404040">
                        <set attributeName="fill" to="#808080" begin="arrowUp.mouseover" end="arrowUp.mouseout"/>
                  </use>
                  <path fill="none" stroke="white" stroke-width="1.5" d="M0,-3.0v7 M-2.5,-0.5L0,-3.0L2.5,-0.5"/>
                </g>
                <g id="arrowRight" xlink:href="#dirArrow" transform="rotate(90) translate(36 -43)" onmousedown="handlePan(1,0)">
                  <use xlink:href="#rim" fill="#404040">
                        <set attributeName="fill" to="#808080" begin="arrowRight.mouseover" end="arrowRight.mouseout"/>
                  </use>
                  <path fill="none" stroke="white" stroke-width="1.5" d="M0,-3.0v7 M-2.5,-0.5L0,-3.0L2.5,-0.5"/>
                </g>
                <g id="arrowDown" xlink:href="#dirArrow" transform="rotate(180) translate(-30 -48)" onmousedown="handlePan(0,1)">
                  <use xlink:href="#rim" fill="#404040">
                        <set attributeName="fill" to="#808080" begin="arrowDown.mouseover" end="arrowDown.mouseout"/>
                  </use>
                  <path fill="none" stroke="white" stroke-width="1.5" d="M0,-3.0v7 M-2.5,-0.5L0,-3.0L2.5,-0.5"/>
                </g>
                <g id="arrowLeft" xlink:href="#dirArrow" transform="rotate(270) translate(-36 17)" onmousedown="handlePan(-1,0)">
                  <use xlink:href="#rim" fill="#404040">
                        <set attributeName="fill" to="#808080" begin="arrowLeft.mouseover" end="arrowLeft.mouseout"/>
                  </use>
                  <path fill="none" stroke="white" stroke-width="1.5" d="M0,-3.0v7 M-2.5,-0.5L0,-3.0L2.5,-0.5"/>
                </g>
        </g>
        <svg viewBox="0 0 15 15" width="100%" height="30px" preserveAspectRatio="xMaxYMin meet">
         <g id="arrow_out" transform="scale(0.3 0.3)">
          <a xlink:href="group__adf7030-1____spi_ga87f62777c793d805dac75887f167b2bf_icgraph_org.svg" target="_base">
           <rect id="button" ry="5" rx="5" y="6" x="6" height="38" width="38"
                fill="#f2f5e9" fill-opacity="0.5" stroke="#606060" stroke-width="1.0"/>
           <path id="arrow"
             d="M 11.500037,31.436501 C 11.940474,20.09759 22.043105,11.32322 32.158766,21.979434 L 37.068811,17.246167 C 37.068811,17.246167 37.088388,32 37.088388,32 L 22.160133,31.978069 C 22.160133,31.978069 26.997745,27.140456 26.997745,27.140456 C 18.528582,18.264221 13.291696,25.230495 11.500037,31.436501 z"
             style="fill:#404040;"/>
          </a>
         </g>
        </svg>
</svg>
