<?xml version="1.0" encoding="UTF-8" standalone="no"?>
<!DOCTYPE svg PUBLIC "-//W3C//DTD SVG 1.1//EN"
 "http://www.w3.org/Graphics/SVG/1.1/DTD/svg11.dtd">
<!-- Generated by graphviz version 2.38.0 (20140413.2041)
 -->
<!-- Title: adf7030_1__Enable Pages: 1 -->
<svg width="654pt" height="116pt"
 viewBox="0.00 0.00 654.00 115.50" xmlns="http://www.w3.org/2000/svg" xmlns:xlink="http://www.w3.org/1999/xlink">
<g id="graph0" class="graph" transform="scale(1 1) rotate(0) translate(4 111.5)">
<title>adf7030_1__Enable</title>
<polygon fill="white" stroke="none" points="-4,4 -4,-111.5 650,-111.5 650,4 -4,4"/>
<!-- Node12 -->
<g id="node1" class="node"><title>Node12</title>
<polygon fill="#bfbfbf" stroke="black" points="0,-50 0,-69 101,-69 101,-50 0,-50"/>
<text text-anchor="middle" x="50.5" y="-57" font-family="Helvetica,sans-Serif" font-size="10.00">adf7030_1__Enable</text>
</g>
<!-- Node13 -->
<g id="node2" class="node"><title>Node13</title>
<g id="a_node2"><a xlink:href="group__adf7030-1____core.html#ga610bc2107a2907360780fba0c49ddd80" target="_top" xlink:title="Pulse Host GPIO Reset pin. ">
<polygon fill="white" stroke="black" points="151,-88 151,-107 273,-107 273,-88 151,-88"/>
<text text-anchor="middle" x="212" y="-95" font-family="Helvetica,sans-Serif" font-size="10.00">adf7030_1__PulseReset</text>
</a>
</g>
</g>
<!-- Node12&#45;&gt;Node13 -->
<g id="edge1" class="edge"><title>Node12&#45;&gt;Node13</title>
<path fill="none" stroke="midnightblue" d="M91.7486,-69.089C112.796,-74.1035 138.755,-80.2881 161.073,-85.6053"/>
<polygon fill="midnightblue" stroke="midnightblue" points="160.502,-89.067 171.041,-87.9799 162.124,-82.2576 160.502,-89.067"/>
</g>
<!-- Node14 -->
<g id="node3" class="node"><title>Node14</title>
<g id="a_node3"><a xlink:href="group__adf7030-1____cfg.html#ga79c8a4795fbb0bc9040e6ebe0a723df7" target="_top" xlink:title="ADI Radio Configuration transfer function. ">
<polygon fill="white" stroke="black" points="137,-50 137,-69 287,-69 287,-50 137,-50"/>
<text text-anchor="middle" x="212" y="-57" font-family="Helvetica,sans-Serif" font-size="10.00">adf7030_1__SendConfiguration</text>
</a>
</g>
</g>
<!-- Node12&#45;&gt;Node14 -->
<g id="edge2" class="edge"><title>Node12&#45;&gt;Node14</title>
<path fill="none" stroke="midnightblue" d="M101.092,-59.5C109.243,-59.5 117.886,-59.5 126.603,-59.5"/>
<polygon fill="midnightblue" stroke="midnightblue" points="126.846,-63.0001 136.846,-59.5 126.846,-56.0001 126.846,-63.0001"/>
</g>
<!-- Node16 -->
<g id="node5" class="node"><title>Node16</title>
<g id="a_node5"><a xlink:href="group__adf7030-1____state.html#ga80dbe4150d3c045018d716b36d54a12b" target="_top" xlink:title="Send Radio PHY Command and wait util PHY has transition to new state. ">
<polygon fill="white" stroke="black" points="139,-0.5 139,-30.5 285,-30.5 285,-0.5 139,-0.5"/>
<text text-anchor="start" x="147" y="-18.5" font-family="Helvetica,sans-Serif" font-size="10.00">adf7030_1__STATE_PhyCMD</text>
<text text-anchor="middle" x="212" y="-7.5" font-family="Helvetica,sans-Serif" font-size="10.00">_WaitReady</text>
</a>
</g>
</g>
<!-- Node12&#45;&gt;Node16 -->
<g id="edge4" class="edge"><title>Node12&#45;&gt;Node16</title>
<path fill="none" stroke="midnightblue" d="M86.1091,-49.9527C103.826,-45.0651 125.976,-38.9549 146.682,-33.2429"/>
<polygon fill="midnightblue" stroke="midnightblue" points="147.679,-36.5987 156.388,-30.5654 145.817,-29.8508 147.679,-36.5987"/>
</g>
<!-- Node15 -->
<g id="node4" class="node"><title>Node15</title>
<g id="a_node4"><a xlink:href="group__adf7030-1____cfg.html#ga1be70867cf669ddf6ef38924c2893d6c" target="_top" xlink:title="ADI Radio SPI sequence configuration transfer. ">
<polygon fill="white" stroke="black" points="325.5,-50 325.5,-69 444.5,-69 444.5,-50 325.5,-50"/>
<text text-anchor="middle" x="385" y="-57" font-family="Helvetica,sans-Serif" font-size="10.00">adf7030_1__XferCfgSeq</text>
</a>
</g>
</g>
<!-- Node14&#45;&gt;Node15 -->
<g id="edge3" class="edge"><title>Node14&#45;&gt;Node15</title>
<path fill="none" stroke="midnightblue" d="M287.009,-59.5C296.321,-59.5 305.819,-59.5 315.049,-59.5"/>
<polygon fill="midnightblue" stroke="midnightblue" points="315.333,-63.0001 325.333,-59.5 315.333,-56.0001 315.333,-63.0001"/>
</g>
<!-- Node17 -->
<g id="node6" class="node"><title>Node17</title>
<g id="a_node6"><a xlink:href="group__adf7030-1____state.html#ga47915136f3871f6ad931de81fa60b378" target="_top" xlink:title="Generic Radio PHY Command Transfers. ">
<polygon fill="white" stroke="black" points="323,-6 323,-25 447,-25 447,-6 323,-6"/>
<text text-anchor="middle" x="385" y="-13" font-family="Helvetica,sans-Serif" font-size="10.00">adf7030_1__XferCmdPoll</text>
</a>
</g>
</g>
<!-- Node16&#45;&gt;Node17 -->
<g id="edge5" class="edge"><title>Node16&#45;&gt;Node17</title>
<path fill="none" stroke="midnightblue" d="M285.024,-15.5C294.176,-15.5 303.539,-15.5 312.679,-15.5"/>
<polygon fill="midnightblue" stroke="midnightblue" points="312.882,-19.0001 322.882,-15.5 312.882,-12.0001 312.882,-19.0001"/>
</g>
<!-- Node18 -->
<g id="node7" class="node"><title>Node18</title>
<g id="a_node7"><a xlink:href="group__adf7030-1____spi.html#gae598c37af797c9fb49fecd0e62b1bf77" target="_top" xlink:title="Custom FAST API for Read/Write a number of byte(s) to the adf7030&#45;1. ">
<polygon fill="white" stroke="black" points="483,-6 483,-25 646,-25 646,-6 483,-6"/>
<text text-anchor="middle" x="564.5" y="-13" font-family="Helvetica,sans-Serif" font-size="10.00">adf7030_1__SPI_ReadWrite_Fast</text>
</a>
</g>
</g>
<!-- Node17&#45;&gt;Node18 -->
<g id="edge6" class="edge"><title>Node17&#45;&gt;Node18</title>
<path fill="none" stroke="midnightblue" d="M447.085,-15.5C455.374,-15.5 464.021,-15.5 472.694,-15.5"/>
<polygon fill="midnightblue" stroke="midnightblue" points="472.867,-19.0001 482.867,-15.5 472.867,-12.0001 472.867,-19.0001"/>
</g>
</g>
</svg>
