<?xml version="1.0" encoding="UTF-8" standalone="no"?>
<!DOCTYPE svg PUBLIC "-//W3C//DTD SVG 1.1//EN"
 "http://www.w3.org/Graphics/SVG/1.1/DTD/svg11.dtd">
<!-- Generated by graphviz version 2.38.0 (20140413.2041)
 -->
<!-- Title: adf7030_1__XferDataBlock Pages: 1 -->
<svg width="504pt" height="330pt"
 viewBox="0.00 0.00 504.00 330.00" xmlns="http://www.w3.org/2000/svg" xmlns:xlink="http://www.w3.org/1999/xlink">
<g id="graph0" class="graph" transform="scale(1 1) rotate(0) translate(4 326)">
<title>adf7030_1__XferDataBlock</title>
<polygon fill="white" stroke="none" points="-4,4 -4,-326 500,-326 500,4 -4,4"/>
<!-- Node160 -->
<g id="node1" class="node"><title>Node160</title>
<polygon fill="#bfbfbf" stroke="black" points="0,-170.5 0,-189.5 132,-189.5 132,-170.5 0,-170.5"/>
<text text-anchor="middle" x="66" y="-177.5" font-family="Helvetica,sans-Serif" font-size="10.00">adf7030_1__XferDataBlock</text>
</g>
<!-- Node161 -->
<g id="node2" class="node"><title>Node161</title>
<g id="a_node2"><a xlink:href="group__adf7030-1____mem.html#gaa184749ff4ec2d53c167d51cbadb9b18" target="_top" xlink:title="Function call to read the Data block. ">
<polygon fill="white" stroke="black" points="170,-302.5 170,-321.5 309,-321.5 309,-302.5 170,-302.5"/>
<text text-anchor="middle" x="239.5" y="-309.5" font-family="Helvetica,sans-Serif" font-size="10.00">adf7030_1__ReadDataBlock</text>
</a>
</g>
</g>
<!-- Node160&#45;&gt;Node161 -->
<g id="edge1" class="edge"><title>Node160&#45;&gt;Node161</title>
<path fill="none" stroke="midnightblue" d="M78.2466,-198.137C94.7878,-223.278 128.077,-268.395 168,-293 174.259,-296.858 181.301,-299.942 188.449,-302.407"/>
<polygon fill="midnightblue" stroke="midnightblue" points="81.093,-196.092 72.7481,-189.564 75.2007,-199.871 81.093,-196.092"/>
</g>
<!-- Node163 -->
<g id="node4" class="node"><title>Node163</title>
<g id="a_node4"><a xlink:href="group__adf7030-1____mem.html#gaaed60fb0edafdf66ac0dd799752e9a5a" target="_top" xlink:title="Function call to partially read a section of the Host Data block. ">
<polygon fill="white" stroke="black" points="169.5,-253 169.5,-283 309.5,-283 309.5,-253 169.5,-253"/>
<text text-anchor="start" x="177.5" y="-271" font-family="Helvetica,sans-Serif" font-size="10.00">adf7030_1__ReadPartiaData</text>
<text text-anchor="middle" x="239.5" y="-260" font-family="Helvetica,sans-Serif" font-size="10.00">Block</text>
</a>
</g>
</g>
<!-- Node160&#45;&gt;Node163 -->
<g id="edge3" class="edge"><title>Node160&#45;&gt;Node163</title>
<path fill="none" stroke="midnightblue" d="M88.5321,-195.356C108.462,-209.094 139.265,-229.146 168,-243 175.487,-246.609 183.636,-249.977 191.649,-252.997"/>
<polygon fill="midnightblue" stroke="midnightblue" points="90.3904,-192.385 80.1867,-189.533 86.3848,-198.125 90.3904,-192.385"/>
</g>
<!-- Node164 -->
<g id="node5" class="node"><title>Node164</title>
<g id="a_node5"><a xlink:href="group__adf7030-1____mem.html#gacf6942abdfef8b5994cb07ffc51acd05" target="_top" xlink:title="Function call to verify the integrity of Data block. ">
<polygon fill="white" stroke="black" points="169,-214.5 169,-233.5 310,-233.5 310,-214.5 169,-214.5"/>
<text text-anchor="middle" x="239.5" y="-221.5" font-family="Helvetica,sans-Serif" font-size="10.00">adf7030_1__VerifyDataBlock</text>
</a>
</g>
</g>
<!-- Node160&#45;&gt;Node164 -->
<g id="edge4" class="edge"><title>Node160&#45;&gt;Node164</title>
<path fill="none" stroke="midnightblue" d="M114.013,-192.062C141.519,-199.118 175.756,-207.902 201.36,-214.471"/>
<polygon fill="midnightblue" stroke="midnightblue" points="114.769,-188.642 104.213,-189.547 113.029,-195.423 114.769,-188.642"/>
</g>
<!-- Node165 -->
<g id="node6" class="node"><title>Node165</title>
<g id="a_node6"><a xlink:href="group__adf7030-1____mem.html#ga4373955bd51900d2f60a961005aa83cb" target="_top" xlink:title="Function call to verify the integrity of a portion of a Host Data block. ">
<polygon fill="white" stroke="black" points="177.5,-165 177.5,-195 301.5,-195 301.5,-165 177.5,-165"/>
<text text-anchor="start" x="185.5" y="-183" font-family="Helvetica,sans-Serif" font-size="10.00">adf7030_1__VerifyPartial</text>
<text text-anchor="middle" x="239.5" y="-172" font-family="Helvetica,sans-Serif" font-size="10.00">DataBlock</text>
</a>
</g>
</g>
<!-- Node160&#45;&gt;Node165 -->
<g id="edge5" class="edge"><title>Node160&#45;&gt;Node165</title>
<path fill="none" stroke="midnightblue" d="M142.473,-180C154.12,-180 166.023,-180 177.307,-180"/>
<polygon fill="midnightblue" stroke="midnightblue" points="142.326,-176.5 132.326,-180 142.326,-183.5 142.326,-176.5"/>
</g>
<!-- Node166 -->
<g id="node7" class="node"><title>Node166</title>
<g id="a_node7"><a xlink:href="group__adf7030-1____mem.html#gab45789e38821a80b3f9cce11b91277bc" target="_top" xlink:title="Function call to write the Data block. ">
<polygon fill="white" stroke="black" points="169.5,-126.5 169.5,-145.5 309.5,-145.5 309.5,-126.5 169.5,-126.5"/>
<text text-anchor="middle" x="239.5" y="-133.5" font-family="Helvetica,sans-Serif" font-size="10.00">adf7030_1__WriteDataBlock</text>
</a>
</g>
</g>
<!-- Node160&#45;&gt;Node166 -->
<g id="edge6" class="edge"><title>Node160&#45;&gt;Node166</title>
<path fill="none" stroke="midnightblue" d="M114.013,-167.938C141.519,-160.882 175.756,-152.098 201.36,-145.529"/>
<polygon fill="midnightblue" stroke="midnightblue" points="113.029,-164.577 104.213,-170.453 114.769,-171.358 113.029,-164.577"/>
</g>
<!-- Node167 -->
<g id="node8" class="node"><title>Node167</title>
<g id="a_node8"><a xlink:href="group__adf7030-1____mem.html#gae2459967f63b227938db62e1b5388afc" target="_top" xlink:title="Function call to partially write a section of the Host Data block. ">
<polygon fill="white" stroke="black" points="168,-77 168,-107 311,-107 311,-77 168,-77"/>
<text text-anchor="start" x="176" y="-95" font-family="Helvetica,sans-Serif" font-size="10.00">adf7030_1__WritePartialData</text>
<text text-anchor="middle" x="239.5" y="-84" font-family="Helvetica,sans-Serif" font-size="10.00">Block</text>
</a>
</g>
</g>
<!-- Node160&#45;&gt;Node167 -->
<g id="edge7" class="edge"><title>Node160&#45;&gt;Node167</title>
<path fill="none" stroke="midnightblue" d="M88.5321,-164.644C108.462,-150.906 139.265,-130.854 168,-117 175.487,-113.391 183.636,-110.023 191.649,-107.003"/>
<polygon fill="midnightblue" stroke="midnightblue" points="86.3848,-161.875 80.1867,-170.467 90.3904,-167.615 86.3848,-161.875"/>
</g>
<!-- Node168 -->
<g id="node9" class="node"><title>Node168</title>
<g id="a_node9"><a xlink:href="group__adf7030-1____mem.html#gae8fab7f4a9d7bc3432f2b85b789510e1" target="_top" xlink:title="Generic Configuration transfers function between Host and the Radio PHY. ">
<polygon fill="white" stroke="black" points="182.5,-38.5 182.5,-57.5 296.5,-57.5 296.5,-38.5 182.5,-38.5"/>
<text text-anchor="middle" x="239.5" y="-45.5" font-family="Helvetica,sans-Serif" font-size="10.00">adf7030_1__XferConfig</text>
</a>
</g>
</g>
<!-- Node160&#45;&gt;Node168 -->
<g id="edge8" class="edge"><title>Node160&#45;&gt;Node168</title>
<path fill="none" stroke="midnightblue" d="M78.2466,-161.863C94.7878,-136.722 128.077,-91.6053 168,-67 174.259,-63.1425 181.301,-60.0576 188.449,-57.5933"/>
<polygon fill="midnightblue" stroke="midnightblue" points="75.2007,-160.129 72.7481,-170.436 81.093,-163.908 75.2007,-160.129"/>
</g>
<!-- Node162 -->
<g id="node3" class="node"><title>Node162</title>
<g id="a_node3"><a xlink:href="group__adf7030-1____core.html#gaa8110804874966018d0b7bfe40cbc001" target="_top" xlink:title="Initialise the Host shadow configuration of the PHY Radio. ">
<polygon fill="white" stroke="black" points="347,-302.5 347,-321.5 496,-321.5 496,-302.5 347,-302.5"/>
<text text-anchor="middle" x="421.5" y="-309.5" font-family="Helvetica,sans-Serif" font-size="10.00">adf7030_1__SetupHostPhyCfg</text>
</a>
</g>
</g>
<!-- Node161&#45;&gt;Node162 -->
<g id="edge2" class="edge"><title>Node161&#45;&gt;Node162</title>
<path fill="none" stroke="midnightblue" d="M319.277,-312C328.4,-312 337.679,-312 346.731,-312"/>
<polygon fill="midnightblue" stroke="midnightblue" points="319.064,-308.5 309.064,-312 319.064,-315.5 319.064,-308.5"/>
</g>
<!-- Node169 -->
<g id="node10" class="node"><title>Node169</title>
<g id="a_node10"><a xlink:href="group__adf7030-1____mem.html#gaf9027afec4eb550d5d563efbb1ed3cbb" target="_top" xlink:title="Function call to read Configuration from Radio PHY. ">
<polygon fill="white" stroke="black" points="361,-76.5 361,-95.5 482,-95.5 482,-76.5 361,-76.5"/>
<text text-anchor="middle" x="421.5" y="-83.5" font-family="Helvetica,sans-Serif" font-size="10.00">adf7030_1__ReadConfig</text>
</a>
</g>
</g>
<!-- Node168&#45;&gt;Node169 -->
<g id="edge9" class="edge"><title>Node168&#45;&gt;Node169</title>
<path fill="none" stroke="midnightblue" d="M295.831,-59.681C321.357,-65.0699 351.276,-71.3861 375.405,-76.4799"/>
<polygon fill="midnightblue" stroke="midnightblue" points="296.429,-56.2301 285.922,-57.589 294.983,-63.0792 296.429,-56.2301"/>
</g>
<!-- Node170 -->
<g id="node11" class="node"><title>Node170</title>
<g id="a_node11"><a xlink:href="group__adf7030-1____mem.html#gaeb52c8834f7abccae8965541f562fe80" target="_top" xlink:title="Function call to verify the integrity of the patch. ">
<polygon fill="white" stroke="black" points="360,-38.5 360,-57.5 483,-57.5 483,-38.5 360,-38.5"/>
<text text-anchor="middle" x="421.5" y="-45.5" font-family="Helvetica,sans-Serif" font-size="10.00">adf7030_1__VerifyConfig</text>
</a>
</g>
</g>
<!-- Node168&#45;&gt;Node170 -->
<g id="edge10" class="edge"><title>Node168&#45;&gt;Node170</title>
<path fill="none" stroke="midnightblue" d="M306.991,-48C324.31,-48 342.878,-48 359.876,-48"/>
<polygon fill="midnightblue" stroke="midnightblue" points="306.959,-44.5001 296.959,-48 306.959,-51.5001 306.959,-44.5001"/>
</g>
<!-- Node171 -->
<g id="node12" class="node"><title>Node171</title>
<g id="a_node12"><a xlink:href="group__adf7030-1____mem.html#ga79e0355d8a6b661e6b0d7d6be01d04a2" target="_top" xlink:title="Function call to write Configuration to Radio PHY. ">
<polygon fill="white" stroke="black" points="360.5,-0.5 360.5,-19.5 482.5,-19.5 482.5,-0.5 360.5,-0.5"/>
<text text-anchor="middle" x="421.5" y="-7.5" font-family="Helvetica,sans-Serif" font-size="10.00">adf7030_1__WriteConfig</text>
</a>
</g>
</g>
<!-- Node168&#45;&gt;Node171 -->
<g id="edge11" class="edge"><title>Node168&#45;&gt;Node171</title>
<path fill="none" stroke="midnightblue" d="M295.831,-36.319C321.357,-30.9301 351.276,-24.6139 375.405,-19.5201"/>
<polygon fill="midnightblue" stroke="midnightblue" points="294.983,-32.9208 285.922,-38.411 296.429,-39.7699 294.983,-32.9208"/>
</g>
</g>
</svg>
