<?xml version="1.0" encoding="UTF-8" standalone="no"?>
<!DOCTYPE svg PUBLIC "-//W3C//DTD SVG 1.1//EN"
 "http://www.w3.org/Graphics/SVG/1.1/DTD/svg11.dtd">
<!-- Generated by graphviz version 2.38.0 (20140413.2041)
 -->
<!-- Title: adf7030_1__XferPatchBlock Pages: 1 -->
<svg width="504pt" height="218pt"
 viewBox="0.00 0.00 504.00 218.00" xmlns="http://www.w3.org/2000/svg" xmlns:xlink="http://www.w3.org/1999/xlink">
<g id="graph0" class="graph" transform="scale(1 1) rotate(0) translate(4 214)">
<title>adf7030_1__XferPatchBlock</title>
<polygon fill="white" stroke="none" points="-4,4 -4,-214 500,-214 500,4 -4,4"/>
<!-- Node81 -->
<g id="node1" class="node"><title>Node81</title>
<polygon fill="#bfbfbf" stroke="black" points="0,-114.5 0,-133.5 137,-133.5 137,-114.5 0,-114.5"/>
<text text-anchor="middle" x="68.5" y="-121.5" font-family="Helvetica,sans-Serif" font-size="10.00">adf7030_1__XferPatchBlock</text>
</g>
<!-- Node82 -->
<g id="node2" class="node"><title>Node82</title>
<g id="a_node2"><a xlink:href="group__adf7030-1____patch.html#gac583b9f3bee6f80cf1f418c6e35f57c2" target="_top" xlink:title="Function to read a single Patch block to the PHY Radio. ">
<polygon fill="white" stroke="black" points="174,-190.5 174,-209.5 318,-209.5 318,-190.5 174,-190.5"/>
<text text-anchor="middle" x="246" y="-197.5" font-family="Helvetica,sans-Serif" font-size="10.00">adf7030_1__ReadPatchBlock</text>
</a>
</g>
</g>
<!-- Node81&#45;&gt;Node82 -->
<g id="edge1" class="edge"><title>Node81&#45;&gt;Node82</title>
<path fill="none" stroke="midnightblue" d="M92.631,-138.902C113.091,-151.549 144.098,-169.433 173,-181 182.122,-184.651 192.173,-187.808 201.798,-190.444"/>
<polygon fill="midnightblue" stroke="midnightblue" points="94.3498,-135.849 84.0182,-133.502 90.6312,-141.78 94.3498,-135.849"/>
</g>
<!-- Node83 -->
<g id="node3" class="node"><title>Node83</title>
<g id="a_node3"><a xlink:href="group__adf7030-1____patch.html#ga390ff5ab41b522ebfebba9251e135c0a" target="_top" xlink:title="Function to verify content of a single Patch block in the PHY. ">
<polygon fill="white" stroke="black" points="173,-152.5 173,-171.5 319,-171.5 319,-152.5 173,-152.5"/>
<text text-anchor="middle" x="246" y="-159.5" font-family="Helvetica,sans-Serif" font-size="10.00">adf7030_1__VerifyPatchBlock</text>
</a>
</g>
</g>
<!-- Node81&#45;&gt;Node83 -->
<g id="edge2" class="edge"><title>Node81&#45;&gt;Node83</title>
<path fill="none" stroke="midnightblue" d="M123.778,-135.753C148.594,-141.126 177.611,-147.409 201.032,-152.48"/>
<polygon fill="midnightblue" stroke="midnightblue" points="124.3,-132.285 113.786,-133.589 122.819,-139.126 124.3,-132.285"/>
</g>
<!-- Node85 -->
<g id="node5" class="node"><title>Node85</title>
<g id="a_node5"><a xlink:href="group__adf7030-1____patch.html#ga3a7fd2ebaf84d3a0eb18b50ab89403b0" target="_top" xlink:title="Function to write a single Patch block to the PHY Radio. ">
<polygon fill="white" stroke="black" points="173.5,-114.5 173.5,-133.5 318.5,-133.5 318.5,-114.5 173.5,-114.5"/>
<text text-anchor="middle" x="246" y="-121.5" font-family="Helvetica,sans-Serif" font-size="10.00">adf7030_1__WritePatchBlock</text>
</a>
</g>
</g>
<!-- Node81&#45;&gt;Node85 -->
<g id="edge4" class="edge"><title>Node81&#45;&gt;Node85</title>
<path fill="none" stroke="midnightblue" d="M147.226,-124C155.92,-124 164.746,-124 173.359,-124"/>
<polygon fill="midnightblue" stroke="midnightblue" points="147.102,-120.5 137.102,-124 147.102,-127.5 147.102,-120.5"/>
</g>
<!-- Node86 -->
<g id="node6" class="node"><title>Node86</title>
<g id="a_node6"><a xlink:href="group__adf7030-1____patch.html#ga6c7b2435960b91a621d2b7b59eae91f6" target="_top" xlink:title="Generic Patch checksum configuration transfers function between Host and the Radio PHY...">
<polygon fill="white" stroke="black" points="179,-76.5 179,-95.5 313,-95.5 313,-76.5 179,-76.5"/>
<text text-anchor="middle" x="246" y="-83.5" font-family="Helvetica,sans-Serif" font-size="10.00">adf7030_1__XferChecksum</text>
</a>
</g>
</g>
<!-- Node81&#45;&gt;Node86 -->
<g id="edge6" class="edge"><title>Node81&#45;&gt;Node86</title>
<path fill="none" stroke="midnightblue" d="M123.778,-112.247C148.594,-106.874 177.611,-100.591 201.032,-95.5201"/>
<polygon fill="midnightblue" stroke="midnightblue" points="122.819,-108.874 113.786,-114.411 124.3,-115.715 122.819,-108.874"/>
</g>
<!-- Node87 -->
<g id="node7" class="node"><title>Node87</title>
<g id="a_node7"><a xlink:href="group__adf7030-1____patch.html#ga4c271dbe767d130f0efd24c9e98bd2f9" target="_top" xlink:title="Generic Patch transfers function between Host and the Radio PHY. ">
<polygon fill="white" stroke="black" points="189.5,-38.5 189.5,-57.5 302.5,-57.5 302.5,-38.5 189.5,-38.5"/>
<text text-anchor="middle" x="246" y="-45.5" font-family="Helvetica,sans-Serif" font-size="10.00">adf7030_1__XferPatch</text>
</a>
</g>
</g>
<!-- Node81&#45;&gt;Node87 -->
<g id="edge7" class="edge"><title>Node81&#45;&gt;Node87</title>
<path fill="none" stroke="midnightblue" d="M92.631,-109.098C113.091,-96.4511 144.098,-78.5674 173,-67 182.122,-63.3492 192.173,-60.1915 201.798,-57.5559"/>
<polygon fill="midnightblue" stroke="midnightblue" points="90.6312,-106.22 84.0182,-114.498 94.3498,-112.151 90.6312,-106.22"/>
</g>
<!-- Node84 -->
<g id="node4" class="node"><title>Node84</title>
<g id="a_node4"><a xlink:href="group__adf7030-1____patch.html#ga3102258e3a1861d13c16c82d1e68537f" target="_top" xlink:title="Function call to perform PHY Radio patch self&#45;checking. ">
<polygon fill="white" stroke="black" points="355,-133.5 355,-152.5 496,-152.5 496,-133.5 355,-133.5"/>
<text text-anchor="middle" x="425.5" y="-140.5" font-family="Helvetica,sans-Serif" font-size="10.00">adf7030_1__SelfCheckPatch</text>
</a>
</g>
</g>
<!-- Node83&#45;&gt;Node84 -->
<g id="edge3" class="edge"><title>Node83&#45;&gt;Node84</title>
<path fill="none" stroke="midnightblue" d="M329.234,-153.198C337.833,-152.277 346.514,-151.348 354.952,-150.445"/>
<polygon fill="midnightblue" stroke="midnightblue" points="328.767,-149.727 319.196,-154.272 329.512,-156.688 328.767,-149.727"/>
</g>
<!-- Node85&#45;&gt;Node84 -->
<g id="edge5" class="edge"><title>Node85&#45;&gt;Node84</title>
<path fill="none" stroke="midnightblue" d="M328.832,-132.76C337.529,-133.69 346.315,-134.631 354.853,-135.545"/>
<polygon fill="midnightblue" stroke="midnightblue" points="329,-129.258 318.684,-131.673 328.255,-136.218 329,-129.258"/>
</g>
<!-- Node88 -->
<g id="node8" class="node"><title>Node88</title>
<g id="a_node8"><a xlink:href="group__adf7030-1____patch.html#ga7c495e105742698cc777a712e2da9ad2" target="_top" xlink:title="Function call to readback the patch from Radio PHY. ">
<polygon fill="white" stroke="black" points="366,-76.5 366,-95.5 485,-95.5 485,-76.5 366,-76.5"/>
<text text-anchor="middle" x="425.5" y="-83.5" font-family="Helvetica,sans-Serif" font-size="10.00">adf7030_1__ReadPatch</text>
</a>
</g>
</g>
<!-- Node87&#45;&gt;Node88 -->
<g id="edge8" class="edge"><title>Node87&#45;&gt;Node88</title>
<path fill="none" stroke="midnightblue" d="M301.897,-59.7526C326.995,-65.1258 356.343,-71.4086 380.031,-76.4799"/>
<polygon fill="midnightblue" stroke="midnightblue" points="302.302,-56.26 291.791,-57.589 300.836,-63.1049 302.302,-56.26"/>
</g>
<!-- Node89 -->
<g id="node9" class="node"><title>Node89</title>
<g id="a_node9"><a xlink:href="group__adf7030-1____patch.html#ga1f1e316b541da1c27fb0a24f0b7efc7d" target="_top" xlink:title="Function call to verify the integrity of the patch. ">
<polygon fill="white" stroke="black" points="364.5,-38.5 364.5,-57.5 486.5,-57.5 486.5,-38.5 364.5,-38.5"/>
<text text-anchor="middle" x="425.5" y="-45.5" font-family="Helvetica,sans-Serif" font-size="10.00">adf7030_1__VerifyPatch</text>
</a>
</g>
</g>
<!-- Node87&#45;&gt;Node89 -->
<g id="edge9" class="edge"><title>Node87&#45;&gt;Node89</title>
<path fill="none" stroke="midnightblue" d="M312.992,-48C329.844,-48 347.869,-48 364.408,-48"/>
<polygon fill="midnightblue" stroke="midnightblue" points="312.675,-44.5001 302.675,-48 312.675,-51.5001 312.675,-44.5001"/>
</g>
<!-- Node90 -->
<g id="node10" class="node"><title>Node90</title>
<g id="a_node10"><a xlink:href="group__adf7030-1____patch.html#gaf6c0681c1cf8597650889b34d1b4bd2f" target="_top" xlink:title="Function call to write patch to Radio PHY. ">
<polygon fill="white" stroke="black" points="365.5,-0.5 365.5,-19.5 485.5,-19.5 485.5,-0.5 365.5,-0.5"/>
<text text-anchor="middle" x="425.5" y="-7.5" font-family="Helvetica,sans-Serif" font-size="10.00">adf7030_1__WritePatch</text>
</a>
</g>
</g>
<!-- Node87&#45;&gt;Node90 -->
<g id="edge10" class="edge"><title>Node87&#45;&gt;Node90</title>
<path fill="none" stroke="midnightblue" d="M301.897,-36.2474C326.995,-30.8742 356.343,-24.5914 380.031,-19.5201"/>
<polygon fill="midnightblue" stroke="midnightblue" points="300.836,-32.8951 291.791,-38.411 302.302,-39.74 300.836,-32.8951"/>
</g>
</g>
</svg>
