<?xml version="1.0" encoding="UTF-8" standalone="no"?>
<!DOCTYPE svg PUBLIC "-//W3C//DTD SVG 1.1//EN"
 "http://www.w3.org/Graphics/SVG/1.1/DTD/svg11.dtd">
<!-- Generated by graphviz version 2.38.0 (20140413.2041)
 -->
<!-- Title: adf7030_1__SPI_SetField Pages: 1 -->
<svg width="320pt" height="116pt"
 viewBox="0.00 0.00 320.00 115.50" xmlns="http://www.w3.org/2000/svg" xmlns:xlink="http://www.w3.org/1999/xlink">
<g id="graph0" class="graph" transform="scale(1 1) rotate(0) translate(4 111.5)">
<title>adf7030_1__SPI_SetField</title>
<polygon fill="white" stroke="none" points="-4,4 -4,-111.5 316,-111.5 316,4 -4,4"/>
<!-- Node76 -->
<g id="node1" class="node"><title>Node76</title>
<polygon fill="#bfbfbf" stroke="black" points="0,-38.5 0,-57.5 128,-57.5 128,-38.5 0,-38.5"/>
<text text-anchor="middle" x="64" y="-45.5" font-family="Helvetica,sans-Serif" font-size="10.00">adf7030_1__SPI_SetField</text>
</g>
<!-- Node77 -->
<g id="node2" class="node"><title>Node77</title>
<g id="a_node2"><a xlink:href="group__adf7030-1____mem.html#ga301747e36458e5763d98d3cb73c9122f" target="_top" xlink:title="Generic Function to check if byte rw operation is permitted. ">
<polygon fill="white" stroke="black" points="164,-77 164,-107 312,-107 312,-77 164,-77"/>
<text text-anchor="start" x="172" y="-95" font-family="Helvetica,sans-Serif" font-size="10.00">adf7030_1__MEM_CheckByte</text>
<text text-anchor="middle" x="238" y="-84" font-family="Helvetica,sans-Serif" font-size="10.00">Access</text>
</a>
</g>
</g>
<!-- Node76&#45;&gt;Node77 -->
<g id="edge1" class="edge"><title>Node76&#45;&gt;Node77</title>
<path fill="none" stroke="midnightblue" d="M102.321,-57.5473C121.6,-62.4791 145.745,-68.6558 168.247,-74.4121"/>
<polygon fill="midnightblue" stroke="midnightblue" points="167.553,-77.847 178.108,-76.9346 169.288,-71.0654 167.553,-77.847"/>
</g>
<!-- Node78 -->
<g id="node3" class="node"><title>Node78</title>
<g id="a_node3"><a xlink:href="group__adf7030-1____mem.html#gacda1914daaf2eded7347710b0dbdb78a" target="_top" xlink:title="Read &quot;nbBytes&quot; memory location via the SPI. ">
<polygon fill="white" stroke="black" points="171,-38.5 171,-57.5 305,-57.5 305,-38.5 171,-38.5"/>
<text text-anchor="middle" x="238" y="-45.5" font-family="Helvetica,sans-Serif" font-size="10.00">adf7030_1__SPI_GetBytes</text>
</a>
</g>
</g>
<!-- Node76&#45;&gt;Node78 -->
<g id="edge2" class="edge"><title>Node76&#45;&gt;Node78</title>
<path fill="none" stroke="midnightblue" d="M128.07,-48C138.605,-48 149.635,-48 160.463,-48"/>
<polygon fill="midnightblue" stroke="midnightblue" points="160.76,-51.5001 170.76,-48 160.76,-44.5001 160.76,-51.5001"/>
</g>
<!-- Node79 -->
<g id="node4" class="node"><title>Node79</title>
<g id="a_node4"><a xlink:href="group__adf7030-1____mem.html#ga7dacc77a0474b14d4e15e12bfc1a46d7" target="_top" xlink:title="Writes &quot;nbBytes&quot; memory location via the SPI. ">
<polygon fill="white" stroke="black" points="171.5,-0.5 171.5,-19.5 304.5,-19.5 304.5,-0.5 171.5,-0.5"/>
<text text-anchor="middle" x="238" y="-7.5" font-family="Helvetica,sans-Serif" font-size="10.00">adf7030_1__SPI_SetBytes</text>
</a>
</g>
</g>
<!-- Node76&#45;&gt;Node79 -->
<g id="edge3" class="edge"><title>Node76&#45;&gt;Node79</title>
<path fill="none" stroke="midnightblue" d="M108.403,-38.411C131.407,-33.3287 159.851,-27.0446 184.134,-21.6797"/>
<polygon fill="midnightblue" stroke="midnightblue" points="184.9,-25.095 193.909,-19.5201 183.39,-18.2598 184.9,-25.095"/>
</g>
</g>
</svg>
