<?xml version="1.0" encoding="UTF-8" standalone="no"?>
<!DOCTYPE svg PUBLIC "-//W3C//DTD SVG 1.1//EN"
 "http://www.w3.org/Graphics/SVG/1.1/DTD/svg11.dtd">
<!-- Generated by graphviz version 2.38.0 (20140413.2041)
 -->
<!-- Title: adf7030_1__Get_PhyProfileAddr Pages: 1 -->
<svg width="500pt" height="28pt"
 viewBox="0.00 0.00 500.00 28.00" xmlns="http://www.w3.org/2000/svg" xmlns:xlink="http://www.w3.org/1999/xlink">
<g id="graph0" class="graph" transform="scale(1 1) rotate(0) translate(4 24)">
<title>adf7030_1__Get_PhyProfileAddr</title>
<polygon fill="white" stroke="none" points="-4,4 -4,-24 496,-24 496,4 -4,4"/>
<!-- Node29 -->
<g id="node1" class="node"><title>Node29</title>
<polygon fill="#bfbfbf" stroke="black" points="0,-0.5 0,-19.5 157,-19.5 157,-0.5 0,-0.5"/>
<text text-anchor="middle" x="78.5" y="-7.5" font-family="Helvetica,sans-Serif" font-size="10.00">adf7030_1__Get_PhyProfileAddr</text>
</g>
<!-- Node30 -->
<g id="node2" class="node"><title>Node30</title>
<g id="a_node2"><a xlink:href="group__adf7030-1____mem.html#ga487dca82221f52f7af85a3156ede64ea" target="_top" xlink:title="Generic readback of a bitfield value from the Radio PHY via the SPI. ">
<polygon fill="white" stroke="black" points="193,-0.5 193,-19.5 322,-19.5 322,-0.5 193,-0.5"/>
<text text-anchor="middle" x="257.5" y="-7.5" font-family="Helvetica,sans-Serif" font-size="10.00">adf7030_1__SPI_GetField</text>
</a>
</g>
</g>
<!-- Node29&#45;&gt;Node30 -->
<g id="edge1" class="edge"><title>Node29&#45;&gt;Node30</title>
<path fill="none" stroke="midnightblue" d="M157.135,-10C165.653,-10 174.308,-10 182.778,-10"/>
<polygon fill="midnightblue" stroke="midnightblue" points="182.994,-13.5001 192.994,-10 182.994,-6.5001 182.994,-13.5001"/>
</g>
<!-- Node31 -->
<g id="node3" class="node"><title>Node31</title>
<g id="a_node3"><a xlink:href="group__adf7030-1____mem.html#gacda1914daaf2eded7347710b0dbdb78a" target="_top" xlink:title="Read &quot;nbBytes&quot; memory location via the SPI. ">
<polygon fill="white" stroke="black" points="358,-0.5 358,-19.5 492,-19.5 492,-0.5 358,-0.5"/>
<text text-anchor="middle" x="425" y="-7.5" font-family="Helvetica,sans-Serif" font-size="10.00">adf7030_1__SPI_GetBytes</text>
</a>
</g>
</g>
<!-- Node30&#45;&gt;Node31 -->
<g id="edge2" class="edge"><title>Node30&#45;&gt;Node31</title>
<path fill="none" stroke="midnightblue" d="M322.013,-10C330.465,-10 339.2,-10 347.839,-10"/>
<polygon fill="midnightblue" stroke="midnightblue" points="347.914,-13.5001 357.914,-10 347.914,-6.5001 347.914,-13.5001"/>
</g>
</g>
</svg>
