<?xml version="1.0" encoding="UTF-8" standalone="no"?>
<!DOCTYPE svg PUBLIC "-//W3C//DTD SVG 1.1//EN"
 "http://www.w3.org/Graphics/SVG/1.1/DTD/svg11.dtd">
<!-- Generated by graphviz version 2.38.0 (20140413.2041)
 -->
<!-- Title: adf7030_1__GPIO_SetCfg Pages: 1 -->
<svg width="320pt" height="66pt"
 viewBox="0.00 0.00 320.00 66.00" xmlns="http://www.w3.org/2000/svg" xmlns:xlink="http://www.w3.org/1999/xlink">
<g id="graph0" class="graph" transform="scale(1 1) rotate(0) translate(4 62)">
<title>adf7030_1__GPIO_SetCfg</title>
<polygon fill="white" stroke="none" points="-4,4 -4,-62 316,-62 316,4 -4,4"/>
<!-- Node13 -->
<g id="node1" class="node"><title>Node13</title>
<polygon fill="#bfbfbf" stroke="black" points="0,-19.5 0,-38.5 130,-38.5 130,-19.5 0,-19.5"/>
<text text-anchor="middle" x="65" y="-26.5" font-family="Helvetica,sans-Serif" font-size="10.00">adf7030_1__GPIO_SetCfg</text>
</g>
<!-- Node14 -->
<g id="node2" class="node"><title>Node14</title>
<g id="a_node2"><a xlink:href="group__adf7030-1____irq.html#gac21dfc3398c0190f1d1fe74e3adbcd48" target="_top" xlink:title="Setup PHY Radio GPIO irq. ">
<polygon fill="white" stroke="black" points="166,-38.5 166,-57.5 312,-57.5 312,-38.5 166,-38.5"/>
<text text-anchor="middle" x="239" y="-45.5" font-family="Helvetica,sans-Serif" font-size="10.00">adf7030_1__IRQ_SetGPIOPin</text>
</a>
</g>
</g>
<!-- Node13&#45;&gt;Node14 -->
<g id="edge1" class="edge"><title>Node13&#45;&gt;Node14</title>
<path fill="none" stroke="midnightblue" d="M139.994,-37.1738C148.549,-38.1188 157.266,-39.0817 165.796,-40.024"/>
<polygon fill="midnightblue" stroke="midnightblue" points="140.37,-33.6941 130.046,-36.0749 139.602,-40.6518 140.37,-33.6941"/>
</g>
<!-- Node15 -->
<g id="node3" class="node"><title>Node15</title>
<g id="a_node3"><a xlink:href="group__adf7030-1____core.html#gacc594fe578d3493100c338ffbd11ff53" target="_top" xlink:title="Setup PHY gpio to for external trigger command. ">
<polygon fill="white" stroke="black" points="167.5,-0.5 167.5,-19.5 310.5,-19.5 310.5,-0.5 167.5,-0.5"/>
<text text-anchor="middle" x="239" y="-7.5" font-family="Helvetica,sans-Serif" font-size="10.00">adf7030_1__SetupPhyTrigger</text>
</a>
</g>
</g>
<!-- Node13&#45;&gt;Node15 -->
<g id="edge2" class="edge"><title>Node13&#45;&gt;Node15</title>
<path fill="none" stroke="midnightblue" d="M140.115,-20.8128C149.119,-19.8182 158.3,-18.804 167.254,-17.815"/>
<polygon fill="midnightblue" stroke="midnightblue" points="139.602,-17.3482 130.046,-21.9251 140.37,-24.3059 139.602,-17.3482"/>
</g>
</g>
</svg>
