<?xml version="1.0" encoding="UTF-8" standalone="no"?>
<!DOCTYPE svg PUBLIC "-//W3C//DTD SVG 1.1//EN"
 "http://www.w3.org/Graphics/SVG/1.1/DTD/svg11.dtd">
<!-- Generated by graphviz version 2.38.0 (20140413.2041)
 -->
<!-- Title: adf7030_1__GPIO_ClrPin Pages: 1 -->
<svg width="480pt" height="28pt"
 viewBox="0.00 0.00 480.00 28.00" xmlns="http://www.w3.org/2000/svg" xmlns:xlink="http://www.w3.org/1999/xlink">
<g id="graph0" class="graph" transform="scale(1 1) rotate(0) translate(4 24)">
<title>adf7030_1__GPIO_ClrPin</title>
<polygon fill="white" stroke="none" points="-4,4 -4,-24 476,-24 476,4 -4,4"/>
<!-- Node0 -->
<g id="node1" class="node"><title>Node0</title>
<polygon fill="#bfbfbf" stroke="black" points="0,-0.5 0,-19.5 127,-19.5 127,-0.5 0,-0.5"/>
<text text-anchor="middle" x="63.5" y="-7.5" font-family="Helvetica,sans-Serif" font-size="10.00">adf7030_1__GPIO_ClrPin</text>
</g>
<!-- Node1 -->
<g id="node2" class="node"><title>Node1</title>
<g id="a_node2"><a xlink:href="group__adf7030-1____mem.html#ga5e53a55534a1aada085fb548ba2340d3" target="_top" xlink:title="Write a single 32bits memory location via the SPI. ">
<polygon fill="white" stroke="black" points="163,-0.5 163,-19.5 303,-19.5 303,-0.5 163,-0.5"/>
<text text-anchor="middle" x="233" y="-7.5" font-family="Helvetica,sans-Serif" font-size="10.00">adf7030_1__SPI_SetMem32</text>
</a>
</g>
</g>
<!-- Node0&#45;&gt;Node1 -->
<g id="edge1" class="edge"><title>Node0&#45;&gt;Node1</title>
<path fill="none" stroke="midnightblue" d="M127.347,-10C135.688,-10 144.323,-10 152.894,-10"/>
<polygon fill="midnightblue" stroke="midnightblue" points="152.903,-13.5001 162.903,-10 152.903,-6.5001 152.903,-13.5001"/>
</g>
<!-- Node2 -->
<g id="node3" class="node"><title>Node2</title>
<g id="a_node3"><a xlink:href="group__adf7030-1____mem.html#ga7dacc77a0474b14d4e15e12bfc1a46d7" target="_top" xlink:title="Writes &quot;nbBytes&quot; memory location via the SPI. ">
<polygon fill="white" stroke="black" points="339,-0.5 339,-19.5 472,-19.5 472,-0.5 339,-0.5"/>
<text text-anchor="middle" x="405.5" y="-7.5" font-family="Helvetica,sans-Serif" font-size="10.00">adf7030_1__SPI_SetBytes</text>
</a>
</g>
</g>
<!-- Node1&#45;&gt;Node2 -->
<g id="edge2" class="edge"><title>Node1&#45;&gt;Node2</title>
<path fill="none" stroke="midnightblue" d="M303.349,-10C311.673,-10 320.207,-10 328.618,-10"/>
<polygon fill="midnightblue" stroke="midnightblue" points="328.794,-13.5001 338.794,-10 328.794,-6.5001 328.794,-13.5001"/>
</g>
</g>
</svg>
