<?xml version="1.0" encoding="UTF-8" standalone="no"?>
<!DOCTYPE svg PUBLIC "-//W3C//DTD SVG 1.1//EN"
 "http://www.w3.org/Graphics/SVG/1.1/DTD/svg11.dtd">
<!-- Generated by graphviz version 2.38.0 (20140413.2041)
 -->
<!-- Title: adf7030_1__SPI_SetMem32 Pages: 1 -->
<svg width="314pt" height="66pt"
 viewBox="0.00 0.00 314.00 66.00" xmlns="http://www.w3.org/2000/svg" xmlns:xlink="http://www.w3.org/1999/xlink">
<g id="graph0" class="graph" transform="scale(1 1) rotate(0) translate(4 62)">
<title>adf7030_1__SPI_SetMem32</title>
<polygon fill="white" stroke="none" points="-4,4 -4,-62 310,-62 310,4 -4,4"/>
<!-- Node92 -->
<g id="node1" class="node"><title>Node92</title>
<polygon fill="#bfbfbf" stroke="black" points="0,-19.5 0,-38.5 140,-38.5 140,-19.5 0,-19.5"/>
<text text-anchor="middle" x="70" y="-26.5" font-family="Helvetica,sans-Serif" font-size="10.00">adf7030_1__SPI_SetMem32</text>
</g>
<!-- Node93 -->
<g id="node2" class="node"><title>Node93</title>
<g id="a_node2"><a xlink:href="group__adf7030-1____gpio.html#ga449cbea7e06ed580204e2fa4ffa26179" target="_top" xlink:title="Clear an individual PHY Radio GPIO pin to 0. ">
<polygon fill="white" stroke="black" points="177.5,-38.5 177.5,-57.5 304.5,-57.5 304.5,-38.5 177.5,-38.5"/>
<text text-anchor="middle" x="241" y="-45.5" font-family="Helvetica,sans-Serif" font-size="10.00">adf7030_1__GPIO_ClrPin</text>
</a>
</g>
</g>
<!-- Node92&#45;&gt;Node93 -->
<g id="edge1" class="edge"><title>Node92&#45;&gt;Node93</title>
<path fill="none" stroke="midnightblue" d="M150.399,-37.9265C159.459,-38.945 168.596,-39.9724 177.394,-40.9615"/>
<polygon fill="midnightblue" stroke="midnightblue" points="150.555,-34.4221 140.226,-36.7828 149.773,-41.3782 150.555,-34.4221"/>
</g>
<!-- Node94 -->
<g id="node3" class="node"><title>Node94</title>
<g id="a_node3"><a xlink:href="group__adf7030-1____gpio.html#ga45684a37c5d2439635217804413ffe62" target="_top" xlink:title="Set an individual PHY Radio GPIO pin to 1. ">
<polygon fill="white" stroke="black" points="176,-0.5 176,-19.5 306,-19.5 306,-0.5 176,-0.5"/>
<text text-anchor="middle" x="241" y="-7.5" font-family="Helvetica,sans-Serif" font-size="10.00">adf7030_1__GPIO_SetPin</text>
</a>
</g>
</g>
<!-- Node92&#45;&gt;Node94 -->
<g id="edge2" class="edge"><title>Node92&#45;&gt;Node94</title>
<path fill="none" stroke="midnightblue" d="M150.224,-20.0932C158.787,-19.1305 167.422,-18.1597 175.776,-17.2204"/>
<polygon fill="midnightblue" stroke="midnightblue" points="149.773,-16.6218 140.226,-21.2172 150.555,-23.5779 149.773,-16.6218"/>
</g>
</g>
</svg>
