<?xml version="1.0" encoding="UTF-8" standalone="no"?>
<!DOCTYPE svg PUBLIC "-//W3C//DTD SVG 1.1//EN"
 "http://www.w3.org/Graphics/SVG/1.1/DTD/svg11.dtd">
<!-- Generated by graphviz version 2.38.0 (20140413.2041)
 -->
<!-- Title: adf7030_1__WritePatch Pages: 1 -->
<svg width="840pt" height="127pt"
 viewBox="0.00 0.00 840.00 126.50" xmlns="http://www.w3.org/2000/svg" xmlns:xlink="http://www.w3.org/1999/xlink">
<g id="graph0" class="graph" transform="scale(1 1) rotate(0) translate(4 122.5)">
<title>adf7030_1__WritePatch</title>
<polygon fill="white" stroke="none" points="-4,4 -4,-122.5 836,-122.5 836,4 -4,4"/>
<!-- Node43 -->
<g id="node1" class="node"><title>Node43</title>
<polygon fill="#bfbfbf" stroke="black" points="0,-55 0,-74 120,-74 120,-55 0,-55"/>
<text text-anchor="middle" x="60" y="-62" font-family="Helvetica,sans-Serif" font-size="10.00">adf7030_1__WritePatch</text>
</g>
<!-- Node44 -->
<g id="node2" class="node"><title>Node44</title>
<g id="a_node2"><a xlink:href="group__adf7030-1____patch.html#ga4c271dbe767d130f0efd24c9e98bd2f9" target="_top" xlink:title="Generic Patch transfers function between Host and the Radio PHY. ">
<polygon fill="white" stroke="black" points="156,-55 156,-74 269,-74 269,-55 156,-55"/>
<text text-anchor="middle" x="212.5" y="-62" font-family="Helvetica,sans-Serif" font-size="10.00">adf7030_1__XferPatch</text>
</a>
</g>
</g>
<!-- Node43&#45;&gt;Node44 -->
<g id="edge1" class="edge"><title>Node43&#45;&gt;Node44</title>
<path fill="none" stroke="midnightblue" d="M120.05,-64.5C128.363,-64.5 136.954,-64.5 145.389,-64.5"/>
<polygon fill="midnightblue" stroke="midnightblue" points="145.571,-68.0001 155.571,-64.5 145.571,-61.0001 145.571,-68.0001"/>
</g>
<!-- Node45 -->
<g id="node3" class="node"><title>Node45</title>
<g id="a_node3"><a xlink:href="group__adf7030-1____patch.html#ga71c53aa1ca866512fbfaa5d99a3181e8" target="_top" xlink:title="Generic Patch Section transfer function between Host and the Radio PHY. ">
<polygon fill="white" stroke="black" points="305,-55 305,-74 442,-74 442,-55 305,-55"/>
<text text-anchor="middle" x="373.5" y="-62" font-family="Helvetica,sans-Serif" font-size="10.00">adf7030_1__XferPatchBlock</text>
</a>
</g>
</g>
<!-- Node44&#45;&gt;Node45 -->
<g id="edge2" class="edge"><title>Node44&#45;&gt;Node45</title>
<path fill="none" stroke="midnightblue" d="M269.11,-64.5C277.414,-64.5 286.1,-64.5 294.759,-64.5"/>
<polygon fill="midnightblue" stroke="midnightblue" points="294.886,-68.0001 304.886,-64.5 294.886,-61.0001 294.886,-68.0001"/>
</g>
<!-- Node46 -->
<g id="node4" class="node"><title>Node46</title>
<g id="a_node4"><a xlink:href="group__adf7030-1____spi.html#ga7c54fff20ff0def7f7a3b9d7036f9cda" target="_top" xlink:title="This function return the best Pointer id + offset for subsequent SPI transfert to the PHY &quot;Addr&quot; prov...">
<polygon fill="white" stroke="black" points="478,-99 478,-118 647,-118 647,-99 478,-99"/>
<text text-anchor="middle" x="562.5" y="-106" font-family="Helvetica,sans-Serif" font-size="10.00">adf7030_1__SPI_FindMMapPointer</text>
</a>
</g>
</g>
<!-- Node45&#45;&gt;Node46 -->
<g id="edge3" class="edge"><title>Node45&#45;&gt;Node46</title>
<path fill="none" stroke="midnightblue" d="M413.298,-74.0006C432.713,-78.7219 456.583,-84.4771 478,-89.5 488.091,-91.8668 498.879,-94.3536 509.236,-96.7196"/>
<polygon fill="midnightblue" stroke="midnightblue" points="508.469,-100.134 518.996,-98.9431 510.023,-93.3093 508.469,-100.134"/>
</g>
<!-- Node47 -->
<g id="node5" class="node"><title>Node47</title>
<g id="a_node5"><a xlink:href="group__adf7030-1____spi.html#ga87f62777c793d805dac75887f167b2bf" target="_top" xlink:title="Change the SPI Radio mmap custom pointers 0 location. ">
<polygon fill="white" stroke="black" points="478.5,-49.5 478.5,-79.5 646.5,-79.5 646.5,-49.5 478.5,-49.5"/>
<text text-anchor="start" x="486.5" y="-67.5" font-family="Helvetica,sans-Serif" font-size="10.00">adf7030_1__SPI_SetMMapCustom</text>
<text text-anchor="middle" x="562.5" y="-56.5" font-family="Helvetica,sans-Serif" font-size="10.00">Pntr0</text>
</a>
</g>
</g>
<!-- Node45&#45;&gt;Node47 -->
<g id="edge4" class="edge"><title>Node45&#45;&gt;Node47</title>
<path fill="none" stroke="midnightblue" d="M442.011,-64.5C450.601,-64.5 459.508,-64.5 468.41,-64.5"/>
<polygon fill="midnightblue" stroke="midnightblue" points="468.441,-68.0001 478.441,-64.5 468.441,-61.0001 468.441,-68.0001"/>
</g>
<!-- Node49 -->
<g id="node7" class="node"><title>Node49</title>
<g id="a_node7"><a xlink:href="group__adf7030-1____spi.html#ga0b334362c3e1aeb752f58c60a263a9cf" target="_top" xlink:title="Read &amp; Compare a number of bytes(s) from memory of the adf7030&#45;1 to Host starting at location pointed...">
<polygon fill="white" stroke="black" points="500,-0.5 500,-30.5 625,-30.5 625,-0.5 500,-0.5"/>
<text text-anchor="start" x="508" y="-18.5" font-family="Helvetica,sans-Serif" font-size="10.00">adf7030_1__SPI_rd_cmp</text>
<text text-anchor="middle" x="562.5" y="-7.5" font-family="Helvetica,sans-Serif" font-size="10.00">_byte_p_a</text>
</a>
</g>
</g>
<!-- Node45&#45;&gt;Node49 -->
<g id="edge6" class="edge"><title>Node45&#45;&gt;Node49</title>
<path fill="none" stroke="midnightblue" d="M410.999,-54.936C434.674,-48.7324 466.233,-40.4629 494.336,-33.099"/>
<polygon fill="midnightblue" stroke="midnightblue" points="495.328,-36.4575 504.114,-30.537 493.553,-29.6861 495.328,-36.4575"/>
</g>
<!-- Node48 -->
<g id="node6" class="node"><title>Node48</title>
<g id="a_node6"><a xlink:href="group__adf7030-1____spi.html#ga6f0c25120c078623d42ede30fc690999" target="_top" xlink:title="Write a number of word(s) from Host to memory of the adf7030&#45;1 starting at location pointed by &quot;pntr&quot;...">
<polygon fill="white" stroke="black" points="683,-55 683,-74 832,-74 832,-55 683,-55"/>
<text text-anchor="middle" x="757.5" y="-62" font-family="Helvetica,sans-Serif" font-size="10.00">adf7030_1__SPI_wr_word_b_p</text>
</a>
</g>
</g>
<!-- Node47&#45;&gt;Node48 -->
<g id="edge5" class="edge"><title>Node47&#45;&gt;Node48</title>
<path fill="none" stroke="midnightblue" d="M646.75,-64.5C655.402,-64.5 664.2,-64.5 672.857,-64.5"/>
<polygon fill="midnightblue" stroke="midnightblue" points="672.938,-68.0001 682.938,-64.5 672.938,-61.0001 672.938,-68.0001"/>
</g>
</g>
</svg>
