<?xml version="1.0" encoding="UTF-8" standalone="no"?>
<!DOCTYPE svg PUBLIC "-//W3C//DTD SVG 1.1//EN"
 "http://www.w3.org/Graphics/SVG/1.1/DTD/svg11.dtd">
<!-- Generated by graphviz version 2.38.0 (20140413.2041)
 -->
<!-- Title: adf7030_1__IRQ_Callback Pages: 1 -->
<svg width="414pt" height="28pt"
 viewBox="0.00 0.00 414.00 28.00" xmlns="http://www.w3.org/2000/svg" xmlns:xlink="http://www.w3.org/1999/xlink">
<g id="graph0" class="graph" transform="scale(1 1) rotate(0) translate(4 24)">
<title>adf7030_1__IRQ_Callback</title>
<polygon fill="white" stroke="none" points="-4,4 -4,-24 410,-24 410,4 -4,4"/>
<!-- Node1 -->
<g id="node1" class="node"><title>Node1</title>
<polygon fill="#bfbfbf" stroke="black" points="0,-0.5 0,-19.5 131,-19.5 131,-0.5 0,-0.5"/>
<text text-anchor="middle" x="65.5" y="-7.5" font-family="Helvetica,sans-Serif" font-size="10.00">adf7030_1__IRQ_Callback</text>
</g>
<!-- Node2 -->
<g id="node2" class="node"><title>Node2</title>
<g id="a_node2"><a xlink:href="group__adf7030-1____irq.html#ga7a1d3e44568e67b5e5063e2c1176480d" target="_top" xlink:title="Initializes Irq handling for the adf7030&#45;1 PHY. ">
<polygon fill="white" stroke="black" points="167,-0.5 167,-19.5 273,-19.5 273,-0.5 167,-0.5"/>
<text text-anchor="middle" x="220" y="-7.5" font-family="Helvetica,sans-Serif" font-size="10.00">adf7030_1__IRQ_Init</text>
</a>
</g>
</g>
<!-- Node1&#45;&gt;Node2 -->
<g id="edge1" class="edge"><title>Node1&#45;&gt;Node2</title>
<path fill="none" stroke="midnightblue" d="M141.238,-10C149.844,-10 158.476,-10 166.695,-10"/>
<polygon fill="midnightblue" stroke="midnightblue" points="141.174,-6.5001 131.174,-10 141.174,-13.5001 141.174,-6.5001"/>
</g>
<!-- Node3 -->
<g id="node3" class="node"><title>Node3</title>
<g id="a_node3"><a xlink:href="group__adf7030-1____core.html#gaab9372b413f119016db09a7722b222c5" target="_top" xlink:title="Setup the adf7030&#45;1 instance by initialising its device info structure. It also calls adf7030_1__SPI_...">
<polygon fill="white" stroke="black" points="309,-0.5 309,-19.5 406,-19.5 406,-0.5 309,-0.5"/>
<text text-anchor="middle" x="357.5" y="-7.5" font-family="Helvetica,sans-Serif" font-size="10.00">adf7030_1__Setup</text>
</a>
</g>
</g>
<!-- Node2&#45;&gt;Node3 -->
<g id="edge2" class="edge"><title>Node2&#45;&gt;Node3</title>
<path fill="none" stroke="midnightblue" d="M283.075,-10C291.736,-10 300.521,-10 308.859,-10"/>
<polygon fill="midnightblue" stroke="midnightblue" points="283,-6.5001 273,-10 283,-13.5001 283,-6.5001"/>
</g>
</g>
</svg>
