<?xml version="1.0" encoding="UTF-8" standalone="no"?>
<!DOCTYPE svg PUBLIC "-//W3C//DTD SVG 1.1//EN"
 "http://www.w3.org/Graphics/SVG/1.1/DTD/svg11.dtd">
<!-- Generated by graphviz version 2.38.0 (20140413.2041)
 -->
<!-- Title: adf7030_1__XferConfig Pages: 1 -->
<svg width="680pt" height="127pt"
 viewBox="0.00 0.00 680.00 126.50" xmlns="http://www.w3.org/2000/svg" xmlns:xlink="http://www.w3.org/1999/xlink">
<g id="graph0" class="graph" transform="scale(1 1) rotate(0) translate(4 122.5)">
<title>adf7030_1__XferConfig</title>
<polygon fill="white" stroke="none" points="-4,4 -4,-122.5 676,-122.5 676,4 -4,4"/>
<!-- Node145 -->
<g id="node1" class="node"><title>Node145</title>
<polygon fill="#bfbfbf" stroke="black" points="0,-55 0,-74 114,-74 114,-55 0,-55"/>
<text text-anchor="middle" x="57" y="-62" font-family="Helvetica,sans-Serif" font-size="10.00">adf7030_1__XferConfig</text>
</g>
<!-- Node146 -->
<g id="node2" class="node"><title>Node146</title>
<g id="a_node2"><a xlink:href="group__adf7030-1____mem.html#ga1ca676315976719ad485f1a4772e876d" target="_top" xlink:title="Generic Data block transfers function between Host and the Radio PHY. ">
<polygon fill="white" stroke="black" points="150,-55 150,-74 282,-74 282,-55 150,-55"/>
<text text-anchor="middle" x="216" y="-62" font-family="Helvetica,sans-Serif" font-size="10.00">adf7030_1__XferDataBlock</text>
</a>
</g>
</g>
<!-- Node145&#45;&gt;Node146 -->
<g id="edge1" class="edge"><title>Node145&#45;&gt;Node146</title>
<path fill="none" stroke="midnightblue" d="M114.237,-64.5C122.522,-64.5 131.167,-64.5 139.76,-64.5"/>
<polygon fill="midnightblue" stroke="midnightblue" points="139.799,-68.0001 149.799,-64.5 139.799,-61.0001 139.799,-68.0001"/>
</g>
<!-- Node147 -->
<g id="node3" class="node"><title>Node147</title>
<g id="a_node3"><a xlink:href="group__adf7030-1____spi.html#ga7c54fff20ff0def7f7a3b9d7036f9cda" target="_top" xlink:title="This function return the best Pointer id + offset for subsequent SPI transfert to the PHY &quot;Addr&quot; prov...">
<polygon fill="white" stroke="black" points="318,-99 318,-118 487,-118 487,-99 318,-99"/>
<text text-anchor="middle" x="402.5" y="-106" font-family="Helvetica,sans-Serif" font-size="10.00">adf7030_1__SPI_FindMMapPointer</text>
</a>
</g>
</g>
<!-- Node146&#45;&gt;Node147 -->
<g id="edge2" class="edge"><title>Node146&#45;&gt;Node147</title>
<path fill="none" stroke="midnightblue" d="M254.848,-74.0483C273.791,-78.7813 297.086,-84.5326 318,-89.5 328.085,-91.8952 338.869,-94.395 349.225,-96.7648"/>
<polygon fill="midnightblue" stroke="midnightblue" points="348.458,-100.18 358.985,-98.9893 350.013,-93.3546 348.458,-100.18"/>
</g>
<!-- Node148 -->
<g id="node4" class="node"><title>Node148</title>
<g id="a_node4"><a xlink:href="group__adf7030-1____spi.html#ga87f62777c793d805dac75887f167b2bf" target="_top" xlink:title="Change the SPI Radio mmap custom pointers 0 location. ">
<polygon fill="white" stroke="black" points="318.5,-49.5 318.5,-79.5 486.5,-79.5 486.5,-49.5 318.5,-49.5"/>
<text text-anchor="start" x="326.5" y="-67.5" font-family="Helvetica,sans-Serif" font-size="10.00">adf7030_1__SPI_SetMMapCustom</text>
<text text-anchor="middle" x="402.5" y="-56.5" font-family="Helvetica,sans-Serif" font-size="10.00">Pntr0</text>
</a>
</g>
</g>
<!-- Node146&#45;&gt;Node148 -->
<g id="edge3" class="edge"><title>Node146&#45;&gt;Node148</title>
<path fill="none" stroke="midnightblue" d="M282.048,-64.5C290.566,-64.5 299.423,-64.5 308.293,-64.5"/>
<polygon fill="midnightblue" stroke="midnightblue" points="308.294,-68.0001 318.294,-64.5 308.294,-61.0001 308.294,-68.0001"/>
</g>
<!-- Node150 -->
<g id="node6" class="node"><title>Node150</title>
<g id="a_node6"><a xlink:href="group__adf7030-1____spi.html#ga0b334362c3e1aeb752f58c60a263a9cf" target="_top" xlink:title="Read &amp; Compare a number of bytes(s) from memory of the adf7030&#45;1 to Host starting at location pointed...">
<polygon fill="white" stroke="black" points="340,-0.5 340,-30.5 465,-30.5 465,-0.5 340,-0.5"/>
<text text-anchor="start" x="348" y="-18.5" font-family="Helvetica,sans-Serif" font-size="10.00">adf7030_1__SPI_rd_cmp</text>
<text text-anchor="middle" x="402.5" y="-7.5" font-family="Helvetica,sans-Serif" font-size="10.00">_byte_p_a</text>
</a>
</g>
</g>
<!-- Node146&#45;&gt;Node150 -->
<g id="edge5" class="edge"><title>Node146&#45;&gt;Node150</title>
<path fill="none" stroke="midnightblue" d="M253.011,-54.936C276.268,-48.7595 307.235,-40.5351 334.871,-33.1955"/>
<polygon fill="midnightblue" stroke="midnightblue" points="336.115,-36.4866 344.881,-30.537 334.318,-29.7211 336.115,-36.4866"/>
</g>
<!-- Node149 -->
<g id="node5" class="node"><title>Node149</title>
<g id="a_node5"><a xlink:href="group__adf7030-1____spi.html#ga6f0c25120c078623d42ede30fc690999" target="_top" xlink:title="Write a number of word(s) from Host to memory of the adf7030&#45;1 starting at location pointed by &quot;pntr&quot;...">
<polygon fill="white" stroke="black" points="523,-55 523,-74 672,-74 672,-55 523,-55"/>
<text text-anchor="middle" x="597.5" y="-62" font-family="Helvetica,sans-Serif" font-size="10.00">adf7030_1__SPI_wr_word_b_p</text>
</a>
</g>
</g>
<!-- Node148&#45;&gt;Node149 -->
<g id="edge4" class="edge"><title>Node148&#45;&gt;Node149</title>
<path fill="none" stroke="midnightblue" d="M486.75,-64.5C495.402,-64.5 504.2,-64.5 512.857,-64.5"/>
<polygon fill="midnightblue" stroke="midnightblue" points="512.938,-68.0001 522.938,-64.5 512.938,-61.0001 512.938,-68.0001"/>
</g>
</g>
</svg>
