<?xml version="1.0" encoding="UTF-8" standalone="no"?>
<!DOCTYPE svg PUBLIC "-//W3C//DTD SVG 1.1//EN"
 "http://www.w3.org/Graphics/SVG/1.1/DTD/svg11.dtd">
<!-- Generated by graphviz version 2.38.0 (20140413.2041)
 -->
<!-- Title: adf7030_1__IRQ_SetCallback Pages: 1 -->
<!--zoomable 66 -->
<svg id="main" version="1.1" xmlns="http://www.w3.org/2000/svg" xmlns:xlink="http://www.w3.org/1999/xlink" xml:space="preserve" onload="init(evt)">
<style type="text/css"><![CDATA[
.edge:hover path { stroke: red; }
.edge:hover polygon { stroke: red; fill: red; }
]]></style>
<script type="text/javascript"><![CDATA[
var edges = document.getElementsByTagName('g');
if (edges && edges.length) {
  for (var i=0;i<edges.length;i++) {
    if (edges[i].id.substr(0,4)=='edge') {
      edges[i].setAttribute('class','edge');
    }
  }
}
]]></script>
        <defs>
                <circle id="rim" cx="0" cy="0" r="7"/>
                <circle id="rim2" cx="0" cy="0" r="3.5"/>
                <g id="zoomPlus">
                        <use xlink:href="#rim" fill="#404040">
                                <set attributeName="fill" to="#808080" begin="zoomplus.mouseover" end="zoomplus.mouseout"/>
                        </use>
                        <path d="M-4,0h8M0,-4v8" fill="none" stroke="white" stroke-width="1.5" pointer-events="none"/>
                </g>
                <g id="zoomMin">
                        <use xlink:href="#rim" fill="#404040">
                                <set attributeName="fill" to="#808080" begin="zoomminus.mouseover" end="zoomminus.mouseout"/>
                        </use>
                        <path d="M-4,0h8" fill="none" stroke="white" stroke-width="1.5" pointer-events="none"/>
                </g>
                <g id="dirArrow">
                        <path fill="none" stroke="white" stroke-width="1.5" d="M0,-3.0v7 M-2.5,-0.5L0,-3.0L2.5,-0.5"/>
                </g>
               <g id="resetDef">
                       <use xlink:href="#rim2" fill="#404040">
                               <set attributeName="fill" to="#808080" begin="reset.mouseover" end="reset.mouseout"/>
                       </use>
               </g>
        </defs>

<script type="text/javascript">
var viewWidth = 628;
var viewHeight = 66;
var sectionId = 'dynsection-5';
</script>
<script xlink:href="svgpan.js"/>
<svg id="graph" class="graph">
<g id="viewport">
<title>adf7030_1__IRQ_SetCallback</title>
<polygon fill="white" stroke="none" points="-4,4 -4,-62 624,-62 624,4 -4,4"/>
<!-- Node22 -->
<g id="node1" class="node"><title>Node22</title>
<polygon fill="#bfbfbf" stroke="black" points="0,-19.5 0,-38.5 146,-38.5 146,-19.5 0,-19.5"/>
<text text-anchor="middle" x="73" y="-26.5" font-family="Helvetica,sans-Serif" font-size="10.00">adf7030_1__IRQ_SetCallback</text>
</g>
<!-- Node23 -->
<g id="node2" class="node"><title>Node23</title>
<g id="a_node2"><a xlink:href="group__adf7030-1____irq.html#gafa48327dcbba3a14ed95d3af380af037" target="_top" xlink:title="Setup the Host GPIO driver to trigger Callback on PHY interrupt. ">
<polygon fill="white" stroke="black" points="182,-38.5 182,-57.5 345,-57.5 345,-38.5 182,-38.5"/>
<text text-anchor="middle" x="263.5" y="-45.5" font-family="Helvetica,sans-Serif" font-size="10.00">adf7030_1__IRQ_SetupHostGPIO</text>
</a>
</g>
</g>
<!-- Node22&#45;&gt;Node23 -->
<g id="edge1" class="edge"><title>Node22&#45;&gt;Node23</title>
<path fill="none" stroke="midnightblue" d="M156.078,-37.2731C164.672,-38.1393 173.403,-39.0194 181.979,-39.8838"/>
<polygon fill="midnightblue" stroke="midnightblue" points="156.371,-33.785 146.071,-36.2644 155.669,-40.7497 156.371,-33.785"/>
</g>
<!-- Node26 -->
<g id="node5" class="node"><title>Node26</title>
<g id="a_node5"><a xlink:href="group__adf7030-1____irq.html#gaef3a200357dc830df85dcc2b521325a6" target="_top" xlink:title="Unitializes Irq handling for the adf7030&#45;1 PHY. ">
<polygon fill="white" stroke="black" points="204.5,-0.5 204.5,-19.5 322.5,-19.5 322.5,-0.5 204.5,-0.5"/>
<text text-anchor="middle" x="263.5" y="-7.5" font-family="Helvetica,sans-Serif" font-size="10.00">adf7030_1__IRQ_UnInit</text>
</a>
</g>
</g>
<!-- Node22&#45;&gt;Node26 -->
<g id="edge4" class="edge"><title>Node22&#45;&gt;Node26</title>
<path fill="none" stroke="midnightblue" d="M156.083,-20.7264C172.293,-19.0924 188.992,-17.4093 204.217,-15.8747"/>
<polygon fill="midnightblue" stroke="midnightblue" points="155.669,-17.2503 146.071,-21.7356 156.371,-24.215 155.669,-17.2503"/>
</g>
<!-- Node24 -->
<g id="node3" class="node"><title>Node24</title>
<g id="a_node3"><a xlink:href="group__adf7030-1____irq.html#ga7a1d3e44568e67b5e5063e2c1176480d" target="_top" xlink:title="Initializes Irq handling for the adf7030&#45;1 PHY. ">
<polygon fill="white" stroke="black" points="381,-38.5 381,-57.5 487,-57.5 487,-38.5 381,-38.5"/>
<text text-anchor="middle" x="434" y="-45.5" font-family="Helvetica,sans-Serif" font-size="10.00">adf7030_1__IRQ_Init</text>
</a>
</g>
</g>
<!-- Node23&#45;&gt;Node24 -->
<g id="edge2" class="edge"><title>Node23&#45;&gt;Node24</title>
<path fill="none" stroke="midnightblue" d="M355.415,-48C364.018,-48 372.528,-48 380.582,-48"/>
<polygon fill="midnightblue" stroke="midnightblue" points="355.295,-44.5001 345.295,-48 355.295,-51.5001 355.295,-44.5001"/>
</g>
<!-- Node25 -->
<g id="node4" class="node"><title>Node25</title>
<g id="a_node4"><a xlink:href="group__adf7030-1____core.html#gaab9372b413f119016db09a7722b222c5" target="_top" xlink:title="Setup the adf7030&#45;1 instance by initialising its device info structure. It also calls adf7030_1__SPI_...">
<polygon fill="white" stroke="black" points="523,-38.5 523,-57.5 620,-57.5 620,-38.5 523,-38.5"/>
<text text-anchor="middle" x="571.5" y="-45.5" font-family="Helvetica,sans-Serif" font-size="10.00">adf7030_1__Setup</text>
</a>
</g>
</g>
<!-- Node24&#45;&gt;Node25 -->
<g id="edge3" class="edge"><title>Node24&#45;&gt;Node25</title>
<path fill="none" stroke="midnightblue" d="M497.075,-48C505.736,-48 514.521,-48 522.859,-48"/>
<polygon fill="midnightblue" stroke="midnightblue" points="497,-44.5001 487,-48 497,-51.5001 497,-44.5001"/>
</g>
<!-- Node27 -->
<g id="node6" class="node"><title>Node27</title>
<g id="a_node6"><a xlink:href="group__adf7030-1____core.html#ga3e7db2dcab244e93d0e97d24ee3eef86" target="_top" xlink:title="Closes the adf7030&#45;1 instance. ">
<polygon fill="white" stroke="black" points="386,-0.5 386,-19.5 482,-19.5 482,-0.5 386,-0.5"/>
<text text-anchor="middle" x="434" y="-7.5" font-family="Helvetica,sans-Serif" font-size="10.00">adf7030_1__Close</text>
</a>
</g>
</g>
<!-- Node26&#45;&gt;Node27 -->
<g id="edge5" class="edge"><title>Node26&#45;&gt;Node27</title>
<path fill="none" stroke="midnightblue" d="M333.224,-10C350.882,-10 369.482,-10 385.776,-10"/>
<polygon fill="midnightblue" stroke="midnightblue" points="332.96,-6.5001 322.96,-10 332.96,-13.5001 332.96,-6.5001"/>
</g>
</g>
</svg>
        <g id="navigator" transform="translate(0 0)" fill="#404254">
                <rect fill="#f2f5e9" fill-opacity="0.5" stroke="#606060" stroke-width=".5" x="0" y="0" width="60" height="60"/>
                <use id="zoomplus" xlink:href="#zoomPlus" x="17" y="9" onmousedown="handleZoom(evt,'in')"/>
                <use id="zoomminus" xlink:href="#zoomMin" x="42" y="9" onmousedown="handleZoom(evt,'out')"/>
                <use id="reset" xlink:href="#resetDef" x="30" y="36" onmousedown="handleReset()"/>
                <g id="arrowUp" xlink:href="#dirArrow" transform="translate(30 24)" onmousedown="handlePan(0,-1)">
                  <use xlink:href="#rim" fill="#404040">
                        <set attributeName="fill" to="#808080" begin="arrowUp.mouseover" end="arrowUp.mouseout"/>
                  </use>
                  <path fill="none" stroke="white" stroke-width="1.5" d="M0,-3.0v7 M-2.5,-0.5L0,-3.0L2.5,-0.5"/>
                </g>
                <g id="arrowRight" xlink:href="#dirArrow" transform="rotate(90) translate(36 -43)" onmousedown="handlePan(1,0)">
                  <use xlink:href="#rim" fill="#404040">
                        <set attributeName="fill" to="#808080" begin="arrowRight.mouseover" end="arrowRight.mouseout"/>
                  </use>
                  <path fill="none" stroke="white" stroke-width="1.5" d="M0,-3.0v7 M-2.5,-0.5L0,-3.0L2.5,-0.5"/>
                </g>
                <g id="arrowDown" xlink:href="#dirArrow" transform="rotate(180) translate(-30 -48)" onmousedown="handlePan(0,1)">
                  <use xlink:href="#rim" fill="#404040">
                        <set attributeName="fill" to="#808080" begin="arrowDown.mouseover" end="arrowDown.mouseout"/>
                  </use>
                  <path fill="none" stroke="white" stroke-width="1.5" d="M0,-3.0v7 M-2.5,-0.5L0,-3.0L2.5,-0.5"/>
                </g>
                <g id="arrowLeft" xlink:href="#dirArrow" transform="rotate(270) translate(-36 17)" onmousedown="handlePan(-1,0)">
                  <use xlink:href="#rim" fill="#404040">
                        <set attributeName="fill" to="#808080" begin="arrowLeft.mouseover" end="arrowLeft.mouseout"/>
                  </use>
                  <path fill="none" stroke="white" stroke-width="1.5" d="M0,-3.0v7 M-2.5,-0.5L0,-3.0L2.5,-0.5"/>
                </g>
        </g>
        <svg viewBox="0 0 15 15" width="100%" height="30px" preserveAspectRatio="xMaxYMin meet">
         <g id="arrow_out" transform="scale(0.3 0.3)">
          <a xlink:href="group__adf7030-1____irq_ga82e2b150d2b209b4946f5a7976762d48_icgraph_org.svg" target="_base">
           <rect id="button" ry="5" rx="5" y="6" x="6" height="38" width="38"
                fill="#f2f5e9" fill-opacity="0.5" stroke="#606060" stroke-width="1.0"/>
           <path id="arrow"
             d="M 11.500037,31.436501 C 11.940474,20.09759 22.043105,11.32322 32.158766,21.979434 L 37.068811,17.246167 C 37.068811,17.246167 37.088388,32 37.088388,32 L 22.160133,31.978069 C 22.160133,31.978069 26.997745,27.140456 26.997745,27.140456 C 18.528582,18.264221 13.291696,25.230495 11.500037,31.436501 z"
             style="fill:#404040;"/>
          </a>
         </g>
        </svg>
</svg>
