<?xml version="1.0" encoding="UTF-8" standalone="no"?>
<!DOCTYPE svg PUBLIC "-//W3C//DTD SVG 1.1//EN"
 "http://www.w3.org/Graphics/SVG/1.1/DTD/svg11.dtd">
<!-- Generated by graphviz version 2.38.0 (20140413.2041)
 -->
<!-- Title: adf7030_1__STATE_Poll_SpiStatus Pages: 1 -->
<svg width="491pt" height="39pt"
 viewBox="0.00 0.00 491.00 39.00" xmlns="http://www.w3.org/2000/svg" xmlns:xlink="http://www.w3.org/1999/xlink">
<g id="graph0" class="graph" transform="scale(1 1) rotate(0) translate(4 35)">
<title>adf7030_1__STATE_Poll_SpiStatus</title>
<polygon fill="white" stroke="none" points="-4,4 -4,-35 487,-35 487,4 -4,4"/>
<!-- Node20 -->
<g id="node1" class="node"><title>Node20</title>
<polygon fill="#bfbfbf" stroke="black" points="0,-0.5 0,-30.5 124,-30.5 124,-0.5 0,-0.5"/>
<text text-anchor="start" x="8" y="-18.5" font-family="Helvetica,sans-Serif" font-size="10.00">adf7030_1__STATE_Poll</text>
<text text-anchor="middle" x="62" y="-7.5" font-family="Helvetica,sans-Serif" font-size="10.00">_SpiStatus</text>
</g>
<!-- Node21 -->
<g id="node2" class="node"><title>Node21</title>
<g id="a_node2"><a xlink:href="group__adf7030-1____state.html#ga47915136f3871f6ad931de81fa60b378" target="_top" xlink:title="Generic Radio PHY Command Transfers. ">
<polygon fill="white" stroke="black" points="160,-6 160,-25 284,-25 284,-6 160,-6"/>
<text text-anchor="middle" x="222" y="-13" font-family="Helvetica,sans-Serif" font-size="10.00">adf7030_1__XferCmdPoll</text>
</a>
</g>
</g>
<!-- Node20&#45;&gt;Node21 -->
<g id="edge1" class="edge"><title>Node20&#45;&gt;Node21</title>
<path fill="none" stroke="midnightblue" d="M124.087,-15.5C132.513,-15.5 141.226,-15.5 149.815,-15.5"/>
<polygon fill="midnightblue" stroke="midnightblue" points="149.815,-19.0001 159.815,-15.5 149.815,-12.0001 149.815,-19.0001"/>
</g>
<!-- Node22 -->
<g id="node3" class="node"><title>Node22</title>
<g id="a_node3"><a xlink:href="group__adf7030-1____spi.html#gae598c37af797c9fb49fecd0e62b1bf77" target="_top" xlink:title="Custom FAST API for Read/Write a number of byte(s) to the adf7030&#45;1. ">
<polygon fill="white" stroke="black" points="320,-6 320,-25 483,-25 483,-6 320,-6"/>
<text text-anchor="middle" x="401.5" y="-13" font-family="Helvetica,sans-Serif" font-size="10.00">adf7030_1__SPI_ReadWrite_Fast</text>
</a>
</g>
</g>
<!-- Node21&#45;&gt;Node22 -->
<g id="edge2" class="edge"><title>Node21&#45;&gt;Node22</title>
<path fill="none" stroke="midnightblue" d="M284.085,-15.5C292.374,-15.5 301.021,-15.5 309.694,-15.5"/>
<polygon fill="midnightblue" stroke="midnightblue" points="309.867,-19.0001 319.867,-15.5 309.867,-12.0001 309.867,-19.0001"/>
</g>
</g>
</svg>
