<?xml version="1.0" encoding="UTF-8" standalone="no"?>
<!DOCTYPE svg PUBLIC "-//W3C//DTD SVG 1.1//EN"
 "http://www.w3.org/Graphics/SVG/1.1/DTD/svg11.dtd">
<!-- Generated by graphviz version 2.38.0 (20140413.2041)
 -->
<!-- Title: adf7030_1__XferCmdPoll Pages: 1 -->
<!--zoomable 416 -->
<svg id="main" version="1.1" xmlns="http://www.w3.org/2000/svg" xmlns:xlink="http://www.w3.org/1999/xlink" xml:space="preserve" onload="init(evt)">
<style type="text/css"><![CDATA[
.edge:hover path { stroke: red; }
.edge:hover polygon { stroke: red; fill: red; }
]]></style>
<script type="text/javascript"><![CDATA[
var edges = document.getElementsByTagName('g');
if (edges && edges.length) {
  for (var i=0;i<edges.length;i++) {
    if (edges[i].id.substr(0,4)=='edge') {
      edges[i].setAttribute('class','edge');
    }
  }
}
]]></script>
        <defs>
                <circle id="rim" cx="0" cy="0" r="7"/>
                <circle id="rim2" cx="0" cy="0" r="3.5"/>
                <g id="zoomPlus">
                        <use xlink:href="#rim" fill="#404040">
                                <set attributeName="fill" to="#808080" begin="zoomplus.mouseover" end="zoomplus.mouseout"/>
                        </use>
                        <path d="M-4,0h8M0,-4v8" fill="none" stroke="white" stroke-width="1.5" pointer-events="none"/>
                </g>
                <g id="zoomMin">
                        <use xlink:href="#rim" fill="#404040">
                                <set attributeName="fill" to="#808080" begin="zoomminus.mouseover" end="zoomminus.mouseout"/>
                        </use>
                        <path d="M-4,0h8" fill="none" stroke="white" stroke-width="1.5" pointer-events="none"/>
                </g>
                <g id="dirArrow">
                        <path fill="none" stroke="white" stroke-width="1.5" d="M0,-3.0v7 M-2.5,-0.5L0,-3.0L2.5,-0.5"/>
                </g>
               <g id="resetDef">
                       <use xlink:href="#rim2" fill="#404040">
                               <set attributeName="fill" to="#808080" begin="reset.mouseover" end="reset.mouseout"/>
                       </use>
               </g>
        </defs>

<script type="text/javascript">
var viewWidth = 601;
var viewHeight = 416;
var sectionId = 'dynsection-13';
</script>
<script xlink:href="svgpan.js"/>
<svg id="graph" class="graph">
<g id="viewport">
<title>adf7030_1__XferCmdPoll</title>
<polygon fill="white" stroke="none" points="-4,4 -4,-411.5 597,-411.5 597,4 -4,4"/>
<!-- Node46 -->
<g id="node1" class="node"><title>Node46</title>
<polygon fill="#bfbfbf" stroke="black" points="0,-186 0,-205 124,-205 124,-186 0,-186"/>
<text text-anchor="middle" x="62" y="-193" font-family="Helvetica,sans-Serif" font-size="10.00">adf7030_1__XferCmdPoll</text>
</g>
<!-- Node47 -->
<g id="node2" class="node"><title>Node47</title>
<g id="a_node2"><a xlink:href="group__adf7030-1____state.html#ga50a32083c7b26e79e278bd6ab428b0e3" target="_top" xlink:title="Send Radio PHY Command. ">
<polygon fill="white" stroke="black" points="169,-388 169,-407 315,-407 315,-388 169,-388"/>
<text text-anchor="middle" x="242" y="-395" font-family="Helvetica,sans-Serif" font-size="10.00">adf7030_1__STATE_PhyCMD</text>
</a>
</g>
</g>
<!-- Node46&#45;&gt;Node47 -->
<g id="edge1" class="edge"><title>Node46&#45;&gt;Node47</title>
<path fill="none" stroke="midnightblue" d="M67.6133,-215.086C77.5758,-252.89 104.798,-335.931 160,-378.5 165.033,-382.381 170.728,-385.489 176.71,-387.976"/>
<polygon fill="midnightblue" stroke="midnightblue" points="70.9854,-214.144 65.1572,-205.296 64.1958,-215.847 70.9854,-214.144"/>
</g>
<!-- Node48 -->
<g id="node3" class="node"><title>Node48</title>
<g id="a_node3"><a xlink:href="group__adf7030-1____state.html#gae657dcba1056b2cd525857c75d478ad1" target="_top" xlink:title="Send Radio PHY Special Command. ">
<polygon fill="white" stroke="black" points="160,-350 160,-369 324,-369 324,-350 160,-350"/>
<text text-anchor="middle" x="242" y="-357" font-family="Helvetica,sans-Serif" font-size="10.00">adf7030_1__STATE_PhyCMD_Ex</text>
</a>
</g>
</g>
<!-- Node46&#45;&gt;Node48 -->
<g id="edge2" class="edge"><title>Node46&#45;&gt;Node48</title>
<path fill="none" stroke="midnightblue" d="M70.2207,-214.457C83.1851,-245.829 113.473,-308.271 160,-340.5 165.581,-344.366 171.842,-347.452 178.347,-349.916"/>
<polygon fill="midnightblue" stroke="midnightblue" points="73.444,-213.091 66.4898,-205.098 66.9416,-215.683 73.444,-213.091"/>
</g>
<!-- Node49 -->
<g id="node4" class="node"><title>Node49</title>
<g id="a_node4"><a xlink:href="group__adf7030-1____state.html#ga80dbe4150d3c045018d716b36d54a12b" target="_top" xlink:title="Send Radio PHY Command and wait util PHY has transition to new state. ">
<polygon fill="white" stroke="black" points="169,-300.5 169,-330.5 315,-330.5 315,-300.5 169,-300.5"/>
<text text-anchor="start" x="177" y="-318.5" font-family="Helvetica,sans-Serif" font-size="10.00">adf7030_1__STATE_PhyCMD</text>
<text text-anchor="middle" x="242" y="-307.5" font-family="Helvetica,sans-Serif" font-size="10.00">_WaitReady</text>
</a>
</g>
</g>
<!-- Node46&#45;&gt;Node49 -->
<g id="edge3" class="edge"><title>Node46&#45;&gt;Node49</title>
<path fill="none" stroke="midnightblue" d="M76.3306,-213.254C93.4203,-234.807 125.049,-270.827 160,-291.5 165.807,-294.935 172.142,-297.91 178.629,-300.48"/>
<polygon fill="midnightblue" stroke="midnightblue" points="79.017,-211.007 70.1242,-205.248 73.4846,-215.296 79.017,-211.007"/>
</g>
<!-- Node52 -->
<g id="node7" class="node"><title>Node52</title>
<g id="a_node7"><a xlink:href="group__adf7030-1____state.html#gacaa42b93edfe342dfc5320e18115293f" target="_top" xlink:title="Polls Radio PHY SPI Status until match is found. ">
<polygon fill="white" stroke="black" points="180,-251.5 180,-281.5 304,-281.5 304,-251.5 180,-251.5"/>
<text text-anchor="start" x="188" y="-269.5" font-family="Helvetica,sans-Serif" font-size="10.00">adf7030_1__STATE_Poll</text>
<text text-anchor="middle" x="242" y="-258.5" font-family="Helvetica,sans-Serif" font-size="10.00">_PhyState</text>
</a>
</g>
</g>
<!-- Node46&#45;&gt;Node52 -->
<g id="edge6" class="edge"><title>Node46&#45;&gt;Node52</title>
<path fill="none" stroke="midnightblue" d="M89.5303,-209.812C108.738,-219.81 135.519,-233.015 160,-242.5 168.206,-245.679 177.015,-248.686 185.693,-251.428"/>
<polygon fill="midnightblue" stroke="midnightblue" points="90.97,-206.614 80.491,-205.052 87.7084,-212.808 90.97,-206.614"/>
</g>
<!-- Node53 -->
<g id="node8" class="node"><title>Node53</title>
<g id="a_node8"><a xlink:href="group__adf7030-1____state.html#ga2802b9eabc4bebbca7422a92d1e4afba" target="_top" xlink:title="Polls Radio PHY SPI Status with NOPs until match is found. ">
<polygon fill="white" stroke="black" points="180,-202.5 180,-232.5 304,-232.5 304,-202.5 180,-202.5"/>
<text text-anchor="start" x="188" y="-220.5" font-family="Helvetica,sans-Serif" font-size="10.00">adf7030_1__STATE_Poll</text>
<text text-anchor="middle" x="242" y="-209.5" font-family="Helvetica,sans-Serif" font-size="10.00">_SpiStatus</text>
</a>
</g>
</g>
<!-- Node46&#45;&gt;Node53 -->
<g id="edge7" class="edge"><title>Node46&#45;&gt;Node53</title>
<path fill="none" stroke="midnightblue" d="M134.538,-204.342C149.58,-206.201 165.315,-208.146 179.931,-209.952"/>
<polygon fill="midnightblue" stroke="midnightblue" points="134.611,-200.824 124.258,-203.071 133.753,-207.771 134.611,-200.824"/>
</g>
<!-- Node54 -->
<g id="node9" class="node"><title>Node54</title>
<g id="a_node9"><a xlink:href="group__adf7030-1____state.html#gafb99ca1d9734a398d45e5443ff220f0a" target="_top" xlink:title="Polls Radio PHY SPI Status with NOPs until in Exec mode. ">
<polygon fill="white" stroke="black" points="167,-164 167,-183 317,-183 317,-164 167,-164"/>
<text text-anchor="middle" x="242" y="-171" font-family="Helvetica,sans-Serif" font-size="10.00">adf7030_1__STATE_WaitExec</text>
</a>
</g>
</g>
<!-- Node46&#45;&gt;Node54 -->
<g id="edge8" class="edge"><title>Node46&#45;&gt;Node54</title>
<path fill="none" stroke="midnightblue" d="M134.344,-186.682C144.999,-185.365 156.006,-184.005 166.72,-182.681"/>
<polygon fill="midnightblue" stroke="midnightblue" points="133.753,-183.229 124.258,-187.929 134.611,-190.176 133.753,-183.229"/>
</g>
<!-- Node55 -->
<g id="node10" class="node"><title>Node55</title>
<g id="a_node10"><a xlink:href="group__adf7030-1____state.html#ga8f9188903899c02788c3a13573de93ed" target="_top" xlink:title="Polls Radio PHY SPI Status with NOPs until External IRQ flag is found. ">
<polygon fill="white" stroke="black" points="162.5,-126 162.5,-145 321.5,-145 321.5,-126 162.5,-126"/>
<text text-anchor="middle" x="242" y="-133" font-family="Helvetica,sans-Serif" font-size="10.00">adf7030_1__STATE_WaitExtIRQ</text>
</a>
</g>
</g>
<!-- Node46&#45;&gt;Node55 -->
<g id="edge9" class="edge"><title>Node46&#45;&gt;Node55</title>
<path fill="none" stroke="midnightblue" d="M92.3521,-181.555C111.339,-172.922 136.761,-162.076 160,-154.5 170.986,-150.918 183.016,-147.72 194.365,-145.014"/>
<polygon fill="midnightblue" stroke="midnightblue" points="90.6729,-178.475 83.0557,-185.839 93.6026,-184.833 90.6729,-178.475"/>
</g>
<!-- Node56 -->
<g id="node11" class="node"><title>Node56</title>
<g id="a_node11"><a xlink:href="group__adf7030-1____state.html#gaa7018482608e13a0eb591f6afcbcda1e" target="_top" xlink:title="Polls Radio PHY SPI Status with NOPs until in Idle mode. ">
<polygon fill="white" stroke="black" points="170.5,-88 170.5,-107 313.5,-107 313.5,-88 170.5,-88"/>
<text text-anchor="middle" x="242" y="-95" font-family="Helvetica,sans-Serif" font-size="10.00">adf7030_1__STATE_WaitIdle</text>
</a>
</g>
</g>
<!-- Node46&#45;&gt;Node56 -->
<g id="edge10" class="edge"><title>Node46&#45;&gt;Node56</title>
<path fill="none" stroke="midnightblue" d="M79.2274,-178.28C97.2549,-160.182 128.055,-132.205 160,-116.5 167.907,-112.613 176.645,-109.499 185.369,-107.011"/>
<polygon fill="midnightblue" stroke="midnightblue" points="76.3538,-176.214 71.8851,-185.82 81.369,-181.097 76.3538,-176.214"/>
</g>
<!-- Node57 -->
<g id="node12" class="node"><title>Node57</title>
<g id="a_node12"><a xlink:href="group__adf7030-1____state.html#ga785422f909662c766cb347d0196d80c4" target="_top" xlink:title="Polls Radio PHY SPI Status with NOPs until ready for operation. ">
<polygon fill="white" stroke="black" points="164.5,-50 164.5,-69 319.5,-69 319.5,-50 164.5,-50"/>
<text text-anchor="middle" x="242" y="-57" font-family="Helvetica,sans-Serif" font-size="10.00">adf7030_1__STATE_WaitReady</text>
</a>
</g>
</g>
<!-- Node46&#45;&gt;Node57 -->
<g id="edge11" class="edge"><title>Node46&#45;&gt;Node57</title>
<path fill="none" stroke="midnightblue" d="M73.1196,-176.913C88.3801,-150.723 119.82,-103.383 160,-78.5 166.263,-74.6214 173.245,-71.5341 180.411,-69.0768"/>
<polygon fill="midnightblue" stroke="midnightblue" points="69.9561,-175.397 68.0786,-185.824 76.0487,-178.844 69.9561,-175.397"/>
</g>
<!-- Node58 -->
<g id="node13" class="node"><title>Node58</title>
<g id="a_node13"><a xlink:href="group__adf7030-1____state.html#ga9c0510d21c3b6cf5e3bed3da0b41409e" target="_top" xlink:title="Polls Radio PHY SPI Status with NOPs until ready for operation. ">
<polygon fill="white" stroke="black" points="166.5,-0.5 166.5,-30.5 317.5,-30.5 317.5,-0.5 166.5,-0.5"/>
<text text-anchor="start" x="174.5" y="-18.5" font-family="Helvetica,sans-Serif" font-size="10.00">adf7030_1__STATE_WaitState</text>
<text text-anchor="middle" x="242" y="-7.5" font-family="Helvetica,sans-Serif" font-size="10.00">Ready</text>
</a>
</g>
</g>
<!-- Node46&#45;&gt;Node58 -->
<g id="edge12" class="edge"><title>Node46&#45;&gt;Node58</title>
<path fill="none" stroke="midnightblue" d="M69.9276,-176.083C82.6258,-143.258 112.746,-76.8341 160,-40.5 165.017,-36.6426 170.634,-33.3757 176.507,-30.6097"/>
<polygon fill="midnightblue" stroke="midnightblue" points="66.5058,-175.242 66.2896,-185.834 73.0642,-177.688 66.5058,-175.242"/>
</g>
<!-- Node50 -->
<g id="node5" class="node"><title>Node50</title>
<g id="a_node5"><a xlink:href="group__adf7030-1____core.html#ga8fc7a869a747268f0ed652ec4954a352" target="_top" xlink:title="Enable the adf7030&#45;1. ">
<polygon fill="white" stroke="black" points="360,-306 360,-325 461,-325 461,-306 360,-306"/>
<text text-anchor="middle" x="410.5" y="-313" font-family="Helvetica,sans-Serif" font-size="10.00">adf7030_1__Enable</text>
</a>
</g>
</g>
<!-- Node49&#45;&gt;Node50 -->
<g id="edge4" class="edge"><title>Node49&#45;&gt;Node50</title>
<path fill="none" stroke="midnightblue" d="M325.389,-315.5C337.175,-315.5 348.985,-315.5 359.872,-315.5"/>
<polygon fill="midnightblue" stroke="midnightblue" points="325.061,-312 315.061,-315.5 325.061,-319 325.061,-312"/>
</g>
<!-- Node51 -->
<g id="node6" class="node"><title>Node51</title>
<g id="a_node6"><a xlink:href="group__adf7030-1____core.html#ga3e7db2dcab244e93d0e97d24ee3eef86" target="_top" xlink:title="Closes the adf7030&#45;1 instance. ">
<polygon fill="white" stroke="black" points="497,-306 497,-325 593,-325 593,-306 497,-306"/>
<text text-anchor="middle" x="545" y="-313" font-family="Helvetica,sans-Serif" font-size="10.00">adf7030_1__Close</text>
</a>
</g>
</g>
<!-- Node50&#45;&gt;Node51 -->
<g id="edge5" class="edge"><title>Node50&#45;&gt;Node51</title>
<path fill="none" stroke="midnightblue" d="M471.42,-315.5C479.874,-315.5 488.466,-315.5 496.639,-315.5"/>
<polygon fill="midnightblue" stroke="midnightblue" points="471.215,-312 461.215,-315.5 471.215,-319 471.215,-312"/>
</g>
</g>
</svg>
        <g id="navigator" transform="translate(0 0)" fill="#404254">
                <rect fill="#f2f5e9" fill-opacity="0.5" stroke="#606060" stroke-width=".5" x="0" y="0" width="60" height="60"/>
                <use id="zoomplus" xlink:href="#zoomPlus" x="17" y="9" onmousedown="handleZoom(evt,'in')"/>
                <use id="zoomminus" xlink:href="#zoomMin" x="42" y="9" onmousedown="handleZoom(evt,'out')"/>
                <use id="reset" xlink:href="#resetDef" x="30" y="36" onmousedown="handleReset()"/>
                <g id="arrowUp" xlink:href="#dirArrow" transform="translate(30 24)" onmousedown="handlePan(0,-1)">
                  <use xlink:href="#rim" fill="#404040">
                        <set attributeName="fill" to="#808080" begin="arrowUp.mouseover" end="arrowUp.mouseout"/>
                  </use>
                  <path fill="none" stroke="white" stroke-width="1.5" d="M0,-3.0v7 M-2.5,-0.5L0,-3.0L2.5,-0.5"/>
                </g>
                <g id="arrowRight" xlink:href="#dirArrow" transform="rotate(90) translate(36 -43)" onmousedown="handlePan(1,0)">
                  <use xlink:href="#rim" fill="#404040">
                        <set attributeName="fill" to="#808080" begin="arrowRight.mouseover" end="arrowRight.mouseout"/>
                  </use>
                  <path fill="none" stroke="white" stroke-width="1.5" d="M0,-3.0v7 M-2.5,-0.5L0,-3.0L2.5,-0.5"/>
                </g>
                <g id="arrowDown" xlink:href="#dirArrow" transform="rotate(180) translate(-30 -48)" onmousedown="handlePan(0,1)">
                  <use xlink:href="#rim" fill="#404040">
                        <set attributeName="fill" to="#808080" begin="arrowDown.mouseover" end="arrowDown.mouseout"/>
                  </use>
                  <path fill="none" stroke="white" stroke-width="1.5" d="M0,-3.0v7 M-2.5,-0.5L0,-3.0L2.5,-0.5"/>
                </g>
                <g id="arrowLeft" xlink:href="#dirArrow" transform="rotate(270) translate(-36 17)" onmousedown="handlePan(-1,0)">
                  <use xlink:href="#rim" fill="#404040">
                        <set attributeName="fill" to="#808080" begin="arrowLeft.mouseover" end="arrowLeft.mouseout"/>
                  </use>
                  <path fill="none" stroke="white" stroke-width="1.5" d="M0,-3.0v7 M-2.5,-0.5L0,-3.0L2.5,-0.5"/>
                </g>
        </g>
        <svg viewBox="0 0 15 15" width="100%" height="30px" preserveAspectRatio="xMaxYMin meet">
         <g id="arrow_out" transform="scale(0.3 0.3)">
          <a xlink:href="group__adf7030-1____state_ga47915136f3871f6ad931de81fa60b378_icgraph_org.svg" target="_base">
           <rect id="button" ry="5" rx="5" y="6" x="6" height="38" width="38"
                fill="#f2f5e9" fill-opacity="0.5" stroke="#606060" stroke-width="1.0"/>
           <path id="arrow"
             d="M 11.500037,31.436501 C 11.940474,20.09759 22.043105,11.32322 32.158766,21.979434 L 37.068811,17.246167 C 37.068811,17.246167 37.088388,32 37.088388,32 L 22.160133,31.978069 C 22.160133,31.978069 26.997745,27.140456 26.997745,27.140456 C 18.528582,18.264221 13.291696,25.230495 11.500037,31.436501 z"
             style="fill:#404040;"/>
          </a>
         </g>
        </svg>
</svg>
