<?xml version="1.0" encoding="UTF-8" standalone="no"?>
<!DOCTYPE svg PUBLIC "-//W3C//DTD SVG 1.1//EN"
 "http://www.w3.org/Graphics/SVG/1.1/DTD/svg11.dtd">
<!-- Generated by graphviz version 2.38.0 (20140413.2041)
 -->
<!-- Title: adf7030_1__ReadPatchBlock Pages: 1 -->
<svg width="715pt" height="127pt"
 viewBox="0.00 0.00 715.00 126.50" xmlns="http://www.w3.org/2000/svg" xmlns:xlink="http://www.w3.org/1999/xlink">
<g id="graph0" class="graph" transform="scale(1 1) rotate(0) translate(4 122.5)">
<title>adf7030_1__ReadPatchBlock</title>
<polygon fill="white" stroke="none" points="-4,4 -4,-122.5 711,-122.5 711,4 -4,4"/>
<!-- Node8 -->
<g id="node1" class="node"><title>Node8</title>
<polygon fill="#bfbfbf" stroke="black" points="0,-55 0,-74 144,-74 144,-55 0,-55"/>
<text text-anchor="middle" x="72" y="-62" font-family="Helvetica,sans-Serif" font-size="10.00">adf7030_1__ReadPatchBlock</text>
</g>
<!-- Node9 -->
<g id="node2" class="node"><title>Node9</title>
<g id="a_node2"><a xlink:href="group__adf7030-1____patch.html#ga71c53aa1ca866512fbfaa5d99a3181e8" target="_top" xlink:title="Generic Patch Section transfer function between Host and the Radio PHY. ">
<polygon fill="white" stroke="black" points="180,-55 180,-74 317,-74 317,-55 180,-55"/>
<text text-anchor="middle" x="248.5" y="-62" font-family="Helvetica,sans-Serif" font-size="10.00">adf7030_1__XferPatchBlock</text>
</a>
</g>
</g>
<!-- Node8&#45;&gt;Node9 -->
<g id="edge1" class="edge"><title>Node8&#45;&gt;Node9</title>
<path fill="none" stroke="midnightblue" d="M144.228,-64.5C152.602,-64.5 161.181,-64.5 169.641,-64.5"/>
<polygon fill="midnightblue" stroke="midnightblue" points="169.879,-68.0001 179.879,-64.5 169.879,-61.0001 169.879,-68.0001"/>
</g>
<!-- Node10 -->
<g id="node3" class="node"><title>Node10</title>
<g id="a_node3"><a xlink:href="group__adf7030-1____spi.html#ga7c54fff20ff0def7f7a3b9d7036f9cda" target="_top" xlink:title="This function return the best Pointer id + offset for subsequent SPI transfert to the PHY &quot;Addr&quot; prov...">
<polygon fill="white" stroke="black" points="353,-99 353,-118 522,-118 522,-99 353,-99"/>
<text text-anchor="middle" x="437.5" y="-106" font-family="Helvetica,sans-Serif" font-size="10.00">adf7030_1__SPI_FindMMapPointer</text>
</a>
</g>
</g>
<!-- Node9&#45;&gt;Node10 -->
<g id="edge2" class="edge"><title>Node9&#45;&gt;Node10</title>
<path fill="none" stroke="midnightblue" d="M288.298,-74.0006C307.713,-78.7219 331.583,-84.4771 353,-89.5 363.091,-91.8668 373.879,-94.3536 384.236,-96.7196"/>
<polygon fill="midnightblue" stroke="midnightblue" points="383.469,-100.134 393.996,-98.9431 385.023,-93.3093 383.469,-100.134"/>
</g>
<!-- Node11 -->
<g id="node4" class="node"><title>Node11</title>
<g id="a_node4"><a xlink:href="group__adf7030-1____spi.html#ga87f62777c793d805dac75887f167b2bf" target="_top" xlink:title="Change the SPI Radio mmap custom pointers 0 location. ">
<polygon fill="white" stroke="black" points="353.5,-49.5 353.5,-79.5 521.5,-79.5 521.5,-49.5 353.5,-49.5"/>
<text text-anchor="start" x="361.5" y="-67.5" font-family="Helvetica,sans-Serif" font-size="10.00">adf7030_1__SPI_SetMMapCustom</text>
<text text-anchor="middle" x="437.5" y="-56.5" font-family="Helvetica,sans-Serif" font-size="10.00">Pntr0</text>
</a>
</g>
</g>
<!-- Node9&#45;&gt;Node11 -->
<g id="edge3" class="edge"><title>Node9&#45;&gt;Node11</title>
<path fill="none" stroke="midnightblue" d="M317.011,-64.5C325.601,-64.5 334.508,-64.5 343.41,-64.5"/>
<polygon fill="midnightblue" stroke="midnightblue" points="343.441,-68.0001 353.441,-64.5 343.441,-61.0001 343.441,-68.0001"/>
</g>
<!-- Node13 -->
<g id="node6" class="node"><title>Node13</title>
<g id="a_node6"><a xlink:href="group__adf7030-1____spi.html#ga0b334362c3e1aeb752f58c60a263a9cf" target="_top" xlink:title="Read &amp; Compare a number of bytes(s) from memory of the adf7030&#45;1 to Host starting at location pointed...">
<polygon fill="white" stroke="black" points="375,-0.5 375,-30.5 500,-30.5 500,-0.5 375,-0.5"/>
<text text-anchor="start" x="383" y="-18.5" font-family="Helvetica,sans-Serif" font-size="10.00">adf7030_1__SPI_rd_cmp</text>
<text text-anchor="middle" x="437.5" y="-7.5" font-family="Helvetica,sans-Serif" font-size="10.00">_byte_p_a</text>
</a>
</g>
</g>
<!-- Node9&#45;&gt;Node13 -->
<g id="edge5" class="edge"><title>Node9&#45;&gt;Node13</title>
<path fill="none" stroke="midnightblue" d="M285.999,-54.936C309.674,-48.7324 341.233,-40.4629 369.336,-33.099"/>
<polygon fill="midnightblue" stroke="midnightblue" points="370.328,-36.4575 379.114,-30.537 368.553,-29.6861 370.328,-36.4575"/>
</g>
<!-- Node12 -->
<g id="node5" class="node"><title>Node12</title>
<g id="a_node5"><a xlink:href="group__adf7030-1____spi.html#ga6f0c25120c078623d42ede30fc690999" target="_top" xlink:title="Write a number of word(s) from Host to memory of the adf7030&#45;1 starting at location pointed by &quot;pntr&quot;...">
<polygon fill="white" stroke="black" points="558,-55 558,-74 707,-74 707,-55 558,-55"/>
<text text-anchor="middle" x="632.5" y="-62" font-family="Helvetica,sans-Serif" font-size="10.00">adf7030_1__SPI_wr_word_b_p</text>
</a>
</g>
</g>
<!-- Node11&#45;&gt;Node12 -->
<g id="edge4" class="edge"><title>Node11&#45;&gt;Node12</title>
<path fill="none" stroke="midnightblue" d="M521.75,-64.5C530.402,-64.5 539.2,-64.5 547.857,-64.5"/>
<polygon fill="midnightblue" stroke="midnightblue" points="547.938,-68.0001 557.938,-64.5 547.938,-61.0001 547.938,-68.0001"/>
</g>
</g>
</svg>
