<?xml version="1.0" encoding="UTF-8" standalone="no"?>
<!DOCTYPE svg PUBLIC "-//W3C//DTD SVG 1.1//EN"
 "http://www.w3.org/Graphics/SVG/1.1/DTD/svg11.dtd">
<!-- Generated by graphviz version 2.38.0 (20140413.2041)
 -->
<!-- Title: adf7030_1__GPIO_SetCfg Pages: 1 -->
<svg width="486pt" height="116pt"
 viewBox="0.00 0.00 486.00 115.50" xmlns="http://www.w3.org/2000/svg" xmlns:xlink="http://www.w3.org/1999/xlink">
<g id="graph0" class="graph" transform="scale(1 1) rotate(0) translate(4 111.5)">
<title>adf7030_1__GPIO_SetCfg</title>
<polygon fill="white" stroke="none" points="-4,4 -4,-111.5 482,-111.5 482,4 -4,4"/>
<!-- Node8 -->
<g id="node1" class="node"><title>Node8</title>
<polygon fill="#bfbfbf" stroke="black" points="0,-38.5 0,-57.5 130,-57.5 130,-38.5 0,-38.5"/>
<text text-anchor="middle" x="65" y="-45.5" font-family="Helvetica,sans-Serif" font-size="10.00">adf7030_1__GPIO_SetCfg</text>
</g>
<!-- Node9 -->
<g id="node2" class="node"><title>Node9</title>
<g id="a_node2"><a xlink:href="group__adf7030-1____mem.html#gabd27b8e9b962f82fbd947b43e1fb6bad" target="_top" xlink:title="Generic setting of a Radio PHY bitfield to a value via the SPI. ">
<polygon fill="white" stroke="black" points="166,-38.5 166,-57.5 294,-57.5 294,-38.5 166,-38.5"/>
<text text-anchor="middle" x="230" y="-45.5" font-family="Helvetica,sans-Serif" font-size="10.00">adf7030_1__SPI_SetField</text>
</a>
</g>
</g>
<!-- Node8&#45;&gt;Node9 -->
<g id="edge1" class="edge"><title>Node8&#45;&gt;Node9</title>
<path fill="none" stroke="midnightblue" d="M130.422,-48C138.71,-48 147.244,-48 155.661,-48"/>
<polygon fill="midnightblue" stroke="midnightblue" points="155.845,-51.5001 165.845,-48 155.845,-44.5001 155.845,-51.5001"/>
</g>
<!-- Node10 -->
<g id="node3" class="node"><title>Node10</title>
<g id="a_node3"><a xlink:href="group__adf7030-1____mem.html#ga301747e36458e5763d98d3cb73c9122f" target="_top" xlink:title="Generic Function to check if byte rw operation is permitted. ">
<polygon fill="white" stroke="black" points="330,-77 330,-107 478,-107 478,-77 330,-77"/>
<text text-anchor="start" x="338" y="-95" font-family="Helvetica,sans-Serif" font-size="10.00">adf7030_1__MEM_CheckByte</text>
<text text-anchor="middle" x="404" y="-84" font-family="Helvetica,sans-Serif" font-size="10.00">Access</text>
</a>
</g>
</g>
<!-- Node9&#45;&gt;Node10 -->
<g id="edge2" class="edge"><title>Node9&#45;&gt;Node10</title>
<path fill="none" stroke="midnightblue" d="M268.321,-57.5473C287.6,-62.4791 311.745,-68.6558 334.247,-74.4121"/>
<polygon fill="midnightblue" stroke="midnightblue" points="333.553,-77.847 344.108,-76.9346 335.288,-71.0654 333.553,-77.847"/>
</g>
<!-- Node11 -->
<g id="node4" class="node"><title>Node11</title>
<g id="a_node4"><a xlink:href="group__adf7030-1____mem.html#gacda1914daaf2eded7347710b0dbdb78a" target="_top" xlink:title="Read &quot;nbBytes&quot; memory location via the SPI. ">
<polygon fill="white" stroke="black" points="337,-38.5 337,-57.5 471,-57.5 471,-38.5 337,-38.5"/>
<text text-anchor="middle" x="404" y="-45.5" font-family="Helvetica,sans-Serif" font-size="10.00">adf7030_1__SPI_GetBytes</text>
</a>
</g>
</g>
<!-- Node9&#45;&gt;Node11 -->
<g id="edge3" class="edge"><title>Node9&#45;&gt;Node11</title>
<path fill="none" stroke="midnightblue" d="M294.07,-48C304.605,-48 315.635,-48 326.463,-48"/>
<polygon fill="midnightblue" stroke="midnightblue" points="326.76,-51.5001 336.76,-48 326.76,-44.5001 326.76,-51.5001"/>
</g>
<!-- Node12 -->
<g id="node5" class="node"><title>Node12</title>
<g id="a_node5"><a xlink:href="group__adf7030-1____mem.html#ga7dacc77a0474b14d4e15e12bfc1a46d7" target="_top" xlink:title="Writes &quot;nbBytes&quot; memory location via the SPI. ">
<polygon fill="white" stroke="black" points="337.5,-0.5 337.5,-19.5 470.5,-19.5 470.5,-0.5 337.5,-0.5"/>
<text text-anchor="middle" x="404" y="-7.5" font-family="Helvetica,sans-Serif" font-size="10.00">adf7030_1__SPI_SetBytes</text>
</a>
</g>
</g>
<!-- Node9&#45;&gt;Node12 -->
<g id="edge4" class="edge"><title>Node9&#45;&gt;Node12</title>
<path fill="none" stroke="midnightblue" d="M274.403,-38.411C297.407,-33.3287 325.851,-27.0446 350.134,-21.6797"/>
<polygon fill="midnightblue" stroke="midnightblue" points="350.9,-25.095 359.909,-19.5201 349.39,-18.2598 350.9,-25.095"/>
</g>
</g>
</svg>
