<?xml version="1.0" encoding="UTF-8" standalone="no"?>
<!DOCTYPE svg PUBLIC "-//W3C//DTD SVG 1.1//EN"
 "http://www.w3.org/Graphics/SVG/1.1/DTD/svg11.dtd">
<!-- Generated by graphviz version 2.38.0 (20140413.2041)
 -->
<!-- Title: adf7030_1__IRQ_SetGPIOPin Pages: 1 -->
<svg width="668pt" height="116pt"
 viewBox="0.00 0.00 668.00 115.50" xmlns="http://www.w3.org/2000/svg" xmlns:xlink="http://www.w3.org/1999/xlink">
<g id="graph0" class="graph" transform="scale(1 1) rotate(0) translate(4 111.5)">
<title>adf7030_1__IRQ_SetGPIOPin</title>
<polygon fill="white" stroke="none" points="-4,4 -4,-111.5 664,-111.5 664,4 -4,4"/>
<!-- Node28 -->
<g id="node1" class="node"><title>Node28</title>
<polygon fill="#bfbfbf" stroke="black" points="0,-38.5 0,-57.5 146,-57.5 146,-38.5 0,-38.5"/>
<text text-anchor="middle" x="73" y="-45.5" font-family="Helvetica,sans-Serif" font-size="10.00">adf7030_1__IRQ_SetGPIOPin</text>
</g>
<!-- Node29 -->
<g id="node2" class="node"><title>Node29</title>
<g id="a_node2"><a xlink:href="group__adf7030-1____gpio.html#gac3150c08d65f94ec1837e879e577c4e6" target="_top" xlink:title="Setup individual GPIO configuration on the PHY Radio. ">
<polygon fill="white" stroke="black" points="182,-38.5 182,-57.5 312,-57.5 312,-38.5 182,-38.5"/>
<text text-anchor="middle" x="247" y="-45.5" font-family="Helvetica,sans-Serif" font-size="10.00">adf7030_1__GPIO_SetCfg</text>
</a>
</g>
</g>
<!-- Node28&#45;&gt;Node29 -->
<g id="edge1" class="edge"><title>Node28&#45;&gt;Node29</title>
<path fill="none" stroke="midnightblue" d="M146.445,-48C154.8,-48 163.329,-48 171.708,-48"/>
<polygon fill="midnightblue" stroke="midnightblue" points="171.831,-51.5001 181.831,-48 171.831,-44.5001 171.831,-51.5001"/>
</g>
<!-- Node30 -->
<g id="node3" class="node"><title>Node30</title>
<g id="a_node3"><a xlink:href="group__adf7030-1____mem.html#gabd27b8e9b962f82fbd947b43e1fb6bad" target="_top" xlink:title="Generic setting of a Radio PHY bitfield to a value via the SPI. ">
<polygon fill="white" stroke="black" points="348,-38.5 348,-57.5 476,-57.5 476,-38.5 348,-38.5"/>
<text text-anchor="middle" x="412" y="-45.5" font-family="Helvetica,sans-Serif" font-size="10.00">adf7030_1__SPI_SetField</text>
</a>
</g>
</g>
<!-- Node29&#45;&gt;Node30 -->
<g id="edge2" class="edge"><title>Node29&#45;&gt;Node30</title>
<path fill="none" stroke="midnightblue" d="M312.422,-48C320.71,-48 329.244,-48 337.661,-48"/>
<polygon fill="midnightblue" stroke="midnightblue" points="337.845,-51.5001 347.845,-48 337.845,-44.5001 337.845,-51.5001"/>
</g>
<!-- Node31 -->
<g id="node4" class="node"><title>Node31</title>
<g id="a_node4"><a xlink:href="group__adf7030-1____mem.html#ga301747e36458e5763d98d3cb73c9122f" target="_top" xlink:title="Generic Function to check if byte rw operation is permitted. ">
<polygon fill="white" stroke="black" points="512,-77 512,-107 660,-107 660,-77 512,-77"/>
<text text-anchor="start" x="520" y="-95" font-family="Helvetica,sans-Serif" font-size="10.00">adf7030_1__MEM_CheckByte</text>
<text text-anchor="middle" x="586" y="-84" font-family="Helvetica,sans-Serif" font-size="10.00">Access</text>
</a>
</g>
</g>
<!-- Node30&#45;&gt;Node31 -->
<g id="edge3" class="edge"><title>Node30&#45;&gt;Node31</title>
<path fill="none" stroke="midnightblue" d="M450.321,-57.5473C469.6,-62.4791 493.745,-68.6558 516.247,-74.4121"/>
<polygon fill="midnightblue" stroke="midnightblue" points="515.553,-77.847 526.108,-76.9346 517.288,-71.0654 515.553,-77.847"/>
</g>
<!-- Node32 -->
<g id="node5" class="node"><title>Node32</title>
<g id="a_node5"><a xlink:href="group__adf7030-1____mem.html#gacda1914daaf2eded7347710b0dbdb78a" target="_top" xlink:title="Read &quot;nbBytes&quot; memory location via the SPI. ">
<polygon fill="white" stroke="black" points="519,-38.5 519,-57.5 653,-57.5 653,-38.5 519,-38.5"/>
<text text-anchor="middle" x="586" y="-45.5" font-family="Helvetica,sans-Serif" font-size="10.00">adf7030_1__SPI_GetBytes</text>
</a>
</g>
</g>
<!-- Node30&#45;&gt;Node32 -->
<g id="edge4" class="edge"><title>Node30&#45;&gt;Node32</title>
<path fill="none" stroke="midnightblue" d="M476.07,-48C486.605,-48 497.635,-48 508.463,-48"/>
<polygon fill="midnightblue" stroke="midnightblue" points="508.76,-51.5001 518.76,-48 508.76,-44.5001 508.76,-51.5001"/>
</g>
<!-- Node33 -->
<g id="node6" class="node"><title>Node33</title>
<g id="a_node6"><a xlink:href="group__adf7030-1____mem.html#ga7dacc77a0474b14d4e15e12bfc1a46d7" target="_top" xlink:title="Writes &quot;nbBytes&quot; memory location via the SPI. ">
<polygon fill="white" stroke="black" points="519.5,-0.5 519.5,-19.5 652.5,-19.5 652.5,-0.5 519.5,-0.5"/>
<text text-anchor="middle" x="586" y="-7.5" font-family="Helvetica,sans-Serif" font-size="10.00">adf7030_1__SPI_SetBytes</text>
</a>
</g>
</g>
<!-- Node30&#45;&gt;Node33 -->
<g id="edge5" class="edge"><title>Node30&#45;&gt;Node33</title>
<path fill="none" stroke="midnightblue" d="M456.403,-38.411C479.407,-33.3287 507.851,-27.0446 532.134,-21.6797"/>
<polygon fill="midnightblue" stroke="midnightblue" points="532.9,-25.095 541.909,-19.5201 531.39,-18.2598 532.9,-25.095"/>
</g>
</g>
</svg>
