<?xml version="1.0" encoding="UTF-8" standalone="no"?>
<!DOCTYPE svg PUBLIC "-//W3C//DTD SVG 1.1//EN"
 "http://www.w3.org/Graphics/SVG/1.1/DTD/svg11.dtd">
<!-- Generated by graphviz version 2.38.0 (20140413.2041)
 -->
<!-- Title: adf7030_1__XferConfig Pages: 1 -->
<svg width="281pt" height="104pt"
 viewBox="0.00 0.00 281.00 104.00" xmlns="http://www.w3.org/2000/svg" xmlns:xlink="http://www.w3.org/1999/xlink">
<g id="graph0" class="graph" transform="scale(1 1) rotate(0) translate(4 100)">
<title>adf7030_1__XferConfig</title>
<polygon fill="white" stroke="none" points="-4,4 -4,-100 277,-100 277,4 -4,4"/>
<!-- Node151 -->
<g id="node1" class="node"><title>Node151</title>
<polygon fill="#bfbfbf" stroke="black" points="0,-38.5 0,-57.5 114,-57.5 114,-38.5 0,-38.5"/>
<text text-anchor="middle" x="57" y="-45.5" font-family="Helvetica,sans-Serif" font-size="10.00">adf7030_1__XferConfig</text>
</g>
<!-- Node152 -->
<g id="node2" class="node"><title>Node152</title>
<g id="a_node2"><a xlink:href="group__adf7030-1____mem.html#gaf9027afec4eb550d5d563efbb1ed3cbb" target="_top" xlink:title="Function call to read Configuration from Radio PHY. ">
<polygon fill="white" stroke="black" points="151,-76.5 151,-95.5 272,-95.5 272,-76.5 151,-76.5"/>
<text text-anchor="middle" x="211.5" y="-83.5" font-family="Helvetica,sans-Serif" font-size="10.00">adf7030_1__ReadConfig</text>
</a>
</g>
</g>
<!-- Node151&#45;&gt;Node152 -->
<g id="edge1" class="edge"><title>Node151&#45;&gt;Node152</title>
<path fill="none" stroke="midnightblue" d="M106.318,-60.04C127.623,-65.3488 152.304,-71.4988 172.295,-76.4799"/>
<polygon fill="midnightblue" stroke="midnightblue" points="107.032,-56.6108 96.4822,-57.589 105.339,-63.4031 107.032,-56.6108"/>
</g>
<!-- Node153 -->
<g id="node3" class="node"><title>Node153</title>
<g id="a_node3"><a xlink:href="group__adf7030-1____mem.html#gaeb52c8834f7abccae8965541f562fe80" target="_top" xlink:title="Function call to verify the integrity of the patch. ">
<polygon fill="white" stroke="black" points="150,-38.5 150,-57.5 273,-57.5 273,-38.5 150,-38.5"/>
<text text-anchor="middle" x="211.5" y="-45.5" font-family="Helvetica,sans-Serif" font-size="10.00">adf7030_1__VerifyConfig</text>
</a>
</g>
</g>
<!-- Node151&#45;&gt;Node153 -->
<g id="edge2" class="edge"><title>Node151&#45;&gt;Node153</title>
<path fill="none" stroke="midnightblue" d="M124.495,-48C132.898,-48 141.462,-48 149.769,-48"/>
<polygon fill="midnightblue" stroke="midnightblue" points="124.352,-44.5001 114.352,-48 124.352,-51.5001 124.352,-44.5001"/>
</g>
<!-- Node154 -->
<g id="node4" class="node"><title>Node154</title>
<g id="a_node4"><a xlink:href="group__adf7030-1____mem.html#ga79e0355d8a6b661e6b0d7d6be01d04a2" target="_top" xlink:title="Function call to write Configuration to Radio PHY. ">
<polygon fill="white" stroke="black" points="150.5,-0.5 150.5,-19.5 272.5,-19.5 272.5,-0.5 150.5,-0.5"/>
<text text-anchor="middle" x="211.5" y="-7.5" font-family="Helvetica,sans-Serif" font-size="10.00">adf7030_1__WriteConfig</text>
</a>
</g>
</g>
<!-- Node151&#45;&gt;Node154 -->
<g id="edge3" class="edge"><title>Node151&#45;&gt;Node154</title>
<path fill="none" stroke="midnightblue" d="M106.318,-35.96C127.623,-30.6512 152.304,-24.5012 172.295,-19.5201"/>
<polygon fill="midnightblue" stroke="midnightblue" points="105.339,-32.5969 96.4822,-38.411 107.032,-39.3892 105.339,-32.5969"/>
</g>
</g>
</svg>
