<?xml version="1.0" encoding="UTF-8" standalone="no"?>
<!DOCTYPE svg PUBLIC "-//W3C//DTD SVG 1.1//EN"
 "http://www.w3.org/Graphics/SVG/1.1/DTD/svg11.dtd">
<!-- Generated by graphviz version 2.38.0 (20140413.2041)
 -->
<!-- Title: ADF7030&#45;1 Driver Pages: 1 -->
<svg width="279pt" height="332pt"
 viewBox="0.00 0.00 279.00 332.00" xmlns="http://www.w3.org/2000/svg" xmlns:xlink="http://www.w3.org/1999/xlink">
<g id="graph0" class="graph" transform="scale(1 1) rotate(0) translate(4 328)">
<title>ADF7030&#45;1 Driver</title>
<polygon fill="white" stroke="none" points="-4,4 -4,-328 275,-328 275,4 -4,4"/>
<!-- Node5 -->
<g id="node1" class="node"><title>Node5</title>
<g id="a_node1"><a xlink:href="group__adf7030-1____irq.html" target="_top" xlink:title="Interrupt Interface">
<polygon fill="white" stroke="black" points="153.5,-304.5 153.5,-323.5 245.5,-323.5 245.5,-304.5 153.5,-304.5"/>
<text text-anchor="middle" x="199.5" y="-311.5" font-family="Helvetica,sans-Serif" font-size="10.00">Interrupt Interface</text>
</a>
</g>
</g>
<!-- Node2 -->
<g id="node2" class="node"><title>Node2</title>
<g id="a_node2"><a xlink:href="group__adf7030-1____cfg.html" target="_top" xlink:title="Configuration">
<polygon fill="white" stroke="black" points="163,-266.5 163,-285.5 236,-285.5 236,-266.5 163,-266.5"/>
<text text-anchor="middle" x="199.5" y="-273.5" font-family="Helvetica,sans-Serif" font-size="10.00">Configuration</text>
</a>
</g>
</g>
<!-- Node8 -->
<g id="node3" class="node"><title>Node8</title>
<g id="a_node3"><a xlink:href="group__adf7030-1____spi.html" target="_top" xlink:title="SPI Communication Interface">
<polygon fill="white" stroke="black" points="128,-228.5 128,-247.5 271,-247.5 271,-228.5 128,-228.5"/>
<text text-anchor="middle" x="199.5" y="-235.5" font-family="Helvetica,sans-Serif" font-size="10.00">SPI Communication Interface</text>
</a>
</g>
</g>
<!-- Node7 -->
<g id="node4" class="node"><title>Node7</title>
<g id="a_node4"><a xlink:href="group__adf7030-1____patch.html" target="_top" xlink:title="Patch Interface">
<polygon fill="white" stroke="black" points="158.5,-190.5 158.5,-209.5 240.5,-209.5 240.5,-190.5 158.5,-190.5"/>
<text text-anchor="middle" x="199.5" y="-197.5" font-family="Helvetica,sans-Serif" font-size="10.00">Patch Interface</text>
</a>
</g>
</g>
<!-- Node3 -->
<g id="node5" class="node"><title>Node3</title>
<g id="a_node5"><a xlink:href="group__adf7030-1____core.html" target="_top" xlink:title="Core Interface">
<polygon fill="white" stroke="black" points="161,-152.5 161,-171.5 238,-171.5 238,-152.5 161,-152.5"/>
<text text-anchor="middle" x="199.5" y="-159.5" font-family="Helvetica,sans-Serif" font-size="10.00">Core Interface</text>
</a>
</g>
</g>
<!-- Node9 -->
<g id="node6" class="node"><title>Node9</title>
<g id="a_node6"><a xlink:href="group__adf7030-1____state.html" target="_top" xlink:title="SPI Command Interface">
<polygon fill="white" stroke="black" points="140,-114.5 140,-133.5 259,-133.5 259,-114.5 140,-114.5"/>
<text text-anchor="middle" x="199.5" y="-121.5" font-family="Helvetica,sans-Serif" font-size="10.00">SPI Command Interface</text>
</a>
</g>
</g>
<!-- Node0 -->
<g id="node7" class="node"><title>Node0</title>
<polygon fill="#bfbfbf" stroke="black" points="0,-152.5 0,-171.5 92,-171.5 92,-152.5 0,-152.5"/>
<text text-anchor="middle" x="46" y="-159.5" font-family="Helvetica,sans-Serif" font-size="10.00">ADF7030&#45;1 Driver</text>
</g>
<!-- Node0&#45;&gt;Node5 -->
<g id="edge5" class="edge"><title>Node0&#45;&gt;Node5</title>
<path fill="none" stroke="black" d="M53.422,-181.237C64.1486,-210.361 88.5116,-265.383 128,-295 135.403,-300.552 144.316,-304.483 153.277,-307.265"/>
<polygon fill="black" stroke="black" points="56.7112,-180.04 50.0843,-171.773 50.1097,-182.368 56.7112,-180.04"/>
</g>
<!-- Node0&#45;&gt;Node2 -->
<g id="edge2" class="edge"><title>Node0&#45;&gt;Node2</title>
<path fill="none" stroke="black" d="M57.7721,-180.343C71.3999,-201.93 96.8856,-237.318 128,-257 138.392,-263.573 151.03,-267.893 162.721,-270.723"/>
<polygon fill="black" stroke="black" points="60.7262,-178.466 52.5212,-171.763 54.7554,-182.119 60.7262,-178.466"/>
</g>
<!-- Node0&#45;&gt;Node8 -->
<g id="edge8" class="edge"><title>Node0&#45;&gt;Node8</title>
<path fill="none" stroke="black" d="M65.8904,-178.197C81.5928,-190.918 105.009,-208.226 128,-219 136.035,-222.765 144.947,-225.892 153.656,-228.448"/>
<polygon fill="black" stroke="black" points="67.9464,-175.356 58.0121,-171.673 63.4816,-180.747 67.9464,-175.356"/>
</g>
<!-- Node0&#45;&gt;Node7 -->
<g id="edge7" class="edge"><title>Node0&#45;&gt;Node7</title>
<path fill="none" stroke="black" d="M95.0016,-174.04C116.167,-179.349 140.686,-185.499 160.545,-190.48"/>
<polygon fill="black" stroke="black" points="95.7809,-170.627 85.2298,-171.589 94.0779,-177.417 95.7809,-170.627"/>
</g>
<!-- Node0&#45;&gt;Node3 -->
<g id="edge3" class="edge"><title>Node0&#45;&gt;Node3</title>
<path fill="none" stroke="black" d="M102.263,-162C121.621,-162 142.91,-162 160.531,-162"/>
<polygon fill="black" stroke="black" points="102.045,-158.5 92.0448,-162 102.045,-165.5 102.045,-158.5"/>
</g>
<!-- Node0&#45;&gt;Node9 -->
<g id="edge9" class="edge"><title>Node0&#45;&gt;Node9</title>
<path fill="none" stroke="black" d="M95.0016,-149.96C116.167,-144.651 140.686,-138.501 160.545,-133.52"/>
<polygon fill="black" stroke="black" points="94.0779,-146.583 85.2298,-152.411 95.7809,-153.373 94.0779,-146.583"/>
</g>
<!-- Node6 -->
<g id="node8" class="node"><title>Node6</title>
<g id="a_node8"><a xlink:href="group__adf7030-1____mem.html" target="_top" xlink:title="Memory Interface">
<polygon fill="white" stroke="black" points="153.5,-76.5 153.5,-95.5 245.5,-95.5 245.5,-76.5 153.5,-76.5"/>
<text text-anchor="middle" x="199.5" y="-83.5" font-family="Helvetica,sans-Serif" font-size="10.00">Memory Interface</text>
</a>
</g>
</g>
<!-- Node0&#45;&gt;Node6 -->
<g id="edge6" class="edge"><title>Node0&#45;&gt;Node6</title>
<path fill="none" stroke="black" d="M65.8904,-145.803C81.5928,-133.082 105.009,-115.774 128,-105 136.035,-101.235 144.947,-98.108 153.656,-95.5521"/>
<polygon fill="black" stroke="black" points="63.4816,-143.253 58.0121,-152.327 67.9464,-148.644 63.4816,-143.253"/>
</g>
<!-- Node4 -->
<g id="node9" class="node"><title>Node4</title>
<g id="a_node9"><a xlink:href="group__adf7030-1____gpio.html" target="_top" xlink:title="GPIO Interface">
<polygon fill="white" stroke="black" points="159.5,-38.5 159.5,-57.5 239.5,-57.5 239.5,-38.5 159.5,-38.5"/>
<text text-anchor="middle" x="199.5" y="-45.5" font-family="Helvetica,sans-Serif" font-size="10.00">GPIO Interface</text>
</a>
</g>
</g>
<!-- Node0&#45;&gt;Node4 -->
<g id="edge4" class="edge"><title>Node0&#45;&gt;Node4</title>
<path fill="none" stroke="black" d="M57.7721,-143.657C71.3999,-122.07 96.8856,-86.6815 128,-67 137.427,-61.0367 148.704,-56.928 159.445,-54.1036"/>
<polygon fill="black" stroke="black" points="54.7554,-141.881 52.5212,-152.237 60.7262,-145.534 54.7554,-141.881"/>
</g>
<!-- Node1 -->
<g id="node10" class="node"><title>Node1</title>
<g id="a_node10"><a xlink:href="group__adf7030-1__headers.html" target="_top" xlink:title="Headers">
<polygon fill="white" stroke="black" points="173,-0.5 173,-19.5 226,-19.5 226,-0.5 173,-0.5"/>
<text text-anchor="middle" x="199.5" y="-7.5" font-family="Helvetica,sans-Serif" font-size="10.00">Headers</text>
</a>
</g>
</g>
<!-- Node0&#45;&gt;Node1 -->
<g id="edge1" class="edge"><title>Node0&#45;&gt;Node1</title>
<path fill="none" stroke="black" d="M53.422,-142.763C64.1486,-113.639 88.5116,-58.6168 128,-29 140.98,-19.2645 158.605,-14.5145 172.985,-12.1984"/>
<polygon fill="black" stroke="black" points="50.1097,-141.632 50.0843,-152.227 56.7112,-143.96 50.1097,-141.632"/>
</g>
</g>
</svg>
