<?xml version="1.0" encoding="UTF-8" standalone="no"?>
<!DOCTYPE svg PUBLIC "-//W3C//DTD SVG 1.1//EN"
 "http://www.w3.org/Graphics/SVG/1.1/DTD/svg11.dtd">
<!-- Generated by graphviz version 2.38.0 (20140413.2041)
 -->
<!-- Title: adf7030_1__SPI_FindMMapPointer Pages: 1 -->
<!--zoomable 520 -->
<svg id="main" version="1.1" xmlns="http://www.w3.org/2000/svg" xmlns:xlink="http://www.w3.org/1999/xlink" xml:space="preserve" onload="init(evt)">
<style type="text/css"><![CDATA[
.edge:hover path { stroke: red; }
.edge:hover polygon { stroke: red; fill: red; }
]]></style>
<script type="text/javascript"><![CDATA[
var edges = document.getElementsByTagName('g');
if (edges && edges.length) {
  for (var i=0;i<edges.length;i++) {
    if (edges[i].id.substr(0,4)=='edge') {
      edges[i].setAttribute('class','edge');
    }
  }
}
]]></script>
        <defs>
                <circle id="rim" cx="0" cy="0" r="7"/>
                <circle id="rim2" cx="0" cy="0" r="3.5"/>
                <g id="zoomPlus">
                        <use xlink:href="#rim" fill="#404040">
                                <set attributeName="fill" to="#808080" begin="zoomplus.mouseover" end="zoomplus.mouseout"/>
                        </use>
                        <path d="M-4,0h8M0,-4v8" fill="none" stroke="white" stroke-width="1.5" pointer-events="none"/>
                </g>
                <g id="zoomMin">
                        <use xlink:href="#rim" fill="#404040">
                                <set attributeName="fill" to="#808080" begin="zoomminus.mouseover" end="zoomminus.mouseout"/>
                        </use>
                        <path d="M-4,0h8" fill="none" stroke="white" stroke-width="1.5" pointer-events="none"/>
                </g>
                <g id="dirArrow">
                        <path fill="none" stroke="white" stroke-width="1.5" d="M0,-3.0v7 M-2.5,-0.5L0,-3.0L2.5,-0.5"/>
                </g>
               <g id="resetDef">
                       <use xlink:href="#rim2" fill="#404040">
                               <set attributeName="fill" to="#808080" begin="reset.mouseover" end="reset.mouseout"/>
                       </use>
               </g>
        </defs>

<script type="text/javascript">
var viewWidth = 717;
var viewHeight = 520;
var sectionId = 'dynsection-3';
</script>
<script xlink:href="svgpan.js"/>
<svg id="graph" class="graph">
<g id="viewport">
<title>adf7030_1__SPI_FindMMapPointer</title>
<polygon fill="white" stroke="none" points="-4,4 -4,-516 713,-516 713,4 -4,4"/>
<!-- Node9 -->
<g id="node1" class="node"><title>Node9</title>
<polygon fill="#bfbfbf" stroke="black" points="0,-338.5 0,-357.5 169,-357.5 169,-338.5 0,-338.5"/>
<text text-anchor="middle" x="84.5" y="-345.5" font-family="Helvetica,sans-Serif" font-size="10.00">adf7030_1__SPI_FindMMapPointer</text>
</g>
<!-- Node10 -->
<g id="node2" class="node"><title>Node10</title>
<g id="a_node2"><a xlink:href="group__adf7030-1____mem.html#gae9b48511e22b915e998ee67e69b36ec8" target="_top" xlink:title="Generic memory transfers function between Host shadow and the Radio PHY. ">
<polygon fill="white" stroke="black" points="206,-376.5 206,-395.5 341,-395.5 341,-376.5 206,-376.5"/>
<text text-anchor="middle" x="273.5" y="-383.5" font-family="Helvetica,sans-Serif" font-size="10.00">adf7030_1__SPI_Xfer_Mem</text>
</a>
</g>
</g>
<!-- Node9&#45;&gt;Node10 -->
<g id="edge1" class="edge"><title>Node9&#45;&gt;Node10</title>
<path fill="none" stroke="midnightblue" d="M142.631,-359.61C169.227,-365.014 200.473,-371.364 225.651,-376.48"/>
<polygon fill="midnightblue" stroke="midnightblue" points="143.185,-356.151 132.688,-357.589 141.791,-363.01 143.185,-356.151"/>
</g>
<!-- Node11 -->
<g id="node3" class="node"><title>Node11</title>
<g id="a_node3"><a xlink:href="group__adf7030-1____mem.html#ga1ca676315976719ad485f1a4772e876d" target="_top" xlink:title="Generic Data block transfers function between Host and the Radio PHY. ">
<polygon fill="white" stroke="black" points="207.5,-338.5 207.5,-357.5 339.5,-357.5 339.5,-338.5 207.5,-338.5"/>
<text text-anchor="middle" x="273.5" y="-345.5" font-family="Helvetica,sans-Serif" font-size="10.00">adf7030_1__XferDataBlock</text>
</a>
</g>
</g>
<!-- Node9&#45;&gt;Node11 -->
<g id="edge2" class="edge"><title>Node9&#45;&gt;Node11</title>
<path fill="none" stroke="midnightblue" d="M179.419,-348C188.892,-348 198.36,-348 207.433,-348"/>
<polygon fill="midnightblue" stroke="midnightblue" points="179.155,-344.5 169.155,-348 179.155,-351.5 179.155,-344.5"/>
</g>
<!-- Node23 -->
<g id="node15" class="node"><title>Node23</title>
<g id="a_node15"><a xlink:href="group__adf7030-1____patch.html#ga71c53aa1ca866512fbfaa5d99a3181e8" target="_top" xlink:title="Generic Patch Section transfer function between Host and the Radio PHY. ">
<polygon fill="white" stroke="black" points="205,-133.5 205,-152.5 342,-152.5 342,-133.5 205,-133.5"/>
<text text-anchor="middle" x="273.5" y="-140.5" font-family="Helvetica,sans-Serif" font-size="10.00">adf7030_1__XferPatchBlock</text>
</a>
</g>
</g>
<!-- Node9&#45;&gt;Node23 -->
<g id="edge14" class="edge"><title>Node9&#45;&gt;Node23</title>
<path fill="none" stroke="midnightblue" d="M101.222,-330.765C138.996,-289.354 233.92,-185.293 263.533,-152.83"/>
<polygon fill="midnightblue" stroke="midnightblue" points="98.4221,-328.641 94.2686,-338.387 103.594,-333.358 98.4221,-328.641"/>
</g>
<!-- Node12 -->
<g id="node4" class="node"><title>Node12</title>
<g id="a_node4"><a xlink:href="group__adf7030-1____mem.html#gaa184749ff4ec2d53c167d51cbadb9b18" target="_top" xlink:title="Function call to read the Data block. ">
<polygon fill="white" stroke="black" points="381.5,-492.5 381.5,-511.5 520.5,-511.5 520.5,-492.5 381.5,-492.5"/>
<text text-anchor="middle" x="451" y="-499.5" font-family="Helvetica,sans-Serif" font-size="10.00">adf7030_1__ReadDataBlock</text>
</a>
</g>
</g>
<!-- Node11&#45;&gt;Node12 -->
<g id="edge3" class="edge"><title>Node11&#45;&gt;Node12</title>
<path fill="none" stroke="midnightblue" d="M337.306,-363.012C338.957,-364.24 340.528,-365.567 342,-367 380.674,-404.661 339.019,-445.657 378,-483 382.014,-486.846 386.711,-489.935 391.749,-492.415"/>
<polygon fill="midnightblue" stroke="midnightblue" points="338.842,-359.85 328.477,-357.656 335.212,-365.835 338.842,-359.85"/>
</g>
<!-- Node14 -->
<g id="node6" class="node"><title>Node14</title>
<g id="a_node6"><a xlink:href="group__adf7030-1____mem.html#gaaed60fb0edafdf66ac0dd799752e9a5a" target="_top" xlink:title="Function call to partially read a section of the Host Data block. ">
<polygon fill="white" stroke="black" points="381,-443 381,-473 521,-473 521,-443 381,-443"/>
<text text-anchor="start" x="389" y="-461" font-family="Helvetica,sans-Serif" font-size="10.00">adf7030_1__ReadPartiaData</text>
<text text-anchor="middle" x="451" y="-450" font-family="Helvetica,sans-Serif" font-size="10.00">Block</text>
</a>
</g>
</g>
<!-- Node11&#45;&gt;Node14 -->
<g id="edge5" class="edge"><title>Node11&#45;&gt;Node14</title>
<path fill="none" stroke="midnightblue" d="M334.732,-362.061C337.285,-363.545 339.724,-365.186 342,-367 368.129,-387.825 352.505,-411.403 378,-433 382.543,-436.849 387.714,-440.117 393.151,-442.89"/>
<polygon fill="midnightblue" stroke="midnightblue" points="336.206,-358.885 325.69,-357.594 333.105,-365.161 336.206,-358.885"/>
</g>
<!-- Node15 -->
<g id="node7" class="node"><title>Node15</title>
<g id="a_node7"><a xlink:href="group__adf7030-1____mem.html#gacf6942abdfef8b5994cb07ffc51acd05" target="_top" xlink:title="Function call to verify the integrity of Data block. ">
<polygon fill="white" stroke="black" points="380.5,-404.5 380.5,-423.5 521.5,-423.5 521.5,-404.5 380.5,-404.5"/>
<text text-anchor="middle" x="451" y="-411.5" font-family="Helvetica,sans-Serif" font-size="10.00">adf7030_1__VerifyDataBlock</text>
</a>
</g>
</g>
<!-- Node11&#45;&gt;Node15 -->
<g id="edge6" class="edge"><title>Node11&#45;&gt;Node15</title>
<path fill="none" stroke="midnightblue" d="M327.561,-360.795C332.542,-362.63 337.431,-364.692 342,-367 360.093,-376.139 359.833,-386.01 378,-395 385.647,-398.784 394.137,-401.88 402.527,-404.391"/>
<polygon fill="midnightblue" stroke="midnightblue" points="328.524,-357.426 317.93,-357.541 326.283,-364.058 328.524,-357.426"/>
</g>
<!-- Node16 -->
<g id="node8" class="node"><title>Node16</title>
<g id="a_node8"><a xlink:href="group__adf7030-1____mem.html#ga4373955bd51900d2f60a961005aa83cb" target="_top" xlink:title="Function call to verify the integrity of a portion of a Host Data block. ">
<polygon fill="white" stroke="black" points="389,-355 389,-385 513,-385 513,-355 389,-355"/>
<text text-anchor="start" x="397" y="-373" font-family="Helvetica,sans-Serif" font-size="10.00">adf7030_1__VerifyPartial</text>
<text text-anchor="middle" x="451" y="-362" font-family="Helvetica,sans-Serif" font-size="10.00">DataBlock</text>
</a>
</g>
</g>
<!-- Node11&#45;&gt;Node16 -->
<g id="edge7" class="edge"><title>Node11&#45;&gt;Node16</title>
<path fill="none" stroke="midnightblue" d="M350.147,-357.483C363.11,-359.108 376.433,-360.778 388.953,-362.347"/>
<polygon fill="midnightblue" stroke="midnightblue" points="350.207,-353.963 339.85,-356.192 349.337,-360.909 350.207,-353.963"/>
</g>
<!-- Node17 -->
<g id="node9" class="node"><title>Node17</title>
<g id="a_node9"><a xlink:href="group__adf7030-1____mem.html#gab45789e38821a80b3f9cce11b91277bc" target="_top" xlink:title="Function call to write the Data block. ">
<polygon fill="white" stroke="black" points="381,-316.5 381,-335.5 521,-335.5 521,-316.5 381,-316.5"/>
<text text-anchor="middle" x="451" y="-323.5" font-family="Helvetica,sans-Serif" font-size="10.00">adf7030_1__WriteDataBlock</text>
</a>
</g>
</g>
<!-- Node11&#45;&gt;Node17 -->
<g id="edge8" class="edge"><title>Node11&#45;&gt;Node17</title>
<path fill="none" stroke="midnightblue" d="M349.981,-338.538C360.209,-337.256 370.664,-335.945 380.776,-334.678"/>
<polygon fill="midnightblue" stroke="midnightblue" points="349.337,-335.091 339.85,-339.808 350.207,-342.037 349.337,-335.091"/>
</g>
<!-- Node18 -->
<g id="node10" class="node"><title>Node18</title>
<g id="a_node10"><a xlink:href="group__adf7030-1____mem.html#gae2459967f63b227938db62e1b5388afc" target="_top" xlink:title="Function call to partially write a section of the Host Data block. ">
<polygon fill="white" stroke="black" points="379.5,-267 379.5,-297 522.5,-297 522.5,-267 379.5,-267"/>
<text text-anchor="start" x="387.5" y="-285" font-family="Helvetica,sans-Serif" font-size="10.00">adf7030_1__WritePartialData</text>
<text text-anchor="middle" x="451" y="-274" font-family="Helvetica,sans-Serif" font-size="10.00">Block</text>
</a>
</g>
</g>
<!-- Node11&#45;&gt;Node18 -->
<g id="edge9" class="edge"><title>Node11&#45;&gt;Node18</title>
<path fill="none" stroke="midnightblue" d="M307.231,-334.617C327.524,-326.424 354.178,-315.849 378,-307 386.931,-303.682 396.533,-300.253 405.723,-297.038"/>
<polygon fill="midnightblue" stroke="midnightblue" points="305.774,-331.431 297.82,-338.43 308.402,-337.919 305.774,-331.431"/>
</g>
<!-- Node19 -->
<g id="node11" class="node"><title>Node19</title>
<g id="a_node11"><a xlink:href="group__adf7030-1____mem.html#gae8fab7f4a9d7bc3432f2b85b789510e1" target="_top" xlink:title="Generic Configuration transfers function between Host and the Radio PHY. ">
<polygon fill="white" stroke="black" points="394,-228.5 394,-247.5 508,-247.5 508,-228.5 394,-228.5"/>
<text text-anchor="middle" x="451" y="-235.5" font-family="Helvetica,sans-Serif" font-size="10.00">adf7030_1__XferConfig</text>
</a>
</g>
</g>
<!-- Node11&#45;&gt;Node19 -->
<g id="edge10" class="edge"><title>Node11&#45;&gt;Node19</title>
<path fill="none" stroke="midnightblue" d="M289.373,-330.751C308.039,-310.184 341.997,-276.186 378,-257 385.188,-253.17 393.198,-250.074 401.191,-247.583"/>
<polygon fill="midnightblue" stroke="midnightblue" points="286.59,-328.614 282.564,-338.414 291.823,-333.264 286.59,-328.614"/>
</g>
<!-- Node13 -->
<g id="node5" class="node"><title>Node13</title>
<g id="a_node5"><a xlink:href="group__adf7030-1____core.html#gaa8110804874966018d0b7bfe40cbc001" target="_top" xlink:title="Initialise the Host shadow configuration of the PHY Radio. ">
<polygon fill="white" stroke="black" points="560,-492.5 560,-511.5 709,-511.5 709,-492.5 560,-492.5"/>
<text text-anchor="middle" x="634.5" y="-499.5" font-family="Helvetica,sans-Serif" font-size="10.00">adf7030_1__SetupHostPhyCfg</text>
</a>
</g>
</g>
<!-- Node12&#45;&gt;Node13 -->
<g id="edge4" class="edge"><title>Node12&#45;&gt;Node13</title>
<path fill="none" stroke="midnightblue" d="M530.662,-502C540.385,-502 550.296,-502 559.939,-502"/>
<polygon fill="midnightblue" stroke="midnightblue" points="530.617,-498.5 520.617,-502 530.617,-505.5 530.617,-498.5"/>
</g>
<!-- Node20 -->
<g id="node12" class="node"><title>Node20</title>
<g id="a_node12"><a xlink:href="group__adf7030-1____mem.html#gaf9027afec4eb550d5d563efbb1ed3cbb" target="_top" xlink:title="Function call to read Configuration from Radio PHY. ">
<polygon fill="white" stroke="black" points="574,-266.5 574,-285.5 695,-285.5 695,-266.5 574,-266.5"/>
<text text-anchor="middle" x="634.5" y="-273.5" font-family="Helvetica,sans-Serif" font-size="10.00">adf7030_1__ReadConfig</text>
</a>
</g>
</g>
<!-- Node19&#45;&gt;Node20 -->
<g id="edge11" class="edge"><title>Node19&#45;&gt;Node20</title>
<path fill="none" stroke="midnightblue" d="M507.792,-249.681C533.531,-255.07 563.699,-261.386 588.029,-266.48"/>
<polygon fill="midnightblue" stroke="midnightblue" points="508.305,-246.213 497.8,-247.589 506.871,-253.064 508.305,-246.213"/>
</g>
<!-- Node21 -->
<g id="node13" class="node"><title>Node21</title>
<g id="a_node13"><a xlink:href="group__adf7030-1____mem.html#gaeb52c8834f7abccae8965541f562fe80" target="_top" xlink:title="Function call to verify the integrity of the patch. ">
<polygon fill="white" stroke="black" points="573,-228.5 573,-247.5 696,-247.5 696,-228.5 573,-228.5"/>
<text text-anchor="middle" x="634.5" y="-235.5" font-family="Helvetica,sans-Serif" font-size="10.00">adf7030_1__VerifyConfig</text>
</a>
</g>
</g>
<!-- Node19&#45;&gt;Node21 -->
<g id="edge12" class="edge"><title>Node19&#45;&gt;Node21</title>
<path fill="none" stroke="midnightblue" d="M518.668,-238C536.348,-238 555.342,-238 572.692,-238"/>
<polygon fill="midnightblue" stroke="midnightblue" points="518.433,-234.5 508.433,-238 518.433,-241.5 518.433,-234.5"/>
</g>
<!-- Node22 -->
<g id="node14" class="node"><title>Node22</title>
<g id="a_node14"><a xlink:href="group__adf7030-1____mem.html#ga79e0355d8a6b661e6b0d7d6be01d04a2" target="_top" xlink:title="Function call to write Configuration to Radio PHY. ">
<polygon fill="white" stroke="black" points="573.5,-190.5 573.5,-209.5 695.5,-209.5 695.5,-190.5 573.5,-190.5"/>
<text text-anchor="middle" x="634.5" y="-197.5" font-family="Helvetica,sans-Serif" font-size="10.00">adf7030_1__WriteConfig</text>
</a>
</g>
</g>
<!-- Node19&#45;&gt;Node22 -->
<g id="edge13" class="edge"><title>Node19&#45;&gt;Node22</title>
<path fill="none" stroke="midnightblue" d="M507.792,-226.319C533.531,-220.93 563.699,-214.614 588.029,-209.52"/>
<polygon fill="midnightblue" stroke="midnightblue" points="506.871,-222.936 497.8,-228.411 508.305,-229.787 506.871,-222.936"/>
</g>
<!-- Node24 -->
<g id="node16" class="node"><title>Node24</title>
<g id="a_node16"><a xlink:href="group__adf7030-1____patch.html#gac583b9f3bee6f80cf1f418c6e35f57c2" target="_top" xlink:title="Function to read a single Patch block to the PHY Radio. ">
<polygon fill="white" stroke="black" points="379,-190.5 379,-209.5 523,-209.5 523,-190.5 379,-190.5"/>
<text text-anchor="middle" x="451" y="-197.5" font-family="Helvetica,sans-Serif" font-size="10.00">adf7030_1__ReadPatchBlock</text>
</a>
</g>
</g>
<!-- Node23&#45;&gt;Node24 -->
<g id="edge15" class="edge"><title>Node23&#45;&gt;Node24</title>
<path fill="none" stroke="midnightblue" d="M307.896,-156.167C328.04,-163.881 354.307,-173.542 378,-181 388.605,-184.338 400.21,-187.578 410.947,-190.408"/>
<polygon fill="midnightblue" stroke="midnightblue" points="309.127,-152.89 298.538,-152.554 306.606,-159.421 309.127,-152.89"/>
</g>
<!-- Node25 -->
<g id="node17" class="node"><title>Node25</title>
<g id="a_node17"><a xlink:href="group__adf7030-1____patch.html#ga390ff5ab41b522ebfebba9251e135c0a" target="_top" xlink:title="Function to verify content of a single Patch block in the PHY. ">
<polygon fill="white" stroke="black" points="378,-152.5 378,-171.5 524,-171.5 524,-152.5 378,-152.5"/>
<text text-anchor="middle" x="451" y="-159.5" font-family="Helvetica,sans-Serif" font-size="10.00">adf7030_1__VerifyPatchBlock</text>
</a>
</g>
</g>
<!-- Node23&#45;&gt;Node25 -->
<g id="edge16" class="edge"><title>Node23&#45;&gt;Node25</title>
<path fill="none" stroke="midnightblue" d="M352.06,-151.397C360.611,-152.323 369.292,-153.262 377.774,-154.181"/>
<polygon fill="midnightblue" stroke="midnightblue" points="352.421,-147.915 342.102,-150.319 351.667,-154.875 352.421,-147.915"/>
</g>
<!-- Node27 -->
<g id="node19" class="node"><title>Node27</title>
<g id="a_node19"><a xlink:href="group__adf7030-1____patch.html#ga3a7fd2ebaf84d3a0eb18b50ab89403b0" target="_top" xlink:title="Function to write a single Patch block to the PHY Radio. ">
<polygon fill="white" stroke="black" points="378.5,-114.5 378.5,-133.5 523.5,-133.5 523.5,-114.5 378.5,-114.5"/>
<text text-anchor="middle" x="451" y="-121.5" font-family="Helvetica,sans-Serif" font-size="10.00">adf7030_1__WritePatchBlock</text>
</a>
</g>
</g>
<!-- Node23&#45;&gt;Node27 -->
<g id="edge18" class="edge"><title>Node23&#45;&gt;Node27</title>
<path fill="none" stroke="midnightblue" d="M352.226,-134.585C360.92,-133.644 369.746,-132.688 378.359,-131.756"/>
<polygon fill="midnightblue" stroke="midnightblue" points="351.667,-131.125 342.102,-135.681 352.42,-138.085 351.667,-131.125"/>
</g>
<!-- Node28 -->
<g id="node20" class="node"><title>Node28</title>
<g id="a_node20"><a xlink:href="group__adf7030-1____patch.html#ga6c7b2435960b91a621d2b7b59eae91f6" target="_top" xlink:title="Generic Patch checksum configuration transfers function between Host and the Radio PHY...">
<polygon fill="white" stroke="black" points="384,-76.5 384,-95.5 518,-95.5 518,-76.5 384,-76.5"/>
<text text-anchor="middle" x="451" y="-83.5" font-family="Helvetica,sans-Serif" font-size="10.00">adf7030_1__XferChecksum</text>
</a>
</g>
</g>
<!-- Node23&#45;&gt;Node28 -->
<g id="edge20" class="edge"><title>Node23&#45;&gt;Node28</title>
<path fill="none" stroke="midnightblue" d="M307.896,-129.833C328.04,-122.119 354.307,-112.458 378,-105 388.605,-101.662 400.21,-98.4225 410.947,-95.592"/>
<polygon fill="midnightblue" stroke="midnightblue" points="306.606,-126.579 298.538,-133.446 309.127,-133.11 306.606,-126.579"/>
</g>
<!-- Node29 -->
<g id="node21" class="node"><title>Node29</title>
<g id="a_node21"><a xlink:href="group__adf7030-1____patch.html#ga4c271dbe767d130f0efd24c9e98bd2f9" target="_top" xlink:title="Generic Patch transfers function between Host and the Radio PHY. ">
<polygon fill="white" stroke="black" points="394.5,-38.5 394.5,-57.5 507.5,-57.5 507.5,-38.5 394.5,-38.5"/>
<text text-anchor="middle" x="451" y="-45.5" font-family="Helvetica,sans-Serif" font-size="10.00">adf7030_1__XferPatch</text>
</a>
</g>
</g>
<!-- Node23&#45;&gt;Node29 -->
<g id="edge21" class="edge"><title>Node23&#45;&gt;Node29</title>
<path fill="none" stroke="midnightblue" d="M292.347,-126.597C311.965,-109.396 345.087,-82.7244 378,-67 385.932,-63.2104 394.731,-60.0934 403.375,-57.5591"/>
<polygon fill="midnightblue" stroke="midnightblue" points="289.935,-124.059 284.806,-133.329 294.596,-129.28 289.935,-124.059"/>
</g>
<!-- Node26 -->
<g id="node18" class="node"><title>Node26</title>
<g id="a_node18"><a xlink:href="group__adf7030-1____patch.html#ga3102258e3a1861d13c16c82d1e68537f" target="_top" xlink:title="Function call to perform PHY Radio patch self&#45;checking. ">
<polygon fill="white" stroke="black" points="564,-133.5 564,-152.5 705,-152.5 705,-133.5 564,-133.5"/>
<text text-anchor="middle" x="634.5" y="-140.5" font-family="Helvetica,sans-Serif" font-size="10.00">adf7030_1__SelfCheckPatch</text>
</a>
</g>
</g>
<!-- Node25&#45;&gt;Node26 -->
<g id="edge17" class="edge"><title>Node25&#45;&gt;Node26</title>
<path fill="none" stroke="midnightblue" d="M534.434,-153.371C544.267,-152.341 554.231,-151.298 563.859,-150.29"/>
<polygon fill="midnightblue" stroke="midnightblue" points="533.836,-149.914 524.255,-154.436 534.565,-156.876 533.836,-149.914"/>
</g>
<!-- Node27&#45;&gt;Node26 -->
<g id="edge19" class="edge"><title>Node27&#45;&gt;Node26</title>
<path fill="none" stroke="midnightblue" d="M533.704,-132.553C543.743,-133.604 553.93,-134.67 563.769,-135.7"/>
<polygon fill="midnightblue" stroke="midnightblue" points="534.044,-129.07 523.734,-131.509 533.315,-136.032 534.044,-129.07"/>
</g>
<!-- Node30 -->
<g id="node22" class="node"><title>Node30</title>
<g id="a_node22"><a xlink:href="group__adf7030-1____patch.html#ga7c495e105742698cc777a712e2da9ad2" target="_top" xlink:title="Function call to readback the patch from Radio PHY. ">
<polygon fill="white" stroke="black" points="575,-76.5 575,-95.5 694,-95.5 694,-76.5 575,-76.5"/>
<text text-anchor="middle" x="634.5" y="-83.5" font-family="Helvetica,sans-Serif" font-size="10.00">adf7030_1__ReadPatch</text>
</a>
</g>
</g>
<!-- Node29&#45;&gt;Node30 -->
<g id="edge22" class="edge"><title>Node29&#45;&gt;Node30</title>
<path fill="none" stroke="midnightblue" d="M507.792,-59.681C533.531,-65.0699 563.699,-71.3861 588.029,-76.4799"/>
<polygon fill="midnightblue" stroke="midnightblue" points="508.305,-56.2126 497.8,-57.589 506.871,-63.064 508.305,-56.2126"/>
</g>
<!-- Node31 -->
<g id="node23" class="node"><title>Node31</title>
<g id="a_node23"><a xlink:href="group__adf7030-1____patch.html#ga1f1e316b541da1c27fb0a24f0b7efc7d" target="_top" xlink:title="Function call to verify the integrity of the patch. ">
<polygon fill="white" stroke="black" points="573.5,-38.5 573.5,-57.5 695.5,-57.5 695.5,-38.5 573.5,-38.5"/>
<text text-anchor="middle" x="634.5" y="-45.5" font-family="Helvetica,sans-Serif" font-size="10.00">adf7030_1__VerifyPatch</text>
</a>
</g>
</g>
<!-- Node29&#45;&gt;Node31 -->
<g id="edge23" class="edge"><title>Node29&#45;&gt;Node31</title>
<path fill="none" stroke="midnightblue" d="M518.094,-48C536.155,-48 555.625,-48 573.336,-48"/>
<polygon fill="midnightblue" stroke="midnightblue" points="517.937,-44.5001 507.937,-48 517.937,-51.5001 517.937,-44.5001"/>
</g>
<!-- Node32 -->
<g id="node24" class="node"><title>Node32</title>
<g id="a_node24"><a xlink:href="group__adf7030-1____patch.html#gaf6c0681c1cf8597650889b34d1b4bd2f" target="_top" xlink:title="Function call to write patch to Radio PHY. ">
<polygon fill="white" stroke="black" points="574.5,-0.5 574.5,-19.5 694.5,-19.5 694.5,-0.5 574.5,-0.5"/>
<text text-anchor="middle" x="634.5" y="-7.5" font-family="Helvetica,sans-Serif" font-size="10.00">adf7030_1__WritePatch</text>
</a>
</g>
</g>
<!-- Node29&#45;&gt;Node32 -->
<g id="edge24" class="edge"><title>Node29&#45;&gt;Node32</title>
<path fill="none" stroke="midnightblue" d="M507.792,-36.319C533.531,-30.9301 563.699,-24.6139 588.029,-19.5201"/>
<polygon fill="midnightblue" stroke="midnightblue" points="506.871,-32.936 497.8,-38.411 508.305,-39.7874 506.871,-32.936"/>
</g>
</g>
</svg>
        <g id="navigator" transform="translate(0 0)" fill="#404254">
                <rect fill="#f2f5e9" fill-opacity="0.5" stroke="#606060" stroke-width=".5" x="0" y="0" width="60" height="60"/>
                <use id="zoomplus" xlink:href="#zoomPlus" x="17" y="9" onmousedown="handleZoom(evt,'in')"/>
                <use id="zoomminus" xlink:href="#zoomMin" x="42" y="9" onmousedown="handleZoom(evt,'out')"/>
                <use id="reset" xlink:href="#resetDef" x="30" y="36" onmousedown="handleReset()"/>
                <g id="arrowUp" xlink:href="#dirArrow" transform="translate(30 24)" onmousedown="handlePan(0,-1)">
                  <use xlink:href="#rim" fill="#404040">
                        <set attributeName="fill" to="#808080" begin="arrowUp.mouseover" end="arrowUp.mouseout"/>
                  </use>
                  <path fill="none" stroke="white" stroke-width="1.5" d="M0,-3.0v7 M-2.5,-0.5L0,-3.0L2.5,-0.5"/>
                </g>
                <g id="arrowRight" xlink:href="#dirArrow" transform="rotate(90) translate(36 -43)" onmousedown="handlePan(1,0)">
                  <use xlink:href="#rim" fill="#404040">
                        <set attributeName="fill" to="#808080" begin="arrowRight.mouseover" end="arrowRight.mouseout"/>
                  </use>
                  <path fill="none" stroke="white" stroke-width="1.5" d="M0,-3.0v7 M-2.5,-0.5L0,-3.0L2.5,-0.5"/>
                </g>
                <g id="arrowDown" xlink:href="#dirArrow" transform="rotate(180) translate(-30 -48)" onmousedown="handlePan(0,1)">
                  <use xlink:href="#rim" fill="#404040">
                        <set attributeName="fill" to="#808080" begin="arrowDown.mouseover" end="arrowDown.mouseout"/>
                  </use>
                  <path fill="none" stroke="white" stroke-width="1.5" d="M0,-3.0v7 M-2.5,-0.5L0,-3.0L2.5,-0.5"/>
                </g>
                <g id="arrowLeft" xlink:href="#dirArrow" transform="rotate(270) translate(-36 17)" onmousedown="handlePan(-1,0)">
                  <use xlink:href="#rim" fill="#404040">
                        <set attributeName="fill" to="#808080" begin="arrowLeft.mouseover" end="arrowLeft.mouseout"/>
                  </use>
                  <path fill="none" stroke="white" stroke-width="1.5" d="M0,-3.0v7 M-2.5,-0.5L0,-3.0L2.5,-0.5"/>
                </g>
        </g>
        <svg viewBox="0 0 15 15" width="100%" height="30px" preserveAspectRatio="xMaxYMin meet">
         <g id="arrow_out" transform="scale(0.3 0.3)">
          <a xlink:href="group__adf7030-1____spi_ga7c54fff20ff0def7f7a3b9d7036f9cda_icgraph_org.svg" target="_base">
           <rect id="button" ry="5" rx="5" y="6" x="6" height="38" width="38"
                fill="#f2f5e9" fill-opacity="0.5" stroke="#606060" stroke-width="1.0"/>
           <path id="arrow"
             d="M 11.500037,31.436501 C 11.940474,20.09759 22.043105,11.32322 32.158766,21.979434 L 37.068811,17.246167 C 37.068811,17.246167 37.088388,32 37.088388,32 L 22.160133,31.978069 C 22.160133,31.978069 26.997745,27.140456 26.997745,27.140456 C 18.528582,18.264221 13.291696,25.230495 11.500037,31.436501 z"
             style="fill:#404040;"/>
          </a>
         </g>
        </svg>
</svg>
