<?xml version="1.0" encoding="UTF-8" standalone="no"?>
<!DOCTYPE svg PUBLIC "-//W3C//DTD SVG 1.1//EN"
 "http://www.w3.org/Graphics/SVG/1.1/DTD/svg11.dtd">
<!-- Generated by graphviz version 2.38.0 (20140413.2041)
 -->
<!-- Title: PHY Pages: 1 -->
<svg width="300pt" height="165pt"
 viewBox="0.00 0.00 300.00 164.50" xmlns="http://www.w3.org/2000/svg" xmlns:xlink="http://www.w3.org/1999/xlink">
<g id="graph0" class="graph" transform="scale(1 1) rotate(0) translate(4 160.5)">
<title>PHY</title>
<polygon fill="white" stroke="none" points="-4,4 -4,-160.5 296,-160.5 296,4 -4,4"/>
<!-- Node3 -->
<g id="node1" class="node"><title>Node3</title>
<g id="a_node1"><a xlink:href="group___f_w___macro.html" target="_top" xlink:title="Firmware Macro Definition">
<polygon fill="white" stroke="black" points="162.5,-137 162.5,-156 291.5,-156 291.5,-137 162.5,-137"/>
<text text-anchor="middle" x="227" y="-144" font-family="Helvetica,sans-Serif" font-size="10.00">Firmware Macro Definition</text>
</a>
</g>
</g>
<!-- Node5 -->
<g id="node2" class="node"><title>Node5</title>
<g id="a_node2"><a xlink:href="group___h_w___macro.html" target="_top" xlink:title="Hardware Macro Definition">
<polygon fill="white" stroke="black" points="162,-99 162,-118 292,-118 292,-99 162,-99"/>
<text text-anchor="middle" x="227" y="-106" font-family="Helvetica,sans-Serif" font-size="10.00">Hardware Macro Definition</text>
</a>
</g>
</g>
<!-- Node0 -->
<g id="node3" class="node"><title>Node0</title>
<polygon fill="#bfbfbf" stroke="black" points="89,-77 89,-96 126,-96 126,-77 89,-77"/>
<text text-anchor="middle" x="107.5" y="-84" font-family="Helvetica,sans-Serif" font-size="10.00">PHY</text>
</g>
<!-- Node0&#45;&gt;Node3 -->
<g id="edge3" class="edge"><title>Node0&#45;&gt;Node3</title>
<path fill="none" stroke="black" d="M126.326,-102.82C136.232,-111.176 149.13,-120.942 162,-127.5 169.332,-131.236 177.52,-134.361 185.525,-136.927"/>
<polygon fill="black" stroke="black" points="128.612,-100.17 118.775,-96.2347 124.011,-105.445 128.612,-100.17"/>
</g>
<!-- Node0&#45;&gt;Node5 -->
<g id="edge5" class="edge"><title>Node0&#45;&gt;Node5</title>
<path fill="none" stroke="black" d="M136.09,-91.6658C147.776,-93.8539 161.778,-96.4754 175.213,-98.9909"/>
<polygon fill="black" stroke="black" points="136.564,-88.1938 126.091,-89.7936 135.276,-95.0743 136.564,-88.1938"/>
</g>
<!-- Node4 -->
<g id="node4" class="node"><title>Node4</title>
<g id="a_node4"><a xlink:href="group___h_w___struct.html" target="_top" xlink:title="Hardware Structures\l Definition">
<polygon fill="white" stroke="black" points="174.5,-49.5 174.5,-79.5 279.5,-79.5 279.5,-49.5 174.5,-49.5"/>
<text text-anchor="start" x="182.5" y="-67.5" font-family="Helvetica,sans-Serif" font-size="10.00">Hardware Structures</text>
<text text-anchor="middle" x="227" y="-56.5" font-family="Helvetica,sans-Serif" font-size="10.00"> Definition</text>
</a>
</g>
</g>
<!-- Node0&#45;&gt;Node4 -->
<g id="edge4" class="edge"><title>Node0&#45;&gt;Node4</title>
<path fill="none" stroke="black" d="M135.932,-81.3637C147.426,-79.2117 161.18,-76.6365 174.438,-74.1541"/>
<polygon fill="black" stroke="black" points="135.276,-77.9257 126.091,-83.2064 136.564,-84.8062 135.276,-77.9257"/>
</g>
<!-- Node2 -->
<g id="node5" class="node"><title>Node2</title>
<g id="a_node5"><a xlink:href="group___f_w___struct.html" target="_top" xlink:title="Firmware Structures\l Definition">
<polygon fill="white" stroke="black" points="175,-0.5 175,-30.5 279,-30.5 279,-0.5 175,-0.5"/>
<text text-anchor="start" x="183" y="-18.5" font-family="Helvetica,sans-Serif" font-size="10.00">Firmware Structures</text>
<text text-anchor="middle" x="227" y="-7.5" font-family="Helvetica,sans-Serif" font-size="10.00"> Definition</text>
</a>
</g>
</g>
<!-- Node0&#45;&gt;Node2 -->
<g id="edge2" class="edge"><title>Node0&#45;&gt;Node2</title>
<path fill="none" stroke="black" d="M124.741,-69.4195C134.756,-59.642 148.276,-47.7227 162,-39.5 167.497,-36.2066 173.522,-33.2347 179.609,-30.5952"/>
<polygon fill="black" stroke="black" points="122.085,-67.1275 117.523,-76.6902 127.053,-72.059 122.085,-67.1275"/>
</g>
<!-- Node1 -->
<g id="node6" class="node"><title>Node1</title>
<g id="a_node6"><a xlink:href="group__adf7030-1__headers.html" target="_top" xlink:title="Headers">
<polygon fill="white" stroke="black" points="0,-77 0,-96 53,-96 53,-77 0,-77"/>
<text text-anchor="middle" x="26.5" y="-84" font-family="Helvetica,sans-Serif" font-size="10.00">Headers</text>
</a>
</g>
</g>
<!-- Node1&#45;&gt;Node0 -->
<g id="edge1" class="edge"><title>Node1&#45;&gt;Node0</title>
<path fill="none" stroke="black" d="M63.4026,-86.5C72.1314,-86.5 81.0964,-86.5 88.5737,-86.5"/>
<polygon fill="black" stroke="black" points="63.3676,-83.0001 53.3676,-86.5 63.3675,-90.0001 63.3676,-83.0001"/>
</g>
</g>
</svg>
