<?xml version="1.0" encoding="UTF-8" standalone="no"?>
<!DOCTYPE svg PUBLIC "-//W3C//DTD SVG 1.1//EN"
 "http://www.w3.org/Graphics/SVG/1.1/DTD/svg11.dtd">
<!-- Generated by graphviz version 2.38.0 (20140413.2041)
 -->
<!-- Title: adf7030_1__SPI_ReadWrite_Fast Pages: 1 -->
<!--zoomable 416 -->
<svg id="main" version="1.1" xmlns="http://www.w3.org/2000/svg" xmlns:xlink="http://www.w3.org/1999/xlink" xml:space="preserve" onload="init(evt)">
<style type="text/css"><![CDATA[
.edge:hover path { stroke: red; }
.edge:hover polygon { stroke: red; fill: red; }
]]></style>
<script type="text/javascript"><![CDATA[
var edges = document.getElementsByTagName('g');
if (edges && edges.length) {
  for (var i=0;i<edges.length;i++) {
    if (edges[i].id.substr(0,4)=='edge') {
      edges[i].setAttribute('class','edge');
    }
  }
}
]]></script>
        <defs>
                <circle id="rim" cx="0" cy="0" r="7"/>
                <circle id="rim2" cx="0" cy="0" r="3.5"/>
                <g id="zoomPlus">
                        <use xlink:href="#rim" fill="#404040">
                                <set attributeName="fill" to="#808080" begin="zoomplus.mouseover" end="zoomplus.mouseout"/>
                        </use>
                        <path d="M-4,0h8M0,-4v8" fill="none" stroke="white" stroke-width="1.5" pointer-events="none"/>
                </g>
                <g id="zoomMin">
                        <use xlink:href="#rim" fill="#404040">
                                <set attributeName="fill" to="#808080" begin="zoomminus.mouseover" end="zoomminus.mouseout"/>
                        </use>
                        <path d="M-4,0h8" fill="none" stroke="white" stroke-width="1.5" pointer-events="none"/>
                </g>
                <g id="dirArrow">
                        <path fill="none" stroke="white" stroke-width="1.5" d="M0,-3.0v7 M-2.5,-0.5L0,-3.0L2.5,-0.5"/>
                </g>
               <g id="resetDef">
                       <use xlink:href="#rim2" fill="#404040">
                               <set attributeName="fill" to="#808080" begin="reset.mouseover" end="reset.mouseout"/>
                       </use>
               </g>
        </defs>

<script type="text/javascript">
var viewWidth = 800;
var viewHeight = 416;
var sectionId = 'dynsection-7';
</script>
<script xlink:href="svgpan.js"/>
<svg id="graph" class="graph">
<g id="viewport">
<title>adf7030_1__SPI_ReadWrite_Fast</title>
<polygon fill="white" stroke="none" points="-4,4 -4,-411.5 796,-411.5 796,4 -4,4"/>
<!-- Node70 -->
<g id="node1" class="node"><title>Node70</title>
<polygon fill="#bfbfbf" stroke="black" points="0,-205 0,-224 163,-224 163,-205 0,-205"/>
<text text-anchor="middle" x="81.5" y="-212" font-family="Helvetica,sans-Serif" font-size="10.00">adf7030_1__SPI_ReadWrite_Fast</text>
</g>
<!-- Node71 -->
<g id="node2" class="node"><title>Node71</title>
<g id="a_node2"><a xlink:href="group__adf7030-1____state.html#ga47915136f3871f6ad931de81fa60b378" target="_top" xlink:title="Generic Radio PHY Command Transfers. ">
<polygon fill="white" stroke="black" points="199,-205 199,-224 323,-224 323,-205 199,-205"/>
<text text-anchor="middle" x="261" y="-212" font-family="Helvetica,sans-Serif" font-size="10.00">adf7030_1__XferCmdPoll</text>
</a>
</g>
</g>
<!-- Node70&#45;&gt;Node71 -->
<g id="edge1" class="edge"><title>Node70&#45;&gt;Node71</title>
<path fill="none" stroke="midnightblue" d="M173.349,-214.5C182.002,-214.5 190.628,-214.5 198.898,-214.5"/>
<polygon fill="midnightblue" stroke="midnightblue" points="173.2,-211 163.2,-214.5 173.2,-218 173.2,-211"/>
</g>
<!-- Node72 -->
<g id="node3" class="node"><title>Node72</title>
<g id="a_node3"><a xlink:href="group__adf7030-1____state.html#ga50a32083c7b26e79e278bd6ab428b0e3" target="_top" xlink:title="Send Radio PHY Command. ">
<polygon fill="white" stroke="black" points="368,-388 368,-407 514,-407 514,-388 368,-388"/>
<text text-anchor="middle" x="441" y="-395" font-family="Helvetica,sans-Serif" font-size="10.00">adf7030_1__STATE_PhyCMD</text>
</a>
</g>
</g>
<!-- Node71&#45;&gt;Node72 -->
<g id="edge2" class="edge"><title>Node71&#45;&gt;Node72</title>
<path fill="none" stroke="midnightblue" d="M267.845,-233.946C279.33,-268.676 308.241,-341.215 359,-378.5 364.238,-382.348 370.138,-385.43 376.305,-387.897"/>
<polygon fill="midnightblue" stroke="midnightblue" points="271.08,-232.567 264.723,-224.091 264.407,-234.681 271.08,-232.567"/>
</g>
<!-- Node73 -->
<g id="node4" class="node"><title>Node73</title>
<g id="a_node4"><a xlink:href="group__adf7030-1____state.html#gae657dcba1056b2cd525857c75d478ad1" target="_top" xlink:title="Send Radio PHY Special Command. ">
<polygon fill="white" stroke="black" points="359,-350 359,-369 523,-369 523,-350 359,-350"/>
<text text-anchor="middle" x="441" y="-357" font-family="Helvetica,sans-Serif" font-size="10.00">adf7030_1__STATE_PhyCMD_Ex</text>
</a>
</g>
</g>
<!-- Node71&#45;&gt;Node73 -->
<g id="edge3" class="edge"><title>Node71&#45;&gt;Node73</title>
<path fill="none" stroke="midnightblue" d="M271.118,-233.318C285.666,-261.257 316.842,-313.326 359,-340.5 365.07,-344.413 371.859,-347.522 378.855,-349.992"/>
<polygon fill="midnightblue" stroke="midnightblue" points="274.151,-231.559 266.522,-224.207 267.901,-234.712 274.151,-231.559"/>
</g>
<!-- Node74 -->
<g id="node5" class="node"><title>Node74</title>
<g id="a_node5"><a xlink:href="group__adf7030-1____state.html#ga80dbe4150d3c045018d716b36d54a12b" target="_top" xlink:title="Send Radio PHY Command and wait util PHY has transition to new state. ">
<polygon fill="white" stroke="black" points="368,-300.5 368,-330.5 514,-330.5 514,-300.5 368,-300.5"/>
<text text-anchor="start" x="376" y="-318.5" font-family="Helvetica,sans-Serif" font-size="10.00">adf7030_1__STATE_PhyCMD</text>
<text text-anchor="middle" x="441" y="-307.5" font-family="Helvetica,sans-Serif" font-size="10.00">_WaitReady</text>
</a>
</g>
</g>
<!-- Node71&#45;&gt;Node74 -->
<g id="edge4" class="edge"><title>Node71&#45;&gt;Node74</title>
<path fill="none" stroke="midnightblue" d="M279.153,-231.166C297.542,-248.215 328.259,-274.419 359,-290.5 366.172,-294.252 374.001,-297.546 381.874,-300.405"/>
<polygon fill="midnightblue" stroke="midnightblue" points="281.289,-228.368 271.616,-224.046 276.482,-233.457 281.289,-228.368"/>
</g>
<!-- Node77 -->
<g id="node8" class="node"><title>Node77</title>
<g id="a_node8"><a xlink:href="group__adf7030-1____state.html#gaa7018482608e13a0eb591f6afcbcda1e" target="_top" xlink:title="Polls Radio PHY SPI Status with NOPs until in Idle mode. ">
<polygon fill="white" stroke="black" points="369.5,-262 369.5,-281 512.5,-281 512.5,-262 369.5,-262"/>
<text text-anchor="middle" x="441" y="-269" font-family="Helvetica,sans-Serif" font-size="10.00">adf7030_1__STATE_WaitIdle</text>
</a>
</g>
</g>
<!-- Node71&#45;&gt;Node77 -->
<g id="edge7" class="edge"><title>Node71&#45;&gt;Node77</title>
<path fill="none" stroke="midnightblue" d="M292.923,-227.922C311.778,-235.776 336.501,-245.494 359,-252.5 370.309,-256.022 382.683,-259.237 394.281,-261.98"/>
<polygon fill="midnightblue" stroke="midnightblue" points="294.215,-224.668 283.641,-224.009 291.496,-231.119 294.215,-224.668"/>
</g>
<!-- Node78 -->
<g id="node9" class="node"><title>Node78</title>
<g id="a_node9"><a xlink:href="group__adf7030-1____state.html#gafb99ca1d9734a398d45e5443ff220f0a" target="_top" xlink:title="Polls Radio PHY SPI Status with NOPs until in Exec mode. ">
<polygon fill="white" stroke="black" points="366,-224 366,-243 516,-243 516,-224 366,-224"/>
<text text-anchor="middle" x="441" y="-231" font-family="Helvetica,sans-Serif" font-size="10.00">adf7030_1__STATE_WaitExec</text>
</a>
</g>
</g>
<!-- Node71&#45;&gt;Node78 -->
<g id="edge8" class="edge"><title>Node71&#45;&gt;Node78</title>
<path fill="none" stroke="midnightblue" d="M333.344,-222.115C343.999,-223.253 355.006,-224.428 365.72,-225.571"/>
<polygon fill="midnightblue" stroke="midnightblue" points="333.573,-218.62 323.258,-221.039 332.83,-225.58 333.573,-218.62"/>
</g>
<!-- Node79 -->
<g id="node10" class="node"><title>Node79</title>
<g id="a_node10"><a xlink:href="group__adf7030-1____state.html#ga785422f909662c766cb347d0196d80c4" target="_top" xlink:title="Polls Radio PHY SPI Status with NOPs until ready for operation. ">
<polygon fill="white" stroke="black" points="363.5,-186 363.5,-205 518.5,-205 518.5,-186 363.5,-186"/>
<text text-anchor="middle" x="441" y="-193" font-family="Helvetica,sans-Serif" font-size="10.00">adf7030_1__STATE_WaitReady</text>
</a>
</g>
</g>
<!-- Node71&#45;&gt;Node79 -->
<g id="edge9" class="edge"><title>Node71&#45;&gt;Node79</title>
<path fill="none" stroke="midnightblue" d="M333.364,-206.883C343.186,-205.834 353.306,-204.754 363.22,-203.696"/>
<polygon fill="midnightblue" stroke="midnightblue" points="332.83,-203.42 323.258,-207.961 333.573,-210.38 332.83,-203.42"/>
</g>
<!-- Node80 -->
<g id="node11" class="node"><title>Node80</title>
<g id="a_node11"><a xlink:href="group__adf7030-1____state.html#ga8f9188903899c02788c3a13573de93ed" target="_top" xlink:title="Polls Radio PHY SPI Status with NOPs until External IRQ flag is found. ">
<polygon fill="white" stroke="black" points="361.5,-148 361.5,-167 520.5,-167 520.5,-148 361.5,-148"/>
<text text-anchor="middle" x="441" y="-155" font-family="Helvetica,sans-Serif" font-size="10.00">adf7030_1__STATE_WaitExtIRQ</text>
</a>
</g>
</g>
<!-- Node71&#45;&gt;Node80 -->
<g id="edge10" class="edge"><title>Node71&#45;&gt;Node80</title>
<path fill="none" stroke="midnightblue" d="M292.923,-201.078C311.778,-193.224 336.501,-183.506 359,-176.5 370.309,-172.978 382.683,-169.763 394.281,-167.02"/>
<polygon fill="midnightblue" stroke="midnightblue" points="291.496,-197.881 283.641,-204.991 294.215,-204.332 291.496,-197.881"/>
</g>
<!-- Node81 -->
<g id="node12" class="node"><title>Node81</title>
<g id="a_node12"><a xlink:href="group__adf7030-1____state.html#ga9c0510d21c3b6cf5e3bed3da0b41409e" target="_top" xlink:title="Polls Radio PHY SPI Status with NOPs until ready for operation. ">
<polygon fill="white" stroke="black" points="365.5,-98.5 365.5,-128.5 516.5,-128.5 516.5,-98.5 365.5,-98.5"/>
<text text-anchor="start" x="373.5" y="-116.5" font-family="Helvetica,sans-Serif" font-size="10.00">adf7030_1__STATE_WaitState</text>
<text text-anchor="middle" x="441" y="-105.5" font-family="Helvetica,sans-Serif" font-size="10.00">Ready</text>
</a>
</g>
</g>
<!-- Node71&#45;&gt;Node81 -->
<g id="edge11" class="edge"><title>Node71&#45;&gt;Node81</title>
<path fill="none" stroke="midnightblue" d="M279.153,-197.834C297.542,-180.785 328.259,-154.581 359,-138.5 366.172,-134.748 374.001,-131.454 381.874,-128.595"/>
<polygon fill="midnightblue" stroke="midnightblue" points="276.482,-195.543 271.616,-204.954 281.289,-200.632 276.482,-195.543"/>
</g>
<!-- Node82 -->
<g id="node13" class="node"><title>Node82</title>
<g id="a_node13"><a xlink:href="group__adf7030-1____state.html#ga2802b9eabc4bebbca7422a92d1e4afba" target="_top" xlink:title="Polls Radio PHY SPI Status with NOPs until match is found. ">
<polygon fill="white" stroke="black" points="379,-49.5 379,-79.5 503,-79.5 503,-49.5 379,-49.5"/>
<text text-anchor="start" x="387" y="-67.5" font-family="Helvetica,sans-Serif" font-size="10.00">adf7030_1__STATE_Poll</text>
<text text-anchor="middle" x="441" y="-56.5" font-family="Helvetica,sans-Serif" font-size="10.00">_SpiStatus</text>
</a>
</g>
</g>
<!-- Node71&#45;&gt;Node82 -->
<g id="edge12" class="edge"><title>Node71&#45;&gt;Node82</title>
<path fill="none" stroke="midnightblue" d="M271.62,-195.79C286.622,-168.445 318.155,-117.751 359,-89.5 365.052,-85.3141 371.83,-81.8096 378.819,-78.88"/>
<polygon fill="midnightblue" stroke="midnightblue" points="268.473,-194.254 266.854,-204.724 274.649,-197.548 268.473,-194.254"/>
</g>
<!-- Node83 -->
<g id="node14" class="node"><title>Node83</title>
<g id="a_node14"><a xlink:href="group__adf7030-1____state.html#gacaa42b93edfe342dfc5320e18115293f" target="_top" xlink:title="Polls Radio PHY SPI Status until match is found. ">
<polygon fill="white" stroke="black" points="379,-0.5 379,-30.5 503,-30.5 503,-0.5 379,-0.5"/>
<text text-anchor="start" x="387" y="-18.5" font-family="Helvetica,sans-Serif" font-size="10.00">adf7030_1__STATE_Poll</text>
<text text-anchor="middle" x="441" y="-7.5" font-family="Helvetica,sans-Serif" font-size="10.00">_PhyState</text>
</a>
</g>
</g>
<!-- Node71&#45;&gt;Node83 -->
<g id="edge13" class="edge"><title>Node71&#45;&gt;Node83</title>
<path fill="none" stroke="midnightblue" d="M267.459,-195.219C278.6,-159.373 307.366,-82.3227 359,-40.5 364.947,-35.6832 371.82,-31.7917 378.997,-28.6483"/>
<polygon fill="midnightblue" stroke="midnightblue" points="264.065,-194.353 264.562,-204.936 270.774,-196.353 264.065,-194.353"/>
</g>
<!-- Node75 -->
<g id="node6" class="node"><title>Node75</title>
<g id="a_node6"><a xlink:href="group__adf7030-1____core.html#ga8fc7a869a747268f0ed652ec4954a352" target="_top" xlink:title="Enable the adf7030&#45;1. ">
<polygon fill="white" stroke="black" points="559,-306 559,-325 660,-325 660,-306 559,-306"/>
<text text-anchor="middle" x="609.5" y="-313" font-family="Helvetica,sans-Serif" font-size="10.00">adf7030_1__Enable</text>
</a>
</g>
</g>
<!-- Node74&#45;&gt;Node75 -->
<g id="edge5" class="edge"><title>Node74&#45;&gt;Node75</title>
<path fill="none" stroke="midnightblue" d="M524.389,-315.5C536.175,-315.5 547.985,-315.5 558.872,-315.5"/>
<polygon fill="midnightblue" stroke="midnightblue" points="524.061,-312 514.061,-315.5 524.061,-319 524.061,-312"/>
</g>
<!-- Node76 -->
<g id="node7" class="node"><title>Node76</title>
<g id="a_node7"><a xlink:href="group__adf7030-1____core.html#ga3e7db2dcab244e93d0e97d24ee3eef86" target="_top" xlink:title="Closes the adf7030&#45;1 instance. ">
<polygon fill="white" stroke="black" points="696,-306 696,-325 792,-325 792,-306 696,-306"/>
<text text-anchor="middle" x="744" y="-313" font-family="Helvetica,sans-Serif" font-size="10.00">adf7030_1__Close</text>
</a>
</g>
</g>
<!-- Node75&#45;&gt;Node76 -->
<g id="edge6" class="edge"><title>Node75&#45;&gt;Node76</title>
<path fill="none" stroke="midnightblue" d="M670.42,-315.5C678.874,-315.5 687.466,-315.5 695.639,-315.5"/>
<polygon fill="midnightblue" stroke="midnightblue" points="670.215,-312 660.215,-315.5 670.215,-319 670.215,-312"/>
</g>
</g>
</svg>
        <g id="navigator" transform="translate(0 0)" fill="#404254">
                <rect fill="#f2f5e9" fill-opacity="0.5" stroke="#606060" stroke-width=".5" x="0" y="0" width="60" height="60"/>
                <use id="zoomplus" xlink:href="#zoomPlus" x="17" y="9" onmousedown="handleZoom(evt,'in')"/>
                <use id="zoomminus" xlink:href="#zoomMin" x="42" y="9" onmousedown="handleZoom(evt,'out')"/>
                <use id="reset" xlink:href="#resetDef" x="30" y="36" onmousedown="handleReset()"/>
                <g id="arrowUp" xlink:href="#dirArrow" transform="translate(30 24)" onmousedown="handlePan(0,-1)">
                  <use xlink:href="#rim" fill="#404040">
                        <set attributeName="fill" to="#808080" begin="arrowUp.mouseover" end="arrowUp.mouseout"/>
                  </use>
                  <path fill="none" stroke="white" stroke-width="1.5" d="M0,-3.0v7 M-2.5,-0.5L0,-3.0L2.5,-0.5"/>
                </g>
                <g id="arrowRight" xlink:href="#dirArrow" transform="rotate(90) translate(36 -43)" onmousedown="handlePan(1,0)">
                  <use xlink:href="#rim" fill="#404040">
                        <set attributeName="fill" to="#808080" begin="arrowRight.mouseover" end="arrowRight.mouseout"/>
                  </use>
                  <path fill="none" stroke="white" stroke-width="1.5" d="M0,-3.0v7 M-2.5,-0.5L0,-3.0L2.5,-0.5"/>
                </g>
                <g id="arrowDown" xlink:href="#dirArrow" transform="rotate(180) translate(-30 -48)" onmousedown="handlePan(0,1)">
                  <use xlink:href="#rim" fill="#404040">
                        <set attributeName="fill" to="#808080" begin="arrowDown.mouseover" end="arrowDown.mouseout"/>
                  </use>
                  <path fill="none" stroke="white" stroke-width="1.5" d="M0,-3.0v7 M-2.5,-0.5L0,-3.0L2.5,-0.5"/>
                </g>
                <g id="arrowLeft" xlink:href="#dirArrow" transform="rotate(270) translate(-36 17)" onmousedown="handlePan(-1,0)">
                  <use xlink:href="#rim" fill="#404040">
                        <set attributeName="fill" to="#808080" begin="arrowLeft.mouseover" end="arrowLeft.mouseout"/>
                  </use>
                  <path fill="none" stroke="white" stroke-width="1.5" d="M0,-3.0v7 M-2.5,-0.5L0,-3.0L2.5,-0.5"/>
                </g>
        </g>
        <svg viewBox="0 0 15 15" width="100%" height="30px" preserveAspectRatio="xMaxYMin meet">
         <g id="arrow_out" transform="scale(0.3 0.3)">
          <a xlink:href="group__adf7030-1____spi_gae598c37af797c9fb49fecd0e62b1bf77_icgraph_org.svg" target="_base">
           <rect id="button" ry="5" rx="5" y="6" x="6" height="38" width="38"
                fill="#f2f5e9" fill-opacity="0.5" stroke="#606060" stroke-width="1.0"/>
           <path id="arrow"
             d="M 11.500037,31.436501 C 11.940474,20.09759 22.043105,11.32322 32.158766,21.979434 L 37.068811,17.246167 C 37.068811,17.246167 37.088388,32 37.088388,32 L 22.160133,31.978069 C 22.160133,31.978069 26.997745,27.140456 26.997745,27.140456 C 18.528582,18.264221 13.291696,25.230495 11.500037,31.436501 z"
             style="fill:#404040;"/>
          </a>
         </g>
        </svg>
</svg>
