<?xml version="1.0" encoding="UTF-8" standalone="no"?>
<!DOCTYPE svg PUBLIC "-//W3C//DTD SVG 1.1//EN"
 "http://www.w3.org/Graphics/SVG/1.1/DTD/svg11.dtd">
<!-- Generated by graphviz version 2.38.0 (20140413.2041)
 -->
<!-- Title: adf7030_1__MEM_CheckByteAccess Pages: 1 -->
<svg width="668pt" height="66pt"
 viewBox="0.00 0.00 668.00 66.00" xmlns="http://www.w3.org/2000/svg" xmlns:xlink="http://www.w3.org/1999/xlink">
<g id="graph0" class="graph" transform="scale(1 1) rotate(0) translate(4 62)">
<title>adf7030_1__MEM_CheckByteAccess</title>
<polygon fill="white" stroke="none" points="-4,4 -4,-62 664,-62 664,4 -4,4"/>
<!-- Node1 -->
<g id="node1" class="node"><title>Node1</title>
<polygon fill="#bfbfbf" stroke="black" points="0,-14 0,-44 148,-44 148,-14 0,-14"/>
<text text-anchor="start" x="8" y="-32" font-family="Helvetica,sans-Serif" font-size="10.00">adf7030_1__MEM_CheckByte</text>
<text text-anchor="middle" x="74" y="-21" font-family="Helvetica,sans-Serif" font-size="10.00">Access</text>
</g>
<!-- Node2 -->
<g id="node2" class="node"><title>Node2</title>
<g id="a_node2"><a xlink:href="group__adf7030-1____mem.html#gabd27b8e9b962f82fbd947b43e1fb6bad" target="_top" xlink:title="Generic setting of a Radio PHY bitfield to a value via the SPI. ">
<polygon fill="white" stroke="black" points="184,-19.5 184,-38.5 312,-38.5 312,-19.5 184,-19.5"/>
<text text-anchor="middle" x="248" y="-26.5" font-family="Helvetica,sans-Serif" font-size="10.00">adf7030_1__SPI_SetField</text>
</a>
</g>
</g>
<!-- Node1&#45;&gt;Node2 -->
<g id="edge1" class="edge"><title>Node1&#45;&gt;Node2</title>
<path fill="none" stroke="midnightblue" d="M158.715,-29C167.167,-29 175.648,-29 183.832,-29"/>
<polygon fill="midnightblue" stroke="midnightblue" points="158.442,-25.5001 148.442,-29 158.442,-32.5001 158.442,-25.5001"/>
</g>
<!-- Node3 -->
<g id="node3" class="node"><title>Node3</title>
<g id="a_node3"><a xlink:href="group__adf7030-1____core.html#gacc594fe578d3493100c338ffbd11ff53" target="_top" xlink:title="Setup PHY gpio to for external trigger command. ">
<polygon fill="white" stroke="black" points="515.5,-38.5 515.5,-57.5 658.5,-57.5 658.5,-38.5 515.5,-38.5"/>
<text text-anchor="middle" x="587" y="-45.5" font-family="Helvetica,sans-Serif" font-size="10.00">adf7030_1__SetupPhyTrigger</text>
</a>
</g>
</g>
<!-- Node2&#45;&gt;Node3 -->
<g id="edge2" class="edge"><title>Node2&#45;&gt;Node3</title>
<path fill="none" stroke="midnightblue" d="M322.458,-33.1416C379.731,-36.3706 458.773,-40.827 515.325,-44.0153"/>
<polygon fill="midnightblue" stroke="midnightblue" points="322.568,-29.6423 312.387,-32.5738 322.174,-36.6312 322.568,-29.6423"/>
</g>
<!-- Node4 -->
<g id="node4" class="node"><title>Node4</title>
<g id="a_node4"><a xlink:href="group__adf7030-1____gpio.html#gac3150c08d65f94ec1837e879e577c4e6" target="_top" xlink:title="Setup individual GPIO configuration on the PHY Radio. ">
<polygon fill="white" stroke="black" points="348,-0.5 348,-19.5 478,-19.5 478,-0.5 348,-0.5"/>
<text text-anchor="middle" x="413" y="-7.5" font-family="Helvetica,sans-Serif" font-size="10.00">adf7030_1__GPIO_SetCfg</text>
</a>
</g>
</g>
<!-- Node2&#45;&gt;Node4 -->
<g id="edge3" class="edge"><title>Node2&#45;&gt;Node4</title>
<path fill="none" stroke="midnightblue" d="M322.027,-20.4877C330.621,-19.4859 339.342,-18.4694 347.802,-17.4832"/>
<polygon fill="midnightblue" stroke="midnightblue" points="321.548,-17.0197 312.02,-21.6541 322.358,-23.9727 321.548,-17.0197"/>
</g>
<!-- Node4&#45;&gt;Node3 -->
<g id="edge5" class="edge"><title>Node4&#45;&gt;Node3</title>
<path fill="none" stroke="midnightblue" d="M467.196,-21.7526C491.517,-27.1258 519.955,-33.4086 542.909,-38.4799"/>
<polygon fill="midnightblue" stroke="midnightblue" points="467.922,-18.3288 457.403,-19.589 466.412,-25.164 467.922,-18.3288"/>
</g>
<!-- Node5 -->
<g id="node5" class="node"><title>Node5</title>
<g id="a_node5"><a xlink:href="group__adf7030-1____irq.html#gac21dfc3398c0190f1d1fe74e3adbcd48" target="_top" xlink:title="Setup PHY Radio GPIO irq. ">
<polygon fill="white" stroke="black" points="514,-0.5 514,-19.5 660,-19.5 660,-0.5 514,-0.5"/>
<text text-anchor="middle" x="587" y="-7.5" font-family="Helvetica,sans-Serif" font-size="10.00">adf7030_1__IRQ_SetGPIOPin</text>
</a>
</g>
</g>
<!-- Node4&#45;&gt;Node5 -->
<g id="edge4" class="edge"><title>Node4&#45;&gt;Node5</title>
<path fill="none" stroke="midnightblue" d="M488.273,-10C496.739,-10 505.358,-10 513.796,-10"/>
<polygon fill="midnightblue" stroke="midnightblue" points="488.046,-6.5001 478.046,-10 488.046,-13.5001 488.046,-6.5001"/>
</g>
</g>
</svg>
