<?xml version="1.0" encoding="UTF-8" standalone="no"?>
<!DOCTYPE svg PUBLIC "-//W3C//DTD SVG 1.1//EN"
 "http://www.w3.org/Graphics/SVG/1.1/DTD/svg11.dtd">
<!-- Generated by graphviz version 2.38.0 (20140413.2041)
 -->
<!-- Title: adf7030_1__STATE_PhyCMD Pages: 1 -->
<svg width="513pt" height="28pt"
 viewBox="0.00 0.00 513.00 28.00" xmlns="http://www.w3.org/2000/svg" xmlns:xlink="http://www.w3.org/1999/xlink">
<g id="graph0" class="graph" transform="scale(1 1) rotate(0) translate(4 24)">
<title>adf7030_1__STATE_PhyCMD</title>
<polygon fill="white" stroke="none" points="-4,4 -4,-24 509,-24 509,4 -4,4"/>
<!-- Node0 -->
<g id="node1" class="node"><title>Node0</title>
<polygon fill="#bfbfbf" stroke="black" points="0,-0.5 0,-19.5 146,-19.5 146,-0.5 0,-0.5"/>
<text text-anchor="middle" x="73" y="-7.5" font-family="Helvetica,sans-Serif" font-size="10.00">adf7030_1__STATE_PhyCMD</text>
</g>
<!-- Node1 -->
<g id="node2" class="node"><title>Node1</title>
<g id="a_node2"><a xlink:href="group__adf7030-1____state.html#ga47915136f3871f6ad931de81fa60b378" target="_top" xlink:title="Generic Radio PHY Command Transfers. ">
<polygon fill="white" stroke="black" points="182,-0.5 182,-19.5 306,-19.5 306,-0.5 182,-0.5"/>
<text text-anchor="middle" x="244" y="-7.5" font-family="Helvetica,sans-Serif" font-size="10.00">adf7030_1__XferCmdPoll</text>
</a>
</g>
</g>
<!-- Node0&#45;&gt;Node1 -->
<g id="edge1" class="edge"><title>Node0&#45;&gt;Node1</title>
<path fill="none" stroke="midnightblue" d="M146.161,-10C154.644,-10 163.297,-10 171.767,-10"/>
<polygon fill="midnightblue" stroke="midnightblue" points="171.984,-13.5001 181.984,-10 171.984,-6.5001 171.984,-13.5001"/>
</g>
<!-- Node2 -->
<g id="node3" class="node"><title>Node2</title>
<g id="a_node3"><a xlink:href="group__adf7030-1____spi.html#gae598c37af797c9fb49fecd0e62b1bf77" target="_top" xlink:title="Custom FAST API for Read/Write a number of byte(s) to the adf7030&#45;1. ">
<polygon fill="white" stroke="black" points="342,-0.5 342,-19.5 505,-19.5 505,-0.5 342,-0.5"/>
<text text-anchor="middle" x="423.5" y="-7.5" font-family="Helvetica,sans-Serif" font-size="10.00">adf7030_1__SPI_ReadWrite_Fast</text>
</a>
</g>
</g>
<!-- Node1&#45;&gt;Node2 -->
<g id="edge2" class="edge"><title>Node1&#45;&gt;Node2</title>
<path fill="none" stroke="midnightblue" d="M306.085,-10C314.374,-10 323.021,-10 331.694,-10"/>
<polygon fill="midnightblue" stroke="midnightblue" points="331.867,-13.5001 341.867,-10 331.867,-6.5001 331.867,-13.5001"/>
</g>
</g>
</svg>
