<?xml version="1.0" encoding="UTF-8" standalone="no"?>
<!DOCTYPE svg PUBLIC "-//W3C//DTD SVG 1.1//EN"
 "http://www.w3.org/Graphics/SVG/1.1/DTD/svg11.dtd">
<!-- Generated by graphviz version 2.38.0 (20140413.2041)
 -->
<!-- Title: adf7030_1__SPI_wr_word_b_a Pages: 1 -->
<svg width="327pt" height="104pt"
 viewBox="0.00 0.00 327.00 104.00" xmlns="http://www.w3.org/2000/svg" xmlns:xlink="http://www.w3.org/1999/xlink">
<g id="graph0" class="graph" transform="scale(1 1) rotate(0) translate(4 100)">
<title>adf7030_1__SPI_wr_word_b_a</title>
<polygon fill="white" stroke="none" points="-4,4 -4,-100 323,-100 323,4 -4,4"/>
<!-- Node125 -->
<g id="node1" class="node"><title>Node125</title>
<polygon fill="#bfbfbf" stroke="black" points="0,-38.5 0,-57.5 149,-57.5 149,-38.5 0,-38.5"/>
<text text-anchor="middle" x="74.5" y="-45.5" font-family="Helvetica,sans-Serif" font-size="10.00">adf7030_1__SPI_wr_word_b_a</text>
</g>
<!-- Node126 -->
<g id="node2" class="node"><title>Node126</title>
<g id="a_node2"><a xlink:href="group__adf7030-1____irq.html#gaaed0814ca68c9ba108be76bb80534a8b" target="_top" xlink:title="Clear the PHY eIntPin interrupt pin. ">
<polygon fill="white" stroke="black" points="185,-76.5 185,-95.5 319,-95.5 319,-76.5 185,-76.5"/>
<text text-anchor="middle" x="252" y="-83.5" font-family="Helvetica,sans-Serif" font-size="10.00">adf7030_1__IRQ_ClrStatus</text>
</a>
</g>
</g>
<!-- Node125&#45;&gt;Node126 -->
<g id="edge1" class="edge"><title>Node125&#45;&gt;Node126</title>
<path fill="none" stroke="midnightblue" d="M129.778,-59.7526C154.594,-65.1258 183.611,-71.4086 207.032,-76.4799"/>
<polygon fill="midnightblue" stroke="midnightblue" points="130.3,-56.2846 119.786,-57.589 128.819,-63.126 130.3,-56.2846"/>
</g>
<!-- Node127 -->
<g id="node3" class="node"><title>Node127</title>
<g id="a_node3"><a xlink:href="group__adf7030-1____irq.html#ga50f543aaabdfb310c0c49fbc943bf9a8" target="_top" xlink:title="Configures the PHY interrupt source mask register. ">
<polygon fill="white" stroke="black" points="188.5,-38.5 188.5,-57.5 315.5,-57.5 315.5,-38.5 188.5,-38.5"/>
<text text-anchor="middle" x="252" y="-45.5" font-family="Helvetica,sans-Serif" font-size="10.00">adf7030_1__IRQ_SetMap</text>
</a>
</g>
</g>
<!-- Node125&#45;&gt;Node127 -->
<g id="edge2" class="edge"><title>Node125&#45;&gt;Node127</title>
<path fill="none" stroke="midnightblue" d="M159.314,-48C169.095,-48 178.942,-48 188.367,-48"/>
<polygon fill="midnightblue" stroke="midnightblue" points="159.165,-44.5001 149.165,-48 159.165,-51.5001 159.165,-44.5001"/>
</g>
<!-- Node128 -->
<g id="node4" class="node"><title>Node128</title>
<g id="a_node4"><a xlink:href="group__adf7030-1____patch.html#gace0ef57f36104ac9dedae1ddd016ce85" target="_top" xlink:title="Function call to setup the patch. ">
<polygon fill="white" stroke="black" points="191,-0.5 191,-19.5 313,-19.5 313,-0.5 191,-0.5"/>
<text text-anchor="middle" x="252" y="-7.5" font-family="Helvetica,sans-Serif" font-size="10.00">adf7030_1__SetupPatch</text>
</a>
</g>
</g>
<!-- Node125&#45;&gt;Node128 -->
<g id="edge3" class="edge"><title>Node125&#45;&gt;Node128</title>
<path fill="none" stroke="midnightblue" d="M129.778,-36.2474C154.594,-30.8742 183.611,-24.5914 207.032,-19.5201"/>
<polygon fill="midnightblue" stroke="midnightblue" points="128.819,-32.874 119.786,-38.411 130.3,-39.7154 128.819,-32.874"/>
</g>
</g>
</svg>
