<?xml version="1.0" encoding="UTF-8" standalone="no"?>
<!DOCTYPE svg PUBLIC "-//W3C//DTD SVG 1.1//EN"
 "http://www.w3.org/Graphics/SVG/1.1/DTD/svg11.dtd">
<!-- Generated by graphviz version 2.38.0 (20140413.2041)
 -->
<!-- Title: adf7030_1__SPI_GetField Pages: 1 -->
<!--zoomable 104 -->
<svg id="main" version="1.1" xmlns="http://www.w3.org/2000/svg" xmlns:xlink="http://www.w3.org/1999/xlink" xml:space="preserve" onload="init(evt)">
<style type="text/css"><![CDATA[
.edge:hover path { stroke: red; }
.edge:hover polygon { stroke: red; fill: red; }
]]></style>
<script type="text/javascript"><![CDATA[
var edges = document.getElementsByTagName('g');
if (edges && edges.length) {
  for (var i=0;i<edges.length;i++) {
    if (edges[i].id.substr(0,4)=='edge') {
      edges[i].setAttribute('class','edge');
    }
  }
}
]]></script>
        <defs>
                <circle id="rim" cx="0" cy="0" r="7"/>
                <circle id="rim2" cx="0" cy="0" r="3.5"/>
                <g id="zoomPlus">
                        <use xlink:href="#rim" fill="#404040">
                                <set attributeName="fill" to="#808080" begin="zoomplus.mouseover" end="zoomplus.mouseout"/>
                        </use>
                        <path d="M-4,0h8M0,-4v8" fill="none" stroke="white" stroke-width="1.5" pointer-events="none"/>
                </g>
                <g id="zoomMin">
                        <use xlink:href="#rim" fill="#404040">
                                <set attributeName="fill" to="#808080" begin="zoomminus.mouseover" end="zoomminus.mouseout"/>
                        </use>
                        <path d="M-4,0h8" fill="none" stroke="white" stroke-width="1.5" pointer-events="none"/>
                </g>
                <g id="dirArrow">
                        <path fill="none" stroke="white" stroke-width="1.5" d="M0,-3.0v7 M-2.5,-0.5L0,-3.0L2.5,-0.5"/>
                </g>
               <g id="resetDef">
                       <use xlink:href="#rim2" fill="#404040">
                               <set attributeName="fill" to="#808080" begin="reset.mouseover" end="reset.mouseout"/>
                       </use>
               </g>
        </defs>

<script type="text/javascript">
var viewWidth = 532;
var viewHeight = 104;
var sectionId = 'dynsection-8';
</script>
<script xlink:href="svgpan.js"/>
<svg id="graph" class="graph">
<g id="viewport">
<title>adf7030_1__SPI_GetField</title>
<polygon fill="white" stroke="none" points="-4,4 -4,-100 528,-100 528,4 -4,4"/>
<!-- Node46 -->
<g id="node1" class="node"><title>Node46</title>
<polygon fill="#bfbfbf" stroke="black" points="0,-38.5 0,-57.5 129,-57.5 129,-38.5 0,-38.5"/>
<text text-anchor="middle" x="64.5" y="-45.5" font-family="Helvetica,sans-Serif" font-size="10.00">adf7030_1__SPI_GetField</text>
</g>
<!-- Node47 -->
<g id="node2" class="node"><title>Node47</title>
<g id="a_node2"><a xlink:href="group__adf7030-1____core.html#ga62017fd21878e67cfef789d70e93ea45" target="_top" xlink:title="Readback the PHY Packet configuration location. ">
<polygon fill="white" stroke="black" points="165,-76.5 165,-95.5 339,-95.5 339,-76.5 165,-76.5"/>
<text text-anchor="middle" x="252" y="-83.5" font-family="Helvetica,sans-Serif" font-size="10.00">adf7030_1__Get_PhyPckConfigAddr</text>
</a>
</g>
</g>
<!-- Node46&#45;&gt;Node47 -->
<g id="edge1" class="edge"><title>Node46&#45;&gt;Node47</title>
<path fill="none" stroke="midnightblue" d="M122.173,-59.6095C148.555,-65.014 179.551,-71.3635 204.527,-76.4799"/>
<polygon fill="midnightblue" stroke="midnightblue" points="122.808,-56.1671 112.309,-57.589 121.404,-63.0247 122.808,-56.1671"/>
</g>
<!-- Node49 -->
<g id="node4" class="node"><title>Node49</title>
<g id="a_node4"><a xlink:href="group__adf7030-1____core.html#ga2309cbb0c5a5985b348bd43e4c351b40" target="_top" xlink:title="Readback the PHY Radio profile location. ">
<polygon fill="white" stroke="black" points="173.5,-38.5 173.5,-57.5 330.5,-57.5 330.5,-38.5 173.5,-38.5"/>
<text text-anchor="middle" x="252" y="-45.5" font-family="Helvetica,sans-Serif" font-size="10.00">adf7030_1__Get_PhyProfileAddr</text>
</a>
</g>
</g>
<!-- Node46&#45;&gt;Node49 -->
<g id="edge3" class="edge"><title>Node46&#45;&gt;Node49</title>
<path fill="none" stroke="midnightblue" d="M139.257,-48C150.48,-48 162.091,-48 173.394,-48"/>
<polygon fill="midnightblue" stroke="midnightblue" points="139.079,-44.5001 129.079,-48 139.079,-51.5001 139.079,-44.5001"/>
</g>
<!-- Node50 -->
<g id="node5" class="node"><title>Node50</title>
<g id="a_node5"><a xlink:href="group__adf7030-1____gpio.html#ga192b57ef41055364f8a8c3aec7e285ff" target="_top" xlink:title="Get individual GPIO configuration from the PHY Radio. ">
<polygon fill="white" stroke="black" points="186.5,-0.5 186.5,-19.5 317.5,-19.5 317.5,-0.5 186.5,-0.5"/>
<text text-anchor="middle" x="252" y="-7.5" font-family="Helvetica,sans-Serif" font-size="10.00">adf7030_1__GPIO_GetCfg</text>
</a>
</g>
</g>
<!-- Node46&#45;&gt;Node50 -->
<g id="edge5" class="edge"><title>Node46&#45;&gt;Node50</title>
<path fill="none" stroke="midnightblue" d="M122.173,-36.3905C148.555,-30.986 179.551,-24.6365 204.527,-19.5201"/>
<polygon fill="midnightblue" stroke="midnightblue" points="121.404,-32.9753 112.309,-38.411 122.808,-39.8329 121.404,-32.9753"/>
</g>
<!-- Node48 -->
<g id="node3" class="node"><title>Node48</title>
<g id="a_node3"><a xlink:href="group__adf7030-1____core.html#gaa8110804874966018d0b7bfe40cbc001" target="_top" xlink:title="Initialise the Host shadow configuration of the PHY Radio. ">
<polygon fill="white" stroke="black" points="375,-57.5 375,-76.5 524,-76.5 524,-57.5 375,-57.5"/>
<text text-anchor="middle" x="449.5" y="-64.5" font-family="Helvetica,sans-Serif" font-size="10.00">adf7030_1__SetupHostPhyCfg</text>
</a>
</g>
</g>
<!-- Node47&#45;&gt;Node48 -->
<g id="edge2" class="edge"><title>Node47&#45;&gt;Node48</title>
<path fill="none" stroke="midnightblue" d="M349.187,-76.6519C357.856,-75.8094 366.542,-74.9652 374.971,-74.146"/>
<polygon fill="midnightblue" stroke="midnightblue" points="348.648,-73.1877 339.034,-77.6387 349.325,-80.1549 348.648,-73.1877"/>
</g>
<!-- Node49&#45;&gt;Node48 -->
<g id="edge4" class="edge"><title>Node49&#45;&gt;Node48</title>
<path fill="none" stroke="midnightblue" d="M340.555,-56.5092C352.017,-57.6231 363.668,-58.7554 374.868,-59.8439"/>
<polygon fill="midnightblue" stroke="midnightblue" points="340.839,-53.0204 330.548,-55.5366 340.162,-59.9876 340.839,-53.0204"/>
</g>
</g>
</svg>
        <g id="navigator" transform="translate(0 0)" fill="#404254">
                <rect fill="#f2f5e9" fill-opacity="0.5" stroke="#606060" stroke-width=".5" x="0" y="0" width="60" height="60"/>
                <use id="zoomplus" xlink:href="#zoomPlus" x="17" y="9" onmousedown="handleZoom(evt,'in')"/>
                <use id="zoomminus" xlink:href="#zoomMin" x="42" y="9" onmousedown="handleZoom(evt,'out')"/>
                <use id="reset" xlink:href="#resetDef" x="30" y="36" onmousedown="handleReset()"/>
                <g id="arrowUp" xlink:href="#dirArrow" transform="translate(30 24)" onmousedown="handlePan(0,-1)">
                  <use xlink:href="#rim" fill="#404040">
                        <set attributeName="fill" to="#808080" begin="arrowUp.mouseover" end="arrowUp.mouseout"/>
                  </use>
                  <path fill="none" stroke="white" stroke-width="1.5" d="M0,-3.0v7 M-2.5,-0.5L0,-3.0L2.5,-0.5"/>
                </g>
                <g id="arrowRight" xlink:href="#dirArrow" transform="rotate(90) translate(36 -43)" onmousedown="handlePan(1,0)">
                  <use xlink:href="#rim" fill="#404040">
                        <set attributeName="fill" to="#808080" begin="arrowRight.mouseover" end="arrowRight.mouseout"/>
                  </use>
                  <path fill="none" stroke="white" stroke-width="1.5" d="M0,-3.0v7 M-2.5,-0.5L0,-3.0L2.5,-0.5"/>
                </g>
                <g id="arrowDown" xlink:href="#dirArrow" transform="rotate(180) translate(-30 -48)" onmousedown="handlePan(0,1)">
                  <use xlink:href="#rim" fill="#404040">
                        <set attributeName="fill" to="#808080" begin="arrowDown.mouseover" end="arrowDown.mouseout"/>
                  </use>
                  <path fill="none" stroke="white" stroke-width="1.5" d="M0,-3.0v7 M-2.5,-0.5L0,-3.0L2.5,-0.5"/>
                </g>
                <g id="arrowLeft" xlink:href="#dirArrow" transform="rotate(270) translate(-36 17)" onmousedown="handlePan(-1,0)">
                  <use xlink:href="#rim" fill="#404040">
                        <set attributeName="fill" to="#808080" begin="arrowLeft.mouseover" end="arrowLeft.mouseout"/>
                  </use>
                  <path fill="none" stroke="white" stroke-width="1.5" d="M0,-3.0v7 M-2.5,-0.5L0,-3.0L2.5,-0.5"/>
                </g>
        </g>
        <svg viewBox="0 0 15 15" width="100%" height="30px" preserveAspectRatio="xMaxYMin meet">
         <g id="arrow_out" transform="scale(0.3 0.3)">
          <a xlink:href="group__adf7030-1____mem_ga487dca82221f52f7af85a3156ede64ea_icgraph_org.svg" target="_base">
           <rect id="button" ry="5" rx="5" y="6" x="6" height="38" width="38"
                fill="#f2f5e9" fill-opacity="0.5" stroke="#606060" stroke-width="1.0"/>
           <path id="arrow"
             d="M 11.500037,31.436501 C 11.940474,20.09759 22.043105,11.32322 32.158766,21.979434 L 37.068811,17.246167 C 37.068811,17.246167 37.088388,32 37.088388,32 L 22.160133,31.978069 C 22.160133,31.978069 26.997745,27.140456 26.997745,27.140456 C 18.528582,18.264221 13.291696,25.230495 11.500037,31.436501 z"
             style="fill:#404040;"/>
          </a>
         </g>
        </svg>
</svg>
