<?xml version="1.0" encoding="UTF-8" standalone="no"?>
<!DOCTYPE svg PUBLIC "-//W3C//DTD SVG 1.1//EN"
 "http://www.w3.org/Graphics/SVG/1.1/DTD/svg11.dtd">
<!-- Generated by graphviz version 2.38.0 (20140413.2041)
 -->
<!-- Title: adf7030_1__IRQ_SetCallback Pages: 1 -->
<svg width="628pt" height="66pt"
 viewBox="0.00 0.00 628.00 66.00" xmlns="http://www.w3.org/2000/svg" xmlns:xlink="http://www.w3.org/1999/xlink">
<g id="graph0" class="graph" transform="scale(1 1) rotate(0) translate(4 62)">
<title>adf7030_1__IRQ_SetCallback</title>
<polygon fill="white" stroke="none" points="-4,4 -4,-62 624,-62 624,4 -4,4"/>
<!-- Node22 -->
<g id="node1" class="node"><title>Node22</title>
<polygon fill="#bfbfbf" stroke="black" points="0,-19.5 0,-38.5 146,-38.5 146,-19.5 0,-19.5"/>
<text text-anchor="middle" x="73" y="-26.5" font-family="Helvetica,sans-Serif" font-size="10.00">adf7030_1__IRQ_SetCallback</text>
</g>
<!-- Node23 -->
<g id="node2" class="node"><title>Node23</title>
<g id="a_node2"><a xlink:href="group__adf7030-1____irq.html#gafa48327dcbba3a14ed95d3af380af037" target="_top" xlink:title="Setup the Host GPIO driver to trigger Callback on PHY interrupt. ">
<polygon fill="white" stroke="black" points="182,-38.5 182,-57.5 345,-57.5 345,-38.5 182,-38.5"/>
<text text-anchor="middle" x="263.5" y="-45.5" font-family="Helvetica,sans-Serif" font-size="10.00">adf7030_1__IRQ_SetupHostGPIO</text>
</a>
</g>
</g>
<!-- Node22&#45;&gt;Node23 -->
<g id="edge1" class="edge"><title>Node22&#45;&gt;Node23</title>
<path fill="none" stroke="midnightblue" d="M156.078,-37.2731C164.672,-38.1393 173.403,-39.0194 181.979,-39.8838"/>
<polygon fill="midnightblue" stroke="midnightblue" points="156.371,-33.785 146.071,-36.2644 155.669,-40.7497 156.371,-33.785"/>
</g>
<!-- Node26 -->
<g id="node5" class="node"><title>Node26</title>
<g id="a_node5"><a xlink:href="group__adf7030-1____irq.html#gaef3a200357dc830df85dcc2b521325a6" target="_top" xlink:title="Unitializes Irq handling for the adf7030&#45;1 PHY. ">
<polygon fill="white" stroke="black" points="204.5,-0.5 204.5,-19.5 322.5,-19.5 322.5,-0.5 204.5,-0.5"/>
<text text-anchor="middle" x="263.5" y="-7.5" font-family="Helvetica,sans-Serif" font-size="10.00">adf7030_1__IRQ_UnInit</text>
</a>
</g>
</g>
<!-- Node22&#45;&gt;Node26 -->
<g id="edge4" class="edge"><title>Node22&#45;&gt;Node26</title>
<path fill="none" stroke="midnightblue" d="M156.083,-20.7264C172.293,-19.0924 188.992,-17.4093 204.217,-15.8747"/>
<polygon fill="midnightblue" stroke="midnightblue" points="155.669,-17.2503 146.071,-21.7356 156.371,-24.215 155.669,-17.2503"/>
</g>
<!-- Node24 -->
<g id="node3" class="node"><title>Node24</title>
<g id="a_node3"><a xlink:href="group__adf7030-1____irq.html#ga7a1d3e44568e67b5e5063e2c1176480d" target="_top" xlink:title="Initializes Irq handling for the adf7030&#45;1 PHY. ">
<polygon fill="white" stroke="black" points="381,-38.5 381,-57.5 487,-57.5 487,-38.5 381,-38.5"/>
<text text-anchor="middle" x="434" y="-45.5" font-family="Helvetica,sans-Serif" font-size="10.00">adf7030_1__IRQ_Init</text>
</a>
</g>
</g>
<!-- Node23&#45;&gt;Node24 -->
<g id="edge2" class="edge"><title>Node23&#45;&gt;Node24</title>
<path fill="none" stroke="midnightblue" d="M355.415,-48C364.018,-48 372.528,-48 380.582,-48"/>
<polygon fill="midnightblue" stroke="midnightblue" points="355.295,-44.5001 345.295,-48 355.295,-51.5001 355.295,-44.5001"/>
</g>
<!-- Node25 -->
<g id="node4" class="node"><title>Node25</title>
<g id="a_node4"><a xlink:href="group__adf7030-1____core.html#gaab9372b413f119016db09a7722b222c5" target="_top" xlink:title="Setup the adf7030&#45;1 instance by initialising its device info structure. It also calls adf7030_1__SPI_...">
<polygon fill="white" stroke="black" points="523,-38.5 523,-57.5 620,-57.5 620,-38.5 523,-38.5"/>
<text text-anchor="middle" x="571.5" y="-45.5" font-family="Helvetica,sans-Serif" font-size="10.00">adf7030_1__Setup</text>
</a>
</g>
</g>
<!-- Node24&#45;&gt;Node25 -->
<g id="edge3" class="edge"><title>Node24&#45;&gt;Node25</title>
<path fill="none" stroke="midnightblue" d="M497.075,-48C505.736,-48 514.521,-48 522.859,-48"/>
<polygon fill="midnightblue" stroke="midnightblue" points="497,-44.5001 487,-48 497,-51.5001 497,-44.5001"/>
</g>
<!-- Node27 -->
<g id="node6" class="node"><title>Node27</title>
<g id="a_node6"><a xlink:href="group__adf7030-1____core.html#ga3e7db2dcab244e93d0e97d24ee3eef86" target="_top" xlink:title="Closes the adf7030&#45;1 instance. ">
<polygon fill="white" stroke="black" points="386,-0.5 386,-19.5 482,-19.5 482,-0.5 386,-0.5"/>
<text text-anchor="middle" x="434" y="-7.5" font-family="Helvetica,sans-Serif" font-size="10.00">adf7030_1__Close</text>
</a>
</g>
</g>
<!-- Node26&#45;&gt;Node27 -->
<g id="edge5" class="edge"><title>Node26&#45;&gt;Node27</title>
<path fill="none" stroke="midnightblue" d="M333.224,-10C350.882,-10 369.482,-10 385.776,-10"/>
<polygon fill="midnightblue" stroke="midnightblue" points="332.96,-6.5001 322.96,-10 332.96,-13.5001 332.96,-6.5001"/>
</g>
</g>
</svg>
