<?xml version="1.0" encoding="UTF-8" standalone="no"?>
<!DOCTYPE svg PUBLIC "-//W3C//DTD SVG 1.1//EN"
 "http://www.w3.org/Graphics/SVG/1.1/DTD/svg11.dtd">
<!-- Generated by graphviz version 2.38.0 (20140413.2041)
 -->
<!-- Title: adf7030_1__SPI_GetBytes Pages: 1 -->
<!--zoomable 275 -->
<svg id="main" version="1.1" xmlns="http://www.w3.org/2000/svg" xmlns:xlink="http://www.w3.org/1999/xlink" xml:space="preserve" onload="init(evt)">
<style type="text/css"><![CDATA[
.edge:hover path { stroke: red; }
.edge:hover polygon { stroke: red; fill: red; }
]]></style>
<script type="text/javascript"><![CDATA[
var edges = document.getElementsByTagName('g');
if (edges && edges.length) {
  for (var i=0;i<edges.length;i++) {
    if (edges[i].id.substr(0,4)=='edge') {
      edges[i].setAttribute('class','edge');
    }
  }
}
]]></script>
        <defs>
                <circle id="rim" cx="0" cy="0" r="7"/>
                <circle id="rim2" cx="0" cy="0" r="3.5"/>
                <g id="zoomPlus">
                        <use xlink:href="#rim" fill="#404040">
                                <set attributeName="fill" to="#808080" begin="zoomplus.mouseover" end="zoomplus.mouseout"/>
                        </use>
                        <path d="M-4,0h8M0,-4v8" fill="none" stroke="white" stroke-width="1.5" pointer-events="none"/>
                </g>
                <g id="zoomMin">
                        <use xlink:href="#rim" fill="#404040">
                                <set attributeName="fill" to="#808080" begin="zoomminus.mouseover" end="zoomminus.mouseout"/>
                        </use>
                        <path d="M-4,0h8" fill="none" stroke="white" stroke-width="1.5" pointer-events="none"/>
                </g>
                <g id="dirArrow">
                        <path fill="none" stroke="white" stroke-width="1.5" d="M0,-3.0v7 M-2.5,-0.5L0,-3.0L2.5,-0.5"/>
                </g>
               <g id="resetDef">
                       <use xlink:href="#rim2" fill="#404040">
                               <set attributeName="fill" to="#808080" begin="reset.mouseover" end="reset.mouseout"/>
                       </use>
               </g>
        </defs>

<script type="text/javascript">
var viewWidth = 713;
var viewHeight = 275;
var sectionId = 'dynsection-6';
</script>
<script xlink:href="svgpan.js"/>
<svg id="graph" class="graph">
<g id="viewport">
<title>adf7030_1__SPI_GetBytes</title>
<polygon fill="white" stroke="none" points="-4,4 -4,-271 709,-271 709,4 -4,4"/>
<!-- Node30 -->
<g id="node1" class="node"><title>Node30</title>
<polygon fill="#bfbfbf" stroke="black" points="0,-114.5 0,-133.5 134,-133.5 134,-114.5 0,-114.5"/>
<text text-anchor="middle" x="67" y="-121.5" font-family="Helvetica,sans-Serif" font-size="10.00">adf7030_1__SPI_GetBytes</text>
</g>
<!-- Node31 -->
<g id="node2" class="node"><title>Node31</title>
<g id="a_node2"><a xlink:href="group__adf7030-1____mem.html#ga487dca82221f52f7af85a3156ede64ea" target="_top" xlink:title="Generic readback of a bitfield value from the Radio PHY via the SPI. ">
<polygon fill="white" stroke="black" points="175.5,-209.5 175.5,-228.5 304.5,-228.5 304.5,-209.5 175.5,-209.5"/>
<text text-anchor="middle" x="240" y="-216.5" font-family="Helvetica,sans-Serif" font-size="10.00">adf7030_1__SPI_GetField</text>
</a>
</g>
</g>
<!-- Node30&#45;&gt;Node31 -->
<g id="edge1" class="edge"><title>Node30&#45;&gt;Node31</title>
<path fill="none" stroke="midnightblue" d="M85.5768,-140.349C104.901,-157.503 137.535,-184.136 170,-200 177.703,-203.764 186.266,-206.879 194.666,-209.422"/>
<polygon fill="midnightblue" stroke="midnightblue" points="87.9151,-137.744 78.1492,-133.636 83.2216,-142.938 87.9151,-137.744"/>
</g>
<!-- Node36 -->
<g id="node7" class="node"><title>Node36</title>
<g id="a_node7"><a xlink:href="group__adf7030-1____mem.html#ga546c8e71fa3c42728b481b3348579edf" target="_top" xlink:title="Read a 16bits memory location via the SPI. ">
<polygon fill="white" stroke="black" points="170,-171.5 170,-190.5 310,-190.5 310,-171.5 170,-171.5"/>
<text text-anchor="middle" x="240" y="-178.5" font-family="Helvetica,sans-Serif" font-size="10.00">adf7030_1__SPI_GetMem16</text>
</a>
</g>
</g>
<!-- Node30&#45;&gt;Node36 -->
<g id="edge7" class="edge"><title>Node30&#45;&gt;Node36</title>
<path fill="none" stroke="midnightblue" d="M101.195,-137.21C121.015,-144.885 146.773,-154.491 170,-162 180.286,-165.325 191.549,-168.584 201.938,-171.439"/>
<polygon fill="midnightblue" stroke="midnightblue" points="102.287,-133.879 91.6989,-133.504 99.7426,-140.4 102.287,-133.879"/>
</g>
<!-- Node37 -->
<g id="node8" class="node"><title>Node37</title>
<g id="a_node8"><a xlink:href="group__adf7030-1____mem.html#ga2179b983fc7997e4cf7237522e743d6e" target="_top" xlink:title="Read a 24bits memory location via the SPI. ">
<polygon fill="white" stroke="black" points="170,-133.5 170,-152.5 310,-152.5 310,-133.5 170,-133.5"/>
<text text-anchor="middle" x="240" y="-140.5" font-family="Helvetica,sans-Serif" font-size="10.00">adf7030_1__SPI_GetMem24</text>
</a>
</g>
</g>
<!-- Node30&#45;&gt;Node37 -->
<g id="edge8" class="edge"><title>Node30&#45;&gt;Node37</title>
<path fill="none" stroke="midnightblue" d="M144.126,-132.458C152.725,-133.414 161.451,-134.383 169.951,-135.328"/>
<polygon fill="midnightblue" stroke="midnightblue" points="144.438,-128.972 134.113,-131.346 143.665,-135.929 144.438,-128.972"/>
</g>
<!-- Node38 -->
<g id="node9" class="node"><title>Node38</title>
<g id="a_node9"><a xlink:href="group__adf7030-1____mem.html#ga9e86404d1b2f124199ce38c1bf95d366" target="_top" xlink:title="Read a single 32bits memory location via the SPI. ">
<polygon fill="white" stroke="black" points="170,-95.5 170,-114.5 310,-114.5 310,-95.5 170,-95.5"/>
<text text-anchor="middle" x="240" y="-102.5" font-family="Helvetica,sans-Serif" font-size="10.00">adf7030_1__SPI_GetMem32</text>
</a>
</g>
</g>
<!-- Node30&#45;&gt;Node38 -->
<g id="edge9" class="edge"><title>Node30&#45;&gt;Node38</title>
<path fill="none" stroke="midnightblue" d="M144.126,-115.542C152.725,-114.586 161.451,-113.617 169.951,-112.672"/>
<polygon fill="midnightblue" stroke="midnightblue" points="143.665,-112.071 134.113,-116.654 144.438,-119.028 143.665,-112.071"/>
</g>
<!-- Node39 -->
<g id="node10" class="node"><title>Node39</title>
<g id="a_node10"><a xlink:href="group__adf7030-1____mem.html#ga267c4953db9f0dbe63d0a54ce824d356" target="_top" xlink:title="Read a 8bits memory location via the SPI. ">
<polygon fill="white" stroke="black" points="172.5,-57.5 172.5,-76.5 307.5,-76.5 307.5,-57.5 172.5,-57.5"/>
<text text-anchor="middle" x="240" y="-64.5" font-family="Helvetica,sans-Serif" font-size="10.00">adf7030_1__SPI_GetMem8</text>
</a>
</g>
</g>
<!-- Node30&#45;&gt;Node39 -->
<g id="edge10" class="edge"><title>Node30&#45;&gt;Node39</title>
<path fill="none" stroke="midnightblue" d="M101.195,-110.79C121.015,-103.115 146.773,-93.5086 170,-86 180.286,-82.675 191.549,-79.4156 201.938,-76.5612"/>
<polygon fill="midnightblue" stroke="midnightblue" points="99.7426,-107.6 91.6989,-114.496 102.287,-114.121 99.7426,-107.6"/>
</g>
<!-- Node40 -->
<g id="node11" class="node"><title>Node40</title>
<g id="a_node11"><a xlink:href="group__adf7030-1____mem.html#gabd27b8e9b962f82fbd947b43e1fb6bad" target="_top" xlink:title="Generic setting of a Radio PHY bitfield to a value via the SPI. ">
<polygon fill="white" stroke="black" points="176,-19.5 176,-38.5 304,-38.5 304,-19.5 176,-19.5"/>
<text text-anchor="middle" x="240" y="-26.5" font-family="Helvetica,sans-Serif" font-size="10.00">adf7030_1__SPI_SetField</text>
</a>
</g>
</g>
<!-- Node30&#45;&gt;Node40 -->
<g id="edge11" class="edge"><title>Node30&#45;&gt;Node40</title>
<path fill="none" stroke="midnightblue" d="M85.5768,-107.651C104.901,-90.4969 137.535,-63.8643 170,-48 177.703,-44.236 186.266,-41.1207 194.666,-38.5779"/>
<polygon fill="midnightblue" stroke="midnightblue" points="83.2216,-105.062 78.1492,-114.364 87.9151,-110.256 83.2216,-105.062"/>
</g>
<!-- Node32 -->
<g id="node3" class="node"><title>Node32</title>
<g id="a_node3"><a xlink:href="group__adf7030-1____core.html#ga2309cbb0c5a5985b348bd43e4c351b40" target="_top" xlink:title="Readback the PHY Radio profile location. ">
<polygon fill="white" stroke="black" points="354.5,-247.5 354.5,-266.5 511.5,-266.5 511.5,-247.5 354.5,-247.5"/>
<text text-anchor="middle" x="433" y="-254.5" font-family="Helvetica,sans-Serif" font-size="10.00">adf7030_1__Get_PhyProfileAddr</text>
</a>
</g>
</g>
<!-- Node31&#45;&gt;Node32 -->
<g id="edge2" class="edge"><title>Node31&#45;&gt;Node32</title>
<path fill="none" stroke="midnightblue" d="M299.353,-230.61C326.518,-236.014 358.432,-242.364 384.149,-247.48"/>
<polygon fill="midnightblue" stroke="midnightblue" points="299.688,-227.108 289.197,-228.589 298.322,-233.973 299.688,-227.108"/>
</g>
<!-- Node34 -->
<g id="node5" class="node"><title>Node34</title>
<g id="a_node5"><a xlink:href="group__adf7030-1____core.html#ga62017fd21878e67cfef789d70e93ea45" target="_top" xlink:title="Readback the PHY Packet configuration location. ">
<polygon fill="white" stroke="black" points="346,-209.5 346,-228.5 520,-228.5 520,-209.5 346,-209.5"/>
<text text-anchor="middle" x="433" y="-216.5" font-family="Helvetica,sans-Serif" font-size="10.00">adf7030_1__Get_PhyPckConfigAddr</text>
</a>
</g>
</g>
<!-- Node31&#45;&gt;Node34 -->
<g id="edge4" class="edge"><title>Node31&#45;&gt;Node34</title>
<path fill="none" stroke="midnightblue" d="M314.684,-219C324.905,-219 335.477,-219 345.899,-219"/>
<polygon fill="midnightblue" stroke="midnightblue" points="314.6,-215.5 304.6,-219 314.6,-222.5 314.6,-215.5"/>
</g>
<!-- Node35 -->
<g id="node6" class="node"><title>Node35</title>
<g id="a_node6"><a xlink:href="group__adf7030-1____gpio.html#ga192b57ef41055364f8a8c3aec7e285ff" target="_top" xlink:title="Get individual GPIO configuration from the PHY Radio. ">
<polygon fill="white" stroke="black" points="367.5,-171.5 367.5,-190.5 498.5,-190.5 498.5,-171.5 367.5,-171.5"/>
<text text-anchor="middle" x="433" y="-178.5" font-family="Helvetica,sans-Serif" font-size="10.00">adf7030_1__GPIO_GetCfg</text>
</a>
</g>
</g>
<!-- Node31&#45;&gt;Node35 -->
<g id="edge6" class="edge"><title>Node31&#45;&gt;Node35</title>
<path fill="none" stroke="midnightblue" d="M299.353,-207.39C326.518,-201.986 358.432,-195.636 384.149,-190.52"/>
<polygon fill="midnightblue" stroke="midnightblue" points="298.322,-204.027 289.197,-209.411 299.688,-210.892 298.322,-204.027"/>
</g>
<!-- Node33 -->
<g id="node4" class="node"><title>Node33</title>
<g id="a_node4"><a xlink:href="group__adf7030-1____core.html#gaa8110804874966018d0b7bfe40cbc001" target="_top" xlink:title="Initialise the Host shadow configuration of the PHY Radio. ">
<polygon fill="white" stroke="black" points="556,-228.5 556,-247.5 705,-247.5 705,-228.5 556,-228.5"/>
<text text-anchor="middle" x="630.5" y="-235.5" font-family="Helvetica,sans-Serif" font-size="10.00">adf7030_1__SetupHostPhyCfg</text>
</a>
</g>
</g>
<!-- Node32&#45;&gt;Node33 -->
<g id="edge3" class="edge"><title>Node32&#45;&gt;Node33</title>
<path fill="none" stroke="midnightblue" d="M521.555,-248.491C533.017,-247.377 544.668,-246.245 555.868,-245.156"/>
<polygon fill="midnightblue" stroke="midnightblue" points="521.162,-245.012 511.548,-249.463 521.839,-251.98 521.162,-245.012"/>
</g>
<!-- Node34&#45;&gt;Node33 -->
<g id="edge5" class="edge"><title>Node34&#45;&gt;Node33</title>
<path fill="none" stroke="midnightblue" d="M530.187,-228.348C538.856,-229.191 547.542,-230.035 555.971,-230.854"/>
<polygon fill="midnightblue" stroke="midnightblue" points="530.325,-224.845 520.034,-227.361 529.648,-231.812 530.325,-224.845"/>
</g>
<!-- Node41 -->
<g id="node12" class="node"><title>Node41</title>
<g id="a_node12"><a xlink:href="group__adf7030-1____core.html#gacc594fe578d3493100c338ffbd11ff53" target="_top" xlink:title="Setup PHY gpio to for external trigger command. ">
<polygon fill="white" stroke="black" points="559,-38.5 559,-57.5 702,-57.5 702,-38.5 559,-38.5"/>
<text text-anchor="middle" x="630.5" y="-45.5" font-family="Helvetica,sans-Serif" font-size="10.00">adf7030_1__SetupPhyTrigger</text>
</a>
</g>
</g>
<!-- Node40&#45;&gt;Node41 -->
<g id="edge12" class="edge"><title>Node40&#45;&gt;Node41</title>
<path fill="none" stroke="midnightblue" d="M314.365,-32.588C384.466,-36.0163 489.427,-41.1496 558.671,-44.536"/>
<polygon fill="midnightblue" stroke="midnightblue" points="314.443,-29.0877 304.284,-32.095 314.101,-36.0794 314.443,-29.0877"/>
</g>
<!-- Node42 -->
<g id="node13" class="node"><title>Node42</title>
<g id="a_node13"><a xlink:href="group__adf7030-1____gpio.html#gac3150c08d65f94ec1837e879e577c4e6" target="_top" xlink:title="Setup individual GPIO configuration on the PHY Radio. ">
<polygon fill="white" stroke="black" points="368,-0.5 368,-19.5 498,-19.5 498,-0.5 368,-0.5"/>
<text text-anchor="middle" x="433" y="-7.5" font-family="Helvetica,sans-Serif" font-size="10.00">adf7030_1__GPIO_SetCfg</text>
</a>
</g>
</g>
<!-- Node40&#45;&gt;Node42 -->
<g id="edge13" class="edge"><title>Node40&#45;&gt;Node42</title>
<path fill="none" stroke="midnightblue" d="M314.286,-21.7097C331.88,-19.9596 350.539,-18.1035 367.69,-16.3974"/>
<polygon fill="midnightblue" stroke="midnightblue" points="313.674,-18.2533 304.07,-22.726 314.367,-25.2189 313.674,-18.2533"/>
</g>
<!-- Node42&#45;&gt;Node41 -->
<g id="edge15" class="edge"><title>Node42&#45;&gt;Node41</title>
<path fill="none" stroke="midnightblue" d="M493.11,-21.4894C521.004,-26.9114 553.902,-33.3058 580.399,-38.4561"/>
<polygon fill="midnightblue" stroke="midnightblue" points="493.565,-18.0124 483.081,-19.54 492.229,-24.8838 493.565,-18.0124"/>
</g>
<!-- Node43 -->
<g id="node14" class="node"><title>Node43</title>
<g id="a_node14"><a xlink:href="group__adf7030-1____irq.html#gac21dfc3398c0190f1d1fe74e3adbcd48" target="_top" xlink:title="Setup PHY Radio GPIO irq. ">
<polygon fill="white" stroke="black" points="557.5,-0.5 557.5,-19.5 703.5,-19.5 703.5,-0.5 557.5,-0.5"/>
<text text-anchor="middle" x="630.5" y="-7.5" font-family="Helvetica,sans-Serif" font-size="10.00">adf7030_1__IRQ_SetGPIOPin</text>
</a>
</g>
</g>
<!-- Node42&#45;&gt;Node43 -->
<g id="edge14" class="edge"><title>Node42&#45;&gt;Node43</title>
<path fill="none" stroke="midnightblue" d="M508.386,-10C524.393,-10 541.289,-10 557.215,-10"/>
<polygon fill="midnightblue" stroke="midnightblue" points="508.014,-6.5001 498.014,-10 508.014,-13.5001 508.014,-6.5001"/>
</g>
</g>
</svg>
        <g id="navigator" transform="translate(0 0)" fill="#404254">
                <rect fill="#f2f5e9" fill-opacity="0.5" stroke="#606060" stroke-width=".5" x="0" y="0" width="60" height="60"/>
                <use id="zoomplus" xlink:href="#zoomPlus" x="17" y="9" onmousedown="handleZoom(evt,'in')"/>
                <use id="zoomminus" xlink:href="#zoomMin" x="42" y="9" onmousedown="handleZoom(evt,'out')"/>
                <use id="reset" xlink:href="#resetDef" x="30" y="36" onmousedown="handleReset()"/>
                <g id="arrowUp" xlink:href="#dirArrow" transform="translate(30 24)" onmousedown="handlePan(0,-1)">
                  <use xlink:href="#rim" fill="#404040">
                        <set attributeName="fill" to="#808080" begin="arrowUp.mouseover" end="arrowUp.mouseout"/>
                  </use>
                  <path fill="none" stroke="white" stroke-width="1.5" d="M0,-3.0v7 M-2.5,-0.5L0,-3.0L2.5,-0.5"/>
                </g>
                <g id="arrowRight" xlink:href="#dirArrow" transform="rotate(90) translate(36 -43)" onmousedown="handlePan(1,0)">
                  <use xlink:href="#rim" fill="#404040">
                        <set attributeName="fill" to="#808080" begin="arrowRight.mouseover" end="arrowRight.mouseout"/>
                  </use>
                  <path fill="none" stroke="white" stroke-width="1.5" d="M0,-3.0v7 M-2.5,-0.5L0,-3.0L2.5,-0.5"/>
                </g>
                <g id="arrowDown" xlink:href="#dirArrow" transform="rotate(180) translate(-30 -48)" onmousedown="handlePan(0,1)">
                  <use xlink:href="#rim" fill="#404040">
                        <set attributeName="fill" to="#808080" begin="arrowDown.mouseover" end="arrowDown.mouseout"/>
                  </use>
                  <path fill="none" stroke="white" stroke-width="1.5" d="M0,-3.0v7 M-2.5,-0.5L0,-3.0L2.5,-0.5"/>
                </g>
                <g id="arrowLeft" xlink:href="#dirArrow" transform="rotate(270) translate(-36 17)" onmousedown="handlePan(-1,0)">
                  <use xlink:href="#rim" fill="#404040">
                        <set attributeName="fill" to="#808080" begin="arrowLeft.mouseover" end="arrowLeft.mouseout"/>
                  </use>
                  <path fill="none" stroke="white" stroke-width="1.5" d="M0,-3.0v7 M-2.5,-0.5L0,-3.0L2.5,-0.5"/>
                </g>
        </g>
        <svg viewBox="0 0 15 15" width="100%" height="30px" preserveAspectRatio="xMaxYMin meet">
         <g id="arrow_out" transform="scale(0.3 0.3)">
          <a xlink:href="group__adf7030-1____mem_gacda1914daaf2eded7347710b0dbdb78a_icgraph_org.svg" target="_base">
           <rect id="button" ry="5" rx="5" y="6" x="6" height="38" width="38"
                fill="#f2f5e9" fill-opacity="0.5" stroke="#606060" stroke-width="1.0"/>
           <path id="arrow"
             d="M 11.500037,31.436501 C 11.940474,20.09759 22.043105,11.32322 32.158766,21.979434 L 37.068811,17.246167 C 37.068811,17.246167 37.088388,32 37.088388,32 L 22.160133,31.978069 C 22.160133,31.978069 26.997745,27.140456 26.997745,27.140456 C 18.528582,18.264221 13.291696,25.230495 11.500037,31.436501 z"
             style="fill:#404040;"/>
          </a>
         </g>
        </svg>
</svg>
