<?xml version="1.0" encoding="UTF-8" standalone="no"?>
<!DOCTYPE svg PUBLIC "-//W3C//DTD SVG 1.1//EN"
 "http://www.w3.org/Graphics/SVG/1.1/DTD/svg11.dtd">
<!-- Generated by graphviz version 2.38.0 (20140413.2041)
 -->
<!-- Title: adf7030_1__VerifyConfig Pages: 1 -->
<svg width="839pt" height="127pt"
 viewBox="0.00 0.00 839.00 126.50" xmlns="http://www.w3.org/2000/svg" xmlns:xlink="http://www.w3.org/1999/xlink">
<g id="graph0" class="graph" transform="scale(1 1) rotate(0) translate(4 122.5)">
<title>adf7030_1__VerifyConfig</title>
<polygon fill="white" stroke="none" points="-4,4 -4,-122.5 835,-122.5 835,4 -4,4"/>
<!-- Node101 -->
<g id="node1" class="node"><title>Node101</title>
<polygon fill="#bfbfbf" stroke="black" points="0,-55 0,-74 123,-74 123,-55 0,-55"/>
<text text-anchor="middle" x="61.5" y="-62" font-family="Helvetica,sans-Serif" font-size="10.00">adf7030_1__VerifyConfig</text>
</g>
<!-- Node102 -->
<g id="node2" class="node"><title>Node102</title>
<g id="a_node2"><a xlink:href="group__adf7030-1____mem.html#gae8fab7f4a9d7bc3432f2b85b789510e1" target="_top" xlink:title="Generic Configuration transfers function between Host and the Radio PHY. ">
<polygon fill="white" stroke="black" points="159,-55 159,-74 273,-74 273,-55 159,-55"/>
<text text-anchor="middle" x="216" y="-62" font-family="Helvetica,sans-Serif" font-size="10.00">adf7030_1__XferConfig</text>
</a>
</g>
</g>
<!-- Node101&#45;&gt;Node102 -->
<g id="edge1" class="edge"><title>Node101&#45;&gt;Node102</title>
<path fill="none" stroke="midnightblue" d="M123.21,-64.5C131.596,-64.5 140.243,-64.5 148.722,-64.5"/>
<polygon fill="midnightblue" stroke="midnightblue" points="148.954,-68.0001 158.954,-64.5 148.954,-61.0001 148.954,-68.0001"/>
</g>
<!-- Node103 -->
<g id="node3" class="node"><title>Node103</title>
<g id="a_node3"><a xlink:href="group__adf7030-1____mem.html#ga1ca676315976719ad485f1a4772e876d" target="_top" xlink:title="Generic Data block transfers function between Host and the Radio PHY. ">
<polygon fill="white" stroke="black" points="309,-55 309,-74 441,-74 441,-55 309,-55"/>
<text text-anchor="middle" x="375" y="-62" font-family="Helvetica,sans-Serif" font-size="10.00">adf7030_1__XferDataBlock</text>
</a>
</g>
</g>
<!-- Node102&#45;&gt;Node103 -->
<g id="edge2" class="edge"><title>Node102&#45;&gt;Node103</title>
<path fill="none" stroke="midnightblue" d="M273.237,-64.5C281.522,-64.5 290.167,-64.5 298.76,-64.5"/>
<polygon fill="midnightblue" stroke="midnightblue" points="298.799,-68.0001 308.799,-64.5 298.799,-61.0001 298.799,-68.0001"/>
</g>
<!-- Node104 -->
<g id="node4" class="node"><title>Node104</title>
<g id="a_node4"><a xlink:href="group__adf7030-1____spi.html#ga7c54fff20ff0def7f7a3b9d7036f9cda" target="_top" xlink:title="This function return the best Pointer id + offset for subsequent SPI transfert to the PHY &quot;Addr&quot; prov...">
<polygon fill="white" stroke="black" points="477,-99 477,-118 646,-118 646,-99 477,-99"/>
<text text-anchor="middle" x="561.5" y="-106" font-family="Helvetica,sans-Serif" font-size="10.00">adf7030_1__SPI_FindMMapPointer</text>
</a>
</g>
</g>
<!-- Node103&#45;&gt;Node104 -->
<g id="edge3" class="edge"><title>Node103&#45;&gt;Node104</title>
<path fill="none" stroke="midnightblue" d="M413.848,-74.0483C432.791,-78.7813 456.086,-84.5326 477,-89.5 487.085,-91.8952 497.869,-94.395 508.225,-96.7648"/>
<polygon fill="midnightblue" stroke="midnightblue" points="507.458,-100.18 517.985,-98.9893 509.013,-93.3546 507.458,-100.18"/>
</g>
<!-- Node105 -->
<g id="node5" class="node"><title>Node105</title>
<g id="a_node5"><a xlink:href="group__adf7030-1____spi.html#ga87f62777c793d805dac75887f167b2bf" target="_top" xlink:title="Change the SPI Radio mmap custom pointers 0 location. ">
<polygon fill="white" stroke="black" points="477.5,-49.5 477.5,-79.5 645.5,-79.5 645.5,-49.5 477.5,-49.5"/>
<text text-anchor="start" x="485.5" y="-67.5" font-family="Helvetica,sans-Serif" font-size="10.00">adf7030_1__SPI_SetMMapCustom</text>
<text text-anchor="middle" x="561.5" y="-56.5" font-family="Helvetica,sans-Serif" font-size="10.00">Pntr0</text>
</a>
</g>
</g>
<!-- Node103&#45;&gt;Node105 -->
<g id="edge4" class="edge"><title>Node103&#45;&gt;Node105</title>
<path fill="none" stroke="midnightblue" d="M441.048,-64.5C449.566,-64.5 458.423,-64.5 467.293,-64.5"/>
<polygon fill="midnightblue" stroke="midnightblue" points="467.294,-68.0001 477.294,-64.5 467.294,-61.0001 467.294,-68.0001"/>
</g>
<!-- Node107 -->
<g id="node7" class="node"><title>Node107</title>
<g id="a_node7"><a xlink:href="group__adf7030-1____spi.html#ga0b334362c3e1aeb752f58c60a263a9cf" target="_top" xlink:title="Read &amp; Compare a number of bytes(s) from memory of the adf7030&#45;1 to Host starting at location pointed...">
<polygon fill="white" stroke="black" points="499,-0.5 499,-30.5 624,-30.5 624,-0.5 499,-0.5"/>
<text text-anchor="start" x="507" y="-18.5" font-family="Helvetica,sans-Serif" font-size="10.00">adf7030_1__SPI_rd_cmp</text>
<text text-anchor="middle" x="561.5" y="-7.5" font-family="Helvetica,sans-Serif" font-size="10.00">_byte_p_a</text>
</a>
</g>
</g>
<!-- Node103&#45;&gt;Node107 -->
<g id="edge6" class="edge"><title>Node103&#45;&gt;Node107</title>
<path fill="none" stroke="midnightblue" d="M412.011,-54.936C435.268,-48.7595 466.235,-40.5351 493.871,-33.1955"/>
<polygon fill="midnightblue" stroke="midnightblue" points="495.115,-36.4866 503.881,-30.537 493.318,-29.7211 495.115,-36.4866"/>
</g>
<!-- Node106 -->
<g id="node6" class="node"><title>Node106</title>
<g id="a_node6"><a xlink:href="group__adf7030-1____spi.html#ga6f0c25120c078623d42ede30fc690999" target="_top" xlink:title="Write a number of word(s) from Host to memory of the adf7030&#45;1 starting at location pointed by &quot;pntr&quot;...">
<polygon fill="white" stroke="black" points="682,-55 682,-74 831,-74 831,-55 682,-55"/>
<text text-anchor="middle" x="756.5" y="-62" font-family="Helvetica,sans-Serif" font-size="10.00">adf7030_1__SPI_wr_word_b_p</text>
</a>
</g>
</g>
<!-- Node105&#45;&gt;Node106 -->
<g id="edge5" class="edge"><title>Node105&#45;&gt;Node106</title>
<path fill="none" stroke="midnightblue" d="M645.75,-64.5C654.402,-64.5 663.2,-64.5 671.857,-64.5"/>
<polygon fill="midnightblue" stroke="midnightblue" points="671.938,-68.0001 681.938,-64.5 671.938,-61.0001 671.938,-68.0001"/>
</g>
</g>
</svg>
