<?xml version="1.0" encoding="UTF-8" standalone="no"?>
<!DOCTYPE svg PUBLIC "-//W3C//DTD SVG 1.1//EN"
 "http://www.w3.org/Graphics/SVG/1.1/DTD/svg11.dtd">
<!-- Generated by graphviz version 2.38.0 (20140413.2041)
 -->
<!-- Title: adf7030_1__IRQ_SetupHostGPIO Pages: 1 -->
<svg width="446pt" height="28pt"
 viewBox="0.00 0.00 446.00 28.00" xmlns="http://www.w3.org/2000/svg" xmlns:xlink="http://www.w3.org/1999/xlink">
<g id="graph0" class="graph" transform="scale(1 1) rotate(0) translate(4 24)">
<title>adf7030_1__IRQ_SetupHostGPIO</title>
<polygon fill="white" stroke="none" points="-4,4 -4,-24 442,-24 442,4 -4,4"/>
<!-- Node41 -->
<g id="node1" class="node"><title>Node41</title>
<polygon fill="#bfbfbf" stroke="black" points="0,-0.5 0,-19.5 163,-19.5 163,-0.5 0,-0.5"/>
<text text-anchor="middle" x="81.5" y="-7.5" font-family="Helvetica,sans-Serif" font-size="10.00">adf7030_1__IRQ_SetupHostGPIO</text>
</g>
<!-- Node42 -->
<g id="node2" class="node"><title>Node42</title>
<g id="a_node2"><a xlink:href="group__adf7030-1____irq.html#ga7a1d3e44568e67b5e5063e2c1176480d" target="_top" xlink:title="Initializes Irq handling for the adf7030&#45;1 PHY. ">
<polygon fill="white" stroke="black" points="199,-0.5 199,-19.5 305,-19.5 305,-0.5 199,-0.5"/>
<text text-anchor="middle" x="252" y="-7.5" font-family="Helvetica,sans-Serif" font-size="10.00">adf7030_1__IRQ_Init</text>
</a>
</g>
</g>
<!-- Node41&#45;&gt;Node42 -->
<g id="edge1" class="edge"><title>Node41&#45;&gt;Node42</title>
<path fill="none" stroke="midnightblue" d="M173.415,-10C182.018,-10 190.528,-10 198.582,-10"/>
<polygon fill="midnightblue" stroke="midnightblue" points="173.295,-6.5001 163.295,-10 173.295,-13.5001 173.295,-6.5001"/>
</g>
<!-- Node43 -->
<g id="node3" class="node"><title>Node43</title>
<g id="a_node3"><a xlink:href="group__adf7030-1____core.html#gaab9372b413f119016db09a7722b222c5" target="_top" xlink:title="Setup the adf7030&#45;1 instance by initialising its device info structure. It also calls adf7030_1__SPI_...">
<polygon fill="white" stroke="black" points="341,-0.5 341,-19.5 438,-19.5 438,-0.5 341,-0.5"/>
<text text-anchor="middle" x="389.5" y="-7.5" font-family="Helvetica,sans-Serif" font-size="10.00">adf7030_1__Setup</text>
</a>
</g>
</g>
<!-- Node42&#45;&gt;Node43 -->
<g id="edge2" class="edge"><title>Node42&#45;&gt;Node43</title>
<path fill="none" stroke="midnightblue" d="M315.075,-10C323.736,-10 332.521,-10 340.859,-10"/>
<polygon fill="midnightblue" stroke="midnightblue" points="315,-6.5001 305,-10 315,-13.5001 315,-6.5001"/>
</g>
</g>
</svg>
