<?xml version="1.0" encoding="UTF-8" standalone="no"?>
<!DOCTYPE svg PUBLIC "-//W3C//DTD SVG 1.1//EN"
 "http://www.w3.org/Graphics/SVG/1.1/DTD/svg11.dtd">
<!-- Generated by graphviz version 2.38.0 (20140413.2041)
 -->
<!-- Title: adf7030_1__IRQ_Init Pages: 1 -->
<svg width="495pt" height="66pt"
 viewBox="0.00 0.00 495.00 66.00" xmlns="http://www.w3.org/2000/svg" xmlns:xlink="http://www.w3.org/1999/xlink">
<g id="graph0" class="graph" transform="scale(1 1) rotate(0) translate(4 62)">
<title>adf7030_1__IRQ_Init</title>
<polygon fill="white" stroke="none" points="-4,4 -4,-62 491,-62 491,4 -4,4"/>
<!-- Node15 -->
<g id="node1" class="node"><title>Node15</title>
<polygon fill="#bfbfbf" stroke="black" points="0,-19.5 0,-38.5 106,-38.5 106,-19.5 0,-19.5"/>
<text text-anchor="middle" x="53" y="-26.5" font-family="Helvetica,sans-Serif" font-size="10.00">adf7030_1__IRQ_Init</text>
</g>
<!-- Node16 -->
<g id="node2" class="node"><title>Node16</title>
<g id="a_node2"><a xlink:href="group__adf7030-1____irq.html#ga5e912a6947cd8173d211c2a65992bbb5" target="_top" xlink:title="Default gpio driver Callback function for interrupt pin 0. ">
<polygon fill="white" stroke="black" points="158,-38.5 158,-57.5 289,-57.5 289,-38.5 158,-38.5"/>
<text text-anchor="middle" x="223.5" y="-45.5" font-family="Helvetica,sans-Serif" font-size="10.00">adf7030_1__IRQ_Callback</text>
</a>
</g>
</g>
<!-- Node15&#45;&gt;Node16 -->
<g id="edge1" class="edge"><title>Node15&#45;&gt;Node16</title>
<path fill="none" stroke="midnightblue" d="M106.391,-34.9076C119.529,-36.389 133.879,-38.0071 147.871,-39.5848"/>
<polygon fill="midnightblue" stroke="midnightblue" points="147.643,-43.0813 157.973,-40.7239 148.428,-36.1254 147.643,-43.0813"/>
</g>
<!-- Node17 -->
<g id="node3" class="node"><title>Node17</title>
<g id="a_node3"><a xlink:href="group__adf7030-1____irq.html#gafa48327dcbba3a14ed95d3af380af037" target="_top" xlink:title="Setup the Host GPIO driver to trigger Callback on PHY interrupt. ">
<polygon fill="white" stroke="black" points="142,-0.5 142,-19.5 305,-19.5 305,-0.5 142,-0.5"/>
<text text-anchor="middle" x="223.5" y="-7.5" font-family="Helvetica,sans-Serif" font-size="10.00">adf7030_1__IRQ_SetupHostGPIO</text>
</a>
</g>
</g>
<!-- Node15&#45;&gt;Node17 -->
<g id="edge2" class="edge"><title>Node15&#45;&gt;Node17</title>
<path fill="none" stroke="midnightblue" d="M106.391,-23.0924C114.515,-22.1764 123.103,-21.208 131.782,-20.2293"/>
<polygon fill="midnightblue" stroke="midnightblue" points="132.447,-23.6766 141.992,-19.0781 131.663,-16.7207 132.447,-23.6766"/>
</g>
<!-- Node18 -->
<g id="node4" class="node"><title>Node18</title>
<g id="a_node4"><a xlink:href="group__adf7030-1____irq.html#ga82e2b150d2b209b4946f5a7976762d48" target="_top" xlink:title="Changes GPIO Callback on PHY interrupt. ">
<polygon fill="white" stroke="black" points="341,-0.5 341,-19.5 487,-19.5 487,-0.5 341,-0.5"/>
<text text-anchor="middle" x="414" y="-7.5" font-family="Helvetica,sans-Serif" font-size="10.00">adf7030_1__IRQ_SetCallback</text>
</a>
</g>
</g>
<!-- Node17&#45;&gt;Node18 -->
<g id="edge3" class="edge"><title>Node17&#45;&gt;Node18</title>
<path fill="none" stroke="midnightblue" d="M305.261,-10C313.644,-10 322.172,-10 330.573,-10"/>
<polygon fill="midnightblue" stroke="midnightblue" points="330.739,-13.5001 340.739,-10 330.739,-6.5001 330.739,-13.5001"/>
</g>
</g>
</svg>
