<?xml version="1.0" encoding="UTF-8" standalone="no"?>
<!DOCTYPE svg PUBLIC "-//W3C//DTD SVG 1.1//EN"
 "http://www.w3.org/Graphics/SVG/1.1/DTD/svg11.dtd">
<!-- Generated by graphviz version 2.38.0 (20140413.2041)
 -->
<!-- Title: adf7030_1__XferDataBlock Pages: 1 -->
<svg width="530pt" height="127pt"
 viewBox="0.00 0.00 530.00 126.50" xmlns="http://www.w3.org/2000/svg" xmlns:xlink="http://www.w3.org/1999/xlink">
<g id="graph0" class="graph" transform="scale(1 1) rotate(0) translate(4 122.5)">
<title>adf7030_1__XferDataBlock</title>
<polygon fill="white" stroke="none" points="-4,4 -4,-122.5 526,-122.5 526,4 -4,4"/>
<!-- Node155 -->
<g id="node1" class="node"><title>Node155</title>
<polygon fill="#bfbfbf" stroke="black" points="0,-55 0,-74 132,-74 132,-55 0,-55"/>
<text text-anchor="middle" x="66" y="-62" font-family="Helvetica,sans-Serif" font-size="10.00">adf7030_1__XferDataBlock</text>
</g>
<!-- Node156 -->
<g id="node2" class="node"><title>Node156</title>
<g id="a_node2"><a xlink:href="group__adf7030-1____spi.html#ga7c54fff20ff0def7f7a3b9d7036f9cda" target="_top" xlink:title="This function return the best Pointer id + offset for subsequent SPI transfert to the PHY &quot;Addr&quot; prov...">
<polygon fill="white" stroke="black" points="168,-99 168,-118 337,-118 337,-99 168,-99"/>
<text text-anchor="middle" x="252.5" y="-106" font-family="Helvetica,sans-Serif" font-size="10.00">adf7030_1__SPI_FindMMapPointer</text>
</a>
</g>
</g>
<!-- Node155&#45;&gt;Node156 -->
<g id="edge1" class="edge"><title>Node155&#45;&gt;Node156</title>
<path fill="none" stroke="midnightblue" d="M104.848,-74.0483C123.791,-78.7813 147.086,-84.5326 168,-89.5 178.085,-91.8952 188.869,-94.395 199.225,-96.7648"/>
<polygon fill="midnightblue" stroke="midnightblue" points="198.458,-100.18 208.985,-98.9893 200.013,-93.3546 198.458,-100.18"/>
</g>
<!-- Node157 -->
<g id="node3" class="node"><title>Node157</title>
<g id="a_node3"><a xlink:href="group__adf7030-1____spi.html#ga0b334362c3e1aeb752f58c60a263a9cf" target="_top" xlink:title="Read &amp; Compare a number of bytes(s) from memory of the adf7030&#45;1 to Host starting at location pointed...">
<polygon fill="white" stroke="black" points="190,-49.5 190,-79.5 315,-79.5 315,-49.5 190,-49.5"/>
<text text-anchor="start" x="198" y="-67.5" font-family="Helvetica,sans-Serif" font-size="10.00">adf7030_1__SPI_rd_cmp</text>
<text text-anchor="middle" x="252.5" y="-56.5" font-family="Helvetica,sans-Serif" font-size="10.00">_byte_p_a</text>
</a>
</g>
</g>
<!-- Node155&#45;&gt;Node157 -->
<g id="edge2" class="edge"><title>Node155&#45;&gt;Node157</title>
<path fill="none" stroke="midnightblue" d="M132.048,-64.5C147.452,-64.5 163.967,-64.5 179.654,-64.5"/>
<polygon fill="midnightblue" stroke="midnightblue" points="179.823,-68.0001 189.823,-64.5 179.823,-61.0001 179.823,-68.0001"/>
</g>
<!-- Node158 -->
<g id="node4" class="node"><title>Node158</title>
<g id="a_node4"><a xlink:href="group__adf7030-1____spi.html#ga87f62777c793d805dac75887f167b2bf" target="_top" xlink:title="Change the SPI Radio mmap custom pointers 0 location. ">
<polygon fill="white" stroke="black" points="168.5,-0.5 168.5,-30.5 336.5,-30.5 336.5,-0.5 168.5,-0.5"/>
<text text-anchor="start" x="176.5" y="-18.5" font-family="Helvetica,sans-Serif" font-size="10.00">adf7030_1__SPI_SetMMapCustom</text>
<text text-anchor="middle" x="252.5" y="-7.5" font-family="Helvetica,sans-Serif" font-size="10.00">Pntr0</text>
</a>
</g>
</g>
<!-- Node155&#45;&gt;Node158 -->
<g id="edge3" class="edge"><title>Node155&#45;&gt;Node158</title>
<path fill="none" stroke="midnightblue" d="M103.011,-54.936C126.268,-48.7595 157.235,-40.5351 184.871,-33.1955"/>
<polygon fill="midnightblue" stroke="midnightblue" points="186.115,-36.4866 194.881,-30.537 184.318,-29.7211 186.115,-36.4866"/>
</g>
<!-- Node159 -->
<g id="node5" class="node"><title>Node159</title>
<g id="a_node5"><a xlink:href="group__adf7030-1____spi.html#ga6f0c25120c078623d42ede30fc690999" target="_top" xlink:title="Write a number of word(s) from Host to memory of the adf7030&#45;1 starting at location pointed by &quot;pntr&quot;...">
<polygon fill="white" stroke="black" points="373,-6 373,-25 522,-25 522,-6 373,-6"/>
<text text-anchor="middle" x="447.5" y="-13" font-family="Helvetica,sans-Serif" font-size="10.00">adf7030_1__SPI_wr_word_b_p</text>
</a>
</g>
</g>
<!-- Node158&#45;&gt;Node159 -->
<g id="edge4" class="edge"><title>Node158&#45;&gt;Node159</title>
<path fill="none" stroke="midnightblue" d="M336.75,-15.5C345.402,-15.5 354.2,-15.5 362.857,-15.5"/>
<polygon fill="midnightblue" stroke="midnightblue" points="362.938,-19.0001 372.938,-15.5 362.938,-12.0001 362.938,-19.0001"/>
</g>
</g>
</svg>
