<?xml version="1.0" encoding="UTF-8" standalone="no"?>
<!DOCTYPE svg PUBLIC "-//W3C//DTD SVG 1.1//EN"
 "http://www.w3.org/Graphics/SVG/1.1/DTD/svg11.dtd">
<!-- Generated by graphviz version 2.38.0 (20140413.2041)
 -->
<!-- Title: adf7030_1__SendConfiguration Pages: 1 -->
<svg width="427pt" height="28pt"
 viewBox="0.00 0.00 427.00 28.00" xmlns="http://www.w3.org/2000/svg" xmlns:xlink="http://www.w3.org/1999/xlink">
<g id="graph0" class="graph" transform="scale(1 1) rotate(0) translate(4 24)">
<title>adf7030_1__SendConfiguration</title>
<polygon fill="white" stroke="none" points="-4,4 -4,-24 423,-24 423,4 -4,4"/>
<!-- Node2 -->
<g id="node1" class="node"><title>Node2</title>
<polygon fill="#bfbfbf" stroke="black" points="0,-0.5 0,-19.5 150,-19.5 150,-0.5 0,-0.5"/>
<text text-anchor="middle" x="75" y="-7.5" font-family="Helvetica,sans-Serif" font-size="10.00">adf7030_1__SendConfiguration</text>
</g>
<!-- Node3 -->
<g id="node2" class="node"><title>Node3</title>
<g id="a_node2"><a xlink:href="group__adf7030-1____core.html#ga8fc7a869a747268f0ed652ec4954a352" target="_top" xlink:title="Enable the adf7030&#45;1. ">
<polygon fill="white" stroke="black" points="186,-0.5 186,-19.5 287,-19.5 287,-0.5 186,-0.5"/>
<text text-anchor="middle" x="236.5" y="-7.5" font-family="Helvetica,sans-Serif" font-size="10.00">adf7030_1__Enable</text>
</a>
</g>
</g>
<!-- Node2&#45;&gt;Node3 -->
<g id="edge1" class="edge"><title>Node2&#45;&gt;Node3</title>
<path fill="none" stroke="midnightblue" d="M160.322,-10C168.982,-10 177.57,-10 185.676,-10"/>
<polygon fill="midnightblue" stroke="midnightblue" points="160.147,-6.5001 150.147,-10 160.147,-13.5001 160.147,-6.5001"/>
</g>
<!-- Node4 -->
<g id="node3" class="node"><title>Node4</title>
<g id="a_node3"><a xlink:href="group__adf7030-1____core.html#ga3e7db2dcab244e93d0e97d24ee3eef86" target="_top" xlink:title="Closes the adf7030&#45;1 instance. ">
<polygon fill="white" stroke="black" points="323,-0.5 323,-19.5 419,-19.5 419,-0.5 323,-0.5"/>
<text text-anchor="middle" x="371" y="-7.5" font-family="Helvetica,sans-Serif" font-size="10.00">adf7030_1__Close</text>
</a>
</g>
</g>
<!-- Node3&#45;&gt;Node4 -->
<g id="edge2" class="edge"><title>Node3&#45;&gt;Node4</title>
<path fill="none" stroke="midnightblue" d="M297.42,-10C305.874,-10 314.466,-10 322.639,-10"/>
<polygon fill="midnightblue" stroke="midnightblue" points="297.215,-6.5001 287.215,-10 297.215,-13.5001 297.215,-6.5001"/>
</g>
</g>
</svg>
