<?xml version="1.0" encoding="UTF-8" standalone="no"?>
<!DOCTYPE svg PUBLIC "-//W3C//DTD SVG 1.1//EN"
 "http://www.w3.org/Graphics/SVG/1.1/DTD/svg11.dtd">
<!-- Generated by graphviz version 2.38.0 (20140413.2041)
 -->
<!-- Title: adf7030_1__WriteDataBlock Pages: 1 -->
<svg width="706pt" height="127pt"
 viewBox="0.00 0.00 706.00 126.50" xmlns="http://www.w3.org/2000/svg" xmlns:xlink="http://www.w3.org/1999/xlink">
<g id="graph0" class="graph" transform="scale(1 1) rotate(0) translate(4 122.5)">
<title>adf7030_1__WriteDataBlock</title>
<polygon fill="white" stroke="none" points="-4,4 -4,-122.5 702,-122.5 702,4 -4,4"/>
<!-- Node131 -->
<g id="node1" class="node"><title>Node131</title>
<polygon fill="#bfbfbf" stroke="black" points="0,-55 0,-74 140,-74 140,-55 0,-55"/>
<text text-anchor="middle" x="70" y="-62" font-family="Helvetica,sans-Serif" font-size="10.00">adf7030_1__WriteDataBlock</text>
</g>
<!-- Node132 -->
<g id="node2" class="node"><title>Node132</title>
<g id="a_node2"><a xlink:href="group__adf7030-1____mem.html#ga1ca676315976719ad485f1a4772e876d" target="_top" xlink:title="Generic Data block transfers function between Host and the Radio PHY. ">
<polygon fill="white" stroke="black" points="176,-55 176,-74 308,-74 308,-55 176,-55"/>
<text text-anchor="middle" x="242" y="-62" font-family="Helvetica,sans-Serif" font-size="10.00">adf7030_1__XferDataBlock</text>
</a>
</g>
</g>
<!-- Node131&#45;&gt;Node132 -->
<g id="edge1" class="edge"><title>Node131&#45;&gt;Node132</title>
<path fill="none" stroke="midnightblue" d="M140.146,-64.5C148.511,-64.5 157.088,-64.5 165.538,-64.5"/>
<polygon fill="midnightblue" stroke="midnightblue" points="165.76,-68.0001 175.76,-64.5 165.76,-61.0001 165.76,-68.0001"/>
</g>
<!-- Node133 -->
<g id="node3" class="node"><title>Node133</title>
<g id="a_node3"><a xlink:href="group__adf7030-1____spi.html#ga7c54fff20ff0def7f7a3b9d7036f9cda" target="_top" xlink:title="This function return the best Pointer id + offset for subsequent SPI transfert to the PHY &quot;Addr&quot; prov...">
<polygon fill="white" stroke="black" points="344,-99 344,-118 513,-118 513,-99 344,-99"/>
<text text-anchor="middle" x="428.5" y="-106" font-family="Helvetica,sans-Serif" font-size="10.00">adf7030_1__SPI_FindMMapPointer</text>
</a>
</g>
</g>
<!-- Node132&#45;&gt;Node133 -->
<g id="edge2" class="edge"><title>Node132&#45;&gt;Node133</title>
<path fill="none" stroke="midnightblue" d="M280.848,-74.0483C299.791,-78.7813 323.086,-84.5326 344,-89.5 354.085,-91.8952 364.869,-94.395 375.225,-96.7648"/>
<polygon fill="midnightblue" stroke="midnightblue" points="374.458,-100.18 384.985,-98.9893 376.013,-93.3546 374.458,-100.18"/>
</g>
<!-- Node134 -->
<g id="node4" class="node"><title>Node134</title>
<g id="a_node4"><a xlink:href="group__adf7030-1____spi.html#ga87f62777c793d805dac75887f167b2bf" target="_top" xlink:title="Change the SPI Radio mmap custom pointers 0 location. ">
<polygon fill="white" stroke="black" points="344.5,-49.5 344.5,-79.5 512.5,-79.5 512.5,-49.5 344.5,-49.5"/>
<text text-anchor="start" x="352.5" y="-67.5" font-family="Helvetica,sans-Serif" font-size="10.00">adf7030_1__SPI_SetMMapCustom</text>
<text text-anchor="middle" x="428.5" y="-56.5" font-family="Helvetica,sans-Serif" font-size="10.00">Pntr0</text>
</a>
</g>
</g>
<!-- Node132&#45;&gt;Node134 -->
<g id="edge3" class="edge"><title>Node132&#45;&gt;Node134</title>
<path fill="none" stroke="midnightblue" d="M308.048,-64.5C316.566,-64.5 325.423,-64.5 334.293,-64.5"/>
<polygon fill="midnightblue" stroke="midnightblue" points="334.294,-68.0001 344.294,-64.5 334.294,-61.0001 334.294,-68.0001"/>
</g>
<!-- Node136 -->
<g id="node6" class="node"><title>Node136</title>
<g id="a_node6"><a xlink:href="group__adf7030-1____spi.html#ga0b334362c3e1aeb752f58c60a263a9cf" target="_top" xlink:title="Read &amp; Compare a number of bytes(s) from memory of the adf7030&#45;1 to Host starting at location pointed...">
<polygon fill="white" stroke="black" points="366,-0.5 366,-30.5 491,-30.5 491,-0.5 366,-0.5"/>
<text text-anchor="start" x="374" y="-18.5" font-family="Helvetica,sans-Serif" font-size="10.00">adf7030_1__SPI_rd_cmp</text>
<text text-anchor="middle" x="428.5" y="-7.5" font-family="Helvetica,sans-Serif" font-size="10.00">_byte_p_a</text>
</a>
</g>
</g>
<!-- Node132&#45;&gt;Node136 -->
<g id="edge5" class="edge"><title>Node132&#45;&gt;Node136</title>
<path fill="none" stroke="midnightblue" d="M279.011,-54.936C302.268,-48.7595 333.235,-40.5351 360.871,-33.1955"/>
<polygon fill="midnightblue" stroke="midnightblue" points="362.115,-36.4866 370.881,-30.537 360.318,-29.7211 362.115,-36.4866"/>
</g>
<!-- Node135 -->
<g id="node5" class="node"><title>Node135</title>
<g id="a_node5"><a xlink:href="group__adf7030-1____spi.html#ga6f0c25120c078623d42ede30fc690999" target="_top" xlink:title="Write a number of word(s) from Host to memory of the adf7030&#45;1 starting at location pointed by &quot;pntr&quot;...">
<polygon fill="white" stroke="black" points="549,-55 549,-74 698,-74 698,-55 549,-55"/>
<text text-anchor="middle" x="623.5" y="-62" font-family="Helvetica,sans-Serif" font-size="10.00">adf7030_1__SPI_wr_word_b_p</text>
</a>
</g>
</g>
<!-- Node134&#45;&gt;Node135 -->
<g id="edge4" class="edge"><title>Node134&#45;&gt;Node135</title>
<path fill="none" stroke="midnightblue" d="M512.75,-64.5C521.402,-64.5 530.2,-64.5 538.857,-64.5"/>
<polygon fill="midnightblue" stroke="midnightblue" points="538.938,-68.0001 548.938,-64.5 538.938,-61.0001 538.938,-68.0001"/>
</g>
</g>
</svg>
