<?xml version="1.0" encoding="UTF-8" standalone="no"?>
<!DOCTYPE svg PUBLIC "-//W3C//DTD SVG 1.1//EN"
 "http://www.w3.org/Graphics/SVG/1.1/DTD/svg11.dtd">
<!-- Generated by graphviz version 2.38.0 (20140413.2041)
 -->
<!-- Title: adf7030_1__Enable Pages: 1 -->
<!--zoomable 116 -->
<svg id="main" version="1.1" xmlns="http://www.w3.org/2000/svg" xmlns:xlink="http://www.w3.org/1999/xlink" xml:space="preserve" onload="init(evt)">
<style type="text/css"><![CDATA[
.edge:hover path { stroke: red; }
.edge:hover polygon { stroke: red; fill: red; }
]]></style>
<script type="text/javascript"><![CDATA[
var edges = document.getElementsByTagName('g');
if (edges && edges.length) {
  for (var i=0;i<edges.length;i++) {
    if (edges[i].id.substr(0,4)=='edge') {
      edges[i].setAttribute('class','edge');
    }
  }
}
]]></script>
        <defs>
                <circle id="rim" cx="0" cy="0" r="7"/>
                <circle id="rim2" cx="0" cy="0" r="3.5"/>
                <g id="zoomPlus">
                        <use xlink:href="#rim" fill="#404040">
                                <set attributeName="fill" to="#808080" begin="zoomplus.mouseover" end="zoomplus.mouseout"/>
                        </use>
                        <path d="M-4,0h8M0,-4v8" fill="none" stroke="white" stroke-width="1.5" pointer-events="none"/>
                </g>
                <g id="zoomMin">
                        <use xlink:href="#rim" fill="#404040">
                                <set attributeName="fill" to="#808080" begin="zoomminus.mouseover" end="zoomminus.mouseout"/>
                        </use>
                        <path d="M-4,0h8" fill="none" stroke="white" stroke-width="1.5" pointer-events="none"/>
                </g>
                <g id="dirArrow">
                        <path fill="none" stroke="white" stroke-width="1.5" d="M0,-3.0v7 M-2.5,-0.5L0,-3.0L2.5,-0.5"/>
                </g>
               <g id="resetDef">
                       <use xlink:href="#rim2" fill="#404040">
                               <set attributeName="fill" to="#808080" begin="reset.mouseover" end="reset.mouseout"/>
                       </use>
               </g>
        </defs>

<script type="text/javascript">
var viewWidth = 654;
var viewHeight = 116;
var sectionId = 'dynsection-2';
</script>
<script xlink:href="svgpan.js"/>
<svg id="graph" class="graph">
<g id="viewport">
<title>adf7030_1__Enable</title>
<polygon fill="white" stroke="none" points="-4,4 -4,-111.5 650,-111.5 650,4 -4,4"/>
<!-- Node12 -->
<g id="node1" class="node"><title>Node12</title>
<polygon fill="#bfbfbf" stroke="black" points="0,-50 0,-69 101,-69 101,-50 0,-50"/>
<text text-anchor="middle" x="50.5" y="-57" font-family="Helvetica,sans-Serif" font-size="10.00">adf7030_1__Enable</text>
</g>
<!-- Node13 -->
<g id="node2" class="node"><title>Node13</title>
<g id="a_node2"><a xlink:href="group__adf7030-1____core.html#ga610bc2107a2907360780fba0c49ddd80" target="_top" xlink:title="Pulse Host GPIO Reset pin. ">
<polygon fill="white" stroke="black" points="151,-88 151,-107 273,-107 273,-88 151,-88"/>
<text text-anchor="middle" x="212" y="-95" font-family="Helvetica,sans-Serif" font-size="10.00">adf7030_1__PulseReset</text>
</a>
</g>
</g>
<!-- Node12&#45;&gt;Node13 -->
<g id="edge1" class="edge"><title>Node12&#45;&gt;Node13</title>
<path fill="none" stroke="midnightblue" d="M91.7486,-69.089C112.796,-74.1035 138.755,-80.2881 161.073,-85.6053"/>
<polygon fill="midnightblue" stroke="midnightblue" points="160.502,-89.067 171.041,-87.9799 162.124,-82.2576 160.502,-89.067"/>
</g>
<!-- Node14 -->
<g id="node3" class="node"><title>Node14</title>
<g id="a_node3"><a xlink:href="group__adf7030-1____cfg.html#ga79c8a4795fbb0bc9040e6ebe0a723df7" target="_top" xlink:title="ADI Radio Configuration transfer function. ">
<polygon fill="white" stroke="black" points="137,-50 137,-69 287,-69 287,-50 137,-50"/>
<text text-anchor="middle" x="212" y="-57" font-family="Helvetica,sans-Serif" font-size="10.00">adf7030_1__SendConfiguration</text>
</a>
</g>
</g>
<!-- Node12&#45;&gt;Node14 -->
<g id="edge2" class="edge"><title>Node12&#45;&gt;Node14</title>
<path fill="none" stroke="midnightblue" d="M101.092,-59.5C109.243,-59.5 117.886,-59.5 126.603,-59.5"/>
<polygon fill="midnightblue" stroke="midnightblue" points="126.846,-63.0001 136.846,-59.5 126.846,-56.0001 126.846,-63.0001"/>
</g>
<!-- Node16 -->
<g id="node5" class="node"><title>Node16</title>
<g id="a_node5"><a xlink:href="group__adf7030-1____state.html#ga80dbe4150d3c045018d716b36d54a12b" target="_top" xlink:title="Send Radio PHY Command and wait util PHY has transition to new state. ">
<polygon fill="white" stroke="black" points="139,-0.5 139,-30.5 285,-30.5 285,-0.5 139,-0.5"/>
<text text-anchor="start" x="147" y="-18.5" font-family="Helvetica,sans-Serif" font-size="10.00">adf7030_1__STATE_PhyCMD</text>
<text text-anchor="middle" x="212" y="-7.5" font-family="Helvetica,sans-Serif" font-size="10.00">_WaitReady</text>
</a>
</g>
</g>
<!-- Node12&#45;&gt;Node16 -->
<g id="edge4" class="edge"><title>Node12&#45;&gt;Node16</title>
<path fill="none" stroke="midnightblue" d="M86.1091,-49.9527C103.826,-45.0651 125.976,-38.9549 146.682,-33.2429"/>
<polygon fill="midnightblue" stroke="midnightblue" points="147.679,-36.5987 156.388,-30.5654 145.817,-29.8508 147.679,-36.5987"/>
</g>
<!-- Node15 -->
<g id="node4" class="node"><title>Node15</title>
<g id="a_node4"><a xlink:href="group__adf7030-1____cfg.html#ga1be70867cf669ddf6ef38924c2893d6c" target="_top" xlink:title="ADI Radio SPI sequence configuration transfer. ">
<polygon fill="white" stroke="black" points="325.5,-50 325.5,-69 444.5,-69 444.5,-50 325.5,-50"/>
<text text-anchor="middle" x="385" y="-57" font-family="Helvetica,sans-Serif" font-size="10.00">adf7030_1__XferCfgSeq</text>
</a>
</g>
</g>
<!-- Node14&#45;&gt;Node15 -->
<g id="edge3" class="edge"><title>Node14&#45;&gt;Node15</title>
<path fill="none" stroke="midnightblue" d="M287.009,-59.5C296.321,-59.5 305.819,-59.5 315.049,-59.5"/>
<polygon fill="midnightblue" stroke="midnightblue" points="315.333,-63.0001 325.333,-59.5 315.333,-56.0001 315.333,-63.0001"/>
</g>
<!-- Node17 -->
<g id="node6" class="node"><title>Node17</title>
<g id="a_node6"><a xlink:href="group__adf7030-1____state.html#ga47915136f3871f6ad931de81fa60b378" target="_top" xlink:title="Generic Radio PHY Command Transfers. ">
<polygon fill="white" stroke="black" points="323,-6 323,-25 447,-25 447,-6 323,-6"/>
<text text-anchor="middle" x="385" y="-13" font-family="Helvetica,sans-Serif" font-size="10.00">adf7030_1__XferCmdPoll</text>
</a>
</g>
</g>
<!-- Node16&#45;&gt;Node17 -->
<g id="edge5" class="edge"><title>Node16&#45;&gt;Node17</title>
<path fill="none" stroke="midnightblue" d="M285.024,-15.5C294.176,-15.5 303.539,-15.5 312.679,-15.5"/>
<polygon fill="midnightblue" stroke="midnightblue" points="312.882,-19.0001 322.882,-15.5 312.882,-12.0001 312.882,-19.0001"/>
</g>
<!-- Node18 -->
<g id="node7" class="node"><title>Node18</title>
<g id="a_node7"><a xlink:href="group__adf7030-1____spi.html#gae598c37af797c9fb49fecd0e62b1bf77" target="_top" xlink:title="Custom FAST API for Read/Write a number of byte(s) to the adf7030&#45;1. ">
<polygon fill="white" stroke="black" points="483,-6 483,-25 646,-25 646,-6 483,-6"/>
<text text-anchor="middle" x="564.5" y="-13" font-family="Helvetica,sans-Serif" font-size="10.00">adf7030_1__SPI_ReadWrite_Fast</text>
</a>
</g>
</g>
<!-- Node17&#45;&gt;Node18 -->
<g id="edge6" class="edge"><title>Node17&#45;&gt;Node18</title>
<path fill="none" stroke="midnightblue" d="M447.085,-15.5C455.374,-15.5 464.021,-15.5 472.694,-15.5"/>
<polygon fill="midnightblue" stroke="midnightblue" points="472.867,-19.0001 482.867,-15.5 472.867,-12.0001 472.867,-19.0001"/>
</g>
</g>
</svg>
        <g id="navigator" transform="translate(0 0)" fill="#404254">
                <rect fill="#f2f5e9" fill-opacity="0.5" stroke="#606060" stroke-width=".5" x="0" y="0" width="60" height="60"/>
                <use id="zoomplus" xlink:href="#zoomPlus" x="17" y="9" onmousedown="handleZoom(evt,'in')"/>
                <use id="zoomminus" xlink:href="#zoomMin" x="42" y="9" onmousedown="handleZoom(evt,'out')"/>
                <use id="reset" xlink:href="#resetDef" x="30" y="36" onmousedown="handleReset()"/>
                <g id="arrowUp" xlink:href="#dirArrow" transform="translate(30 24)" onmousedown="handlePan(0,-1)">
                  <use xlink:href="#rim" fill="#404040">
                        <set attributeName="fill" to="#808080" begin="arrowUp.mouseover" end="arrowUp.mouseout"/>
                  </use>
                  <path fill="none" stroke="white" stroke-width="1.5" d="M0,-3.0v7 M-2.5,-0.5L0,-3.0L2.5,-0.5"/>
                </g>
                <g id="arrowRight" xlink:href="#dirArrow" transform="rotate(90) translate(36 -43)" onmousedown="handlePan(1,0)">
                  <use xlink:href="#rim" fill="#404040">
                        <set attributeName="fill" to="#808080" begin="arrowRight.mouseover" end="arrowRight.mouseout"/>
                  </use>
                  <path fill="none" stroke="white" stroke-width="1.5" d="M0,-3.0v7 M-2.5,-0.5L0,-3.0L2.5,-0.5"/>
                </g>
                <g id="arrowDown" xlink:href="#dirArrow" transform="rotate(180) translate(-30 -48)" onmousedown="handlePan(0,1)">
                  <use xlink:href="#rim" fill="#404040">
                        <set attributeName="fill" to="#808080" begin="arrowDown.mouseover" end="arrowDown.mouseout"/>
                  </use>
                  <path fill="none" stroke="white" stroke-width="1.5" d="M0,-3.0v7 M-2.5,-0.5L0,-3.0L2.5,-0.5"/>
                </g>
                <g id="arrowLeft" xlink:href="#dirArrow" transform="rotate(270) translate(-36 17)" onmousedown="handlePan(-1,0)">
                  <use xlink:href="#rim" fill="#404040">
                        <set attributeName="fill" to="#808080" begin="arrowLeft.mouseover" end="arrowLeft.mouseout"/>
                  </use>
                  <path fill="none" stroke="white" stroke-width="1.5" d="M0,-3.0v7 M-2.5,-0.5L0,-3.0L2.5,-0.5"/>
                </g>
        </g>
        <svg viewBox="0 0 15 15" width="100%" height="30px" preserveAspectRatio="xMaxYMin meet">
         <g id="arrow_out" transform="scale(0.3 0.3)">
          <a xlink:href="group__adf7030-1____core_ga8fc7a869a747268f0ed652ec4954a352_cgraph_org.svg" target="_base">
           <rect id="button" ry="5" rx="5" y="6" x="6" height="38" width="38"
                fill="#f2f5e9" fill-opacity="0.5" stroke="#606060" stroke-width="1.0"/>
           <path id="arrow"
             d="M 11.500037,31.436501 C 11.940474,20.09759 22.043105,11.32322 32.158766,21.979434 L 37.068811,17.246167 C 37.068811,17.246167 37.088388,32 37.088388,32 L 22.160133,31.978069 C 22.160133,31.978069 26.997745,27.140456 26.997745,27.140456 C 18.528582,18.264221 13.291696,25.230495 11.500037,31.436501 z"
             style="fill:#404040;"/>
          </a>
         </g>
        </svg>
</svg>
