<?xml version="1.0" encoding="UTF-8" standalone="no"?>
<!DOCTYPE svg PUBLIC "-//W3C//DTD SVG 1.1//EN"
 "http://www.w3.org/Graphics/SVG/1.1/DTD/svg11.dtd">
<!-- Generated by graphviz version 2.38.0 (20140413.2041)
 -->
<!-- Title: adf7030_1__SPI_SetSpeed Pages: 1 -->
<svg width="429pt" height="127pt"
 viewBox="0.00 0.00 429.00 126.50" xmlns="http://www.w3.org/2000/svg" xmlns:xlink="http://www.w3.org/1999/xlink">
<g id="graph0" class="graph" transform="scale(1 1) rotate(0) translate(4 122.5)">
<title>adf7030_1__SPI_SetSpeed</title>
<polygon fill="white" stroke="none" points="-4,4 -4,-122.5 425,-122.5 425,4 -4,4"/>
<!-- Node112 -->
<g id="node1" class="node"><title>Node112</title>
<polygon fill="#bfbfbf" stroke="black" points="0,-44.5 0,-63.5 135,-63.5 135,-44.5 0,-44.5"/>
<text text-anchor="middle" x="67.5" y="-51.5" font-family="Helvetica,sans-Serif" font-size="10.00">adf7030_1__SPI_SetSpeed</text>
</g>
<!-- Node113 -->
<g id="node2" class="node"><title>Node113</title>
<g id="a_node2"><a xlink:href="group__adf7030-1____spi.html#gae687183b33c5cbad38f6af0582de7b53" target="_top" xlink:title="Generic SPI Block Read/Write a number of words(s) to the adf7030&#45;1. ">
<polygon fill="white" stroke="black" points="171.5,-88 171.5,-118 287.5,-118 287.5,-88 171.5,-88"/>
<text text-anchor="start" x="179.5" y="-106" font-family="Helvetica,sans-Serif" font-size="10.00">adf7030_1__SPI_block</text>
<text text-anchor="middle" x="229.5" y="-95" font-family="Helvetica,sans-Serif" font-size="10.00">_transaction</text>
</a>
</g>
</g>
<!-- Node112&#45;&gt;Node113 -->
<g id="edge1" class="edge"><title>Node112&#45;&gt;Node113</title>
<path fill="none" stroke="midnightblue" d="M109.455,-66.5426C130.776,-73.0719 156.998,-81.1024 179.4,-87.963"/>
<polygon fill="midnightblue" stroke="midnightblue" points="110.316,-63.1458 99.7294,-63.564 108.266,-69.8389 110.316,-63.1458"/>
</g>
<!-- Node114 -->
<g id="node3" class="node"><title>Node114</title>
<g id="a_node3"><a xlink:href="group__adf7030-1____spi.html#ga5833cc49a619bf22edf8bd85e885b7c6" target="_top" xlink:title="Generic function to read or write a number of bytes between the Host and the PHY adf703x. ">
<polygon fill="white" stroke="black" points="171,-39 171,-69 288,-69 288,-39 171,-39"/>
<text text-anchor="start" x="179" y="-57" font-family="Helvetica,sans-Serif" font-size="10.00">adf7030_1__SPI_Block</text>
<text text-anchor="middle" x="229.5" y="-46" font-family="Helvetica,sans-Serif" font-size="10.00">_Xfer__fast</text>
</a>
</g>
</g>
<!-- Node112&#45;&gt;Node114 -->
<g id="edge2" class="edge"><title>Node112&#45;&gt;Node114</title>
<path fill="none" stroke="midnightblue" d="M145.467,-54C154.058,-54 162.696,-54 170.984,-54"/>
<polygon fill="midnightblue" stroke="midnightblue" points="145.427,-50.5001 135.427,-54 145.427,-57.5001 145.427,-50.5001"/>
</g>
<!-- Node115 -->
<g id="node4" class="node"><title>Node115</title>
<g id="a_node4"><a xlink:href="group__adf7030-1____spi.html#ga8ed475789457b9daf82159c11c706839" target="_top" xlink:title="Initializes SPI device for communication with the adf7030&#45;1 PHY. ">
<polygon fill="white" stroke="black" points="177,-0.5 177,-19.5 282,-19.5 282,-0.5 177,-0.5"/>
<text text-anchor="middle" x="229.5" y="-7.5" font-family="Helvetica,sans-Serif" font-size="10.00">adf7030_1__SPI_Init</text>
</a>
</g>
</g>
<!-- Node112&#45;&gt;Node115 -->
<g id="edge3" class="edge"><title>Node112&#45;&gt;Node115</title>
<path fill="none" stroke="midnightblue" d="M113.038,-41.7522C138.582,-34.7276 170.173,-26.04 193.85,-19.5287"/>
<polygon fill="midnightblue" stroke="midnightblue" points="111.932,-38.4263 103.218,-44.4527 113.788,-45.1757 111.932,-38.4263"/>
</g>
<!-- Node116 -->
<g id="node5" class="node"><title>Node116</title>
<g id="a_node5"><a xlink:href="group__adf7030-1____core.html#gaab9372b413f119016db09a7722b222c5" target="_top" xlink:title="Setup the adf7030&#45;1 instance by initialising its device info structure. It also calls adf7030_1__SPI_...">
<polygon fill="white" stroke="black" points="324,-0.5 324,-19.5 421,-19.5 421,-0.5 324,-0.5"/>
<text text-anchor="middle" x="372.5" y="-7.5" font-family="Helvetica,sans-Serif" font-size="10.00">adf7030_1__Setup</text>
</a>
</g>
</g>
<!-- Node115&#45;&gt;Node116 -->
<g id="edge4" class="edge"><title>Node115&#45;&gt;Node116</title>
<path fill="none" stroke="midnightblue" d="M292.494,-10C302.903,-10 313.563,-10 323.549,-10"/>
<polygon fill="midnightblue" stroke="midnightblue" points="292.203,-6.5001 282.203,-10 292.203,-13.5001 292.203,-6.5001"/>
</g>
</g>
</svg>
