<?xml version="1.0" encoding="UTF-8" standalone="no"?>
<!DOCTYPE svg PUBLIC "-//W3C//DTD SVG 1.1//EN"
 "http://www.w3.org/Graphics/SVG/1.1/DTD/svg11.dtd">
<!-- Generated by graphviz version 2.38.0 (20140413.2041)
 -->
<!-- Title: adf7030_1__SetupPhyTrigger Pages: 1 -->
<svg width="665pt" height="116pt"
 viewBox="0.00 0.00 665.00 115.50" xmlns="http://www.w3.org/2000/svg" xmlns:xlink="http://www.w3.org/1999/xlink">
<g id="graph0" class="graph" transform="scale(1 1) rotate(0) translate(4 111.5)">
<title>adf7030_1__SetupPhyTrigger</title>
<polygon fill="white" stroke="none" points="-4,4 -4,-111.5 661,-111.5 661,4 -4,4"/>
<!-- Node69 -->
<g id="node1" class="node"><title>Node69</title>
<polygon fill="#bfbfbf" stroke="black" points="0,-38.5 0,-57.5 143,-57.5 143,-38.5 0,-38.5"/>
<text text-anchor="middle" x="71.5" y="-45.5" font-family="Helvetica,sans-Serif" font-size="10.00">adf7030_1__SetupPhyTrigger</text>
</g>
<!-- Node70 -->
<g id="node2" class="node"><title>Node70</title>
<g id="a_node2"><a xlink:href="group__adf7030-1____gpio.html#gac3150c08d65f94ec1837e879e577c4e6" target="_top" xlink:title="Setup individual GPIO configuration on the PHY Radio. ">
<polygon fill="white" stroke="black" points="179,-57.5 179,-76.5 309,-76.5 309,-57.5 179,-57.5"/>
<text text-anchor="middle" x="244" y="-64.5" font-family="Helvetica,sans-Serif" font-size="10.00">adf7030_1__GPIO_SetCfg</text>
</a>
</g>
</g>
<!-- Node69&#45;&gt;Node70 -->
<g id="edge1" class="edge"><title>Node69&#45;&gt;Node70</title>
<path fill="none" stroke="midnightblue" d="M143.326,-55.8926C151.717,-56.8277 160.3,-57.7842 168.737,-58.7244"/>
<polygon fill="midnightblue" stroke="midnightblue" points="168.607,-62.2315 178.933,-59.8606 169.382,-55.2745 168.607,-62.2315"/>
</g>
<!-- Node71 -->
<g id="node3" class="node"><title>Node71</title>
<g id="a_node3"><a xlink:href="group__adf7030-1____mem.html#gabd27b8e9b962f82fbd947b43e1fb6bad" target="_top" xlink:title="Generic setting of a Radio PHY bitfield to a value via the SPI. ">
<polygon fill="white" stroke="black" points="345,-38.5 345,-57.5 473,-57.5 473,-38.5 345,-38.5"/>
<text text-anchor="middle" x="409" y="-45.5" font-family="Helvetica,sans-Serif" font-size="10.00">adf7030_1__SPI_SetField</text>
</a>
</g>
</g>
<!-- Node69&#45;&gt;Node71 -->
<g id="edge6" class="edge"><title>Node69&#45;&gt;Node71</title>
<path fill="none" stroke="midnightblue" d="M143.241,-48C199.553,-48 278.088,-48 334.987,-48"/>
<polygon fill="midnightblue" stroke="midnightblue" points="334.992,-51.5001 344.992,-48 334.992,-44.5001 334.992,-51.5001"/>
</g>
<!-- Node70&#45;&gt;Node71 -->
<g id="edge2" class="edge"><title>Node70&#45;&gt;Node71</title>
<path fill="none" stroke="midnightblue" d="M309.422,-59.4907C317.71,-58.5247 326.244,-57.5299 334.661,-56.5487"/>
<polygon fill="midnightblue" stroke="midnightblue" points="335.318,-59.996 344.845,-55.3616 334.507,-53.043 335.318,-59.996"/>
</g>
<!-- Node72 -->
<g id="node4" class="node"><title>Node72</title>
<g id="a_node4"><a xlink:href="group__adf7030-1____mem.html#ga301747e36458e5763d98d3cb73c9122f" target="_top" xlink:title="Generic Function to check if byte rw operation is permitted. ">
<polygon fill="white" stroke="black" points="509,-77 509,-107 657,-107 657,-77 509,-77"/>
<text text-anchor="start" x="517" y="-95" font-family="Helvetica,sans-Serif" font-size="10.00">adf7030_1__MEM_CheckByte</text>
<text text-anchor="middle" x="583" y="-84" font-family="Helvetica,sans-Serif" font-size="10.00">Access</text>
</a>
</g>
</g>
<!-- Node71&#45;&gt;Node72 -->
<g id="edge3" class="edge"><title>Node71&#45;&gt;Node72</title>
<path fill="none" stroke="midnightblue" d="M447.321,-57.5473C466.6,-62.4791 490.745,-68.6558 513.247,-74.4121"/>
<polygon fill="midnightblue" stroke="midnightblue" points="512.553,-77.847 523.108,-76.9346 514.288,-71.0654 512.553,-77.847"/>
</g>
<!-- Node73 -->
<g id="node5" class="node"><title>Node73</title>
<g id="a_node5"><a xlink:href="group__adf7030-1____mem.html#gacda1914daaf2eded7347710b0dbdb78a" target="_top" xlink:title="Read &quot;nbBytes&quot; memory location via the SPI. ">
<polygon fill="white" stroke="black" points="516,-38.5 516,-57.5 650,-57.5 650,-38.5 516,-38.5"/>
<text text-anchor="middle" x="583" y="-45.5" font-family="Helvetica,sans-Serif" font-size="10.00">adf7030_1__SPI_GetBytes</text>
</a>
</g>
</g>
<!-- Node71&#45;&gt;Node73 -->
<g id="edge4" class="edge"><title>Node71&#45;&gt;Node73</title>
<path fill="none" stroke="midnightblue" d="M473.07,-48C483.605,-48 494.635,-48 505.463,-48"/>
<polygon fill="midnightblue" stroke="midnightblue" points="505.76,-51.5001 515.76,-48 505.76,-44.5001 505.76,-51.5001"/>
</g>
<!-- Node74 -->
<g id="node6" class="node"><title>Node74</title>
<g id="a_node6"><a xlink:href="group__adf7030-1____mem.html#ga7dacc77a0474b14d4e15e12bfc1a46d7" target="_top" xlink:title="Writes &quot;nbBytes&quot; memory location via the SPI. ">
<polygon fill="white" stroke="black" points="516.5,-0.5 516.5,-19.5 649.5,-19.5 649.5,-0.5 516.5,-0.5"/>
<text text-anchor="middle" x="583" y="-7.5" font-family="Helvetica,sans-Serif" font-size="10.00">adf7030_1__SPI_SetBytes</text>
</a>
</g>
</g>
<!-- Node71&#45;&gt;Node74 -->
<g id="edge5" class="edge"><title>Node71&#45;&gt;Node74</title>
<path fill="none" stroke="midnightblue" d="M453.403,-38.411C476.407,-33.3287 504.851,-27.0446 529.134,-21.6797"/>
<polygon fill="midnightblue" stroke="midnightblue" points="529.9,-25.095 538.909,-19.5201 528.39,-18.2598 529.9,-25.095"/>
</g>
</g>
</svg>
