<?xml version="1.0" encoding="UTF-8" standalone="no"?>
<!DOCTYPE svg PUBLIC "-//W3C//DTD SVG 1.1//EN"
 "http://www.w3.org/Graphics/SVG/1.1/DTD/svg11.dtd">
<!-- Generated by graphviz version 2.38.0 (20140413.2041)
 -->
<!-- Title: adf7030_1__GPIO_SetPin Pages: 1 -->
<svg width="483pt" height="28pt"
 viewBox="0.00 0.00 483.00 28.00" xmlns="http://www.w3.org/2000/svg" xmlns:xlink="http://www.w3.org/1999/xlink">
<g id="graph0" class="graph" transform="scale(1 1) rotate(0) translate(4 24)">
<title>adf7030_1__GPIO_SetPin</title>
<polygon fill="white" stroke="none" points="-4,4 -4,-24 479,-24 479,4 -4,4"/>
<!-- Node16 -->
<g id="node1" class="node"><title>Node16</title>
<polygon fill="#bfbfbf" stroke="black" points="0,-0.5 0,-19.5 130,-19.5 130,-0.5 0,-0.5"/>
<text text-anchor="middle" x="65" y="-7.5" font-family="Helvetica,sans-Serif" font-size="10.00">adf7030_1__GPIO_SetPin</text>
</g>
<!-- Node17 -->
<g id="node2" class="node"><title>Node17</title>
<g id="a_node2"><a xlink:href="group__adf7030-1____mem.html#ga5e53a55534a1aada085fb548ba2340d3" target="_top" xlink:title="Write a single 32bits memory location via the SPI. ">
<polygon fill="white" stroke="black" points="166,-0.5 166,-19.5 306,-19.5 306,-0.5 166,-0.5"/>
<text text-anchor="middle" x="236" y="-7.5" font-family="Helvetica,sans-Serif" font-size="10.00">adf7030_1__SPI_SetMem32</text>
</a>
</g>
</g>
<!-- Node16&#45;&gt;Node17 -->
<g id="edge1" class="edge"><title>Node16&#45;&gt;Node17</title>
<path fill="none" stroke="midnightblue" d="M130.374,-10C138.597,-10 147.09,-10 155.517,-10"/>
<polygon fill="midnightblue" stroke="midnightblue" points="155.739,-13.5001 165.739,-10 155.739,-6.5001 155.739,-13.5001"/>
</g>
<!-- Node18 -->
<g id="node3" class="node"><title>Node18</title>
<g id="a_node3"><a xlink:href="group__adf7030-1____mem.html#ga7dacc77a0474b14d4e15e12bfc1a46d7" target="_top" xlink:title="Writes &quot;nbBytes&quot; memory location via the SPI. ">
<polygon fill="white" stroke="black" points="342,-0.5 342,-19.5 475,-19.5 475,-0.5 342,-0.5"/>
<text text-anchor="middle" x="408.5" y="-7.5" font-family="Helvetica,sans-Serif" font-size="10.00">adf7030_1__SPI_SetBytes</text>
</a>
</g>
</g>
<!-- Node17&#45;&gt;Node18 -->
<g id="edge2" class="edge"><title>Node17&#45;&gt;Node18</title>
<path fill="none" stroke="midnightblue" d="M306.349,-10C314.673,-10 323.207,-10 331.618,-10"/>
<polygon fill="midnightblue" stroke="midnightblue" points="331.794,-13.5001 341.794,-10 331.794,-6.5001 331.794,-13.5001"/>
</g>
</g>
</svg>
