<?xml version="1.0" encoding="UTF-8" standalone="no"?>
<!DOCTYPE svg PUBLIC "-//W3C//DTD SVG 1.1//EN"
 "http://www.w3.org/Graphics/SVG/1.1/DTD/svg11.dtd">
<!-- Generated by graphviz version 2.38.0 (20140413.2041)
 -->
<!-- Title: adf7030_1__SPI_wr_word_b_p Pages: 1 -->
<!--zoomable 520 -->
<svg id="main" version="1.1" xmlns="http://www.w3.org/2000/svg" xmlns:xlink="http://www.w3.org/1999/xlink" xml:space="preserve" onload="init(evt)">
<style type="text/css"><![CDATA[
.edge:hover path { stroke: red; }
.edge:hover polygon { stroke: red; fill: red; }
]]></style>
<script type="text/javascript"><![CDATA[
var edges = document.getElementsByTagName('g');
if (edges && edges.length) {
  for (var i=0;i<edges.length;i++) {
    if (edges[i].id.substr(0,4)=='edge') {
      edges[i].setAttribute('class','edge');
    }
  }
}
]]></script>
        <defs>
                <circle id="rim" cx="0" cy="0" r="7"/>
                <circle id="rim2" cx="0" cy="0" r="3.5"/>
                <g id="zoomPlus">
                        <use xlink:href="#rim" fill="#404040">
                                <set attributeName="fill" to="#808080" begin="zoomplus.mouseover" end="zoomplus.mouseout"/>
                        </use>
                        <path d="M-4,0h8M0,-4v8" fill="none" stroke="white" stroke-width="1.5" pointer-events="none"/>
                </g>
                <g id="zoomMin">
                        <use xlink:href="#rim" fill="#404040">
                                <set attributeName="fill" to="#808080" begin="zoomminus.mouseover" end="zoomminus.mouseout"/>
                        </use>
                        <path d="M-4,0h8" fill="none" stroke="white" stroke-width="1.5" pointer-events="none"/>
                </g>
                <g id="dirArrow">
                        <path fill="none" stroke="white" stroke-width="1.5" d="M0,-3.0v7 M-2.5,-0.5L0,-3.0L2.5,-0.5"/>
                </g>
               <g id="resetDef">
                       <use xlink:href="#rim2" fill="#404040">
                               <set attributeName="fill" to="#808080" begin="reset.mouseover" end="reset.mouseout"/>
                       </use>
               </g>
        </defs>

<script type="text/javascript">
var viewWidth = 901;
var viewHeight = 520;
var sectionId = 'dynsection-13';
</script>
<script xlink:href="svgpan.js"/>
<svg id="graph" class="graph">
<g id="viewport">
<title>adf7030_1__SPI_wr_word_b_p</title>
<polygon fill="white" stroke="none" points="-4,4 -4,-516 897,-516 897,4 -4,4"/>
<!-- Node130 -->
<g id="node1" class="node"><title>Node130</title>
<polygon fill="#bfbfbf" stroke="black" points="0,-245.5 0,-264.5 149,-264.5 149,-245.5 0,-245.5"/>
<text text-anchor="middle" x="74.5" y="-252.5" font-family="Helvetica,sans-Serif" font-size="10.00">adf7030_1__SPI_wr_word_b_p</text>
</g>
<!-- Node131 -->
<g id="node2" class="node"><title>Node131</title>
<g id="a_node2"><a xlink:href="group__adf7030-1____spi.html#ga87f62777c793d805dac75887f167b2bf" target="_top" xlink:title="Change the SPI Radio mmap custom pointers 0 location. ">
<polygon fill="white" stroke="black" points="185,-240 185,-270 353,-270 353,-240 185,-240"/>
<text text-anchor="start" x="193" y="-258" font-family="Helvetica,sans-Serif" font-size="10.00">adf7030_1__SPI_SetMMapCustom</text>
<text text-anchor="middle" x="269" y="-247" font-family="Helvetica,sans-Serif" font-size="10.00">Pntr0</text>
</a>
</g>
</g>
<!-- Node130&#45;&gt;Node131 -->
<g id="edge1" class="edge"><title>Node130&#45;&gt;Node131</title>
<path fill="none" stroke="midnightblue" d="M159.325,-255C167.775,-255 176.355,-255 184.799,-255"/>
<polygon fill="midnightblue" stroke="midnightblue" points="159.1,-251.5 149.1,-255 159.1,-258.5 159.1,-251.5"/>
</g>
<!-- Node132 -->
<g id="node3" class="node"><title>Node132</title>
<g id="a_node3"><a xlink:href="group__adf7030-1____mem.html#ga1ca676315976719ad485f1a4772e876d" target="_top" xlink:title="Generic Data block transfers function between Host and the Radio PHY. ">
<polygon fill="white" stroke="black" points="391.5,-338.5 391.5,-357.5 523.5,-357.5 523.5,-338.5 391.5,-338.5"/>
<text text-anchor="middle" x="457.5" y="-345.5" font-family="Helvetica,sans-Serif" font-size="10.00">adf7030_1__XferDataBlock</text>
</a>
</g>
</g>
<!-- Node131&#45;&gt;Node132 -->
<g id="edge2" class="edge"><title>Node131&#45;&gt;Node132</title>
<path fill="none" stroke="midnightblue" d="M309.42,-274.657C348.663,-294.226 407.249,-323.441 437.262,-338.407"/>
<polygon fill="midnightblue" stroke="midnightblue" points="310.891,-271.479 300.38,-270.149 307.767,-277.744 310.891,-271.479"/>
</g>
<!-- Node144 -->
<g id="node15" class="node"><title>Node144</title>
<g id="a_node15"><a xlink:href="group__adf7030-1____patch.html#ga71c53aa1ca866512fbfaa5d99a3181e8" target="_top" xlink:title="Generic Patch Section transfer function between Host and the Radio PHY. ">
<polygon fill="white" stroke="black" points="389,-133.5 389,-152.5 526,-152.5 526,-133.5 389,-133.5"/>
<text text-anchor="middle" x="457.5" y="-140.5" font-family="Helvetica,sans-Serif" font-size="10.00">adf7030_1__XferPatchBlock</text>
</a>
</g>
</g>
<!-- Node131&#45;&gt;Node144 -->
<g id="edge14" class="edge"><title>Node131&#45;&gt;Node144</title>
<path fill="none" stroke="midnightblue" d="M303.865,-234.663C344.311,-210.373 410.285,-170.754 440.488,-152.616"/>
<polygon fill="midnightblue" stroke="midnightblue" points="301.923,-231.746 295.152,-239.895 305.527,-237.747 301.923,-231.746"/>
</g>
<!-- Node133 -->
<g id="node4" class="node"><title>Node133</title>
<g id="a_node4"><a xlink:href="group__adf7030-1____mem.html#gaa184749ff4ec2d53c167d51cbadb9b18" target="_top" xlink:title="Function call to read the Data block. ">
<polygon fill="white" stroke="black" points="565.5,-492.5 565.5,-511.5 704.5,-511.5 704.5,-492.5 565.5,-492.5"/>
<text text-anchor="middle" x="635" y="-499.5" font-family="Helvetica,sans-Serif" font-size="10.00">adf7030_1__ReadDataBlock</text>
</a>
</g>
</g>
<!-- Node132&#45;&gt;Node133 -->
<g id="edge3" class="edge"><title>Node132&#45;&gt;Node133</title>
<path fill="none" stroke="midnightblue" d="M467.653,-366.752C482.988,-396.152 516.699,-452.842 562,-483 567.811,-486.869 574.374,-489.951 581.114,-492.406"/>
<polygon fill="midnightblue" stroke="midnightblue" points="470.648,-364.919 463.007,-357.58 464.404,-368.082 470.648,-364.919"/>
</g>
<!-- Node135 -->
<g id="node6" class="node"><title>Node135</title>
<g id="a_node6"><a xlink:href="group__adf7030-1____mem.html#gaaed60fb0edafdf66ac0dd799752e9a5a" target="_top" xlink:title="Function call to partially read a section of the Host Data block. ">
<polygon fill="white" stroke="black" points="565,-443 565,-473 705,-473 705,-443 565,-443"/>
<text text-anchor="start" x="573" y="-461" font-family="Helvetica,sans-Serif" font-size="10.00">adf7030_1__ReadPartiaData</text>
<text text-anchor="middle" x="635" y="-450" font-family="Helvetica,sans-Serif" font-size="10.00">Block</text>
</a>
</g>
</g>
<!-- Node132&#45;&gt;Node135 -->
<g id="edge5" class="edge"><title>Node132&#45;&gt;Node135</title>
<path fill="none" stroke="midnightblue" d="M475.051,-364.796C494.407,-383.63 528.129,-414.015 562,-433 568.579,-436.688 575.798,-439.973 583.046,-442.851"/>
<polygon fill="midnightblue" stroke="midnightblue" points="477.478,-362.273 467.907,-357.729 472.555,-367.249 477.478,-362.273"/>
</g>
<!-- Node136 -->
<g id="node7" class="node"><title>Node136</title>
<g id="a_node7"><a xlink:href="group__adf7030-1____mem.html#gacf6942abdfef8b5994cb07ffc51acd05" target="_top" xlink:title="Function call to verify the integrity of Data block. ">
<polygon fill="white" stroke="black" points="564.5,-404.5 564.5,-423.5 705.5,-423.5 705.5,-404.5 564.5,-404.5"/>
<text text-anchor="middle" x="635" y="-411.5" font-family="Helvetica,sans-Serif" font-size="10.00">adf7030_1__VerifyDataBlock</text>
</a>
</g>
</g>
<!-- Node132&#45;&gt;Node136 -->
<g id="edge6" class="edge"><title>Node132&#45;&gt;Node136</title>
<path fill="none" stroke="midnightblue" d="M486.272,-362.157C506.816,-372.245 535.679,-385.626 562,-395 571.865,-398.513 582.695,-401.705 592.892,-404.428"/>
<polygon fill="midnightblue" stroke="midnightblue" points="487.694,-358.955 477.181,-357.64 484.579,-365.224 487.694,-358.955"/>
</g>
<!-- Node137 -->
<g id="node8" class="node"><title>Node137</title>
<g id="a_node8"><a xlink:href="group__adf7030-1____mem.html#ga4373955bd51900d2f60a961005aa83cb" target="_top" xlink:title="Function call to verify the integrity of a portion of a Host Data block. ">
<polygon fill="white" stroke="black" points="573,-355 573,-385 697,-385 697,-355 573,-355"/>
<text text-anchor="start" x="581" y="-373" font-family="Helvetica,sans-Serif" font-size="10.00">adf7030_1__VerifyPartial</text>
<text text-anchor="middle" x="635" y="-362" font-family="Helvetica,sans-Serif" font-size="10.00">DataBlock</text>
</a>
</g>
</g>
<!-- Node132&#45;&gt;Node137 -->
<g id="edge7" class="edge"><title>Node132&#45;&gt;Node137</title>
<path fill="none" stroke="midnightblue" d="M534.147,-357.483C547.11,-359.108 560.433,-360.778 572.953,-362.347"/>
<polygon fill="midnightblue" stroke="midnightblue" points="534.207,-353.963 523.85,-356.192 533.337,-360.909 534.207,-353.963"/>
</g>
<!-- Node138 -->
<g id="node9" class="node"><title>Node138</title>
<g id="a_node9"><a xlink:href="group__adf7030-1____mem.html#gab45789e38821a80b3f9cce11b91277bc" target="_top" xlink:title="Function call to write the Data block. ">
<polygon fill="white" stroke="black" points="565,-316.5 565,-335.5 705,-335.5 705,-316.5 565,-316.5"/>
<text text-anchor="middle" x="635" y="-323.5" font-family="Helvetica,sans-Serif" font-size="10.00">adf7030_1__WriteDataBlock</text>
</a>
</g>
</g>
<!-- Node132&#45;&gt;Node138 -->
<g id="edge8" class="edge"><title>Node132&#45;&gt;Node138</title>
<path fill="none" stroke="midnightblue" d="M533.981,-338.538C544.209,-337.256 554.664,-335.945 564.776,-334.678"/>
<polygon fill="midnightblue" stroke="midnightblue" points="533.337,-335.091 523.85,-339.808 534.207,-342.037 533.337,-335.091"/>
</g>
<!-- Node139 -->
<g id="node10" class="node"><title>Node139</title>
<g id="a_node10"><a xlink:href="group__adf7030-1____mem.html#gae2459967f63b227938db62e1b5388afc" target="_top" xlink:title="Function call to partially write a section of the Host Data block. ">
<polygon fill="white" stroke="black" points="563.5,-267 563.5,-297 706.5,-297 706.5,-267 563.5,-267"/>
<text text-anchor="start" x="571.5" y="-285" font-family="Helvetica,sans-Serif" font-size="10.00">adf7030_1__WritePartialData</text>
<text text-anchor="middle" x="635" y="-274" font-family="Helvetica,sans-Serif" font-size="10.00">Block</text>
</a>
</g>
</g>
<!-- Node132&#45;&gt;Node139 -->
<g id="edge9" class="edge"><title>Node132&#45;&gt;Node139</title>
<path fill="none" stroke="midnightblue" d="M491.231,-334.617C511.524,-326.424 538.178,-315.849 562,-307 570.931,-303.682 580.533,-300.253 589.723,-297.038"/>
<polygon fill="midnightblue" stroke="midnightblue" points="489.774,-331.431 481.82,-338.43 492.402,-337.919 489.774,-331.431"/>
</g>
<!-- Node140 -->
<g id="node11" class="node"><title>Node140</title>
<g id="a_node11"><a xlink:href="group__adf7030-1____mem.html#gae8fab7f4a9d7bc3432f2b85b789510e1" target="_top" xlink:title="Generic Configuration transfers function between Host and the Radio PHY. ">
<polygon fill="white" stroke="black" points="578,-228.5 578,-247.5 692,-247.5 692,-228.5 578,-228.5"/>
<text text-anchor="middle" x="635" y="-235.5" font-family="Helvetica,sans-Serif" font-size="10.00">adf7030_1__XferConfig</text>
</a>
</g>
</g>
<!-- Node132&#45;&gt;Node140 -->
<g id="edge10" class="edge"><title>Node132&#45;&gt;Node140</title>
<path fill="none" stroke="midnightblue" d="M473.373,-330.751C492.039,-310.184 525.997,-276.186 562,-257 569.188,-253.17 577.198,-250.074 585.191,-247.583"/>
<polygon fill="midnightblue" stroke="midnightblue" points="470.59,-328.614 466.564,-338.414 475.823,-333.264 470.59,-328.614"/>
</g>
<!-- Node134 -->
<g id="node5" class="node"><title>Node134</title>
<g id="a_node5"><a xlink:href="group__adf7030-1____core.html#gaa8110804874966018d0b7bfe40cbc001" target="_top" xlink:title="Initialise the Host shadow configuration of the PHY Radio. ">
<polygon fill="white" stroke="black" points="744,-492.5 744,-511.5 893,-511.5 893,-492.5 744,-492.5"/>
<text text-anchor="middle" x="818.5" y="-499.5" font-family="Helvetica,sans-Serif" font-size="10.00">adf7030_1__SetupHostPhyCfg</text>
</a>
</g>
</g>
<!-- Node133&#45;&gt;Node134 -->
<g id="edge4" class="edge"><title>Node133&#45;&gt;Node134</title>
<path fill="none" stroke="midnightblue" d="M714.662,-502C724.385,-502 734.296,-502 743.939,-502"/>
<polygon fill="midnightblue" stroke="midnightblue" points="714.617,-498.5 704.617,-502 714.617,-505.5 714.617,-498.5"/>
</g>
<!-- Node141 -->
<g id="node12" class="node"><title>Node141</title>
<g id="a_node12"><a xlink:href="group__adf7030-1____mem.html#gaf9027afec4eb550d5d563efbb1ed3cbb" target="_top" xlink:title="Function call to read Configuration from Radio PHY. ">
<polygon fill="white" stroke="black" points="758,-266.5 758,-285.5 879,-285.5 879,-266.5 758,-266.5"/>
<text text-anchor="middle" x="818.5" y="-273.5" font-family="Helvetica,sans-Serif" font-size="10.00">adf7030_1__ReadConfig</text>
</a>
</g>
</g>
<!-- Node140&#45;&gt;Node141 -->
<g id="edge11" class="edge"><title>Node140&#45;&gt;Node141</title>
<path fill="none" stroke="midnightblue" d="M691.792,-249.681C717.531,-255.07 747.699,-261.386 772.029,-266.48"/>
<polygon fill="midnightblue" stroke="midnightblue" points="692.305,-246.213 681.8,-247.589 690.871,-253.064 692.305,-246.213"/>
</g>
<!-- Node142 -->
<g id="node13" class="node"><title>Node142</title>
<g id="a_node13"><a xlink:href="group__adf7030-1____mem.html#gaeb52c8834f7abccae8965541f562fe80" target="_top" xlink:title="Function call to verify the integrity of the patch. ">
<polygon fill="white" stroke="black" points="757,-228.5 757,-247.5 880,-247.5 880,-228.5 757,-228.5"/>
<text text-anchor="middle" x="818.5" y="-235.5" font-family="Helvetica,sans-Serif" font-size="10.00">adf7030_1__VerifyConfig</text>
</a>
</g>
</g>
<!-- Node140&#45;&gt;Node142 -->
<g id="edge12" class="edge"><title>Node140&#45;&gt;Node142</title>
<path fill="none" stroke="midnightblue" d="M702.668,-238C720.348,-238 739.342,-238 756.692,-238"/>
<polygon fill="midnightblue" stroke="midnightblue" points="702.433,-234.5 692.433,-238 702.433,-241.5 702.433,-234.5"/>
</g>
<!-- Node143 -->
<g id="node14" class="node"><title>Node143</title>
<g id="a_node14"><a xlink:href="group__adf7030-1____mem.html#ga79e0355d8a6b661e6b0d7d6be01d04a2" target="_top" xlink:title="Function call to write Configuration to Radio PHY. ">
<polygon fill="white" stroke="black" points="757.5,-190.5 757.5,-209.5 879.5,-209.5 879.5,-190.5 757.5,-190.5"/>
<text text-anchor="middle" x="818.5" y="-197.5" font-family="Helvetica,sans-Serif" font-size="10.00">adf7030_1__WriteConfig</text>
</a>
</g>
</g>
<!-- Node140&#45;&gt;Node143 -->
<g id="edge13" class="edge"><title>Node140&#45;&gt;Node143</title>
<path fill="none" stroke="midnightblue" d="M691.792,-226.319C717.531,-220.93 747.699,-214.614 772.029,-209.52"/>
<polygon fill="midnightblue" stroke="midnightblue" points="690.871,-222.936 681.8,-228.411 692.305,-229.787 690.871,-222.936"/>
</g>
<!-- Node145 -->
<g id="node16" class="node"><title>Node145</title>
<g id="a_node16"><a xlink:href="group__adf7030-1____patch.html#gac583b9f3bee6f80cf1f418c6e35f57c2" target="_top" xlink:title="Function to read a single Patch block to the PHY Radio. ">
<polygon fill="white" stroke="black" points="563,-190.5 563,-209.5 707,-209.5 707,-190.5 563,-190.5"/>
<text text-anchor="middle" x="635" y="-197.5" font-family="Helvetica,sans-Serif" font-size="10.00">adf7030_1__ReadPatchBlock</text>
</a>
</g>
</g>
<!-- Node144&#45;&gt;Node145 -->
<g id="edge15" class="edge"><title>Node144&#45;&gt;Node145</title>
<path fill="none" stroke="midnightblue" d="M491.896,-156.167C512.04,-163.881 538.307,-173.542 562,-181 572.605,-184.338 584.21,-187.578 594.947,-190.408"/>
<polygon fill="midnightblue" stroke="midnightblue" points="493.127,-152.89 482.538,-152.554 490.606,-159.421 493.127,-152.89"/>
</g>
<!-- Node146 -->
<g id="node17" class="node"><title>Node146</title>
<g id="a_node17"><a xlink:href="group__adf7030-1____patch.html#ga390ff5ab41b522ebfebba9251e135c0a" target="_top" xlink:title="Function to verify content of a single Patch block in the PHY. ">
<polygon fill="white" stroke="black" points="562,-152.5 562,-171.5 708,-171.5 708,-152.5 562,-152.5"/>
<text text-anchor="middle" x="635" y="-159.5" font-family="Helvetica,sans-Serif" font-size="10.00">adf7030_1__VerifyPatchBlock</text>
</a>
</g>
</g>
<!-- Node144&#45;&gt;Node146 -->
<g id="edge16" class="edge"><title>Node144&#45;&gt;Node146</title>
<path fill="none" stroke="midnightblue" d="M536.06,-151.397C544.611,-152.323 553.292,-153.262 561.774,-154.181"/>
<polygon fill="midnightblue" stroke="midnightblue" points="536.421,-147.915 526.102,-150.319 535.667,-154.875 536.421,-147.915"/>
</g>
<!-- Node148 -->
<g id="node19" class="node"><title>Node148</title>
<g id="a_node19"><a xlink:href="group__adf7030-1____patch.html#ga3a7fd2ebaf84d3a0eb18b50ab89403b0" target="_top" xlink:title="Function to write a single Patch block to the PHY Radio. ">
<polygon fill="white" stroke="black" points="562.5,-114.5 562.5,-133.5 707.5,-133.5 707.5,-114.5 562.5,-114.5"/>
<text text-anchor="middle" x="635" y="-121.5" font-family="Helvetica,sans-Serif" font-size="10.00">adf7030_1__WritePatchBlock</text>
</a>
</g>
</g>
<!-- Node144&#45;&gt;Node148 -->
<g id="edge18" class="edge"><title>Node144&#45;&gt;Node148</title>
<path fill="none" stroke="midnightblue" d="M536.226,-134.585C544.92,-133.644 553.746,-132.688 562.359,-131.756"/>
<polygon fill="midnightblue" stroke="midnightblue" points="535.667,-131.125 526.102,-135.681 536.42,-138.085 535.667,-131.125"/>
</g>
<!-- Node149 -->
<g id="node20" class="node"><title>Node149</title>
<g id="a_node20"><a xlink:href="group__adf7030-1____patch.html#ga6c7b2435960b91a621d2b7b59eae91f6" target="_top" xlink:title="Generic Patch checksum configuration transfers function between Host and the Radio PHY...">
<polygon fill="white" stroke="black" points="568,-76.5 568,-95.5 702,-95.5 702,-76.5 568,-76.5"/>
<text text-anchor="middle" x="635" y="-83.5" font-family="Helvetica,sans-Serif" font-size="10.00">adf7030_1__XferChecksum</text>
</a>
</g>
</g>
<!-- Node144&#45;&gt;Node149 -->
<g id="edge20" class="edge"><title>Node144&#45;&gt;Node149</title>
<path fill="none" stroke="midnightblue" d="M491.896,-129.833C512.04,-122.119 538.307,-112.458 562,-105 572.605,-101.662 584.21,-98.4225 594.947,-95.592"/>
<polygon fill="midnightblue" stroke="midnightblue" points="490.606,-126.579 482.538,-133.446 493.127,-133.11 490.606,-126.579"/>
</g>
<!-- Node150 -->
<g id="node21" class="node"><title>Node150</title>
<g id="a_node21"><a xlink:href="group__adf7030-1____patch.html#ga4c271dbe767d130f0efd24c9e98bd2f9" target="_top" xlink:title="Generic Patch transfers function between Host and the Radio PHY. ">
<polygon fill="white" stroke="black" points="578.5,-38.5 578.5,-57.5 691.5,-57.5 691.5,-38.5 578.5,-38.5"/>
<text text-anchor="middle" x="635" y="-45.5" font-family="Helvetica,sans-Serif" font-size="10.00">adf7030_1__XferPatch</text>
</a>
</g>
</g>
<!-- Node144&#45;&gt;Node150 -->
<g id="edge21" class="edge"><title>Node144&#45;&gt;Node150</title>
<path fill="none" stroke="midnightblue" d="M476.347,-126.597C495.965,-109.396 529.087,-82.7244 562,-67 569.932,-63.2104 578.731,-60.0934 587.375,-57.5591"/>
<polygon fill="midnightblue" stroke="midnightblue" points="473.935,-124.059 468.806,-133.329 478.596,-129.28 473.935,-124.059"/>
</g>
<!-- Node147 -->
<g id="node18" class="node"><title>Node147</title>
<g id="a_node18"><a xlink:href="group__adf7030-1____patch.html#ga3102258e3a1861d13c16c82d1e68537f" target="_top" xlink:title="Function call to perform PHY Radio patch self&#45;checking. ">
<polygon fill="white" stroke="black" points="748,-133.5 748,-152.5 889,-152.5 889,-133.5 748,-133.5"/>
<text text-anchor="middle" x="818.5" y="-140.5" font-family="Helvetica,sans-Serif" font-size="10.00">adf7030_1__SelfCheckPatch</text>
</a>
</g>
</g>
<!-- Node146&#45;&gt;Node147 -->
<g id="edge17" class="edge"><title>Node146&#45;&gt;Node147</title>
<path fill="none" stroke="midnightblue" d="M718.434,-153.371C728.267,-152.341 738.231,-151.298 747.859,-150.29"/>
<polygon fill="midnightblue" stroke="midnightblue" points="717.836,-149.914 708.255,-154.436 718.565,-156.876 717.836,-149.914"/>
</g>
<!-- Node148&#45;&gt;Node147 -->
<g id="edge19" class="edge"><title>Node148&#45;&gt;Node147</title>
<path fill="none" stroke="midnightblue" d="M717.704,-132.553C727.743,-133.604 737.93,-134.67 747.769,-135.7"/>
<polygon fill="midnightblue" stroke="midnightblue" points="718.044,-129.07 707.734,-131.509 717.315,-136.032 718.044,-129.07"/>
</g>
<!-- Node151 -->
<g id="node22" class="node"><title>Node151</title>
<g id="a_node22"><a xlink:href="group__adf7030-1____patch.html#ga7c495e105742698cc777a712e2da9ad2" target="_top" xlink:title="Function call to readback the patch from Radio PHY. ">
<polygon fill="white" stroke="black" points="759,-76.5 759,-95.5 878,-95.5 878,-76.5 759,-76.5"/>
<text text-anchor="middle" x="818.5" y="-83.5" font-family="Helvetica,sans-Serif" font-size="10.00">adf7030_1__ReadPatch</text>
</a>
</g>
</g>
<!-- Node150&#45;&gt;Node151 -->
<g id="edge22" class="edge"><title>Node150&#45;&gt;Node151</title>
<path fill="none" stroke="midnightblue" d="M691.792,-59.681C717.531,-65.0699 747.699,-71.3861 772.029,-76.4799"/>
<polygon fill="midnightblue" stroke="midnightblue" points="692.305,-56.2126 681.8,-57.589 690.871,-63.064 692.305,-56.2126"/>
</g>
<!-- Node152 -->
<g id="node23" class="node"><title>Node152</title>
<g id="a_node23"><a xlink:href="group__adf7030-1____patch.html#ga1f1e316b541da1c27fb0a24f0b7efc7d" target="_top" xlink:title="Function call to verify the integrity of the patch. ">
<polygon fill="white" stroke="black" points="757.5,-38.5 757.5,-57.5 879.5,-57.5 879.5,-38.5 757.5,-38.5"/>
<text text-anchor="middle" x="818.5" y="-45.5" font-family="Helvetica,sans-Serif" font-size="10.00">adf7030_1__VerifyPatch</text>
</a>
</g>
</g>
<!-- Node150&#45;&gt;Node152 -->
<g id="edge23" class="edge"><title>Node150&#45;&gt;Node152</title>
<path fill="none" stroke="midnightblue" d="M702.094,-48C720.155,-48 739.625,-48 757.336,-48"/>
<polygon fill="midnightblue" stroke="midnightblue" points="701.937,-44.5001 691.937,-48 701.937,-51.5001 701.937,-44.5001"/>
</g>
<!-- Node153 -->
<g id="node24" class="node"><title>Node153</title>
<g id="a_node24"><a xlink:href="group__adf7030-1____patch.html#gaf6c0681c1cf8597650889b34d1b4bd2f" target="_top" xlink:title="Function call to write patch to Radio PHY. ">
<polygon fill="white" stroke="black" points="758.5,-0.5 758.5,-19.5 878.5,-19.5 878.5,-0.5 758.5,-0.5"/>
<text text-anchor="middle" x="818.5" y="-7.5" font-family="Helvetica,sans-Serif" font-size="10.00">adf7030_1__WritePatch</text>
</a>
</g>
</g>
<!-- Node150&#45;&gt;Node153 -->
<g id="edge24" class="edge"><title>Node150&#45;&gt;Node153</title>
<path fill="none" stroke="midnightblue" d="M691.792,-36.319C717.531,-30.9301 747.699,-24.6139 772.029,-19.5201"/>
<polygon fill="midnightblue" stroke="midnightblue" points="690.871,-32.936 681.8,-38.411 692.305,-39.7874 690.871,-32.936"/>
</g>
</g>
</svg>
        <g id="navigator" transform="translate(0 0)" fill="#404254">
                <rect fill="#f2f5e9" fill-opacity="0.5" stroke="#606060" stroke-width=".5" x="0" y="0" width="60" height="60"/>
                <use id="zoomplus" xlink:href="#zoomPlus" x="17" y="9" onmousedown="handleZoom(evt,'in')"/>
                <use id="zoomminus" xlink:href="#zoomMin" x="42" y="9" onmousedown="handleZoom(evt,'out')"/>
                <use id="reset" xlink:href="#resetDef" x="30" y="36" onmousedown="handleReset()"/>
                <g id="arrowUp" xlink:href="#dirArrow" transform="translate(30 24)" onmousedown="handlePan(0,-1)">
                  <use xlink:href="#rim" fill="#404040">
                        <set attributeName="fill" to="#808080" begin="arrowUp.mouseover" end="arrowUp.mouseout"/>
                  </use>
                  <path fill="none" stroke="white" stroke-width="1.5" d="M0,-3.0v7 M-2.5,-0.5L0,-3.0L2.5,-0.5"/>
                </g>
                <g id="arrowRight" xlink:href="#dirArrow" transform="rotate(90) translate(36 -43)" onmousedown="handlePan(1,0)">
                  <use xlink:href="#rim" fill="#404040">
                        <set attributeName="fill" to="#808080" begin="arrowRight.mouseover" end="arrowRight.mouseout"/>
                  </use>
                  <path fill="none" stroke="white" stroke-width="1.5" d="M0,-3.0v7 M-2.5,-0.5L0,-3.0L2.5,-0.5"/>
                </g>
                <g id="arrowDown" xlink:href="#dirArrow" transform="rotate(180) translate(-30 -48)" onmousedown="handlePan(0,1)">
                  <use xlink:href="#rim" fill="#404040">
                        <set attributeName="fill" to="#808080" begin="arrowDown.mouseover" end="arrowDown.mouseout"/>
                  </use>
                  <path fill="none" stroke="white" stroke-width="1.5" d="M0,-3.0v7 M-2.5,-0.5L0,-3.0L2.5,-0.5"/>
                </g>
                <g id="arrowLeft" xlink:href="#dirArrow" transform="rotate(270) translate(-36 17)" onmousedown="handlePan(-1,0)">
                  <use xlink:href="#rim" fill="#404040">
                        <set attributeName="fill" to="#808080" begin="arrowLeft.mouseover" end="arrowLeft.mouseout"/>
                  </use>
                  <path fill="none" stroke="white" stroke-width="1.5" d="M0,-3.0v7 M-2.5,-0.5L0,-3.0L2.5,-0.5"/>
                </g>
        </g>
        <svg viewBox="0 0 15 15" width="100%" height="30px" preserveAspectRatio="xMaxYMin meet">
         <g id="arrow_out" transform="scale(0.3 0.3)">
          <a xlink:href="group__adf7030-1____spi_ga6f0c25120c078623d42ede30fc690999_icgraph_org.svg" target="_base">
           <rect id="button" ry="5" rx="5" y="6" x="6" height="38" width="38"
                fill="#f2f5e9" fill-opacity="0.5" stroke="#606060" stroke-width="1.0"/>
           <path id="arrow"
             d="M 11.500037,31.436501 C 11.940474,20.09759 22.043105,11.32322 32.158766,21.979434 L 37.068811,17.246167 C 37.068811,17.246167 37.088388,32 37.088388,32 L 22.160133,31.978069 C 22.160133,31.978069 26.997745,27.140456 26.997745,27.140456 C 18.528582,18.264221 13.291696,25.230495 11.500037,31.436501 z"
             style="fill:#404040;"/>
          </a>
         </g>
        </svg>
</svg>
