<?xml version="1.0" encoding="UTF-8" standalone="no"?>
<!DOCTYPE svg PUBLIC "-//W3C//DTD SVG 1.1//EN"
 "http://www.w3.org/Graphics/SVG/1.1/DTD/svg11.dtd">
<!-- Generated by graphviz version 2.38.0 (20140413.2041)
 -->
<!-- Title: adf7030_1__Setup Pages: 1 -->
<svg width="673pt" height="104pt"
 viewBox="0.00 0.00 673.00 104.00" xmlns="http://www.w3.org/2000/svg" xmlns:xlink="http://www.w3.org/1999/xlink">
<g id="graph0" class="graph" transform="scale(1 1) rotate(0) translate(4 100)">
<title>adf7030_1__Setup</title>
<polygon fill="white" stroke="none" points="-4,4 -4,-100 669,-100 669,4 -4,4"/>
<!-- Node46 -->
<g id="node1" class="node"><title>Node46</title>
<polygon fill="#bfbfbf" stroke="black" points="0,-38.5 0,-57.5 97,-57.5 97,-38.5 0,-38.5"/>
<text text-anchor="middle" x="48.5" y="-45.5" font-family="Helvetica,sans-Serif" font-size="10.00">adf7030_1__Setup</text>
</g>
<!-- Node47 -->
<g id="node2" class="node"><title>Node47</title>
<g id="a_node2"><a xlink:href="group__adf7030-1____core.html#ga4e6538b9c04bde9618f4e7b58038d9fb" target="_top" xlink:title="Initialise the Host GPIO Trigger pin to interface with the PHY Radio. ">
<polygon fill="white" stroke="black" points="133,-76.5 133,-95.5 284,-95.5 284,-76.5 133,-76.5"/>
<text text-anchor="middle" x="208.5" y="-83.5" font-family="Helvetica,sans-Serif" font-size="10.00">adf7030_1__EnableHostTrigger</text>
</a>
</g>
</g>
<!-- Node46&#45;&gt;Node47 -->
<g id="edge1" class="edge"><title>Node46&#45;&gt;Node47</title>
<path fill="none" stroke="midnightblue" d="M89.3701,-57.589C110.22,-62.6035 135.935,-68.7881 158.043,-74.1053"/>
<polygon fill="midnightblue" stroke="midnightblue" points="157.375,-77.5445 167.917,-76.4799 159.012,-70.7385 157.375,-77.5445"/>
</g>
<!-- Node48 -->
<g id="node3" class="node"><title>Node48</title>
<g id="a_node3"><a xlink:href="group__adf7030-1____irq.html#ga7a1d3e44568e67b5e5063e2c1176480d" target="_top" xlink:title="Initializes Irq handling for the adf7030&#45;1 PHY. ">
<polygon fill="white" stroke="black" points="155.5,-38.5 155.5,-57.5 261.5,-57.5 261.5,-38.5 155.5,-38.5"/>
<text text-anchor="middle" x="208.5" y="-45.5" font-family="Helvetica,sans-Serif" font-size="10.00">adf7030_1__IRQ_Init</text>
</a>
</g>
</g>
<!-- Node46&#45;&gt;Node48 -->
<g id="edge2" class="edge"><title>Node46&#45;&gt;Node48</title>
<path fill="none" stroke="midnightblue" d="M97.334,-48C112.384,-48 129.232,-48 145.137,-48"/>
<polygon fill="midnightblue" stroke="midnightblue" points="145.425,-51.5001 155.425,-48 145.425,-44.5001 145.425,-51.5001"/>
</g>
<!-- Node52 -->
<g id="node7" class="node"><title>Node52</title>
<g id="a_node7"><a xlink:href="group__adf7030-1____spi.html#ga8ed475789457b9daf82159c11c706839" target="_top" xlink:title="Initializes SPI device for communication with the adf7030&#45;1 PHY. ">
<polygon fill="white" stroke="black" points="156,-0.5 156,-19.5 261,-19.5 261,-0.5 156,-0.5"/>
<text text-anchor="middle" x="208.5" y="-7.5" font-family="Helvetica,sans-Serif" font-size="10.00">adf7030_1__SPI_Init</text>
</a>
</g>
</g>
<!-- Node46&#45;&gt;Node52 -->
<g id="edge6" class="edge"><title>Node46&#45;&gt;Node52</title>
<path fill="none" stroke="midnightblue" d="M89.3701,-38.411C110.22,-33.3965 135.935,-27.2119 158.043,-21.8947"/>
<polygon fill="midnightblue" stroke="midnightblue" points="159.012,-25.2615 167.917,-19.5201 157.375,-18.4555 159.012,-25.2615"/>
</g>
<!-- Node49 -->
<g id="node4" class="node"><title>Node49</title>
<g id="a_node4"><a xlink:href="group__adf7030-1____irq.html#gafa48327dcbba3a14ed95d3af380af037" target="_top" xlink:title="Setup the Host GPIO driver to trigger Callback on PHY interrupt. ">
<polygon fill="white" stroke="black" points="320,-76.5 320,-95.5 483,-95.5 483,-76.5 320,-76.5"/>
<text text-anchor="middle" x="401.5" y="-83.5" font-family="Helvetica,sans-Serif" font-size="10.00">adf7030_1__IRQ_SetupHostGPIO</text>
</a>
</g>
</g>
<!-- Node48&#45;&gt;Node49 -->
<g id="edge3" class="edge"><title>Node48&#45;&gt;Node49</title>
<path fill="none" stroke="midnightblue" d="M257.697,-57.589C283.47,-62.7165 315.391,-69.0672 342.512,-74.4632"/>
<polygon fill="midnightblue" stroke="midnightblue" points="342.158,-77.9613 352.649,-76.4799 343.524,-71.0959 342.158,-77.9613"/>
</g>
<!-- Node51 -->
<g id="node6" class="node"><title>Node51</title>
<g id="a_node6"><a xlink:href="group__adf7030-1____irq.html#ga5e912a6947cd8173d211c2a65992bbb5" target="_top" xlink:title="Default gpio driver Callback function for interrupt pin 0. ">
<polygon fill="white" stroke="black" points="336,-38.5 336,-57.5 467,-57.5 467,-38.5 336,-38.5"/>
<text text-anchor="middle" x="401.5" y="-45.5" font-family="Helvetica,sans-Serif" font-size="10.00">adf7030_1__IRQ_Callback</text>
</a>
</g>
</g>
<!-- Node48&#45;&gt;Node51 -->
<g id="edge5" class="edge"><title>Node48&#45;&gt;Node51</title>
<path fill="none" stroke="midnightblue" d="M261.692,-48C281.429,-48 304.298,-48 325.709,-48"/>
<polygon fill="midnightblue" stroke="midnightblue" points="325.753,-51.5001 335.753,-48 325.753,-44.5001 325.753,-51.5001"/>
</g>
<!-- Node50 -->
<g id="node5" class="node"><title>Node50</title>
<g id="a_node5"><a xlink:href="group__adf7030-1____irq.html#ga82e2b150d2b209b4946f5a7976762d48" target="_top" xlink:title="Changes GPIO Callback on PHY interrupt. ">
<polygon fill="white" stroke="black" points="519,-76.5 519,-95.5 665,-95.5 665,-76.5 519,-76.5"/>
<text text-anchor="middle" x="592" y="-83.5" font-family="Helvetica,sans-Serif" font-size="10.00">adf7030_1__IRQ_SetCallback</text>
</a>
</g>
</g>
<!-- Node49&#45;&gt;Node50 -->
<g id="edge4" class="edge"><title>Node49&#45;&gt;Node50</title>
<path fill="none" stroke="midnightblue" d="M483.261,-86C491.644,-86 500.172,-86 508.573,-86"/>
<polygon fill="midnightblue" stroke="midnightblue" points="508.739,-89.5001 518.739,-86 508.739,-82.5001 508.739,-89.5001"/>
</g>
<!-- Node53 -->
<g id="node8" class="node"><title>Node53</title>
<g id="a_node8"><a xlink:href="group__adf7030-1____spi.html#gafcc201d7c62f9f31e0356e1af0f1327a" target="_top" xlink:title="Change SPI Host to PHY Communication bitrate. ">
<polygon fill="white" stroke="black" points="334,-0.5 334,-19.5 469,-19.5 469,-0.5 334,-0.5"/>
<text text-anchor="middle" x="401.5" y="-7.5" font-family="Helvetica,sans-Serif" font-size="10.00">adf7030_1__SPI_SetSpeed</text>
</a>
</g>
</g>
<!-- Node52&#45;&gt;Node53 -->
<g id="edge7" class="edge"><title>Node52&#45;&gt;Node53</title>
<path fill="none" stroke="midnightblue" d="M261.187,-10C280.366,-10 302.554,-10 323.507,-10"/>
<polygon fill="midnightblue" stroke="midnightblue" points="323.674,-13.5001 333.674,-10 323.674,-6.5001 323.674,-13.5001"/>
</g>
</g>
</svg>
