<?xml version="1.0" encoding="UTF-8" standalone="no"?>
<!DOCTYPE svg PUBLIC "-//W3C//DTD SVG 1.1//EN"
 "http://www.w3.org/Graphics/SVG/1.1/DTD/svg11.dtd">
<!-- Generated by graphviz version 2.38.0 (20140413.2041)
 -->
<!-- Title: adf7030_1__Close Pages: 1 -->
<svg width="803pt" height="170pt"
 viewBox="0.00 0.00 803.00 170.00" xmlns="http://www.w3.org/2000/svg" xmlns:xlink="http://www.w3.org/1999/xlink">
<g id="graph0" class="graph" transform="scale(1 1) rotate(0) translate(4 166)">
<title>adf7030_1__Close</title>
<polygon fill="white" stroke="none" points="-4,4 -4,-166 799,-166 799,4 -4,4"/>
<!-- Node0 -->
<g id="node1" class="node"><title>Node0</title>
<polygon fill="#bfbfbf" stroke="black" points="0,-38.5 0,-57.5 96,-57.5 96,-38.5 0,-38.5"/>
<text text-anchor="middle" x="48" y="-45.5" font-family="Helvetica,sans-Serif" font-size="10.00">adf7030_1__Close</text>
</g>
<!-- Node1 -->
<g id="node2" class="node"><title>Node1</title>
<g id="a_node2"><a xlink:href="group__adf7030-1____core.html#ga8fc7a869a747268f0ed652ec4954a352" target="_top" xlink:title="Enable the adf7030&#45;1. ">
<polygon fill="white" stroke="black" points="140.5,-87.5 140.5,-106.5 241.5,-106.5 241.5,-87.5 140.5,-87.5"/>
<text text-anchor="middle" x="191" y="-94.5" font-family="Helvetica,sans-Serif" font-size="10.00">adf7030_1__Enable</text>
</a>
</g>
</g>
<!-- Node0&#45;&gt;Node1 -->
<g id="edge1" class="edge"><title>Node0&#45;&gt;Node1</title>
<path fill="none" stroke="midnightblue" d="M76.5209,-57.564C98.357,-65.1524 129.088,-75.8321 153.064,-84.1641"/>
<polygon fill="midnightblue" stroke="midnightblue" points="151.954,-87.4835 162.548,-87.4601 154.252,-80.8714 151.954,-87.4835"/>
</g>
<!-- Node8 -->
<g id="node9" class="node"><title>Node8</title>
<g id="a_node9"><a xlink:href="group__adf7030-1____irq.html#gaef3a200357dc830df85dcc2b521325a6" target="_top" xlink:title="Unitializes Irq handling for the adf7030&#45;1 PHY. ">
<polygon fill="white" stroke="black" points="132,-38.5 132,-57.5 250,-57.5 250,-38.5 132,-38.5"/>
<text text-anchor="middle" x="191" y="-45.5" font-family="Helvetica,sans-Serif" font-size="10.00">adf7030_1__IRQ_UnInit</text>
</a>
</g>
</g>
<!-- Node0&#45;&gt;Node8 -->
<g id="edge8" class="edge"><title>Node0&#45;&gt;Node8</title>
<path fill="none" stroke="midnightblue" d="M96.3432,-48C104.509,-48 113.14,-48 121.728,-48"/>
<polygon fill="midnightblue" stroke="midnightblue" points="121.758,-51.5001 131.758,-48 121.758,-44.5001 121.758,-51.5001"/>
</g>
<!-- Node10 -->
<g id="node11" class="node"><title>Node10</title>
<g id="a_node11"><a xlink:href="group__adf7030-1____spi.html#gabf5cec195b0fb84349fe324daa6c9c5a" target="_top" xlink:title="Uninitializes SPI device used to communication with the adf7030&#45;1 PHY. ">
<polygon fill="white" stroke="black" points="132.5,-0.5 132.5,-19.5 249.5,-19.5 249.5,-0.5 132.5,-0.5"/>
<text text-anchor="middle" x="191" y="-7.5" font-family="Helvetica,sans-Serif" font-size="10.00">adf7030_1__SPI_UnInit</text>
</a>
</g>
</g>
<!-- Node0&#45;&gt;Node10 -->
<g id="edge10" class="edge"><title>Node0&#45;&gt;Node10</title>
<path fill="none" stroke="midnightblue" d="M84.5803,-38.411C102.782,-33.5056 125.138,-27.4804 144.572,-22.2429"/>
<polygon fill="midnightblue" stroke="midnightblue" points="145.686,-25.5676 154.431,-19.5859 143.865,-18.8088 145.686,-25.5676"/>
</g>
<!-- Node2 -->
<g id="node3" class="node"><title>Node2</title>
<g id="a_node3"><a xlink:href="group__adf7030-1____core.html#ga610bc2107a2907360780fba0c49ddd80" target="_top" xlink:title="Pulse Host GPIO Reset pin. ">
<polygon fill="white" stroke="black" points="300,-142.5 300,-161.5 422,-161.5 422,-142.5 300,-142.5"/>
<text text-anchor="middle" x="361" y="-149.5" font-family="Helvetica,sans-Serif" font-size="10.00">adf7030_1__PulseReset</text>
</a>
</g>
</g>
<!-- Node1&#45;&gt;Node2 -->
<g id="edge2" class="edge"><title>Node1&#45;&gt;Node2</title>
<path fill="none" stroke="midnightblue" d="M214.917,-106.622C233.791,-114.341 261.358,-125.146 286,-133 293.553,-135.407 301.613,-137.726 309.531,-139.867"/>
<polygon fill="midnightblue" stroke="midnightblue" points="308.874,-143.313 319.435,-142.476 310.657,-136.544 308.874,-143.313"/>
</g>
<!-- Node3 -->
<g id="node4" class="node"><title>Node3</title>
<g id="a_node4"><a xlink:href="group__adf7030-1____state.html#ga80dbe4150d3c045018d716b36d54a12b" target="_top" xlink:title="Send Radio PHY Command and wait util PHY has transition to new state. ">
<polygon fill="white" stroke="black" points="288,-93 288,-123 434,-123 434,-93 288,-93"/>
<text text-anchor="start" x="296" y="-111" font-family="Helvetica,sans-Serif" font-size="10.00">adf7030_1__STATE_PhyCMD</text>
<text text-anchor="middle" x="361" y="-100" font-family="Helvetica,sans-Serif" font-size="10.00">_WaitReady</text>
</a>
</g>
</g>
<!-- Node1&#45;&gt;Node3 -->
<g id="edge3" class="edge"><title>Node1&#45;&gt;Node3</title>
<path fill="none" stroke="midnightblue" d="M241.951,-100.271C253.21,-101.008 265.451,-101.809 277.646,-102.608"/>
<polygon fill="midnightblue" stroke="midnightblue" points="277.65,-106.115 287.857,-103.276 278.107,-99.1304 277.65,-106.115"/>
</g>
<!-- Node6 -->
<g id="node7" class="node"><title>Node6</title>
<g id="a_node7"><a xlink:href="group__adf7030-1____cfg.html#ga79c8a4795fbb0bc9040e6ebe0a723df7" target="_top" xlink:title="ADI Radio Configuration transfer function. ">
<polygon fill="white" stroke="black" points="286,-54.5 286,-73.5 436,-73.5 436,-54.5 286,-54.5"/>
<text text-anchor="middle" x="361" y="-61.5" font-family="Helvetica,sans-Serif" font-size="10.00">adf7030_1__SendConfiguration</text>
</a>
</g>
</g>
<!-- Node1&#45;&gt;Node6 -->
<g id="edge6" class="edge"><title>Node1&#45;&gt;Node6</title>
<path fill="none" stroke="midnightblue" d="M240.593,-87.455C259.66,-83.7097 281.707,-79.3791 301.627,-75.4662"/>
<polygon fill="midnightblue" stroke="midnightblue" points="302.379,-78.8854 311.517,-73.5235 301.03,-72.0167 302.379,-78.8854"/>
</g>
<!-- Node4 -->
<g id="node5" class="node"><title>Node4</title>
<g id="a_node5"><a xlink:href="group__adf7030-1____state.html#ga47915136f3871f6ad931de81fa60b378" target="_top" xlink:title="Generic Radio PHY Command Transfers. ">
<polygon fill="white" stroke="black" points="472,-98.5 472,-117.5 596,-117.5 596,-98.5 472,-98.5"/>
<text text-anchor="middle" x="534" y="-105.5" font-family="Helvetica,sans-Serif" font-size="10.00">adf7030_1__XferCmdPoll</text>
</a>
</g>
</g>
<!-- Node3&#45;&gt;Node4 -->
<g id="edge4" class="edge"><title>Node3&#45;&gt;Node4</title>
<path fill="none" stroke="midnightblue" d="M434.024,-108C443.176,-108 452.539,-108 461.679,-108"/>
<polygon fill="midnightblue" stroke="midnightblue" points="461.882,-111.5 471.882,-108 461.882,-104.5 461.882,-111.5"/>
</g>
<!-- Node5 -->
<g id="node6" class="node"><title>Node5</title>
<g id="a_node6"><a xlink:href="group__adf7030-1____spi.html#gae598c37af797c9fb49fecd0e62b1bf77" target="_top" xlink:title="Custom FAST API for Read/Write a number of byte(s) to the adf7030&#45;1. ">
<polygon fill="white" stroke="black" points="632,-98.5 632,-117.5 795,-117.5 795,-98.5 632,-98.5"/>
<text text-anchor="middle" x="713.5" y="-105.5" font-family="Helvetica,sans-Serif" font-size="10.00">adf7030_1__SPI_ReadWrite_Fast</text>
</a>
</g>
</g>
<!-- Node4&#45;&gt;Node5 -->
<g id="edge5" class="edge"><title>Node4&#45;&gt;Node5</title>
<path fill="none" stroke="midnightblue" d="M596.085,-108C604.374,-108 613.021,-108 621.694,-108"/>
<polygon fill="midnightblue" stroke="midnightblue" points="621.867,-111.5 631.867,-108 621.867,-104.5 621.867,-111.5"/>
</g>
<!-- Node7 -->
<g id="node8" class="node"><title>Node7</title>
<g id="a_node8"><a xlink:href="group__adf7030-1____cfg.html#ga1be70867cf669ddf6ef38924c2893d6c" target="_top" xlink:title="ADI Radio SPI sequence configuration transfer. ">
<polygon fill="white" stroke="black" points="474.5,-54.5 474.5,-73.5 593.5,-73.5 593.5,-54.5 474.5,-54.5"/>
<text text-anchor="middle" x="534" y="-61.5" font-family="Helvetica,sans-Serif" font-size="10.00">adf7030_1__XferCfgSeq</text>
</a>
</g>
</g>
<!-- Node6&#45;&gt;Node7 -->
<g id="edge7" class="edge"><title>Node6&#45;&gt;Node7</title>
<path fill="none" stroke="midnightblue" d="M436.009,-64C445.321,-64 454.819,-64 464.049,-64"/>
<polygon fill="midnightblue" stroke="midnightblue" points="464.333,-67.5001 474.333,-64 464.333,-60.5001 464.333,-67.5001"/>
</g>
<!-- Node9 -->
<g id="node10" class="node"><title>Node9</title>
<g id="a_node10"><a xlink:href="group__adf7030-1____irq.html#ga82e2b150d2b209b4946f5a7976762d48" target="_top" xlink:title="Changes GPIO Callback on PHY interrupt. ">
<polygon fill="white" stroke="black" points="288,-16.5 288,-35.5 434,-35.5 434,-16.5 288,-16.5"/>
<text text-anchor="middle" x="361" y="-23.5" font-family="Helvetica,sans-Serif" font-size="10.00">adf7030_1__IRQ_SetCallback</text>
</a>
</g>
</g>
<!-- Node8&#45;&gt;Node9 -->
<g id="edge9" class="edge"><title>Node8&#45;&gt;Node9</title>
<path fill="none" stroke="midnightblue" d="M250.287,-40.3672C259.195,-39.2006 268.531,-37.9781 277.836,-36.7596"/>
<polygon fill="midnightblue" stroke="midnightblue" points="278.439,-40.2106 287.9,-35.4417 277.53,-33.2698 278.439,-40.2106"/>
</g>
</g>
</svg>
