<?xml version="1.0" encoding="UTF-8" standalone="no"?>
<!DOCTYPE svg PUBLIC "-//W3C//DTD SVG 1.1//EN"
 "http://www.w3.org/Graphics/SVG/1.1/DTD/svg11.dtd">
<!-- Generated by graphviz version 2.38.0 (20140413.2041)
 -->
<!-- Title: adf7030_1__SPI_SetBytes Pages: 1 -->
<svg width="665pt" height="218pt"
 viewBox="0.00 0.00 665.00 218.00" xmlns="http://www.w3.org/2000/svg" xmlns:xlink="http://www.w3.org/1999/xlink">
<g id="graph0" class="graph" transform="scale(1 1) rotate(0) translate(4 214)">
<title>adf7030_1__SPI_SetBytes</title>
<polygon fill="white" stroke="none" points="-4,4 -4,-214 661,-214 661,4 -4,4"/>
<!-- Node64 -->
<g id="node1" class="node"><title>Node64</title>
<polygon fill="#bfbfbf" stroke="black" points="0,-95.5 0,-114.5 133,-114.5 133,-95.5 0,-95.5"/>
<text text-anchor="middle" x="66.5" y="-102.5" font-family="Helvetica,sans-Serif" font-size="10.00">adf7030_1__SPI_SetBytes</text>
</g>
<!-- Node65 -->
<g id="node2" class="node"><title>Node65</title>
<g id="a_node2"><a xlink:href="group__adf7030-1____irq.html#ga50f543aaabdfb310c0c49fbc943bf9a8" target="_top" xlink:title="Configures the PHY interrupt source mask register. ">
<polygon fill="white" stroke="black" points="175.5,-190.5 175.5,-209.5 302.5,-209.5 302.5,-190.5 175.5,-190.5"/>
<text text-anchor="middle" x="239" y="-197.5" font-family="Helvetica,sans-Serif" font-size="10.00">adf7030_1__IRQ_SetMap</text>
</a>
</g>
</g>
<!-- Node64&#45;&gt;Node65 -->
<g id="edge1" class="edge"><title>Node64&#45;&gt;Node65</title>
<path fill="none" stroke="midnightblue" d="M85.2339,-121.584C104.482,-138.749 136.8,-165.218 169,-181 176.698,-184.773 185.259,-187.893 193.659,-190.437"/>
<polygon fill="midnightblue" stroke="midnightblue" points="87.345,-118.773 77.59,-114.639 82.6379,-123.954 87.345,-118.773"/>
</g>
<!-- Node66 -->
<g id="node3" class="node"><title>Node66</title>
<g id="a_node3"><a xlink:href="group__adf7030-1____mem.html#gabd27b8e9b962f82fbd947b43e1fb6bad" target="_top" xlink:title="Generic setting of a Radio PHY bitfield to a value via the SPI. ">
<polygon fill="white" stroke="black" points="175,-152.5 175,-171.5 303,-171.5 303,-152.5 175,-152.5"/>
<text text-anchor="middle" x="239" y="-159.5" font-family="Helvetica,sans-Serif" font-size="10.00">adf7030_1__SPI_SetField</text>
</a>
</g>
</g>
<!-- Node64&#45;&gt;Node66 -->
<g id="edge2" class="edge"><title>Node64&#45;&gt;Node66</title>
<path fill="none" stroke="midnightblue" d="M100.527,-118.22C120.248,-125.899 145.879,-135.505 169,-143 179.283,-146.333 190.546,-149.595 200.935,-152.45"/>
<polygon fill="midnightblue" stroke="midnightblue" points="101.666,-114.907 91.0781,-114.512 99.1087,-121.423 101.666,-114.907"/>
</g>
<!-- Node70 -->
<g id="node7" class="node"><title>Node70</title>
<g id="a_node7"><a xlink:href="group__adf7030-1____mem.html#ga1aa00985deee8fa75dbb18305651d8f0" target="_top" xlink:title="Write a single 16bits memory location via the SPI. ">
<polygon fill="white" stroke="black" points="169,-114.5 169,-133.5 309,-133.5 309,-114.5 169,-114.5"/>
<text text-anchor="middle" x="239" y="-121.5" font-family="Helvetica,sans-Serif" font-size="10.00">adf7030_1__SPI_SetMem16</text>
</a>
</g>
</g>
<!-- Node64&#45;&gt;Node70 -->
<g id="edge7" class="edge"><title>Node64&#45;&gt;Node70</title>
<path fill="none" stroke="midnightblue" d="M143.601,-113.48C152.015,-114.418 160.549,-115.369 168.87,-116.296"/>
<polygon fill="midnightblue" stroke="midnightblue" points="143.746,-109.975 133.42,-112.346 142.971,-116.932 143.746,-109.975"/>
</g>
<!-- Node71 -->
<g id="node8" class="node"><title>Node71</title>
<g id="a_node8"><a xlink:href="group__adf7030-1____mem.html#ga7a987f30343ac3ce77ef5a441dc5f182" target="_top" xlink:title="Write a single 24bits memory location via the SPI. ">
<polygon fill="white" stroke="black" points="169,-76.5 169,-95.5 309,-95.5 309,-76.5 169,-76.5"/>
<text text-anchor="middle" x="239" y="-83.5" font-family="Helvetica,sans-Serif" font-size="10.00">adf7030_1__SPI_SetMem24</text>
</a>
</g>
</g>
<!-- Node64&#45;&gt;Node71 -->
<g id="edge8" class="edge"><title>Node64&#45;&gt;Node71</title>
<path fill="none" stroke="midnightblue" d="M143.601,-96.5196C152.015,-95.582 160.549,-94.6309 168.87,-93.7036"/>
<polygon fill="midnightblue" stroke="midnightblue" points="142.971,-93.068 133.42,-97.6541 143.746,-100.025 142.971,-93.068"/>
</g>
<!-- Node72 -->
<g id="node9" class="node"><title>Node72</title>
<g id="a_node9"><a xlink:href="group__adf7030-1____mem.html#ga5e53a55534a1aada085fb548ba2340d3" target="_top" xlink:title="Write a single 32bits memory location via the SPI. ">
<polygon fill="white" stroke="black" points="169,-38.5 169,-57.5 309,-57.5 309,-38.5 169,-38.5"/>
<text text-anchor="middle" x="239" y="-45.5" font-family="Helvetica,sans-Serif" font-size="10.00">adf7030_1__SPI_SetMem32</text>
</a>
</g>
</g>
<!-- Node64&#45;&gt;Node72 -->
<g id="edge9" class="edge"><title>Node64&#45;&gt;Node72</title>
<path fill="none" stroke="midnightblue" d="M100.527,-91.7801C120.248,-84.1014 145.879,-74.4949 169,-67 179.283,-63.6667 190.546,-60.4046 200.935,-57.5504"/>
<polygon fill="midnightblue" stroke="midnightblue" points="99.1087,-88.5767 91.0781,-95.4876 101.666,-95.0931 99.1087,-88.5767"/>
</g>
<!-- Node75 -->
<g id="node12" class="node"><title>Node75</title>
<g id="a_node12"><a xlink:href="group__adf7030-1____mem.html#ga69d049910ccb28f3e8bbd856f97ad6f6" target="_top" xlink:title="Write a single 8bits memory location via the SPI. ">
<polygon fill="white" stroke="black" points="172,-0.5 172,-19.5 306,-19.5 306,-0.5 172,-0.5"/>
<text text-anchor="middle" x="239" y="-7.5" font-family="Helvetica,sans-Serif" font-size="10.00">adf7030_1__SPI_SetMem8</text>
</a>
</g>
</g>
<!-- Node64&#45;&gt;Node75 -->
<g id="edge12" class="edge"><title>Node64&#45;&gt;Node75</title>
<path fill="none" stroke="midnightblue" d="M85.2339,-88.4165C104.482,-71.2507 136.8,-44.7817 169,-29 176.698,-25.2269 185.259,-22.1075 193.659,-19.5634"/>
<polygon fill="midnightblue" stroke="midnightblue" points="82.6379,-86.0462 77.59,-95.3612 87.345,-91.2272 82.6379,-86.0462"/>
</g>
<!-- Node67 -->
<g id="node4" class="node"><title>Node67</title>
<g id="a_node4"><a xlink:href="group__adf7030-1____core.html#gacc594fe578d3493100c338ffbd11ff53" target="_top" xlink:title="Setup PHY gpio to for external trigger command. ">
<polygon fill="white" stroke="black" points="512.5,-171.5 512.5,-190.5 655.5,-190.5 655.5,-171.5 512.5,-171.5"/>
<text text-anchor="middle" x="584" y="-178.5" font-family="Helvetica,sans-Serif" font-size="10.00">adf7030_1__SetupPhyTrigger</text>
</a>
</g>
</g>
<!-- Node66&#45;&gt;Node67 -->
<g id="edge3" class="edge"><title>Node66&#45;&gt;Node67</title>
<path fill="none" stroke="midnightblue" d="M313.646,-166.08C372.464,-169.338 454.361,-173.874 512.37,-177.088"/>
<polygon fill="midnightblue" stroke="midnightblue" points="313.49,-162.566 303.311,-165.507 313.102,-169.555 313.49,-162.566"/>
</g>
<!-- Node68 -->
<g id="node5" class="node"><title>Node68</title>
<g id="a_node5"><a xlink:href="group__adf7030-1____gpio.html#gac3150c08d65f94ec1837e879e577c4e6" target="_top" xlink:title="Setup individual GPIO configuration on the PHY Radio. ">
<polygon fill="white" stroke="black" points="345,-133.5 345,-152.5 475,-152.5 475,-133.5 345,-133.5"/>
<text text-anchor="middle" x="410" y="-140.5" font-family="Helvetica,sans-Serif" font-size="10.00">adf7030_1__GPIO_SetCfg</text>
</a>
</g>
</g>
<!-- Node66&#45;&gt;Node68 -->
<g id="edge4" class="edge"><title>Node66&#45;&gt;Node68</title>
<path fill="none" stroke="midnightblue" d="M313.392,-153.749C323.901,-152.567 334.643,-151.36 344.953,-150.201"/>
<polygon fill="midnightblue" stroke="midnightblue" points="312.957,-150.276 303.41,-154.871 313.739,-157.232 312.957,-150.276"/>
</g>
<!-- Node68&#45;&gt;Node67 -->
<g id="edge6" class="edge"><title>Node68&#45;&gt;Node67</title>
<path fill="none" stroke="midnightblue" d="M464.196,-154.753C488.517,-160.126 516.955,-166.409 539.909,-171.48"/>
<polygon fill="midnightblue" stroke="midnightblue" points="464.922,-151.329 454.403,-152.589 463.412,-158.164 464.922,-151.329"/>
</g>
<!-- Node69 -->
<g id="node6" class="node"><title>Node69</title>
<g id="a_node6"><a xlink:href="group__adf7030-1____irq.html#gac21dfc3398c0190f1d1fe74e3adbcd48" target="_top" xlink:title="Setup PHY Radio GPIO irq. ">
<polygon fill="white" stroke="black" points="511,-133.5 511,-152.5 657,-152.5 657,-133.5 511,-133.5"/>
<text text-anchor="middle" x="584" y="-140.5" font-family="Helvetica,sans-Serif" font-size="10.00">adf7030_1__IRQ_SetGPIOPin</text>
</a>
</g>
</g>
<!-- Node68&#45;&gt;Node69 -->
<g id="edge5" class="edge"><title>Node68&#45;&gt;Node69</title>
<path fill="none" stroke="midnightblue" d="M485.273,-143C493.739,-143 502.358,-143 510.796,-143"/>
<polygon fill="midnightblue" stroke="midnightblue" points="485.046,-139.5 475.046,-143 485.046,-146.5 485.046,-139.5"/>
</g>
<!-- Node73 -->
<g id="node10" class="node"><title>Node73</title>
<g id="a_node10"><a xlink:href="group__adf7030-1____gpio.html#ga45684a37c5d2439635217804413ffe62" target="_top" xlink:title="Set an individual PHY Radio GPIO pin to 1. ">
<polygon fill="white" stroke="black" points="345,-57.5 345,-76.5 475,-76.5 475,-57.5 345,-57.5"/>
<text text-anchor="middle" x="410" y="-64.5" font-family="Helvetica,sans-Serif" font-size="10.00">adf7030_1__GPIO_SetPin</text>
</a>
</g>
</g>
<!-- Node72&#45;&gt;Node73 -->
<g id="edge10" class="edge"><title>Node72&#45;&gt;Node73</title>
<path fill="none" stroke="midnightblue" d="M319.224,-56.9068C327.787,-57.8695 336.422,-58.8403 344.776,-59.7796"/>
<polygon fill="midnightblue" stroke="midnightblue" points="319.555,-53.4221 309.226,-55.7828 318.773,-60.3782 319.555,-53.4221"/>
</g>
<!-- Node74 -->
<g id="node11" class="node"><title>Node74</title>
<g id="a_node11"><a xlink:href="group__adf7030-1____gpio.html#ga449cbea7e06ed580204e2fa4ffa26179" target="_top" xlink:title="Clear an individual PHY Radio GPIO pin to 0. ">
<polygon fill="white" stroke="black" points="346.5,-19.5 346.5,-38.5 473.5,-38.5 473.5,-19.5 346.5,-19.5"/>
<text text-anchor="middle" x="410" y="-26.5" font-family="Helvetica,sans-Serif" font-size="10.00">adf7030_1__GPIO_ClrPin</text>
</a>
</g>
</g>
<!-- Node72&#45;&gt;Node74 -->
<g id="edge11" class="edge"><title>Node72&#45;&gt;Node74</title>
<path fill="none" stroke="midnightblue" d="M319.399,-39.0735C328.459,-38.055 337.596,-37.0276 346.394,-36.0385"/>
<polygon fill="midnightblue" stroke="midnightblue" points="318.773,-35.6218 309.226,-40.2172 319.555,-42.5779 318.773,-35.6218"/>
</g>
</g>
</svg>
