<?xml version="1.0" encoding="UTF-8" standalone="no"?>
<!DOCTYPE svg PUBLIC "-//W3C//DTD SVG 1.1//EN"
 "http://www.w3.org/Graphics/SVG/1.1/DTD/svg11.dtd">
<!-- Generated by graphviz version 2.38.0 (20140413.2041)
 -->
<!-- Title: adf7030_1__WritePatchBlock Pages: 1 -->
<svg width="716pt" height="127pt"
 viewBox="0.00 0.00 716.00 126.50" xmlns="http://www.w3.org/2000/svg" xmlns:xlink="http://www.w3.org/1999/xlink">
<g id="graph0" class="graph" transform="scale(1 1) rotate(0) translate(4 122.5)">
<title>adf7030_1__WritePatchBlock</title>
<polygon fill="white" stroke="none" points="-4,4 -4,-122.5 712,-122.5 712,4 -4,4"/>
<!-- Node51 -->
<g id="node1" class="node"><title>Node51</title>
<polygon fill="#bfbfbf" stroke="black" points="0,-55 0,-74 145,-74 145,-55 0,-55"/>
<text text-anchor="middle" x="72.5" y="-62" font-family="Helvetica,sans-Serif" font-size="10.00">adf7030_1__WritePatchBlock</text>
</g>
<!-- Node52 -->
<g id="node2" class="node"><title>Node52</title>
<g id="a_node2"><a xlink:href="group__adf7030-1____patch.html#ga71c53aa1ca866512fbfaa5d99a3181e8" target="_top" xlink:title="Generic Patch Section transfer function between Host and the Radio PHY. ">
<polygon fill="white" stroke="black" points="181,-55 181,-74 318,-74 318,-55 181,-55"/>
<text text-anchor="middle" x="249.5" y="-62" font-family="Helvetica,sans-Serif" font-size="10.00">adf7030_1__XferPatchBlock</text>
</a>
</g>
</g>
<!-- Node51&#45;&gt;Node52 -->
<g id="edge1" class="edge"><title>Node51&#45;&gt;Node52</title>
<path fill="none" stroke="midnightblue" d="M145.184,-64.5C153.572,-64.5 162.161,-64.5 170.629,-64.5"/>
<polygon fill="midnightblue" stroke="midnightblue" points="170.875,-68.0001 180.875,-64.5 170.875,-61.0001 170.875,-68.0001"/>
</g>
<!-- Node53 -->
<g id="node3" class="node"><title>Node53</title>
<g id="a_node3"><a xlink:href="group__adf7030-1____spi.html#ga7c54fff20ff0def7f7a3b9d7036f9cda" target="_top" xlink:title="This function return the best Pointer id + offset for subsequent SPI transfert to the PHY &quot;Addr&quot; prov...">
<polygon fill="white" stroke="black" points="354,-99 354,-118 523,-118 523,-99 354,-99"/>
<text text-anchor="middle" x="438.5" y="-106" font-family="Helvetica,sans-Serif" font-size="10.00">adf7030_1__SPI_FindMMapPointer</text>
</a>
</g>
</g>
<!-- Node52&#45;&gt;Node53 -->
<g id="edge2" class="edge"><title>Node52&#45;&gt;Node53</title>
<path fill="none" stroke="midnightblue" d="M289.298,-74.0006C308.713,-78.7219 332.583,-84.4771 354,-89.5 364.091,-91.8668 374.879,-94.3536 385.236,-96.7196"/>
<polygon fill="midnightblue" stroke="midnightblue" points="384.469,-100.134 394.996,-98.9431 386.023,-93.3093 384.469,-100.134"/>
</g>
<!-- Node54 -->
<g id="node4" class="node"><title>Node54</title>
<g id="a_node4"><a xlink:href="group__adf7030-1____spi.html#ga87f62777c793d805dac75887f167b2bf" target="_top" xlink:title="Change the SPI Radio mmap custom pointers 0 location. ">
<polygon fill="white" stroke="black" points="354.5,-49.5 354.5,-79.5 522.5,-79.5 522.5,-49.5 354.5,-49.5"/>
<text text-anchor="start" x="362.5" y="-67.5" font-family="Helvetica,sans-Serif" font-size="10.00">adf7030_1__SPI_SetMMapCustom</text>
<text text-anchor="middle" x="438.5" y="-56.5" font-family="Helvetica,sans-Serif" font-size="10.00">Pntr0</text>
</a>
</g>
</g>
<!-- Node52&#45;&gt;Node54 -->
<g id="edge3" class="edge"><title>Node52&#45;&gt;Node54</title>
<path fill="none" stroke="midnightblue" d="M318.011,-64.5C326.601,-64.5 335.508,-64.5 344.41,-64.5"/>
<polygon fill="midnightblue" stroke="midnightblue" points="344.441,-68.0001 354.441,-64.5 344.441,-61.0001 344.441,-68.0001"/>
</g>
<!-- Node56 -->
<g id="node6" class="node"><title>Node56</title>
<g id="a_node6"><a xlink:href="group__adf7030-1____spi.html#ga0b334362c3e1aeb752f58c60a263a9cf" target="_top" xlink:title="Read &amp; Compare a number of bytes(s) from memory of the adf7030&#45;1 to Host starting at location pointed...">
<polygon fill="white" stroke="black" points="376,-0.5 376,-30.5 501,-30.5 501,-0.5 376,-0.5"/>
<text text-anchor="start" x="384" y="-18.5" font-family="Helvetica,sans-Serif" font-size="10.00">adf7030_1__SPI_rd_cmp</text>
<text text-anchor="middle" x="438.5" y="-7.5" font-family="Helvetica,sans-Serif" font-size="10.00">_byte_p_a</text>
</a>
</g>
</g>
<!-- Node52&#45;&gt;Node56 -->
<g id="edge5" class="edge"><title>Node52&#45;&gt;Node56</title>
<path fill="none" stroke="midnightblue" d="M286.999,-54.936C310.674,-48.7324 342.233,-40.4629 370.336,-33.099"/>
<polygon fill="midnightblue" stroke="midnightblue" points="371.328,-36.4575 380.114,-30.537 369.553,-29.6861 371.328,-36.4575"/>
</g>
<!-- Node55 -->
<g id="node5" class="node"><title>Node55</title>
<g id="a_node5"><a xlink:href="group__adf7030-1____spi.html#ga6f0c25120c078623d42ede30fc690999" target="_top" xlink:title="Write a number of word(s) from Host to memory of the adf7030&#45;1 starting at location pointed by &quot;pntr&quot;...">
<polygon fill="white" stroke="black" points="559,-55 559,-74 708,-74 708,-55 559,-55"/>
<text text-anchor="middle" x="633.5" y="-62" font-family="Helvetica,sans-Serif" font-size="10.00">adf7030_1__SPI_wr_word_b_p</text>
</a>
</g>
</g>
<!-- Node54&#45;&gt;Node55 -->
<g id="edge4" class="edge"><title>Node54&#45;&gt;Node55</title>
<path fill="none" stroke="midnightblue" d="M522.75,-64.5C531.402,-64.5 540.2,-64.5 548.857,-64.5"/>
<polygon fill="midnightblue" stroke="midnightblue" points="548.938,-68.0001 558.938,-64.5 548.938,-61.0001 548.938,-68.0001"/>
</g>
</g>
</svg>
