<?xml version="1.0" encoding="UTF-8" standalone="no"?>
<!DOCTYPE svg PUBLIC "-//W3C//DTD SVG 1.1//EN"
 "http://www.w3.org/Graphics/SVG/1.1/DTD/svg11.dtd">
<!-- Generated by graphviz version 2.38.0 (20140413.2041)
 -->
<!-- Title: adf7030_1__ReadConfig Pages: 1 -->
<svg width="837pt" height="127pt"
 viewBox="0.00 0.00 837.00 126.50" xmlns="http://www.w3.org/2000/svg" xmlns:xlink="http://www.w3.org/1999/xlink">
<g id="graph0" class="graph" transform="scale(1 1) rotate(0) translate(4 122.5)">
<title>adf7030_1__ReadConfig</title>
<polygon fill="white" stroke="none" points="-4,4 -4,-122.5 833,-122.5 833,4 -4,4"/>
<!-- Node6 -->
<g id="node1" class="node"><title>Node6</title>
<polygon fill="#bfbfbf" stroke="black" points="0,-55 0,-74 121,-74 121,-55 0,-55"/>
<text text-anchor="middle" x="60.5" y="-62" font-family="Helvetica,sans-Serif" font-size="10.00">adf7030_1__ReadConfig</text>
</g>
<!-- Node7 -->
<g id="node2" class="node"><title>Node7</title>
<g id="a_node2"><a xlink:href="group__adf7030-1____mem.html#gae8fab7f4a9d7bc3432f2b85b789510e1" target="_top" xlink:title="Generic Configuration transfers function between Host and the Radio PHY. ">
<polygon fill="white" stroke="black" points="157,-55 157,-74 271,-74 271,-55 157,-55"/>
<text text-anchor="middle" x="214" y="-62" font-family="Helvetica,sans-Serif" font-size="10.00">adf7030_1__XferConfig</text>
</a>
</g>
</g>
<!-- Node6&#45;&gt;Node7 -->
<g id="edge1" class="edge"><title>Node6&#45;&gt;Node7</title>
<path fill="none" stroke="midnightblue" d="M121.377,-64.5C129.609,-64.5 138.103,-64.5 146.446,-64.5"/>
<polygon fill="midnightblue" stroke="midnightblue" points="146.52,-68.0001 156.52,-64.5 146.52,-61.0001 146.52,-68.0001"/>
</g>
<!-- Node8 -->
<g id="node3" class="node"><title>Node8</title>
<g id="a_node3"><a xlink:href="group__adf7030-1____mem.html#ga1ca676315976719ad485f1a4772e876d" target="_top" xlink:title="Generic Data block transfers function between Host and the Radio PHY. ">
<polygon fill="white" stroke="black" points="307,-55 307,-74 439,-74 439,-55 307,-55"/>
<text text-anchor="middle" x="373" y="-62" font-family="Helvetica,sans-Serif" font-size="10.00">adf7030_1__XferDataBlock</text>
</a>
</g>
</g>
<!-- Node7&#45;&gt;Node8 -->
<g id="edge2" class="edge"><title>Node7&#45;&gt;Node8</title>
<path fill="none" stroke="midnightblue" d="M271.237,-64.5C279.522,-64.5 288.167,-64.5 296.76,-64.5"/>
<polygon fill="midnightblue" stroke="midnightblue" points="296.799,-68.0001 306.799,-64.5 296.799,-61.0001 296.799,-68.0001"/>
</g>
<!-- Node9 -->
<g id="node4" class="node"><title>Node9</title>
<g id="a_node4"><a xlink:href="group__adf7030-1____spi.html#ga7c54fff20ff0def7f7a3b9d7036f9cda" target="_top" xlink:title="This function return the best Pointer id + offset for subsequent SPI transfert to the PHY &quot;Addr&quot; prov...">
<polygon fill="white" stroke="black" points="475,-99 475,-118 644,-118 644,-99 475,-99"/>
<text text-anchor="middle" x="559.5" y="-106" font-family="Helvetica,sans-Serif" font-size="10.00">adf7030_1__SPI_FindMMapPointer</text>
</a>
</g>
</g>
<!-- Node8&#45;&gt;Node9 -->
<g id="edge3" class="edge"><title>Node8&#45;&gt;Node9</title>
<path fill="none" stroke="midnightblue" d="M411.848,-74.0483C430.791,-78.7813 454.086,-84.5326 475,-89.5 485.085,-91.8952 495.869,-94.395 506.225,-96.7648"/>
<polygon fill="midnightblue" stroke="midnightblue" points="505.458,-100.18 515.985,-98.9893 507.013,-93.3546 505.458,-100.18"/>
</g>
<!-- Node10 -->
<g id="node5" class="node"><title>Node10</title>
<g id="a_node5"><a xlink:href="group__adf7030-1____spi.html#ga87f62777c793d805dac75887f167b2bf" target="_top" xlink:title="Change the SPI Radio mmap custom pointers 0 location. ">
<polygon fill="white" stroke="black" points="475.5,-49.5 475.5,-79.5 643.5,-79.5 643.5,-49.5 475.5,-49.5"/>
<text text-anchor="start" x="483.5" y="-67.5" font-family="Helvetica,sans-Serif" font-size="10.00">adf7030_1__SPI_SetMMapCustom</text>
<text text-anchor="middle" x="559.5" y="-56.5" font-family="Helvetica,sans-Serif" font-size="10.00">Pntr0</text>
</a>
</g>
</g>
<!-- Node8&#45;&gt;Node10 -->
<g id="edge4" class="edge"><title>Node8&#45;&gt;Node10</title>
<path fill="none" stroke="midnightblue" d="M439.048,-64.5C447.566,-64.5 456.423,-64.5 465.293,-64.5"/>
<polygon fill="midnightblue" stroke="midnightblue" points="465.294,-68.0001 475.294,-64.5 465.294,-61.0001 465.294,-68.0001"/>
</g>
<!-- Node12 -->
<g id="node7" class="node"><title>Node12</title>
<g id="a_node7"><a xlink:href="group__adf7030-1____spi.html#ga0b334362c3e1aeb752f58c60a263a9cf" target="_top" xlink:title="Read &amp; Compare a number of bytes(s) from memory of the adf7030&#45;1 to Host starting at location pointed...">
<polygon fill="white" stroke="black" points="497,-0.5 497,-30.5 622,-30.5 622,-0.5 497,-0.5"/>
<text text-anchor="start" x="505" y="-18.5" font-family="Helvetica,sans-Serif" font-size="10.00">adf7030_1__SPI_rd_cmp</text>
<text text-anchor="middle" x="559.5" y="-7.5" font-family="Helvetica,sans-Serif" font-size="10.00">_byte_p_a</text>
</a>
</g>
</g>
<!-- Node8&#45;&gt;Node12 -->
<g id="edge6" class="edge"><title>Node8&#45;&gt;Node12</title>
<path fill="none" stroke="midnightblue" d="M410.011,-54.936C433.268,-48.7595 464.235,-40.5351 491.871,-33.1955"/>
<polygon fill="midnightblue" stroke="midnightblue" points="493.115,-36.4866 501.881,-30.537 491.318,-29.7211 493.115,-36.4866"/>
</g>
<!-- Node11 -->
<g id="node6" class="node"><title>Node11</title>
<g id="a_node6"><a xlink:href="group__adf7030-1____spi.html#ga6f0c25120c078623d42ede30fc690999" target="_top" xlink:title="Write a number of word(s) from Host to memory of the adf7030&#45;1 starting at location pointed by &quot;pntr&quot;...">
<polygon fill="white" stroke="black" points="680,-55 680,-74 829,-74 829,-55 680,-55"/>
<text text-anchor="middle" x="754.5" y="-62" font-family="Helvetica,sans-Serif" font-size="10.00">adf7030_1__SPI_wr_word_b_p</text>
</a>
</g>
</g>
<!-- Node10&#45;&gt;Node11 -->
<g id="edge5" class="edge"><title>Node10&#45;&gt;Node11</title>
<path fill="none" stroke="midnightblue" d="M643.75,-64.5C652.402,-64.5 661.2,-64.5 669.857,-64.5"/>
<polygon fill="midnightblue" stroke="midnightblue" points="669.938,-68.0001 679.938,-64.5 669.938,-61.0001 669.938,-68.0001"/>
</g>
</g>
</svg>
