<?xml version="1.0" encoding="UTF-8" standalone="no"?>
<!DOCTYPE svg PUBLIC "-//W3C//DTD SVG 1.1//EN"
 "http://www.w3.org/Graphics/SVG/1.1/DTD/svg11.dtd">
<!-- Generated by graphviz version 2.38.0 (20140413.2041)
 -->
<!-- Title: adf7030_1__WritePartialDataBlock Pages: 1 -->
<svg width="709pt" height="127pt"
 viewBox="0.00 0.00 709.00 126.50" xmlns="http://www.w3.org/2000/svg" xmlns:xlink="http://www.w3.org/1999/xlink">
<g id="graph0" class="graph" transform="scale(1 1) rotate(0) translate(4 122.5)">
<title>adf7030_1__WritePartialDataBlock</title>
<polygon fill="white" stroke="none" points="-4,4 -4,-122.5 705,-122.5 705,4 -4,4"/>
<!-- Node138 -->
<g id="node1" class="node"><title>Node138</title>
<polygon fill="#bfbfbf" stroke="black" points="0,-49.5 0,-79.5 143,-79.5 143,-49.5 0,-49.5"/>
<text text-anchor="start" x="8" y="-67.5" font-family="Helvetica,sans-Serif" font-size="10.00">adf7030_1__WritePartialData</text>
<text text-anchor="middle" x="71.5" y="-56.5" font-family="Helvetica,sans-Serif" font-size="10.00">Block</text>
</g>
<!-- Node139 -->
<g id="node2" class="node"><title>Node139</title>
<g id="a_node2"><a xlink:href="group__adf7030-1____mem.html#ga1ca676315976719ad485f1a4772e876d" target="_top" xlink:title="Generic Data block transfers function between Host and the Radio PHY. ">
<polygon fill="white" stroke="black" points="179,-55 179,-74 311,-74 311,-55 179,-55"/>
<text text-anchor="middle" x="245" y="-62" font-family="Helvetica,sans-Serif" font-size="10.00">adf7030_1__XferDataBlock</text>
</a>
</g>
</g>
<!-- Node138&#45;&gt;Node139 -->
<g id="edge1" class="edge"><title>Node138&#45;&gt;Node139</title>
<path fill="none" stroke="midnightblue" d="M143.246,-64.5C151.642,-64.5 160.237,-64.5 168.694,-64.5"/>
<polygon fill="midnightblue" stroke="midnightblue" points="168.919,-68.0001 178.919,-64.5 168.919,-61.0001 168.919,-68.0001"/>
</g>
<!-- Node140 -->
<g id="node3" class="node"><title>Node140</title>
<g id="a_node3"><a xlink:href="group__adf7030-1____spi.html#ga7c54fff20ff0def7f7a3b9d7036f9cda" target="_top" xlink:title="This function return the best Pointer id + offset for subsequent SPI transfert to the PHY &quot;Addr&quot; prov...">
<polygon fill="white" stroke="black" points="347,-99 347,-118 516,-118 516,-99 347,-99"/>
<text text-anchor="middle" x="431.5" y="-106" font-family="Helvetica,sans-Serif" font-size="10.00">adf7030_1__SPI_FindMMapPointer</text>
</a>
</g>
</g>
<!-- Node139&#45;&gt;Node140 -->
<g id="edge2" class="edge"><title>Node139&#45;&gt;Node140</title>
<path fill="none" stroke="midnightblue" d="M283.848,-74.0483C302.791,-78.7813 326.086,-84.5326 347,-89.5 357.085,-91.8952 367.869,-94.395 378.225,-96.7648"/>
<polygon fill="midnightblue" stroke="midnightblue" points="377.458,-100.18 387.985,-98.9893 379.013,-93.3546 377.458,-100.18"/>
</g>
<!-- Node141 -->
<g id="node4" class="node"><title>Node141</title>
<g id="a_node4"><a xlink:href="group__adf7030-1____spi.html#ga87f62777c793d805dac75887f167b2bf" target="_top" xlink:title="Change the SPI Radio mmap custom pointers 0 location. ">
<polygon fill="white" stroke="black" points="347.5,-49.5 347.5,-79.5 515.5,-79.5 515.5,-49.5 347.5,-49.5"/>
<text text-anchor="start" x="355.5" y="-67.5" font-family="Helvetica,sans-Serif" font-size="10.00">adf7030_1__SPI_SetMMapCustom</text>
<text text-anchor="middle" x="431.5" y="-56.5" font-family="Helvetica,sans-Serif" font-size="10.00">Pntr0</text>
</a>
</g>
</g>
<!-- Node139&#45;&gt;Node141 -->
<g id="edge3" class="edge"><title>Node139&#45;&gt;Node141</title>
<path fill="none" stroke="midnightblue" d="M311.048,-64.5C319.566,-64.5 328.423,-64.5 337.293,-64.5"/>
<polygon fill="midnightblue" stroke="midnightblue" points="337.294,-68.0001 347.294,-64.5 337.294,-61.0001 337.294,-68.0001"/>
</g>
<!-- Node143 -->
<g id="node6" class="node"><title>Node143</title>
<g id="a_node6"><a xlink:href="group__adf7030-1____spi.html#ga0b334362c3e1aeb752f58c60a263a9cf" target="_top" xlink:title="Read &amp; Compare a number of bytes(s) from memory of the adf7030&#45;1 to Host starting at location pointed...">
<polygon fill="white" stroke="black" points="369,-0.5 369,-30.5 494,-30.5 494,-0.5 369,-0.5"/>
<text text-anchor="start" x="377" y="-18.5" font-family="Helvetica,sans-Serif" font-size="10.00">adf7030_1__SPI_rd_cmp</text>
<text text-anchor="middle" x="431.5" y="-7.5" font-family="Helvetica,sans-Serif" font-size="10.00">_byte_p_a</text>
</a>
</g>
</g>
<!-- Node139&#45;&gt;Node143 -->
<g id="edge5" class="edge"><title>Node139&#45;&gt;Node143</title>
<path fill="none" stroke="midnightblue" d="M282.011,-54.936C305.268,-48.7595 336.235,-40.5351 363.871,-33.1955"/>
<polygon fill="midnightblue" stroke="midnightblue" points="365.115,-36.4866 373.881,-30.537 363.318,-29.7211 365.115,-36.4866"/>
</g>
<!-- Node142 -->
<g id="node5" class="node"><title>Node142</title>
<g id="a_node5"><a xlink:href="group__adf7030-1____spi.html#ga6f0c25120c078623d42ede30fc690999" target="_top" xlink:title="Write a number of word(s) from Host to memory of the adf7030&#45;1 starting at location pointed by &quot;pntr&quot;...">
<polygon fill="white" stroke="black" points="552,-55 552,-74 701,-74 701,-55 552,-55"/>
<text text-anchor="middle" x="626.5" y="-62" font-family="Helvetica,sans-Serif" font-size="10.00">adf7030_1__SPI_wr_word_b_p</text>
</a>
</g>
</g>
<!-- Node141&#45;&gt;Node142 -->
<g id="edge4" class="edge"><title>Node141&#45;&gt;Node142</title>
<path fill="none" stroke="midnightblue" d="M515.75,-64.5C524.402,-64.5 533.2,-64.5 541.857,-64.5"/>
<polygon fill="midnightblue" stroke="midnightblue" points="541.938,-68.0001 551.938,-64.5 541.938,-61.0001 541.938,-68.0001"/>
</g>
</g>
</svg>
