<?xml version="1.0" encoding="UTF-8" standalone="no"?>
<!DOCTYPE svg PUBLIC "-//W3C//DTD SVG 1.1//EN"
 "http://www.w3.org/Graphics/SVG/1.1/DTD/svg11.dtd">
<!-- Generated by graphviz version 2.38.0 (20140413.2041)
 -->
<!-- Title: Headers Pages: 1 -->
<svg width="269pt" height="66pt"
 viewBox="0.00 0.00 269.00 66.00" xmlns="http://www.w3.org/2000/svg" xmlns:xlink="http://www.w3.org/1999/xlink">
<g id="graph0" class="graph" transform="scale(1 1) rotate(0) translate(4 62)">
<title>Headers</title>
<polygon fill="white" stroke="none" points="-4,4 -4,-62 265,-62 265,4 -4,4"/>
<!-- Node2 -->
<g id="node1" class="node"><title>Node2</title>
<g id="a_node1"><a xlink:href="group___p_h_y__headers.html" target="_top" xlink:title="PHY">
<polygon fill="white" stroke="black" points="220.5,-38.5 220.5,-57.5 257.5,-57.5 257.5,-38.5 220.5,-38.5"/>
<text text-anchor="middle" x="239" y="-45.5" font-family="Helvetica,sans-Serif" font-size="10.00">PHY</text>
</a>
</g>
</g>
<!-- Node3 -->
<g id="node2" class="node"><title>Node3</title>
<g id="a_node2"><a xlink:href="group__adf7030-1__common.html" target="_top" xlink:title="Global">
<polygon fill="white" stroke="black" points="217,-0.5 217,-19.5 261,-19.5 261,-0.5 217,-0.5"/>
<text text-anchor="middle" x="239" y="-7.5" font-family="Helvetica,sans-Serif" font-size="10.00">Global</text>
</a>
</g>
</g>
<!-- Node1 -->
<g id="node3" class="node"><title>Node1</title>
<g id="a_node3"><a xlink:href="group__adf7030-1.html" target="_top" xlink:title="ADF7030&#45;1 Driver">
<polygon fill="white" stroke="black" points="0,-19.5 0,-38.5 92,-38.5 92,-19.5 0,-19.5"/>
<text text-anchor="middle" x="46" y="-26.5" font-family="Helvetica,sans-Serif" font-size="10.00">ADF7030&#45;1 Driver</text>
</a>
</g>
</g>
<!-- Node0 -->
<g id="node4" class="node"><title>Node0</title>
<polygon fill="#bfbfbf" stroke="black" points="128,-19.5 128,-38.5 181,-38.5 181,-19.5 128,-19.5"/>
<text text-anchor="middle" x="154.5" y="-26.5" font-family="Helvetica,sans-Serif" font-size="10.00">Headers</text>
</g>
<!-- Node1&#45;&gt;Node0 -->
<g id="edge1" class="edge"><title>Node1&#45;&gt;Node0</title>
<path fill="none" stroke="black" d="M102.287,-29C111.271,-29 120.178,-29 127.982,-29"/>
<polygon fill="black" stroke="black" points="102.166,-25.5001 92.1656,-29 102.166,-32.5001 102.166,-25.5001"/>
</g>
<!-- Node0&#45;&gt;Node2 -->
<g id="edge2" class="edge"><title>Node0&#45;&gt;Node2</title>
<path fill="none" stroke="black" d="M191.074,-37.1929C201.248,-39.5359 211.891,-41.987 220.464,-43.9615"/>
<polygon fill="black" stroke="black" points="191.682,-33.7412 181.151,-34.9076 190.111,-40.5626 191.682,-33.7412"/>
</g>
<!-- Node0&#45;&gt;Node3 -->
<g id="edge3" class="edge"><title>Node0&#45;&gt;Node3</title>
<path fill="none" stroke="black" d="M191.159,-20.7876C199.9,-18.7746 208.982,-16.6829 216.796,-14.8833"/>
<polygon fill="black" stroke="black" points="190.111,-17.4374 181.151,-23.0924 191.682,-24.2588 190.111,-17.4374"/>
</g>
</g>
</svg>
