<?xml version="1.0" encoding="UTF-8" standalone="no"?>
<!DOCTYPE svg PUBLIC "-//W3C//DTD SVG 1.1//EN"
 "http://www.w3.org/Graphics/SVG/1.1/DTD/svg11.dtd">
<!-- Generated by graphviz version 2.38.0 (20140413.2041)
 -->
<!-- Title: adf7030_1__GPIO_GetCfg Pages: 1 -->
<svg width="474pt" height="28pt"
 viewBox="0.00 0.00 474.00 28.00" xmlns="http://www.w3.org/2000/svg" xmlns:xlink="http://www.w3.org/1999/xlink">
<g id="graph0" class="graph" transform="scale(1 1) rotate(0) translate(4 24)">
<title>adf7030_1__GPIO_GetCfg</title>
<polygon fill="white" stroke="none" points="-4,4 -4,-24 470,-24 470,4 -4,4"/>
<!-- Node4 -->
<g id="node1" class="node"><title>Node4</title>
<polygon fill="#bfbfbf" stroke="black" points="0,-0.5 0,-19.5 131,-19.5 131,-0.5 0,-0.5"/>
<text text-anchor="middle" x="65.5" y="-7.5" font-family="Helvetica,sans-Serif" font-size="10.00">adf7030_1__GPIO_GetCfg</text>
</g>
<!-- Node5 -->
<g id="node2" class="node"><title>Node5</title>
<g id="a_node2"><a xlink:href="group__adf7030-1____mem.html#ga487dca82221f52f7af85a3156ede64ea" target="_top" xlink:title="Generic readback of a bitfield value from the Radio PHY via the SPI. ">
<polygon fill="white" stroke="black" points="167,-0.5 167,-19.5 296,-19.5 296,-0.5 167,-0.5"/>
<text text-anchor="middle" x="231.5" y="-7.5" font-family="Helvetica,sans-Serif" font-size="10.00">adf7030_1__SPI_GetField</text>
</a>
</g>
</g>
<!-- Node4&#45;&gt;Node5 -->
<g id="edge1" class="edge"><title>Node4&#45;&gt;Node5</title>
<path fill="none" stroke="midnightblue" d="M131.317,-10C139.656,-10 148.242,-10 156.711,-10"/>
<polygon fill="midnightblue" stroke="midnightblue" points="156.958,-13.5001 166.958,-10 156.958,-6.5001 156.958,-13.5001"/>
</g>
<!-- Node6 -->
<g id="node3" class="node"><title>Node6</title>
<g id="a_node3"><a xlink:href="group__adf7030-1____mem.html#gacda1914daaf2eded7347710b0dbdb78a" target="_top" xlink:title="Read &quot;nbBytes&quot; memory location via the SPI. ">
<polygon fill="white" stroke="black" points="332,-0.5 332,-19.5 466,-19.5 466,-0.5 332,-0.5"/>
<text text-anchor="middle" x="399" y="-7.5" font-family="Helvetica,sans-Serif" font-size="10.00">adf7030_1__SPI_GetBytes</text>
</a>
</g>
</g>
<!-- Node5&#45;&gt;Node6 -->
<g id="edge2" class="edge"><title>Node5&#45;&gt;Node6</title>
<path fill="none" stroke="midnightblue" d="M296.013,-10C304.465,-10 313.2,-10 321.839,-10"/>
<polygon fill="midnightblue" stroke="midnightblue" points="321.914,-13.5001 331.914,-10 321.914,-6.5001 321.914,-13.5001"/>
</g>
</g>
</svg>
