<?xml version="1.0" encoding="UTF-8" standalone="no"?>
<!DOCTYPE svg PUBLIC "-//W3C//DTD SVG 1.1//EN"
 "http://www.w3.org/Graphics/SVG/1.1/DTD/svg11.dtd">
<!-- Generated by graphviz version 2.38.0 (20140413.2041)
 -->
<!-- Title: adf7030_1__VerifyDataBlock Pages: 1 -->
<svg width="707pt" height="127pt"
 viewBox="0.00 0.00 707.00 126.50" xmlns="http://www.w3.org/2000/svg" xmlns:xlink="http://www.w3.org/1999/xlink">
<g id="graph0" class="graph" transform="scale(1 1) rotate(0) translate(4 122.5)">
<title>adf7030_1__VerifyDataBlock</title>
<polygon fill="white" stroke="none" points="-4,4 -4,-122.5 703,-122.5 703,4 -4,4"/>
<!-- Node109 -->
<g id="node1" class="node"><title>Node109</title>
<polygon fill="#bfbfbf" stroke="black" points="0,-55 0,-74 141,-74 141,-55 0,-55"/>
<text text-anchor="middle" x="70.5" y="-62" font-family="Helvetica,sans-Serif" font-size="10.00">adf7030_1__VerifyDataBlock</text>
</g>
<!-- Node110 -->
<g id="node2" class="node"><title>Node110</title>
<g id="a_node2"><a xlink:href="group__adf7030-1____mem.html#ga1ca676315976719ad485f1a4772e876d" target="_top" xlink:title="Generic Data block transfers function between Host and the Radio PHY. ">
<polygon fill="white" stroke="black" points="177,-55 177,-74 309,-74 309,-55 177,-55"/>
<text text-anchor="middle" x="243" y="-62" font-family="Helvetica,sans-Serif" font-size="10.00">adf7030_1__XferDataBlock</text>
</a>
</g>
</g>
<!-- Node109&#45;&gt;Node110 -->
<g id="edge1" class="edge"><title>Node109&#45;&gt;Node110</title>
<path fill="none" stroke="midnightblue" d="M141.341,-64.5C149.71,-64.5 158.283,-64.5 166.725,-64.5"/>
<polygon fill="midnightblue" stroke="midnightblue" points="166.933,-68.0001 176.933,-64.5 166.933,-61.0001 166.933,-68.0001"/>
</g>
<!-- Node111 -->
<g id="node3" class="node"><title>Node111</title>
<g id="a_node3"><a xlink:href="group__adf7030-1____spi.html#ga7c54fff20ff0def7f7a3b9d7036f9cda" target="_top" xlink:title="This function return the best Pointer id + offset for subsequent SPI transfert to the PHY &quot;Addr&quot; prov...">
<polygon fill="white" stroke="black" points="345,-99 345,-118 514,-118 514,-99 345,-99"/>
<text text-anchor="middle" x="429.5" y="-106" font-family="Helvetica,sans-Serif" font-size="10.00">adf7030_1__SPI_FindMMapPointer</text>
</a>
</g>
</g>
<!-- Node110&#45;&gt;Node111 -->
<g id="edge2" class="edge"><title>Node110&#45;&gt;Node111</title>
<path fill="none" stroke="midnightblue" d="M281.848,-74.0483C300.791,-78.7813 324.086,-84.5326 345,-89.5 355.085,-91.8952 365.869,-94.395 376.225,-96.7648"/>
<polygon fill="midnightblue" stroke="midnightblue" points="375.458,-100.18 385.985,-98.9893 377.013,-93.3546 375.458,-100.18"/>
</g>
<!-- Node112 -->
<g id="node4" class="node"><title>Node112</title>
<g id="a_node4"><a xlink:href="group__adf7030-1____spi.html#ga87f62777c793d805dac75887f167b2bf" target="_top" xlink:title="Change the SPI Radio mmap custom pointers 0 location. ">
<polygon fill="white" stroke="black" points="345.5,-49.5 345.5,-79.5 513.5,-79.5 513.5,-49.5 345.5,-49.5"/>
<text text-anchor="start" x="353.5" y="-67.5" font-family="Helvetica,sans-Serif" font-size="10.00">adf7030_1__SPI_SetMMapCustom</text>
<text text-anchor="middle" x="429.5" y="-56.5" font-family="Helvetica,sans-Serif" font-size="10.00">Pntr0</text>
</a>
</g>
</g>
<!-- Node110&#45;&gt;Node112 -->
<g id="edge3" class="edge"><title>Node110&#45;&gt;Node112</title>
<path fill="none" stroke="midnightblue" d="M309.048,-64.5C317.566,-64.5 326.423,-64.5 335.293,-64.5"/>
<polygon fill="midnightblue" stroke="midnightblue" points="335.294,-68.0001 345.294,-64.5 335.294,-61.0001 335.294,-68.0001"/>
</g>
<!-- Node114 -->
<g id="node6" class="node"><title>Node114</title>
<g id="a_node6"><a xlink:href="group__adf7030-1____spi.html#ga0b334362c3e1aeb752f58c60a263a9cf" target="_top" xlink:title="Read &amp; Compare a number of bytes(s) from memory of the adf7030&#45;1 to Host starting at location pointed...">
<polygon fill="white" stroke="black" points="367,-0.5 367,-30.5 492,-30.5 492,-0.5 367,-0.5"/>
<text text-anchor="start" x="375" y="-18.5" font-family="Helvetica,sans-Serif" font-size="10.00">adf7030_1__SPI_rd_cmp</text>
<text text-anchor="middle" x="429.5" y="-7.5" font-family="Helvetica,sans-Serif" font-size="10.00">_byte_p_a</text>
</a>
</g>
</g>
<!-- Node110&#45;&gt;Node114 -->
<g id="edge5" class="edge"><title>Node110&#45;&gt;Node114</title>
<path fill="none" stroke="midnightblue" d="M280.011,-54.936C303.268,-48.7595 334.235,-40.5351 361.871,-33.1955"/>
<polygon fill="midnightblue" stroke="midnightblue" points="363.115,-36.4866 371.881,-30.537 361.318,-29.7211 363.115,-36.4866"/>
</g>
<!-- Node113 -->
<g id="node5" class="node"><title>Node113</title>
<g id="a_node5"><a xlink:href="group__adf7030-1____spi.html#ga6f0c25120c078623d42ede30fc690999" target="_top" xlink:title="Write a number of word(s) from Host to memory of the adf7030&#45;1 starting at location pointed by &quot;pntr&quot;...">
<polygon fill="white" stroke="black" points="550,-55 550,-74 699,-74 699,-55 550,-55"/>
<text text-anchor="middle" x="624.5" y="-62" font-family="Helvetica,sans-Serif" font-size="10.00">adf7030_1__SPI_wr_word_b_p</text>
</a>
</g>
</g>
<!-- Node112&#45;&gt;Node113 -->
<g id="edge4" class="edge"><title>Node112&#45;&gt;Node113</title>
<path fill="none" stroke="midnightblue" d="M513.75,-64.5C522.402,-64.5 531.2,-64.5 539.857,-64.5"/>
<polygon fill="midnightblue" stroke="midnightblue" points="539.938,-68.0001 549.938,-64.5 539.938,-61.0001 539.938,-68.0001"/>
</g>
</g>
</svg>
