<?xml version="1.0" encoding="UTF-8" standalone="no"?>
<!DOCTYPE svg PUBLIC "-//W3C//DTD SVG 1.1//EN"
 "http://www.w3.org/Graphics/SVG/1.1/DTD/svg11.dtd">
<!-- Generated by graphviz version 2.38.0 (20140413.2041)
 -->
<!-- Title: adf7030_1__WriteConfig Pages: 1 -->
<svg width="838pt" height="127pt"
 viewBox="0.00 0.00 838.00 126.50" xmlns="http://www.w3.org/2000/svg" xmlns:xlink="http://www.w3.org/1999/xlink">
<g id="graph0" class="graph" transform="scale(1 1) rotate(0) translate(4 122.5)">
<title>adf7030_1__WriteConfig</title>
<polygon fill="white" stroke="none" points="-4,4 -4,-122.5 834,-122.5 834,4 -4,4"/>
<!-- Node123 -->
<g id="node1" class="node"><title>Node123</title>
<polygon fill="#bfbfbf" stroke="black" points="0,-55 0,-74 122,-74 122,-55 0,-55"/>
<text text-anchor="middle" x="61" y="-62" font-family="Helvetica,sans-Serif" font-size="10.00">adf7030_1__WriteConfig</text>
</g>
<!-- Node124 -->
<g id="node2" class="node"><title>Node124</title>
<g id="a_node2"><a xlink:href="group__adf7030-1____mem.html#gae8fab7f4a9d7bc3432f2b85b789510e1" target="_top" xlink:title="Generic Configuration transfers function between Host and the Radio PHY. ">
<polygon fill="white" stroke="black" points="158,-55 158,-74 272,-74 272,-55 158,-55"/>
<text text-anchor="middle" x="215" y="-62" font-family="Helvetica,sans-Serif" font-size="10.00">adf7030_1__XferConfig</text>
</a>
</g>
</g>
<!-- Node123&#45;&gt;Node124 -->
<g id="edge1" class="edge"><title>Node123&#45;&gt;Node124</title>
<path fill="none" stroke="midnightblue" d="M122.074,-64.5C130.452,-64.5 139.099,-64.5 147.585,-64.5"/>
<polygon fill="midnightblue" stroke="midnightblue" points="147.826,-68.0001 157.826,-64.5 147.826,-61.0001 147.826,-68.0001"/>
</g>
<!-- Node125 -->
<g id="node3" class="node"><title>Node125</title>
<g id="a_node3"><a xlink:href="group__adf7030-1____mem.html#ga1ca676315976719ad485f1a4772e876d" target="_top" xlink:title="Generic Data block transfers function between Host and the Radio PHY. ">
<polygon fill="white" stroke="black" points="308,-55 308,-74 440,-74 440,-55 308,-55"/>
<text text-anchor="middle" x="374" y="-62" font-family="Helvetica,sans-Serif" font-size="10.00">adf7030_1__XferDataBlock</text>
</a>
</g>
</g>
<!-- Node124&#45;&gt;Node125 -->
<g id="edge2" class="edge"><title>Node124&#45;&gt;Node125</title>
<path fill="none" stroke="midnightblue" d="M272.237,-64.5C280.522,-64.5 289.167,-64.5 297.76,-64.5"/>
<polygon fill="midnightblue" stroke="midnightblue" points="297.799,-68.0001 307.799,-64.5 297.799,-61.0001 297.799,-68.0001"/>
</g>
<!-- Node126 -->
<g id="node4" class="node"><title>Node126</title>
<g id="a_node4"><a xlink:href="group__adf7030-1____spi.html#ga7c54fff20ff0def7f7a3b9d7036f9cda" target="_top" xlink:title="This function return the best Pointer id + offset for subsequent SPI transfert to the PHY &quot;Addr&quot; prov...">
<polygon fill="white" stroke="black" points="476,-99 476,-118 645,-118 645,-99 476,-99"/>
<text text-anchor="middle" x="560.5" y="-106" font-family="Helvetica,sans-Serif" font-size="10.00">adf7030_1__SPI_FindMMapPointer</text>
</a>
</g>
</g>
<!-- Node125&#45;&gt;Node126 -->
<g id="edge3" class="edge"><title>Node125&#45;&gt;Node126</title>
<path fill="none" stroke="midnightblue" d="M412.848,-74.0483C431.791,-78.7813 455.086,-84.5326 476,-89.5 486.085,-91.8952 496.869,-94.395 507.225,-96.7648"/>
<polygon fill="midnightblue" stroke="midnightblue" points="506.458,-100.18 516.985,-98.9893 508.013,-93.3546 506.458,-100.18"/>
</g>
<!-- Node127 -->
<g id="node5" class="node"><title>Node127</title>
<g id="a_node5"><a xlink:href="group__adf7030-1____spi.html#ga87f62777c793d805dac75887f167b2bf" target="_top" xlink:title="Change the SPI Radio mmap custom pointers 0 location. ">
<polygon fill="white" stroke="black" points="476.5,-49.5 476.5,-79.5 644.5,-79.5 644.5,-49.5 476.5,-49.5"/>
<text text-anchor="start" x="484.5" y="-67.5" font-family="Helvetica,sans-Serif" font-size="10.00">adf7030_1__SPI_SetMMapCustom</text>
<text text-anchor="middle" x="560.5" y="-56.5" font-family="Helvetica,sans-Serif" font-size="10.00">Pntr0</text>
</a>
</g>
</g>
<!-- Node125&#45;&gt;Node127 -->
<g id="edge4" class="edge"><title>Node125&#45;&gt;Node127</title>
<path fill="none" stroke="midnightblue" d="M440.048,-64.5C448.566,-64.5 457.423,-64.5 466.293,-64.5"/>
<polygon fill="midnightblue" stroke="midnightblue" points="466.294,-68.0001 476.294,-64.5 466.294,-61.0001 466.294,-68.0001"/>
</g>
<!-- Node129 -->
<g id="node7" class="node"><title>Node129</title>
<g id="a_node7"><a xlink:href="group__adf7030-1____spi.html#ga0b334362c3e1aeb752f58c60a263a9cf" target="_top" xlink:title="Read &amp; Compare a number of bytes(s) from memory of the adf7030&#45;1 to Host starting at location pointed...">
<polygon fill="white" stroke="black" points="498,-0.5 498,-30.5 623,-30.5 623,-0.5 498,-0.5"/>
<text text-anchor="start" x="506" y="-18.5" font-family="Helvetica,sans-Serif" font-size="10.00">adf7030_1__SPI_rd_cmp</text>
<text text-anchor="middle" x="560.5" y="-7.5" font-family="Helvetica,sans-Serif" font-size="10.00">_byte_p_a</text>
</a>
</g>
</g>
<!-- Node125&#45;&gt;Node129 -->
<g id="edge6" class="edge"><title>Node125&#45;&gt;Node129</title>
<path fill="none" stroke="midnightblue" d="M411.011,-54.936C434.268,-48.7595 465.235,-40.5351 492.871,-33.1955"/>
<polygon fill="midnightblue" stroke="midnightblue" points="494.115,-36.4866 502.881,-30.537 492.318,-29.7211 494.115,-36.4866"/>
</g>
<!-- Node128 -->
<g id="node6" class="node"><title>Node128</title>
<g id="a_node6"><a xlink:href="group__adf7030-1____spi.html#ga6f0c25120c078623d42ede30fc690999" target="_top" xlink:title="Write a number of word(s) from Host to memory of the adf7030&#45;1 starting at location pointed by &quot;pntr&quot;...">
<polygon fill="white" stroke="black" points="681,-55 681,-74 830,-74 830,-55 681,-55"/>
<text text-anchor="middle" x="755.5" y="-62" font-family="Helvetica,sans-Serif" font-size="10.00">adf7030_1__SPI_wr_word_b_p</text>
</a>
</g>
</g>
<!-- Node127&#45;&gt;Node128 -->
<g id="edge5" class="edge"><title>Node127&#45;&gt;Node128</title>
<path fill="none" stroke="midnightblue" d="M644.75,-64.5C653.402,-64.5 662.2,-64.5 670.857,-64.5"/>
<polygon fill="midnightblue" stroke="midnightblue" points="670.938,-68.0001 680.938,-64.5 670.938,-61.0001 670.938,-68.0001"/>
</g>
</g>
</svg>
