<?xml version="1.0" encoding="UTF-8" standalone="no"?>
<!DOCTYPE svg PUBLIC "-//W3C//DTD SVG 1.1//EN"
 "http://www.w3.org/Graphics/SVG/1.1/DTD/svg11.dtd">
<!-- Generated by graphviz version 2.38.0 (20140413.2041)
 -->
<!-- Title: adf7030_1__SPI_GetField Pages: 1 -->
<svg width="532pt" height="104pt"
 viewBox="0.00 0.00 532.00 104.00" xmlns="http://www.w3.org/2000/svg" xmlns:xlink="http://www.w3.org/1999/xlink">
<g id="graph0" class="graph" transform="scale(1 1) rotate(0) translate(4 100)">
<title>adf7030_1__SPI_GetField</title>
<polygon fill="white" stroke="none" points="-4,4 -4,-100 528,-100 528,4 -4,4"/>
<!-- Node46 -->
<g id="node1" class="node"><title>Node46</title>
<polygon fill="#bfbfbf" stroke="black" points="0,-38.5 0,-57.5 129,-57.5 129,-38.5 0,-38.5"/>
<text text-anchor="middle" x="64.5" y="-45.5" font-family="Helvetica,sans-Serif" font-size="10.00">adf7030_1__SPI_GetField</text>
</g>
<!-- Node47 -->
<g id="node2" class="node"><title>Node47</title>
<g id="a_node2"><a xlink:href="group__adf7030-1____core.html#ga62017fd21878e67cfef789d70e93ea45" target="_top" xlink:title="Readback the PHY Packet configuration location. ">
<polygon fill="white" stroke="black" points="165,-76.5 165,-95.5 339,-95.5 339,-76.5 165,-76.5"/>
<text text-anchor="middle" x="252" y="-83.5" font-family="Helvetica,sans-Serif" font-size="10.00">adf7030_1__Get_PhyPckConfigAddr</text>
</a>
</g>
</g>
<!-- Node46&#45;&gt;Node47 -->
<g id="edge1" class="edge"><title>Node46&#45;&gt;Node47</title>
<path fill="none" stroke="midnightblue" d="M122.173,-59.6095C148.555,-65.014 179.551,-71.3635 204.527,-76.4799"/>
<polygon fill="midnightblue" stroke="midnightblue" points="122.808,-56.1671 112.309,-57.589 121.404,-63.0247 122.808,-56.1671"/>
</g>
<!-- Node49 -->
<g id="node4" class="node"><title>Node49</title>
<g id="a_node4"><a xlink:href="group__adf7030-1____core.html#ga2309cbb0c5a5985b348bd43e4c351b40" target="_top" xlink:title="Readback the PHY Radio profile location. ">
<polygon fill="white" stroke="black" points="173.5,-38.5 173.5,-57.5 330.5,-57.5 330.5,-38.5 173.5,-38.5"/>
<text text-anchor="middle" x="252" y="-45.5" font-family="Helvetica,sans-Serif" font-size="10.00">adf7030_1__Get_PhyProfileAddr</text>
</a>
</g>
</g>
<!-- Node46&#45;&gt;Node49 -->
<g id="edge3" class="edge"><title>Node46&#45;&gt;Node49</title>
<path fill="none" stroke="midnightblue" d="M139.257,-48C150.48,-48 162.091,-48 173.394,-48"/>
<polygon fill="midnightblue" stroke="midnightblue" points="139.079,-44.5001 129.079,-48 139.079,-51.5001 139.079,-44.5001"/>
</g>
<!-- Node50 -->
<g id="node5" class="node"><title>Node50</title>
<g id="a_node5"><a xlink:href="group__adf7030-1____gpio.html#ga192b57ef41055364f8a8c3aec7e285ff" target="_top" xlink:title="Get individual GPIO configuration from the PHY Radio. ">
<polygon fill="white" stroke="black" points="186.5,-0.5 186.5,-19.5 317.5,-19.5 317.5,-0.5 186.5,-0.5"/>
<text text-anchor="middle" x="252" y="-7.5" font-family="Helvetica,sans-Serif" font-size="10.00">adf7030_1__GPIO_GetCfg</text>
</a>
</g>
</g>
<!-- Node46&#45;&gt;Node50 -->
<g id="edge5" class="edge"><title>Node46&#45;&gt;Node50</title>
<path fill="none" stroke="midnightblue" d="M122.173,-36.3905C148.555,-30.986 179.551,-24.6365 204.527,-19.5201"/>
<polygon fill="midnightblue" stroke="midnightblue" points="121.404,-32.9753 112.309,-38.411 122.808,-39.8329 121.404,-32.9753"/>
</g>
<!-- Node48 -->
<g id="node3" class="node"><title>Node48</title>
<g id="a_node3"><a xlink:href="group__adf7030-1____core.html#gaa8110804874966018d0b7bfe40cbc001" target="_top" xlink:title="Initialise the Host shadow configuration of the PHY Radio. ">
<polygon fill="white" stroke="black" points="375,-57.5 375,-76.5 524,-76.5 524,-57.5 375,-57.5"/>
<text text-anchor="middle" x="449.5" y="-64.5" font-family="Helvetica,sans-Serif" font-size="10.00">adf7030_1__SetupHostPhyCfg</text>
</a>
</g>
</g>
<!-- Node47&#45;&gt;Node48 -->
<g id="edge2" class="edge"><title>Node47&#45;&gt;Node48</title>
<path fill="none" stroke="midnightblue" d="M349.187,-76.6519C357.856,-75.8094 366.542,-74.9652 374.971,-74.146"/>
<polygon fill="midnightblue" stroke="midnightblue" points="348.648,-73.1877 339.034,-77.6387 349.325,-80.1549 348.648,-73.1877"/>
</g>
<!-- Node49&#45;&gt;Node48 -->
<g id="edge4" class="edge"><title>Node49&#45;&gt;Node48</title>
<path fill="none" stroke="midnightblue" d="M340.555,-56.5092C352.017,-57.6231 363.668,-58.7554 374.868,-59.8439"/>
<polygon fill="midnightblue" stroke="midnightblue" points="340.839,-53.0204 330.548,-55.5366 340.162,-59.9876 340.839,-53.0204"/>
</g>
</g>
</svg>
