<?xml version="1.0" encoding="UTF-8" standalone="no"?>
<!DOCTYPE svg PUBLIC "-//W3C//DTD SVG 1.1//EN"
 "http://www.w3.org/Graphics/SVG/1.1/DTD/svg11.dtd">
<!-- Generated by graphviz version 2.38.0 (20140413.2041)
 -->
<!-- Title: adf7030_1__SetupHostPhyCfg Pages: 1 -->
<svg width="925pt" height="165pt"
 viewBox="0.00 0.00 925.00 164.50" xmlns="http://www.w3.org/2000/svg" xmlns:xlink="http://www.w3.org/1999/xlink">
<g id="graph0" class="graph" transform="scale(1 1) rotate(0) translate(4 160.5)">
<title>adf7030_1__SetupHostPhyCfg</title>
<polygon fill="white" stroke="none" points="-4,4 -4,-160.5 921,-160.5 921,4 -4,4"/>
<!-- Node55 -->
<g id="node1" class="node"><title>Node55</title>
<polygon fill="#bfbfbf" stroke="black" points="0,-98 0,-117 149,-117 149,-98 0,-98"/>
<text text-anchor="middle" x="74.5" y="-105" font-family="Helvetica,sans-Serif" font-size="10.00">adf7030_1__SetupHostPhyCfg</text>
</g>
<!-- Node56 -->
<g id="node2" class="node"><title>Node56</title>
<g id="a_node2"><a xlink:href="group__adf7030-1____core.html#ga62017fd21878e67cfef789d70e93ea45" target="_top" xlink:title="Readback the PHY Packet configuration location. ">
<polygon fill="white" stroke="black" points="185,-136 185,-155 359,-155 359,-136 185,-136"/>
<text text-anchor="middle" x="272" y="-143" font-family="Helvetica,sans-Serif" font-size="10.00">adf7030_1__Get_PhyPckConfigAddr</text>
</a>
</g>
</g>
<!-- Node55&#45;&gt;Node56 -->
<g id="edge1" class="edge"><title>Node55&#45;&gt;Node56</title>
<path fill="none" stroke="midnightblue" d="M124.581,-117.04C151.074,-122.19 183.972,-128.584 211.869,-134.006"/>
<polygon fill="midnightblue" stroke="midnightblue" points="211.415,-137.484 221.899,-135.956 212.751,-130.612 211.415,-137.484"/>
</g>
<!-- Node59 -->
<g id="node5" class="node"><title>Node59</title>
<g id="a_node5"><a xlink:href="group__adf7030-1____core.html#ga2309cbb0c5a5985b348bd43e4c351b40" target="_top" xlink:title="Readback the PHY Radio profile location. ">
<polygon fill="white" stroke="black" points="193.5,-98 193.5,-117 350.5,-117 350.5,-98 193.5,-98"/>
<text text-anchor="middle" x="272" y="-105" font-family="Helvetica,sans-Serif" font-size="10.00">adf7030_1__Get_PhyProfileAddr</text>
</a>
</g>
</g>
<!-- Node55&#45;&gt;Node59 -->
<g id="edge4" class="edge"><title>Node55&#45;&gt;Node59</title>
<path fill="none" stroke="midnightblue" d="M149.132,-107.5C160.153,-107.5 171.611,-107.5 182.896,-107.5"/>
<polygon fill="midnightblue" stroke="midnightblue" points="183.194,-111 193.194,-107.5 183.194,-104 183.194,-111"/>
</g>
<!-- Node60 -->
<g id="node6" class="node"><title>Node60</title>
<g id="a_node6"><a xlink:href="group__adf7030-1____mem.html#gaa184749ff4ec2d53c167d51cbadb9b18" target="_top" xlink:title="Function call to read the Data block. ">
<polygon fill="white" stroke="black" points="202.5,-57 202.5,-76 341.5,-76 341.5,-57 202.5,-57"/>
<text text-anchor="middle" x="272" y="-64" font-family="Helvetica,sans-Serif" font-size="10.00">adf7030_1__ReadDataBlock</text>
</a>
</g>
</g>
<!-- Node55&#45;&gt;Node60 -->
<g id="edge6" class="edge"><title>Node55&#45;&gt;Node60</title>
<path fill="none" stroke="midnightblue" d="M120.843,-97.9907C149.117,-92.061 185.697,-84.3895 215.674,-78.103"/>
<polygon fill="midnightblue" stroke="midnightblue" points="216.496,-81.5067 225.565,-76.0286 215.059,-74.6558 216.496,-81.5067"/>
</g>
<!-- Node57 -->
<g id="node3" class="node"><title>Node57</title>
<g id="a_node3"><a xlink:href="group__adf7030-1____mem.html#ga487dca82221f52f7af85a3156ede64ea" target="_top" xlink:title="Generic readback of a bitfield value from the Radio PHY via the SPI. ">
<polygon fill="white" stroke="black" points="396.5,-136 396.5,-155 525.5,-155 525.5,-136 396.5,-136"/>
<text text-anchor="middle" x="461" y="-143" font-family="Helvetica,sans-Serif" font-size="10.00">adf7030_1__SPI_GetField</text>
</a>
</g>
</g>
<!-- Node56&#45;&gt;Node57 -->
<g id="edge2" class="edge"><title>Node56&#45;&gt;Node57</title>
<path fill="none" stroke="midnightblue" d="M359.111,-145.5C368.136,-145.5 377.254,-145.5 386.125,-145.5"/>
<polygon fill="midnightblue" stroke="midnightblue" points="386.405,-149 396.405,-145.5 386.405,-142 386.405,-149"/>
</g>
<!-- Node58 -->
<g id="node4" class="node"><title>Node58</title>
<g id="a_node4"><a xlink:href="group__adf7030-1____mem.html#gacda1914daaf2eded7347710b0dbdb78a" target="_top" xlink:title="Read &quot;nbBytes&quot; memory location via the SPI. ">
<polygon fill="white" stroke="black" points="580.5,-137 580.5,-156 714.5,-156 714.5,-137 580.5,-137"/>
<text text-anchor="middle" x="647.5" y="-144" font-family="Helvetica,sans-Serif" font-size="10.00">adf7030_1__SPI_GetBytes</text>
</a>
</g>
</g>
<!-- Node57&#45;&gt;Node58 -->
<g id="edge3" class="edge"><title>Node57&#45;&gt;Node58</title>
<path fill="none" stroke="midnightblue" d="M525.753,-145.846C540.055,-145.923 555.371,-146.006 570.127,-146.086"/>
<polygon fill="midnightblue" stroke="midnightblue" points="570.216,-149.586 580.235,-146.141 570.254,-142.587 570.216,-149.586"/>
</g>
<!-- Node59&#45;&gt;Node57 -->
<g id="edge5" class="edge"><title>Node59&#45;&gt;Node57</title>
<path fill="none" stroke="midnightblue" d="M320.188,-117.089C345.42,-122.216 376.673,-128.567 403.227,-133.963"/>
<polygon fill="midnightblue" stroke="midnightblue" points="402.655,-137.418 413.151,-135.98 404.049,-130.559 402.655,-137.418"/>
</g>
<!-- Node61 -->
<g id="node7" class="node"><title>Node61</title>
<g id="a_node7"><a xlink:href="group__adf7030-1____mem.html#ga1ca676315976719ad485f1a4772e876d" target="_top" xlink:title="Generic Data block transfers function between Host and the Radio PHY. ">
<polygon fill="white" stroke="black" points="395,-56 395,-75 527,-75 527,-56 395,-56"/>
<text text-anchor="middle" x="461" y="-63" font-family="Helvetica,sans-Serif" font-size="10.00">adf7030_1__XferDataBlock</text>
</a>
</g>
</g>
<!-- Node60&#45;&gt;Node61 -->
<g id="edge7" class="edge"><title>Node60&#45;&gt;Node61</title>
<path fill="none" stroke="midnightblue" d="M341.57,-66.1333C355.578,-66.0584 370.391,-65.9792 384.622,-65.9031"/>
<polygon fill="midnightblue" stroke="midnightblue" points="384.88,-69.4019 394.861,-65.8483 384.842,-62.402 384.88,-69.4019"/>
</g>
<!-- Node62 -->
<g id="node8" class="node"><title>Node62</title>
<g id="a_node8"><a xlink:href="group__adf7030-1____spi.html#ga7c54fff20ff0def7f7a3b9d7036f9cda" target="_top" xlink:title="This function return the best Pointer id + offset for subsequent SPI transfert to the PHY &quot;Addr&quot; prov...">
<polygon fill="white" stroke="black" points="563,-99 563,-118 732,-118 732,-99 563,-99"/>
<text text-anchor="middle" x="647.5" y="-106" font-family="Helvetica,sans-Serif" font-size="10.00">adf7030_1__SPI_FindMMapPointer</text>
</a>
</g>
</g>
<!-- Node61&#45;&gt;Node62 -->
<g id="edge8" class="edge"><title>Node61&#45;&gt;Node62</title>
<path fill="none" stroke="midnightblue" d="M501.795,-75.0488C520.381,-79.4848 542.812,-84.8048 563,-89.5 573.096,-91.848 583.886,-94.3264 594.243,-96.6898"/>
<polygon fill="midnightblue" stroke="midnightblue" points="593.476,-100.105 604.003,-98.9127 595.03,-93.2795 593.476,-100.105"/>
</g>
<!-- Node63 -->
<g id="node9" class="node"><title>Node63</title>
<g id="a_node9"><a xlink:href="group__adf7030-1____spi.html#ga87f62777c793d805dac75887f167b2bf" target="_top" xlink:title="Change the SPI Radio mmap custom pointers 0 location. ">
<polygon fill="white" stroke="black" points="563.5,-49.5 563.5,-79.5 731.5,-79.5 731.5,-49.5 563.5,-49.5"/>
<text text-anchor="start" x="571.5" y="-67.5" font-family="Helvetica,sans-Serif" font-size="10.00">adf7030_1__SPI_SetMMapCustom</text>
<text text-anchor="middle" x="647.5" y="-56.5" font-family="Helvetica,sans-Serif" font-size="10.00">Pntr0</text>
</a>
</g>
</g>
<!-- Node61&#45;&gt;Node63 -->
<g id="edge9" class="edge"><title>Node61&#45;&gt;Node63</title>
<path fill="none" stroke="midnightblue" d="M527.048,-65.1474C535.566,-65.1013 544.423,-65.0533 553.293,-65.0052"/>
<polygon fill="midnightblue" stroke="midnightblue" points="553.313,-68.5052 563.294,-64.951 553.275,-61.5053 553.313,-68.5052"/>
</g>
<!-- Node65 -->
<g id="node11" class="node"><title>Node65</title>
<g id="a_node11"><a xlink:href="group__adf7030-1____spi.html#ga0b334362c3e1aeb752f58c60a263a9cf" target="_top" xlink:title="Read &amp; Compare a number of bytes(s) from memory of the adf7030&#45;1 to Host starting at location pointed...">
<polygon fill="white" stroke="black" points="585,-0.5 585,-30.5 710,-30.5 710,-0.5 585,-0.5"/>
<text text-anchor="start" x="593" y="-18.5" font-family="Helvetica,sans-Serif" font-size="10.00">adf7030_1__SPI_rd_cmp</text>
<text text-anchor="middle" x="647.5" y="-7.5" font-family="Helvetica,sans-Serif" font-size="10.00">_byte_p_a</text>
</a>
</g>
</g>
<!-- Node61&#45;&gt;Node65 -->
<g id="edge11" class="edge"><title>Node61&#45;&gt;Node65</title>
<path fill="none" stroke="midnightblue" d="M497.137,-55.9777C520.799,-49.5652 552.726,-40.9129 580.988,-33.2538"/>
<polygon fill="midnightblue" stroke="midnightblue" points="582.076,-36.5854 590.813,-30.5915 580.245,-29.8291 582.076,-36.5854"/>
</g>
<!-- Node64 -->
<g id="node10" class="node"><title>Node64</title>
<g id="a_node10"><a xlink:href="group__adf7030-1____spi.html#ga6f0c25120c078623d42ede30fc690999" target="_top" xlink:title="Write a number of word(s) from Host to memory of the adf7030&#45;1 starting at location pointed by &quot;pntr&quot;...">
<polygon fill="white" stroke="black" points="768,-55 768,-74 917,-74 917,-55 768,-55"/>
<text text-anchor="middle" x="842.5" y="-62" font-family="Helvetica,sans-Serif" font-size="10.00">adf7030_1__SPI_wr_word_b_p</text>
</a>
</g>
</g>
<!-- Node63&#45;&gt;Node64 -->
<g id="edge10" class="edge"><title>Node63&#45;&gt;Node64</title>
<path fill="none" stroke="midnightblue" d="M731.75,-64.5C740.402,-64.5 749.2,-64.5 757.857,-64.5"/>
<polygon fill="midnightblue" stroke="midnightblue" points="757.938,-68.0001 767.938,-64.5 757.938,-61.0001 757.938,-68.0001"/>
</g>
</g>
</svg>
