<?xml version="1.0" encoding="UTF-8" standalone="no"?>
<!DOCTYPE svg PUBLIC "-//W3C//DTD SVG 1.1//EN"
 "http://www.w3.org/Graphics/SVG/1.1/DTD/svg11.dtd">
<!-- Generated by graphviz version 2.38.0 (20140413.2041)
 -->
<!-- Title: adf7030_1__SPI_rd_cmp_byte_p_a Pages: 1 -->
<!--zoomable 520 -->
<svg id="main" version="1.1" xmlns="http://www.w3.org/2000/svg" xmlns:xlink="http://www.w3.org/1999/xlink" xml:space="preserve" onload="init(evt)">
<style type="text/css"><![CDATA[
.edge:hover path { stroke: red; }
.edge:hover polygon { stroke: red; fill: red; }
]]></style>
<script type="text/javascript"><![CDATA[
var edges = document.getElementsByTagName('g');
if (edges && edges.length) {
  for (var i=0;i<edges.length;i++) {
    if (edges[i].id.substr(0,4)=='edge') {
      edges[i].setAttribute('class','edge');
    }
  }
}
]]></script>
        <defs>
                <circle id="rim" cx="0" cy="0" r="7"/>
                <circle id="rim2" cx="0" cy="0" r="3.5"/>
                <g id="zoomPlus">
                        <use xlink:href="#rim" fill="#404040">
                                <set attributeName="fill" to="#808080" begin="zoomplus.mouseover" end="zoomplus.mouseout"/>
                        </use>
                        <path d="M-4,0h8M0,-4v8" fill="none" stroke="white" stroke-width="1.5" pointer-events="none"/>
                </g>
                <g id="zoomMin">
                        <use xlink:href="#rim" fill="#404040">
                                <set attributeName="fill" to="#808080" begin="zoomminus.mouseover" end="zoomminus.mouseout"/>
                        </use>
                        <path d="M-4,0h8" fill="none" stroke="white" stroke-width="1.5" pointer-events="none"/>
                </g>
                <g id="dirArrow">
                        <path fill="none" stroke="white" stroke-width="1.5" d="M0,-3.0v7 M-2.5,-0.5L0,-3.0L2.5,-0.5"/>
                </g>
               <g id="resetDef">
                       <use xlink:href="#rim2" fill="#404040">
                               <set attributeName="fill" to="#808080" begin="reset.mouseover" end="reset.mouseout"/>
                       </use>
               </g>
        </defs>

<script type="text/javascript">
var viewWidth = 673;
var viewHeight = 520;
var sectionId = 'dynsection-6';
</script>
<script xlink:href="svgpan.js"/>
<svg id="graph" class="graph">
<g id="viewport">
<title>adf7030_1__SPI_rd_cmp_byte_p_a</title>
<polygon fill="white" stroke="none" points="-4,4 -4,-516 669,-516 669,4 -4,4"/>
<!-- Node42 -->
<g id="node1" class="node"><title>Node42</title>
<polygon fill="#bfbfbf" stroke="black" points="0,-240 0,-270 125,-270 125,-240 0,-240"/>
<text text-anchor="start" x="8" y="-258" font-family="Helvetica,sans-Serif" font-size="10.00">adf7030_1__SPI_rd_cmp</text>
<text text-anchor="middle" x="62.5" y="-247" font-family="Helvetica,sans-Serif" font-size="10.00">_byte_p_a</text>
</g>
<!-- Node43 -->
<g id="node2" class="node"><title>Node43</title>
<g id="a_node2"><a xlink:href="group__adf7030-1____mem.html#ga1ca676315976719ad485f1a4772e876d" target="_top" xlink:title="Generic Data block transfers function between Host and the Radio PHY. ">
<polygon fill="white" stroke="black" points="163.5,-338.5 163.5,-357.5 295.5,-357.5 295.5,-338.5 163.5,-338.5"/>
<text text-anchor="middle" x="229.5" y="-345.5" font-family="Helvetica,sans-Serif" font-size="10.00">adf7030_1__XferDataBlock</text>
</a>
</g>
</g>
<!-- Node42&#45;&gt;Node43 -->
<g id="edge1" class="edge"><title>Node42&#45;&gt;Node43</title>
<path fill="none" stroke="midnightblue" d="M99.2334,-275.141C133.842,-294.648 184.847,-323.396 211.25,-338.277"/>
<polygon fill="midnightblue" stroke="midnightblue" points="100.807,-272.01 90.3773,-270.149 97.3703,-278.108 100.807,-272.01"/>
</g>
<!-- Node55 -->
<g id="node14" class="node"><title>Node55</title>
<g id="a_node14"><a xlink:href="group__adf7030-1____patch.html#ga71c53aa1ca866512fbfaa5d99a3181e8" target="_top" xlink:title="Generic Patch Section transfer function between Host and the Radio PHY. ">
<polygon fill="white" stroke="black" points="161,-133.5 161,-152.5 298,-152.5 298,-133.5 161,-133.5"/>
<text text-anchor="middle" x="229.5" y="-140.5" font-family="Helvetica,sans-Serif" font-size="10.00">adf7030_1__XferPatchBlock</text>
</a>
</g>
</g>
<!-- Node42&#45;&gt;Node55 -->
<g id="edge13" class="edge"><title>Node42&#45;&gt;Node55</title>
<path fill="none" stroke="midnightblue" d="M94.3676,-234.047C130.223,-209.709 187.838,-170.601 214.334,-152.616"/>
<polygon fill="midnightblue" stroke="midnightblue" points="92.0609,-231.383 85.7526,-239.895 95.9923,-237.175 92.0609,-231.383"/>
</g>
<!-- Node44 -->
<g id="node3" class="node"><title>Node44</title>
<g id="a_node3"><a xlink:href="group__adf7030-1____mem.html#gaa184749ff4ec2d53c167d51cbadb9b18" target="_top" xlink:title="Function call to read the Data block. ">
<polygon fill="white" stroke="black" points="337.5,-492.5 337.5,-511.5 476.5,-511.5 476.5,-492.5 337.5,-492.5"/>
<text text-anchor="middle" x="407" y="-499.5" font-family="Helvetica,sans-Serif" font-size="10.00">adf7030_1__ReadDataBlock</text>
</a>
</g>
</g>
<!-- Node43&#45;&gt;Node44 -->
<g id="edge2" class="edge"><title>Node43&#45;&gt;Node44</title>
<path fill="none" stroke="midnightblue" d="M239.653,-366.752C254.988,-396.152 288.699,-452.842 334,-483 339.811,-486.869 346.374,-489.951 353.114,-492.406"/>
<polygon fill="midnightblue" stroke="midnightblue" points="242.648,-364.919 235.007,-357.58 236.404,-368.082 242.648,-364.919"/>
</g>
<!-- Node46 -->
<g id="node5" class="node"><title>Node46</title>
<g id="a_node5"><a xlink:href="group__adf7030-1____mem.html#gaaed60fb0edafdf66ac0dd799752e9a5a" target="_top" xlink:title="Function call to partially read a section of the Host Data block. ">
<polygon fill="white" stroke="black" points="337,-443 337,-473 477,-473 477,-443 337,-443"/>
<text text-anchor="start" x="345" y="-461" font-family="Helvetica,sans-Serif" font-size="10.00">adf7030_1__ReadPartiaData</text>
<text text-anchor="middle" x="407" y="-450" font-family="Helvetica,sans-Serif" font-size="10.00">Block</text>
</a>
</g>
</g>
<!-- Node43&#45;&gt;Node46 -->
<g id="edge4" class="edge"><title>Node43&#45;&gt;Node46</title>
<path fill="none" stroke="midnightblue" d="M247.051,-364.796C266.407,-383.63 300.129,-414.015 334,-433 340.579,-436.688 347.798,-439.973 355.046,-442.851"/>
<polygon fill="midnightblue" stroke="midnightblue" points="249.478,-362.273 239.907,-357.729 244.555,-367.249 249.478,-362.273"/>
</g>
<!-- Node47 -->
<g id="node6" class="node"><title>Node47</title>
<g id="a_node6"><a xlink:href="group__adf7030-1____mem.html#gacf6942abdfef8b5994cb07ffc51acd05" target="_top" xlink:title="Function call to verify the integrity of Data block. ">
<polygon fill="white" stroke="black" points="336.5,-404.5 336.5,-423.5 477.5,-423.5 477.5,-404.5 336.5,-404.5"/>
<text text-anchor="middle" x="407" y="-411.5" font-family="Helvetica,sans-Serif" font-size="10.00">adf7030_1__VerifyDataBlock</text>
</a>
</g>
</g>
<!-- Node43&#45;&gt;Node47 -->
<g id="edge5" class="edge"><title>Node43&#45;&gt;Node47</title>
<path fill="none" stroke="midnightblue" d="M258.272,-362.157C278.816,-372.245 307.679,-385.626 334,-395 343.865,-398.513 354.695,-401.705 364.892,-404.428"/>
<polygon fill="midnightblue" stroke="midnightblue" points="259.694,-358.955 249.181,-357.64 256.579,-365.224 259.694,-358.955"/>
</g>
<!-- Node48 -->
<g id="node7" class="node"><title>Node48</title>
<g id="a_node7"><a xlink:href="group__adf7030-1____mem.html#ga4373955bd51900d2f60a961005aa83cb" target="_top" xlink:title="Function call to verify the integrity of a portion of a Host Data block. ">
<polygon fill="white" stroke="black" points="345,-355 345,-385 469,-385 469,-355 345,-355"/>
<text text-anchor="start" x="353" y="-373" font-family="Helvetica,sans-Serif" font-size="10.00">adf7030_1__VerifyPartial</text>
<text text-anchor="middle" x="407" y="-362" font-family="Helvetica,sans-Serif" font-size="10.00">DataBlock</text>
</a>
</g>
</g>
<!-- Node43&#45;&gt;Node48 -->
<g id="edge6" class="edge"><title>Node43&#45;&gt;Node48</title>
<path fill="none" stroke="midnightblue" d="M306.147,-357.483C319.11,-359.108 332.433,-360.778 344.953,-362.347"/>
<polygon fill="midnightblue" stroke="midnightblue" points="306.207,-353.963 295.85,-356.192 305.337,-360.909 306.207,-353.963"/>
</g>
<!-- Node49 -->
<g id="node8" class="node"><title>Node49</title>
<g id="a_node8"><a xlink:href="group__adf7030-1____mem.html#gab45789e38821a80b3f9cce11b91277bc" target="_top" xlink:title="Function call to write the Data block. ">
<polygon fill="white" stroke="black" points="337,-316.5 337,-335.5 477,-335.5 477,-316.5 337,-316.5"/>
<text text-anchor="middle" x="407" y="-323.5" font-family="Helvetica,sans-Serif" font-size="10.00">adf7030_1__WriteDataBlock</text>
</a>
</g>
</g>
<!-- Node43&#45;&gt;Node49 -->
<g id="edge7" class="edge"><title>Node43&#45;&gt;Node49</title>
<path fill="none" stroke="midnightblue" d="M305.981,-338.538C316.209,-337.256 326.664,-335.945 336.776,-334.678"/>
<polygon fill="midnightblue" stroke="midnightblue" points="305.337,-335.091 295.85,-339.808 306.207,-342.037 305.337,-335.091"/>
</g>
<!-- Node50 -->
<g id="node9" class="node"><title>Node50</title>
<g id="a_node9"><a xlink:href="group__adf7030-1____mem.html#gae2459967f63b227938db62e1b5388afc" target="_top" xlink:title="Function call to partially write a section of the Host Data block. ">
<polygon fill="white" stroke="black" points="335.5,-267 335.5,-297 478.5,-297 478.5,-267 335.5,-267"/>
<text text-anchor="start" x="343.5" y="-285" font-family="Helvetica,sans-Serif" font-size="10.00">adf7030_1__WritePartialData</text>
<text text-anchor="middle" x="407" y="-274" font-family="Helvetica,sans-Serif" font-size="10.00">Block</text>
</a>
</g>
</g>
<!-- Node43&#45;&gt;Node50 -->
<g id="edge8" class="edge"><title>Node43&#45;&gt;Node50</title>
<path fill="none" stroke="midnightblue" d="M263.231,-334.617C283.524,-326.424 310.178,-315.849 334,-307 342.931,-303.682 352.533,-300.253 361.723,-297.038"/>
<polygon fill="midnightblue" stroke="midnightblue" points="261.774,-331.431 253.82,-338.43 264.402,-337.919 261.774,-331.431"/>
</g>
<!-- Node51 -->
<g id="node10" class="node"><title>Node51</title>
<g id="a_node10"><a xlink:href="group__adf7030-1____mem.html#gae8fab7f4a9d7bc3432f2b85b789510e1" target="_top" xlink:title="Generic Configuration transfers function between Host and the Radio PHY. ">
<polygon fill="white" stroke="black" points="350,-228.5 350,-247.5 464,-247.5 464,-228.5 350,-228.5"/>
<text text-anchor="middle" x="407" y="-235.5" font-family="Helvetica,sans-Serif" font-size="10.00">adf7030_1__XferConfig</text>
</a>
</g>
</g>
<!-- Node43&#45;&gt;Node51 -->
<g id="edge9" class="edge"><title>Node43&#45;&gt;Node51</title>
<path fill="none" stroke="midnightblue" d="M245.373,-330.751C264.039,-310.184 297.997,-276.186 334,-257 341.188,-253.17 349.198,-250.074 357.191,-247.583"/>
<polygon fill="midnightblue" stroke="midnightblue" points="242.59,-328.614 238.564,-338.414 247.823,-333.264 242.59,-328.614"/>
</g>
<!-- Node45 -->
<g id="node4" class="node"><title>Node45</title>
<g id="a_node4"><a xlink:href="group__adf7030-1____core.html#gaa8110804874966018d0b7bfe40cbc001" target="_top" xlink:title="Initialise the Host shadow configuration of the PHY Radio. ">
<polygon fill="white" stroke="black" points="516,-492.5 516,-511.5 665,-511.5 665,-492.5 516,-492.5"/>
<text text-anchor="middle" x="590.5" y="-499.5" font-family="Helvetica,sans-Serif" font-size="10.00">adf7030_1__SetupHostPhyCfg</text>
</a>
</g>
</g>
<!-- Node44&#45;&gt;Node45 -->
<g id="edge3" class="edge"><title>Node44&#45;&gt;Node45</title>
<path fill="none" stroke="midnightblue" d="M486.662,-502C496.385,-502 506.296,-502 515.939,-502"/>
<polygon fill="midnightblue" stroke="midnightblue" points="486.617,-498.5 476.617,-502 486.617,-505.5 486.617,-498.5"/>
</g>
<!-- Node52 -->
<g id="node11" class="node"><title>Node52</title>
<g id="a_node11"><a xlink:href="group__adf7030-1____mem.html#gaf9027afec4eb550d5d563efbb1ed3cbb" target="_top" xlink:title="Function call to read Configuration from Radio PHY. ">
<polygon fill="white" stroke="black" points="530,-266.5 530,-285.5 651,-285.5 651,-266.5 530,-266.5"/>
<text text-anchor="middle" x="590.5" y="-273.5" font-family="Helvetica,sans-Serif" font-size="10.00">adf7030_1__ReadConfig</text>
</a>
</g>
</g>
<!-- Node51&#45;&gt;Node52 -->
<g id="edge10" class="edge"><title>Node51&#45;&gt;Node52</title>
<path fill="none" stroke="midnightblue" d="M463.792,-249.681C489.531,-255.07 519.699,-261.386 544.029,-266.48"/>
<polygon fill="midnightblue" stroke="midnightblue" points="464.305,-246.213 453.8,-247.589 462.871,-253.064 464.305,-246.213"/>
</g>
<!-- Node53 -->
<g id="node12" class="node"><title>Node53</title>
<g id="a_node12"><a xlink:href="group__adf7030-1____mem.html#gaeb52c8834f7abccae8965541f562fe80" target="_top" xlink:title="Function call to verify the integrity of the patch. ">
<polygon fill="white" stroke="black" points="529,-228.5 529,-247.5 652,-247.5 652,-228.5 529,-228.5"/>
<text text-anchor="middle" x="590.5" y="-235.5" font-family="Helvetica,sans-Serif" font-size="10.00">adf7030_1__VerifyConfig</text>
</a>
</g>
</g>
<!-- Node51&#45;&gt;Node53 -->
<g id="edge11" class="edge"><title>Node51&#45;&gt;Node53</title>
<path fill="none" stroke="midnightblue" d="M474.668,-238C492.348,-238 511.342,-238 528.692,-238"/>
<polygon fill="midnightblue" stroke="midnightblue" points="474.433,-234.5 464.433,-238 474.433,-241.5 474.433,-234.5"/>
</g>
<!-- Node54 -->
<g id="node13" class="node"><title>Node54</title>
<g id="a_node13"><a xlink:href="group__adf7030-1____mem.html#ga79e0355d8a6b661e6b0d7d6be01d04a2" target="_top" xlink:title="Function call to write Configuration to Radio PHY. ">
<polygon fill="white" stroke="black" points="529.5,-190.5 529.5,-209.5 651.5,-209.5 651.5,-190.5 529.5,-190.5"/>
<text text-anchor="middle" x="590.5" y="-197.5" font-family="Helvetica,sans-Serif" font-size="10.00">adf7030_1__WriteConfig</text>
</a>
</g>
</g>
<!-- Node51&#45;&gt;Node54 -->
<g id="edge12" class="edge"><title>Node51&#45;&gt;Node54</title>
<path fill="none" stroke="midnightblue" d="M463.792,-226.319C489.531,-220.93 519.699,-214.614 544.029,-209.52"/>
<polygon fill="midnightblue" stroke="midnightblue" points="462.871,-222.936 453.8,-228.411 464.305,-229.787 462.871,-222.936"/>
</g>
<!-- Node56 -->
<g id="node15" class="node"><title>Node56</title>
<g id="a_node15"><a xlink:href="group__adf7030-1____patch.html#gac583b9f3bee6f80cf1f418c6e35f57c2" target="_top" xlink:title="Function to read a single Patch block to the PHY Radio. ">
<polygon fill="white" stroke="black" points="335,-190.5 335,-209.5 479,-209.5 479,-190.5 335,-190.5"/>
<text text-anchor="middle" x="407" y="-197.5" font-family="Helvetica,sans-Serif" font-size="10.00">adf7030_1__ReadPatchBlock</text>
</a>
</g>
</g>
<!-- Node55&#45;&gt;Node56 -->
<g id="edge14" class="edge"><title>Node55&#45;&gt;Node56</title>
<path fill="none" stroke="midnightblue" d="M263.896,-156.167C284.04,-163.881 310.307,-173.542 334,-181 344.605,-184.338 356.21,-187.578 366.947,-190.408"/>
<polygon fill="midnightblue" stroke="midnightblue" points="265.127,-152.89 254.538,-152.554 262.606,-159.421 265.127,-152.89"/>
</g>
<!-- Node57 -->
<g id="node16" class="node"><title>Node57</title>
<g id="a_node16"><a xlink:href="group__adf7030-1____patch.html#ga390ff5ab41b522ebfebba9251e135c0a" target="_top" xlink:title="Function to verify content of a single Patch block in the PHY. ">
<polygon fill="white" stroke="black" points="334,-152.5 334,-171.5 480,-171.5 480,-152.5 334,-152.5"/>
<text text-anchor="middle" x="407" y="-159.5" font-family="Helvetica,sans-Serif" font-size="10.00">adf7030_1__VerifyPatchBlock</text>
</a>
</g>
</g>
<!-- Node55&#45;&gt;Node57 -->
<g id="edge15" class="edge"><title>Node55&#45;&gt;Node57</title>
<path fill="none" stroke="midnightblue" d="M308.06,-151.397C316.611,-152.323 325.292,-153.262 333.774,-154.181"/>
<polygon fill="midnightblue" stroke="midnightblue" points="308.421,-147.915 298.102,-150.319 307.667,-154.875 308.421,-147.915"/>
</g>
<!-- Node59 -->
<g id="node18" class="node"><title>Node59</title>
<g id="a_node18"><a xlink:href="group__adf7030-1____patch.html#ga3a7fd2ebaf84d3a0eb18b50ab89403b0" target="_top" xlink:title="Function to write a single Patch block to the PHY Radio. ">
<polygon fill="white" stroke="black" points="334.5,-114.5 334.5,-133.5 479.5,-133.5 479.5,-114.5 334.5,-114.5"/>
<text text-anchor="middle" x="407" y="-121.5" font-family="Helvetica,sans-Serif" font-size="10.00">adf7030_1__WritePatchBlock</text>
</a>
</g>
</g>
<!-- Node55&#45;&gt;Node59 -->
<g id="edge17" class="edge"><title>Node55&#45;&gt;Node59</title>
<path fill="none" stroke="midnightblue" d="M308.226,-134.585C316.92,-133.644 325.746,-132.688 334.359,-131.756"/>
<polygon fill="midnightblue" stroke="midnightblue" points="307.667,-131.125 298.102,-135.681 308.42,-138.085 307.667,-131.125"/>
</g>
<!-- Node60 -->
<g id="node19" class="node"><title>Node60</title>
<g id="a_node19"><a xlink:href="group__adf7030-1____patch.html#ga6c7b2435960b91a621d2b7b59eae91f6" target="_top" xlink:title="Generic Patch checksum configuration transfers function between Host and the Radio PHY...">
<polygon fill="white" stroke="black" points="340,-76.5 340,-95.5 474,-95.5 474,-76.5 340,-76.5"/>
<text text-anchor="middle" x="407" y="-83.5" font-family="Helvetica,sans-Serif" font-size="10.00">adf7030_1__XferChecksum</text>
</a>
</g>
</g>
<!-- Node55&#45;&gt;Node60 -->
<g id="edge19" class="edge"><title>Node55&#45;&gt;Node60</title>
<path fill="none" stroke="midnightblue" d="M263.896,-129.833C284.04,-122.119 310.307,-112.458 334,-105 344.605,-101.662 356.21,-98.4225 366.947,-95.592"/>
<polygon fill="midnightblue" stroke="midnightblue" points="262.606,-126.579 254.538,-133.446 265.127,-133.11 262.606,-126.579"/>
</g>
<!-- Node61 -->
<g id="node20" class="node"><title>Node61</title>
<g id="a_node20"><a xlink:href="group__adf7030-1____patch.html#ga4c271dbe767d130f0efd24c9e98bd2f9" target="_top" xlink:title="Generic Patch transfers function between Host and the Radio PHY. ">
<polygon fill="white" stroke="black" points="350.5,-38.5 350.5,-57.5 463.5,-57.5 463.5,-38.5 350.5,-38.5"/>
<text text-anchor="middle" x="407" y="-45.5" font-family="Helvetica,sans-Serif" font-size="10.00">adf7030_1__XferPatch</text>
</a>
</g>
</g>
<!-- Node55&#45;&gt;Node61 -->
<g id="edge20" class="edge"><title>Node55&#45;&gt;Node61</title>
<path fill="none" stroke="midnightblue" d="M248.347,-126.597C267.965,-109.396 301.087,-82.7244 334,-67 341.932,-63.2104 350.731,-60.0934 359.375,-57.5591"/>
<polygon fill="midnightblue" stroke="midnightblue" points="245.935,-124.059 240.806,-133.329 250.596,-129.28 245.935,-124.059"/>
</g>
<!-- Node58 -->
<g id="node17" class="node"><title>Node58</title>
<g id="a_node17"><a xlink:href="group__adf7030-1____patch.html#ga3102258e3a1861d13c16c82d1e68537f" target="_top" xlink:title="Function call to perform PHY Radio patch self&#45;checking. ">
<polygon fill="white" stroke="black" points="520,-133.5 520,-152.5 661,-152.5 661,-133.5 520,-133.5"/>
<text text-anchor="middle" x="590.5" y="-140.5" font-family="Helvetica,sans-Serif" font-size="10.00">adf7030_1__SelfCheckPatch</text>
</a>
</g>
</g>
<!-- Node57&#45;&gt;Node58 -->
<g id="edge16" class="edge"><title>Node57&#45;&gt;Node58</title>
<path fill="none" stroke="midnightblue" d="M490.434,-153.371C500.267,-152.341 510.231,-151.298 519.859,-150.29"/>
<polygon fill="midnightblue" stroke="midnightblue" points="489.836,-149.914 480.255,-154.436 490.565,-156.876 489.836,-149.914"/>
</g>
<!-- Node59&#45;&gt;Node58 -->
<g id="edge18" class="edge"><title>Node59&#45;&gt;Node58</title>
<path fill="none" stroke="midnightblue" d="M489.704,-132.553C499.743,-133.604 509.93,-134.67 519.769,-135.7"/>
<polygon fill="midnightblue" stroke="midnightblue" points="490.044,-129.07 479.734,-131.509 489.315,-136.032 490.044,-129.07"/>
</g>
<!-- Node62 -->
<g id="node21" class="node"><title>Node62</title>
<g id="a_node21"><a xlink:href="group__adf7030-1____patch.html#ga7c495e105742698cc777a712e2da9ad2" target="_top" xlink:title="Function call to readback the patch from Radio PHY. ">
<polygon fill="white" stroke="black" points="531,-76.5 531,-95.5 650,-95.5 650,-76.5 531,-76.5"/>
<text text-anchor="middle" x="590.5" y="-83.5" font-family="Helvetica,sans-Serif" font-size="10.00">adf7030_1__ReadPatch</text>
</a>
</g>
</g>
<!-- Node61&#45;&gt;Node62 -->
<g id="edge21" class="edge"><title>Node61&#45;&gt;Node62</title>
<path fill="none" stroke="midnightblue" d="M463.792,-59.681C489.531,-65.0699 519.699,-71.3861 544.029,-76.4799"/>
<polygon fill="midnightblue" stroke="midnightblue" points="464.305,-56.2126 453.8,-57.589 462.871,-63.064 464.305,-56.2126"/>
</g>
<!-- Node63 -->
<g id="node22" class="node"><title>Node63</title>
<g id="a_node22"><a xlink:href="group__adf7030-1____patch.html#ga1f1e316b541da1c27fb0a24f0b7efc7d" target="_top" xlink:title="Function call to verify the integrity of the patch. ">
<polygon fill="white" stroke="black" points="529.5,-38.5 529.5,-57.5 651.5,-57.5 651.5,-38.5 529.5,-38.5"/>
<text text-anchor="middle" x="590.5" y="-45.5" font-family="Helvetica,sans-Serif" font-size="10.00">adf7030_1__VerifyPatch</text>
</a>
</g>
</g>
<!-- Node61&#45;&gt;Node63 -->
<g id="edge22" class="edge"><title>Node61&#45;&gt;Node63</title>
<path fill="none" stroke="midnightblue" d="M474.094,-48C492.155,-48 511.625,-48 529.336,-48"/>
<polygon fill="midnightblue" stroke="midnightblue" points="473.937,-44.5001 463.937,-48 473.937,-51.5001 473.937,-44.5001"/>
</g>
<!-- Node64 -->
<g id="node23" class="node"><title>Node64</title>
<g id="a_node23"><a xlink:href="group__adf7030-1____patch.html#gaf6c0681c1cf8597650889b34d1b4bd2f" target="_top" xlink:title="Function call to write patch to Radio PHY. ">
<polygon fill="white" stroke="black" points="530.5,-0.5 530.5,-19.5 650.5,-19.5 650.5,-0.5 530.5,-0.5"/>
<text text-anchor="middle" x="590.5" y="-7.5" font-family="Helvetica,sans-Serif" font-size="10.00">adf7030_1__WritePatch</text>
</a>
</g>
</g>
<!-- Node61&#45;&gt;Node64 -->
<g id="edge23" class="edge"><title>Node61&#45;&gt;Node64</title>
<path fill="none" stroke="midnightblue" d="M463.792,-36.319C489.531,-30.9301 519.699,-24.6139 544.029,-19.5201"/>
<polygon fill="midnightblue" stroke="midnightblue" points="462.871,-32.936 453.8,-38.411 464.305,-39.7874 462.871,-32.936"/>
</g>
</g>
</svg>
        <g id="navigator" transform="translate(0 0)" fill="#404254">
                <rect fill="#f2f5e9" fill-opacity="0.5" stroke="#606060" stroke-width=".5" x="0" y="0" width="60" height="60"/>
                <use id="zoomplus" xlink:href="#zoomPlus" x="17" y="9" onmousedown="handleZoom(evt,'in')"/>
                <use id="zoomminus" xlink:href="#zoomMin" x="42" y="9" onmousedown="handleZoom(evt,'out')"/>
                <use id="reset" xlink:href="#resetDef" x="30" y="36" onmousedown="handleReset()"/>
                <g id="arrowUp" xlink:href="#dirArrow" transform="translate(30 24)" onmousedown="handlePan(0,-1)">
                  <use xlink:href="#rim" fill="#404040">
                        <set attributeName="fill" to="#808080" begin="arrowUp.mouseover" end="arrowUp.mouseout"/>
                  </use>
                  <path fill="none" stroke="white" stroke-width="1.5" d="M0,-3.0v7 M-2.5,-0.5L0,-3.0L2.5,-0.5"/>
                </g>
                <g id="arrowRight" xlink:href="#dirArrow" transform="rotate(90) translate(36 -43)" onmousedown="handlePan(1,0)">
                  <use xlink:href="#rim" fill="#404040">
                        <set attributeName="fill" to="#808080" begin="arrowRight.mouseover" end="arrowRight.mouseout"/>
                  </use>
                  <path fill="none" stroke="white" stroke-width="1.5" d="M0,-3.0v7 M-2.5,-0.5L0,-3.0L2.5,-0.5"/>
                </g>
                <g id="arrowDown" xlink:href="#dirArrow" transform="rotate(180) translate(-30 -48)" onmousedown="handlePan(0,1)">
                  <use xlink:href="#rim" fill="#404040">
                        <set attributeName="fill" to="#808080" begin="arrowDown.mouseover" end="arrowDown.mouseout"/>
                  </use>
                  <path fill="none" stroke="white" stroke-width="1.5" d="M0,-3.0v7 M-2.5,-0.5L0,-3.0L2.5,-0.5"/>
                </g>
                <g id="arrowLeft" xlink:href="#dirArrow" transform="rotate(270) translate(-36 17)" onmousedown="handlePan(-1,0)">
                  <use xlink:href="#rim" fill="#404040">
                        <set attributeName="fill" to="#808080" begin="arrowLeft.mouseover" end="arrowLeft.mouseout"/>
                  </use>
                  <path fill="none" stroke="white" stroke-width="1.5" d="M0,-3.0v7 M-2.5,-0.5L0,-3.0L2.5,-0.5"/>
                </g>
        </g>
        <svg viewBox="0 0 15 15" width="100%" height="30px" preserveAspectRatio="xMaxYMin meet">
         <g id="arrow_out" transform="scale(0.3 0.3)">
          <a xlink:href="group__adf7030-1____spi_ga0b334362c3e1aeb752f58c60a263a9cf_icgraph_org.svg" target="_base">
           <rect id="button" ry="5" rx="5" y="6" x="6" height="38" width="38"
                fill="#f2f5e9" fill-opacity="0.5" stroke="#606060" stroke-width="1.0"/>
           <path id="arrow"
             d="M 11.500037,31.436501 C 11.940474,20.09759 22.043105,11.32322 32.158766,21.979434 L 37.068811,17.246167 C 37.068811,17.246167 37.088388,32 37.088388,32 L 22.160133,31.978069 C 22.160133,31.978069 26.997745,27.140456 26.997745,27.140456 C 18.528582,18.264221 13.291696,25.230495 11.500037,31.436501 z"
             style="fill:#404040;"/>
          </a>
         </g>
        </svg>
</svg>
