<?xml version="1.0" encoding="UTF-8" standalone="no"?>
<!DOCTYPE svg PUBLIC "-//W3C//DTD SVG 1.1//EN"
 "http://www.w3.org/Graphics/SVG/1.1/DTD/svg11.dtd">
<!-- Generated by graphviz version 2.38.0 (20140413.2041)
 -->
<!-- Title: adf7030_1__XferCfgSeq Pages: 1 -->
<svg width="582pt" height="28pt"
 viewBox="0.00 0.00 582.00 28.00" xmlns="http://www.w3.org/2000/svg" xmlns:xlink="http://www.w3.org/1999/xlink">
<g id="graph0" class="graph" transform="scale(1 1) rotate(0) translate(4 24)">
<title>adf7030_1__XferCfgSeq</title>
<polygon fill="white" stroke="none" points="-4,4 -4,-24 578,-24 578,4 -4,4"/>
<!-- Node6 -->
<g id="node1" class="node"><title>Node6</title>
<polygon fill="#bfbfbf" stroke="black" points="0,-0.5 0,-19.5 119,-19.5 119,-0.5 0,-0.5"/>
<text text-anchor="middle" x="59.5" y="-7.5" font-family="Helvetica,sans-Serif" font-size="10.00">adf7030_1__XferCfgSeq</text>
</g>
<!-- Node7 -->
<g id="node2" class="node"><title>Node7</title>
<g id="a_node2"><a xlink:href="group__adf7030-1____cfg.html#ga79c8a4795fbb0bc9040e6ebe0a723df7" target="_top" xlink:title="ADI Radio Configuration transfer function. ">
<polygon fill="white" stroke="black" points="155,-0.5 155,-19.5 305,-19.5 305,-0.5 155,-0.5"/>
<text text-anchor="middle" x="230" y="-7.5" font-family="Helvetica,sans-Serif" font-size="10.00">adf7030_1__SendConfiguration</text>
</a>
</g>
</g>
<!-- Node6&#45;&gt;Node7 -->
<g id="edge1" class="edge"><title>Node6&#45;&gt;Node7</title>
<path fill="none" stroke="midnightblue" d="M129.541,-10C137.932,-10 146.531,-10 154.99,-10"/>
<polygon fill="midnightblue" stroke="midnightblue" points="129.433,-6.5001 119.433,-10 129.433,-13.5001 129.433,-6.5001"/>
</g>
<!-- Node8 -->
<g id="node3" class="node"><title>Node8</title>
<g id="a_node3"><a xlink:href="group__adf7030-1____core.html#ga8fc7a869a747268f0ed652ec4954a352" target="_top" xlink:title="Enable the adf7030&#45;1. ">
<polygon fill="white" stroke="black" points="341,-0.5 341,-19.5 442,-19.5 442,-0.5 341,-0.5"/>
<text text-anchor="middle" x="391.5" y="-7.5" font-family="Helvetica,sans-Serif" font-size="10.00">adf7030_1__Enable</text>
</a>
</g>
</g>
<!-- Node7&#45;&gt;Node8 -->
<g id="edge2" class="edge"><title>Node7&#45;&gt;Node8</title>
<path fill="none" stroke="midnightblue" d="M315.322,-10C323.982,-10 332.57,-10 340.676,-10"/>
<polygon fill="midnightblue" stroke="midnightblue" points="315.147,-6.5001 305.147,-10 315.147,-13.5001 315.147,-6.5001"/>
</g>
<!-- Node9 -->
<g id="node4" class="node"><title>Node9</title>
<g id="a_node4"><a xlink:href="group__adf7030-1____core.html#ga3e7db2dcab244e93d0e97d24ee3eef86" target="_top" xlink:title="Closes the adf7030&#45;1 instance. ">
<polygon fill="white" stroke="black" points="478,-0.5 478,-19.5 574,-19.5 574,-0.5 478,-0.5"/>
<text text-anchor="middle" x="526" y="-7.5" font-family="Helvetica,sans-Serif" font-size="10.00">adf7030_1__Close</text>
</a>
</g>
</g>
<!-- Node8&#45;&gt;Node9 -->
<g id="edge3" class="edge"><title>Node8&#45;&gt;Node9</title>
<path fill="none" stroke="midnightblue" d="M452.42,-10C460.874,-10 469.466,-10 477.639,-10"/>
<polygon fill="midnightblue" stroke="midnightblue" points="452.215,-6.5001 442.215,-10 452.215,-13.5001 452.215,-6.5001"/>
</g>
</g>
</svg>
