<?xml version="1.0" encoding="UTF-8" standalone="no"?>
<!DOCTYPE svg PUBLIC "-//W3C//DTD SVG 1.1//EN"
 "http://www.w3.org/Graphics/SVG/1.1/DTD/svg11.dtd">
<!-- Generated by graphviz version 2.38.0 (20140413.2041)
 -->
<!-- Title: Example Applications Pages: 1 -->
<svg width="304pt" height="362pt"
 viewBox="0.00 0.00 304.00 361.50" xmlns="http://www.w3.org/2000/svg" xmlns:xlink="http://www.w3.org/1999/xlink">
<g id="graph0" class="graph" transform="scale(1 1) rotate(0) translate(4 357.5)">
<title>Example Applications</title>
<polygon fill="white" stroke="none" points="-4,4 -4,-357.5 300,-357.5 300,4 -4,4"/>
<!-- Node4 -->
<g id="node1" class="node"><title>Node4</title>
<g id="a_node1"><a xlink:href="group__adf7030-1__examples__tx___p_e_r.html" target="_top" xlink:title="ADF7030&#45;1 Multiple\l Packet Transmission">
<polygon fill="white" stroke="black" points="166,-323 166,-353 277,-353 277,-323 166,-323"/>
<text text-anchor="start" x="174" y="-341" font-family="Helvetica,sans-Serif" font-size="10.00">ADF7030&#45;1 Multiple</text>
<text text-anchor="middle" x="221.5" y="-330" font-family="Helvetica,sans-Serif" font-size="10.00"> Packet Transmission</text>
</a>
</g>
</g>
<!-- Node8 -->
<g id="node2" class="node"><title>Node8</title>
<g id="a_node2"><a xlink:href="group__adf7030-1__utils.html" target="_top" xlink:title="Auxillary Utils">
<polygon fill="white" stroke="black" points="183,-284.5 183,-303.5 260,-303.5 260,-284.5 183,-284.5"/>
<text text-anchor="middle" x="221.5" y="-291.5" font-family="Helvetica,sans-Serif" font-size="10.00">Auxillary Utils</text>
</a>
</g>
</g>
<!-- Node2 -->
<g id="node3" class="node"><title>Node2</title>
<g id="a_node3"><a xlink:href="group__adf7030-1__examples__continuous__tx__testmodes__bis.html" target="_top" xlink:title="ADF7030&#45;1 TX Continuous\l Testmodes (Bis)">
<polygon fill="white" stroke="black" points="156,-235 156,-265 287,-265 287,-235 156,-235"/>
<text text-anchor="start" x="164" y="-253" font-family="Helvetica,sans-Serif" font-size="10.00">ADF7030&#45;1 TX Continuous</text>
<text text-anchor="middle" x="221.5" y="-242" font-family="Helvetica,sans-Serif" font-size="10.00"> Testmodes (Bis)</text>
</a>
</g>
</g>
<!-- Node0 -->
<g id="node4" class="node"><title>Node0</title>
<polygon fill="#bfbfbf" stroke="black" points="0,-166.5 0,-185.5 111,-185.5 111,-166.5 0,-166.5"/>
<text text-anchor="middle" x="55.5" y="-173.5" font-family="Helvetica,sans-Serif" font-size="10.00">Example Applications</text>
</g>
<!-- Node0&#45;&gt;Node4 -->
<g id="edge4" class="edge"><title>Node0&#45;&gt;Node4</title>
<path fill="none" stroke="black" d="M64.2082,-195.064C77.0591,-224.524 105.602,-281.041 147,-313 152.655,-317.365 159.118,-320.995 165.813,-324.006"/>
<polygon fill="black" stroke="black" points="67.2988,-193.385 60.1889,-185.53 60.8486,-196.105 67.2988,-193.385"/>
</g>
<!-- Node0&#45;&gt;Node8 -->
<g id="edge8" class="edge"><title>Node0&#45;&gt;Node8</title>
<path fill="none" stroke="black" d="M68.151,-194.166C83.497,-216.596 112.604,-254.307 147,-275 157.842,-281.522 170.888,-285.825 182.961,-288.655"/>
<polygon fill="black" stroke="black" points="70.8942,-191.971 62.4413,-185.583 65.066,-195.848 70.8942,-191.971"/>
</g>
<!-- Node0&#45;&gt;Node2 -->
<g id="edge2" class="edge"><title>Node0&#45;&gt;Node2</title>
<path fill="none" stroke="black" d="M80.3701,-190.82C98.2616,-201.521 123.59,-215.82 147,-226 154.386,-229.212 162.347,-232.236 170.208,-234.985"/>
<polygon fill="black" stroke="black" points="82.108,-187.781 71.7415,-185.593 78.4812,-193.768 82.108,-187.781"/>
</g>
<!-- Node6 -->
<g id="node5" class="node"><title>Node6</title>
<g id="a_node5"><a xlink:href="group__adf7030-1__examples__tx__gpio.html" target="_top" xlink:title="ADF7030&#45;1 GPIO triggered\l Packet Transmission">
<polygon fill="white" stroke="black" points="155,-186 155,-216 288,-216 288,-186 155,-186"/>
<text text-anchor="start" x="163" y="-204" font-family="Helvetica,sans-Serif" font-size="10.00">ADF7030&#45;1 GPIO triggered</text>
<text text-anchor="middle" x="221.5" y="-193" font-family="Helvetica,sans-Serif" font-size="10.00"> Packet Transmission</text>
</a>
</g>
</g>
<!-- Node0&#45;&gt;Node6 -->
<g id="edge6" class="edge"><title>Node0&#45;&gt;Node6</title>
<path fill="none" stroke="black" d="M121.11,-185.849C132.162,-187.534 143.655,-189.286 154.736,-190.975"/>
<polygon fill="black" stroke="black" points="121.523,-182.372 111.11,-184.325 120.468,-189.292 121.523,-182.372"/>
</g>
<!-- Node1 -->
<g id="node6" class="node"><title>Node1</title>
<g id="a_node6"><a xlink:href="group__adf7030-1__examples__tx__testmodes.html" target="_top" xlink:title="ADF7030&#45;1 TX Continuous\l Testmodes">
<polygon fill="white" stroke="black" points="156,-137 156,-167 287,-167 287,-137 156,-137"/>
<text text-anchor="start" x="164" y="-155" font-family="Helvetica,sans-Serif" font-size="10.00">ADF7030&#45;1 TX Continuous</text>
<text text-anchor="middle" x="221.5" y="-144" font-family="Helvetica,sans-Serif" font-size="10.00"> Testmodes</text>
</a>
</g>
</g>
<!-- Node0&#45;&gt;Node1 -->
<g id="edge1" class="edge"><title>Node0&#45;&gt;Node1</title>
<path fill="none" stroke="black" d="M121.034,-166.556C132.493,-164.879 144.431,-163.132 155.893,-161.455"/>
<polygon fill="black" stroke="black" points="120.497,-163.097 111.11,-168.008 121.511,-170.023 120.497,-163.097"/>
</g>
<!-- Node5 -->
<g id="node7" class="node"><title>Node5</title>
<g id="a_node7"><a xlink:href="group__adf7030-1__examples__rx___p_e_r.html" target="_top" xlink:title="ADF7030&#45;1 Multiple\l Packet Reception">
<polygon fill="white" stroke="black" points="170.5,-88 170.5,-118 272.5,-118 272.5,-88 170.5,-88"/>
<text text-anchor="start" x="178.5" y="-106" font-family="Helvetica,sans-Serif" font-size="10.00">ADF7030&#45;1 Multiple</text>
<text text-anchor="middle" x="221.5" y="-95" font-family="Helvetica,sans-Serif" font-size="10.00"> Packet Reception</text>
</a>
</g>
</g>
<!-- Node0&#45;&gt;Node5 -->
<g id="edge5" class="edge"><title>Node0&#45;&gt;Node5</title>
<path fill="none" stroke="black" d="M81.9518,-161.093C99.7976,-150.992 124.408,-137.759 147,-128 155.166,-124.472 164.007,-121.102 172.632,-118.042"/>
<polygon fill="black" stroke="black" points="79.7277,-158.333 72.7891,-166.339 83.2063,-164.407 79.7277,-158.333"/>
</g>
<!-- Node7 -->
<g id="node8" class="node"><title>Node7</title>
<g id="a_node8"><a xlink:href="group__adf7030-1__examples__rx__gpio.html" target="_top" xlink:title="ADF7030&#45;1 GPIO triggered\l Abort Packet Reception">
<polygon fill="white" stroke="black" points="155,-39 155,-69 288,-69 288,-39 155,-39"/>
<text text-anchor="start" x="163" y="-57" font-family="Helvetica,sans-Serif" font-size="10.00">ADF7030&#45;1 GPIO triggered</text>
<text text-anchor="middle" x="221.5" y="-46" font-family="Helvetica,sans-Serif" font-size="10.00"> Abort Packet Reception</text>
</a>
</g>
</g>
<!-- Node0&#45;&gt;Node7 -->
<g id="edge7" class="edge"><title>Node0&#45;&gt;Node7</title>
<path fill="none" stroke="black" d="M68.9716,-157.95C84.7862,-136.322 113.999,-100.337 147,-79 152.886,-75.1945 159.413,-71.9036 166.078,-69.0751"/>
<polygon fill="black" stroke="black" points="66.0039,-156.083 63.0423,-166.256 71.7012,-160.151 66.0039,-156.083"/>
</g>
<!-- Node3 -->
<g id="node9" class="node"><title>Node3</title>
<g id="a_node9"><a xlink:href="group__adf7030-1__examples__offline__calibrations.html" target="_top" xlink:title="ADF7030&#45;1 Offline Calibrations">
<polygon fill="white" stroke="black" points="147,-0.5 147,-19.5 296,-19.5 296,-0.5 147,-0.5"/>
<text text-anchor="middle" x="221.5" y="-7.5" font-family="Helvetica,sans-Serif" font-size="10.00">ADF7030&#45;1 Offline Calibrations</text>
</a>
</g>
</g>
<!-- Node0&#45;&gt;Node3 -->
<g id="edge3" class="edge"><title>Node0&#45;&gt;Node3</title>
<path fill="none" stroke="black" d="M63.1135,-156.691C74.8903,-125.249 102.52,-63.1718 147,-30 152.831,-25.6518 159.548,-22.2487 166.503,-19.5855"/>
<polygon fill="black" stroke="black" points="59.6991,-155.843 59.6074,-166.437 66.2859,-158.213 59.6991,-155.843"/>
</g>
</g>
</svg>
