<?xml version="1.0" encoding="UTF-8" standalone="no"?>
<!DOCTYPE svg PUBLIC "-//W3C//DTD SVG 1.1//EN"
 "http://www.w3.org/Graphics/SVG/1.1/DTD/svg11.dtd">
<!-- Generated by graphviz version 2.38.0 (20140413.2041)
 -->
<!-- Title: adf7030_1__XferChecksum Pages: 1 -->
<svg width="705pt" height="127pt"
 viewBox="0.00 0.00 705.00 126.50" xmlns="http://www.w3.org/2000/svg" xmlns:xlink="http://www.w3.org/1999/xlink">
<g id="graph0" class="graph" transform="scale(1 1) rotate(0) translate(4 122.5)">
<title>adf7030_1__XferChecksum</title>
<polygon fill="white" stroke="none" points="-4,4 -4,-122.5 701,-122.5 701,4 -4,4"/>
<!-- Node59 -->
<g id="node1" class="node"><title>Node59</title>
<polygon fill="#bfbfbf" stroke="black" points="0,-55 0,-74 134,-74 134,-55 0,-55"/>
<text text-anchor="middle" x="67" y="-62" font-family="Helvetica,sans-Serif" font-size="10.00">adf7030_1__XferChecksum</text>
</g>
<!-- Node60 -->
<g id="node2" class="node"><title>Node60</title>
<g id="a_node2"><a xlink:href="group__adf7030-1____patch.html#ga71c53aa1ca866512fbfaa5d99a3181e8" target="_top" xlink:title="Generic Patch Section transfer function between Host and the Radio PHY. ">
<polygon fill="white" stroke="black" points="170,-55 170,-74 307,-74 307,-55 170,-55"/>
<text text-anchor="middle" x="238.5" y="-62" font-family="Helvetica,sans-Serif" font-size="10.00">adf7030_1__XferPatchBlock</text>
</a>
</g>
</g>
<!-- Node59&#45;&gt;Node60 -->
<g id="edge1" class="edge"><title>Node59&#45;&gt;Node60</title>
<path fill="none" stroke="midnightblue" d="M134.018,-64.5C142.503,-64.5 151.252,-64.5 159.901,-64.5"/>
<polygon fill="midnightblue" stroke="midnightblue" points="159.986,-68.0001 169.986,-64.5 159.986,-61.0001 159.986,-68.0001"/>
</g>
<!-- Node61 -->
<g id="node3" class="node"><title>Node61</title>
<g id="a_node3"><a xlink:href="group__adf7030-1____spi.html#ga7c54fff20ff0def7f7a3b9d7036f9cda" target="_top" xlink:title="This function return the best Pointer id + offset for subsequent SPI transfert to the PHY &quot;Addr&quot; prov...">
<polygon fill="white" stroke="black" points="343,-99 343,-118 512,-118 512,-99 343,-99"/>
<text text-anchor="middle" x="427.5" y="-106" font-family="Helvetica,sans-Serif" font-size="10.00">adf7030_1__SPI_FindMMapPointer</text>
</a>
</g>
</g>
<!-- Node60&#45;&gt;Node61 -->
<g id="edge2" class="edge"><title>Node60&#45;&gt;Node61</title>
<path fill="none" stroke="midnightblue" d="M278.298,-74.0006C297.713,-78.7219 321.583,-84.4771 343,-89.5 353.091,-91.8668 363.879,-94.3536 374.236,-96.7196"/>
<polygon fill="midnightblue" stroke="midnightblue" points="373.469,-100.134 383.996,-98.9431 375.023,-93.3093 373.469,-100.134"/>
</g>
<!-- Node62 -->
<g id="node4" class="node"><title>Node62</title>
<g id="a_node4"><a xlink:href="group__adf7030-1____spi.html#ga87f62777c793d805dac75887f167b2bf" target="_top" xlink:title="Change the SPI Radio mmap custom pointers 0 location. ">
<polygon fill="white" stroke="black" points="343.5,-49.5 343.5,-79.5 511.5,-79.5 511.5,-49.5 343.5,-49.5"/>
<text text-anchor="start" x="351.5" y="-67.5" font-family="Helvetica,sans-Serif" font-size="10.00">adf7030_1__SPI_SetMMapCustom</text>
<text text-anchor="middle" x="427.5" y="-56.5" font-family="Helvetica,sans-Serif" font-size="10.00">Pntr0</text>
</a>
</g>
</g>
<!-- Node60&#45;&gt;Node62 -->
<g id="edge3" class="edge"><title>Node60&#45;&gt;Node62</title>
<path fill="none" stroke="midnightblue" d="M307.011,-64.5C315.601,-64.5 324.508,-64.5 333.41,-64.5"/>
<polygon fill="midnightblue" stroke="midnightblue" points="333.441,-68.0001 343.441,-64.5 333.441,-61.0001 333.441,-68.0001"/>
</g>
<!-- Node64 -->
<g id="node6" class="node"><title>Node64</title>
<g id="a_node6"><a xlink:href="group__adf7030-1____spi.html#ga0b334362c3e1aeb752f58c60a263a9cf" target="_top" xlink:title="Read &amp; Compare a number of bytes(s) from memory of the adf7030&#45;1 to Host starting at location pointed...">
<polygon fill="white" stroke="black" points="365,-0.5 365,-30.5 490,-30.5 490,-0.5 365,-0.5"/>
<text text-anchor="start" x="373" y="-18.5" font-family="Helvetica,sans-Serif" font-size="10.00">adf7030_1__SPI_rd_cmp</text>
<text text-anchor="middle" x="427.5" y="-7.5" font-family="Helvetica,sans-Serif" font-size="10.00">_byte_p_a</text>
</a>
</g>
</g>
<!-- Node60&#45;&gt;Node64 -->
<g id="edge5" class="edge"><title>Node60&#45;&gt;Node64</title>
<path fill="none" stroke="midnightblue" d="M275.999,-54.936C299.674,-48.7324 331.233,-40.4629 359.336,-33.099"/>
<polygon fill="midnightblue" stroke="midnightblue" points="360.328,-36.4575 369.114,-30.537 358.553,-29.6861 360.328,-36.4575"/>
</g>
<!-- Node63 -->
<g id="node5" class="node"><title>Node63</title>
<g id="a_node5"><a xlink:href="group__adf7030-1____spi.html#ga6f0c25120c078623d42ede30fc690999" target="_top" xlink:title="Write a number of word(s) from Host to memory of the adf7030&#45;1 starting at location pointed by &quot;pntr&quot;...">
<polygon fill="white" stroke="black" points="548,-55 548,-74 697,-74 697,-55 548,-55"/>
<text text-anchor="middle" x="622.5" y="-62" font-family="Helvetica,sans-Serif" font-size="10.00">adf7030_1__SPI_wr_word_b_p</text>
</a>
</g>
</g>
<!-- Node62&#45;&gt;Node63 -->
<g id="edge4" class="edge"><title>Node62&#45;&gt;Node63</title>
<path fill="none" stroke="midnightblue" d="M511.75,-64.5C520.402,-64.5 529.2,-64.5 537.857,-64.5"/>
<polygon fill="midnightblue" stroke="midnightblue" points="537.938,-68.0001 547.938,-64.5 537.938,-61.0001 537.938,-68.0001"/>
</g>
</g>
</svg>
