<?xml version="1.0" encoding="UTF-8" standalone="no"?>
<!DOCTYPE svg PUBLIC "-//W3C//DTD SVG 1.1//EN"
 "http://www.w3.org/Graphics/SVG/1.1/DTD/svg11.dtd">
<!-- Generated by graphviz version 2.38.0 (20140413.2041)
 -->
<!-- Title: adf7030_1__SelfCheckPatch Pages: 1 -->
<svg width="894pt" height="127pt"
 viewBox="0.00 0.00 894.00 126.50" xmlns="http://www.w3.org/2000/svg" xmlns:xlink="http://www.w3.org/1999/xlink">
<g id="graph0" class="graph" transform="scale(1 1) rotate(0) translate(4 122.5)">
<title>adf7030_1__SelfCheckPatch</title>
<polygon fill="white" stroke="none" points="-4,4 -4,-122.5 890,-122.5 890,4 -4,4"/>
<!-- Node15 -->
<g id="node1" class="node"><title>Node15</title>
<polygon fill="#bfbfbf" stroke="black" points="0,-55 0,-74 141,-74 141,-55 0,-55"/>
<text text-anchor="middle" x="70.5" y="-62" font-family="Helvetica,sans-Serif" font-size="10.00">adf7030_1__SelfCheckPatch</text>
</g>
<!-- Node16 -->
<g id="node2" class="node"><title>Node16</title>
<g id="a_node2"><a xlink:href="group__adf7030-1____patch.html#ga390ff5ab41b522ebfebba9251e135c0a" target="_top" xlink:title="Function to verify content of a single Patch block in the PHY. ">
<polygon fill="white" stroke="black" points="177,-74 177,-93 323,-93 323,-74 177,-74"/>
<text text-anchor="middle" x="250" y="-81" font-family="Helvetica,sans-Serif" font-size="10.00">adf7030_1__VerifyPatchBlock</text>
</a>
</g>
</g>
<!-- Node15&#45;&gt;Node16 -->
<g id="edge1" class="edge"><title>Node15&#45;&gt;Node16</title>
<path fill="none" stroke="midnightblue" d="M141.143,-71.9548C149.59,-72.8589 158.279,-73.789 166.885,-74.7102"/>
<polygon fill="midnightblue" stroke="midnightblue" points="166.613,-78.201 176.929,-75.7853 167.358,-71.2408 166.613,-78.201"/>
</g>
<!-- Node22 -->
<g id="node8" class="node"><title>Node22</title>
<g id="a_node8"><a xlink:href="group__adf7030-1____patch.html#ga3a7fd2ebaf84d3a0eb18b50ab89403b0" target="_top" xlink:title="Function to write a single Patch block to the PHY Radio. ">
<polygon fill="white" stroke="black" points="177.5,-36 177.5,-55 322.5,-55 322.5,-36 177.5,-36"/>
<text text-anchor="middle" x="250" y="-43" font-family="Helvetica,sans-Serif" font-size="10.00">adf7030_1__WritePatchBlock</text>
</a>
</g>
</g>
<!-- Node15&#45;&gt;Node22 -->
<g id="edge7" class="edge"><title>Node15&#45;&gt;Node22</title>
<path fill="none" stroke="midnightblue" d="M141.143,-57.0452C149.66,-56.1336 158.423,-55.1956 167.098,-54.267"/>
<polygon fill="midnightblue" stroke="midnightblue" points="167.651,-57.7279 177.222,-53.1833 166.906,-50.7676 167.651,-57.7279"/>
</g>
<!-- Node17 -->
<g id="node3" class="node"><title>Node17</title>
<g id="a_node3"><a xlink:href="group__adf7030-1____patch.html#ga71c53aa1ca866512fbfaa5d99a3181e8" target="_top" xlink:title="Generic Patch Section transfer function between Host and the Radio PHY. ">
<polygon fill="white" stroke="black" points="359,-55 359,-74 496,-74 496,-55 359,-55"/>
<text text-anchor="middle" x="427.5" y="-62" font-family="Helvetica,sans-Serif" font-size="10.00">adf7030_1__XferPatchBlock</text>
</a>
</g>
</g>
<!-- Node16&#45;&gt;Node17 -->
<g id="edge2" class="edge"><title>Node16&#45;&gt;Node17</title>
<path fill="none" stroke="midnightblue" d="M323.142,-75.6897C331.636,-74.7701 340.332,-73.8287 348.897,-72.9015"/>
<polygon fill="midnightblue" stroke="midnightblue" points="349.306,-76.3777 358.871,-71.8216 348.553,-69.4184 349.306,-76.3777"/>
</g>
<!-- Node18 -->
<g id="node4" class="node"><title>Node18</title>
<g id="a_node4"><a xlink:href="group__adf7030-1____spi.html#ga7c54fff20ff0def7f7a3b9d7036f9cda" target="_top" xlink:title="This function return the best Pointer id + offset for subsequent SPI transfert to the PHY &quot;Addr&quot; prov...">
<polygon fill="white" stroke="black" points="532,-99 532,-118 701,-118 701,-99 532,-99"/>
<text text-anchor="middle" x="616.5" y="-106" font-family="Helvetica,sans-Serif" font-size="10.00">adf7030_1__SPI_FindMMapPointer</text>
</a>
</g>
</g>
<!-- Node17&#45;&gt;Node18 -->
<g id="edge3" class="edge"><title>Node17&#45;&gt;Node18</title>
<path fill="none" stroke="midnightblue" d="M469.076,-74.0473C497.257,-80.6781 535.001,-89.5591 565.11,-96.6435"/>
<polygon fill="midnightblue" stroke="midnightblue" points="564.467,-100.088 575.003,-98.9713 566.07,-93.2739 564.467,-100.088"/>
</g>
<!-- Node19 -->
<g id="node5" class="node"><title>Node19</title>
<g id="a_node5"><a xlink:href="group__adf7030-1____spi.html#ga87f62777c793d805dac75887f167b2bf" target="_top" xlink:title="Change the SPI Radio mmap custom pointers 0 location. ">
<polygon fill="white" stroke="black" points="532.5,-49.5 532.5,-79.5 700.5,-79.5 700.5,-49.5 532.5,-49.5"/>
<text text-anchor="start" x="540.5" y="-67.5" font-family="Helvetica,sans-Serif" font-size="10.00">adf7030_1__SPI_SetMMapCustom</text>
<text text-anchor="middle" x="616.5" y="-56.5" font-family="Helvetica,sans-Serif" font-size="10.00">Pntr0</text>
</a>
</g>
</g>
<!-- Node17&#45;&gt;Node19 -->
<g id="edge4" class="edge"><title>Node17&#45;&gt;Node19</title>
<path fill="none" stroke="midnightblue" d="M496.011,-64.5C504.601,-64.5 513.508,-64.5 522.41,-64.5"/>
<polygon fill="midnightblue" stroke="midnightblue" points="522.441,-68.0001 532.441,-64.5 522.441,-61.0001 522.441,-68.0001"/>
</g>
<!-- Node21 -->
<g id="node7" class="node"><title>Node21</title>
<g id="a_node7"><a xlink:href="group__adf7030-1____spi.html#ga0b334362c3e1aeb752f58c60a263a9cf" target="_top" xlink:title="Read &amp; Compare a number of bytes(s) from memory of the adf7030&#45;1 to Host starting at location pointed...">
<polygon fill="white" stroke="black" points="554,-0.5 554,-30.5 679,-30.5 679,-0.5 554,-0.5"/>
<text text-anchor="start" x="562" y="-18.5" font-family="Helvetica,sans-Serif" font-size="10.00">adf7030_1__SPI_rd_cmp</text>
<text text-anchor="middle" x="616.5" y="-7.5" font-family="Helvetica,sans-Serif" font-size="10.00">_byte_p_a</text>
</a>
</g>
</g>
<!-- Node17&#45;&gt;Node21 -->
<g id="edge6" class="edge"><title>Node17&#45;&gt;Node21</title>
<path fill="none" stroke="midnightblue" d="M464.999,-54.936C488.674,-48.7324 520.233,-40.4629 548.336,-33.099"/>
<polygon fill="midnightblue" stroke="midnightblue" points="549.328,-36.4575 558.114,-30.537 547.553,-29.6861 549.328,-36.4575"/>
</g>
<!-- Node20 -->
<g id="node6" class="node"><title>Node20</title>
<g id="a_node6"><a xlink:href="group__adf7030-1____spi.html#ga6f0c25120c078623d42ede30fc690999" target="_top" xlink:title="Write a number of word(s) from Host to memory of the adf7030&#45;1 starting at location pointed by &quot;pntr&quot;...">
<polygon fill="white" stroke="black" points="737,-55 737,-74 886,-74 886,-55 737,-55"/>
<text text-anchor="middle" x="811.5" y="-62" font-family="Helvetica,sans-Serif" font-size="10.00">adf7030_1__SPI_wr_word_b_p</text>
</a>
</g>
</g>
<!-- Node19&#45;&gt;Node20 -->
<g id="edge5" class="edge"><title>Node19&#45;&gt;Node20</title>
<path fill="none" stroke="midnightblue" d="M700.75,-64.5C709.402,-64.5 718.2,-64.5 726.857,-64.5"/>
<polygon fill="midnightblue" stroke="midnightblue" points="726.938,-68.0001 736.938,-64.5 726.938,-61.0001 726.938,-68.0001"/>
</g>
<!-- Node22&#45;&gt;Node17 -->
<g id="edge8" class="edge"><title>Node22&#45;&gt;Node17</title>
<path fill="none" stroke="midnightblue" d="M322.636,-53.2554C331.219,-54.1847 340.016,-55.137 348.682,-56.0752"/>
<polygon fill="midnightblue" stroke="midnightblue" points="348.455,-59.571 358.774,-57.1678 349.208,-52.6117 348.455,-59.571"/>
</g>
</g>
</svg>
