<?xml version="1.0" encoding="UTF-8" standalone="no"?>
<!DOCTYPE svg PUBLIC "-//W3C//DTD SVG 1.1//EN"
 "http://www.w3.org/Graphics/SVG/1.1/DTD/svg11.dtd">
<!-- Generated by graphviz version 2.38.0 (20140413.2041)
 -->
<!-- Title: adf7030_1__STATE_WaitReady Pages: 1 -->
<svg width="522pt" height="28pt"
 viewBox="0.00 0.00 522.00 28.00" xmlns="http://www.w3.org/2000/svg" xmlns:xlink="http://www.w3.org/1999/xlink">
<g id="graph0" class="graph" transform="scale(1 1) rotate(0) translate(4 24)">
<title>adf7030_1__STATE_WaitReady</title>
<polygon fill="white" stroke="none" points="-4,4 -4,-24 518,-24 518,4 -4,4"/>
<!-- Node36 -->
<g id="node1" class="node"><title>Node36</title>
<polygon fill="#bfbfbf" stroke="black" points="0,-0.5 0,-19.5 155,-19.5 155,-0.5 0,-0.5"/>
<text text-anchor="middle" x="77.5" y="-7.5" font-family="Helvetica,sans-Serif" font-size="10.00">adf7030_1__STATE_WaitReady</text>
</g>
<!-- Node37 -->
<g id="node2" class="node"><title>Node37</title>
<g id="a_node2"><a xlink:href="group__adf7030-1____state.html#ga47915136f3871f6ad931de81fa60b378" target="_top" xlink:title="Generic Radio PHY Command Transfers. ">
<polygon fill="white" stroke="black" points="191,-0.5 191,-19.5 315,-19.5 315,-0.5 191,-0.5"/>
<text text-anchor="middle" x="253" y="-7.5" font-family="Helvetica,sans-Serif" font-size="10.00">adf7030_1__XferCmdPoll</text>
</a>
</g>
</g>
<!-- Node36&#45;&gt;Node37 -->
<g id="edge1" class="edge"><title>Node36&#45;&gt;Node37</title>
<path fill="none" stroke="midnightblue" d="M155.105,-10C163.624,-10 172.275,-10 180.724,-10"/>
<polygon fill="midnightblue" stroke="midnightblue" points="180.907,-13.5001 190.907,-10 180.907,-6.5001 180.907,-13.5001"/>
</g>
<!-- Node38 -->
<g id="node3" class="node"><title>Node38</title>
<g id="a_node3"><a xlink:href="group__adf7030-1____spi.html#gae598c37af797c9fb49fecd0e62b1bf77" target="_top" xlink:title="Custom FAST API for Read/Write a number of byte(s) to the adf7030&#45;1. ">
<polygon fill="white" stroke="black" points="351,-0.5 351,-19.5 514,-19.5 514,-0.5 351,-0.5"/>
<text text-anchor="middle" x="432.5" y="-7.5" font-family="Helvetica,sans-Serif" font-size="10.00">adf7030_1__SPI_ReadWrite_Fast</text>
</a>
</g>
</g>
<!-- Node37&#45;&gt;Node38 -->
<g id="edge2" class="edge"><title>Node37&#45;&gt;Node38</title>
<path fill="none" stroke="midnightblue" d="M315.085,-10C323.374,-10 332.021,-10 340.694,-10"/>
<polygon fill="midnightblue" stroke="midnightblue" points="340.867,-13.5001 350.867,-10 340.867,-6.5001 340.867,-13.5001"/>
</g>
</g>
</svg>
