<?xml version="1.0" encoding="UTF-8" standalone="no"?>
<!DOCTYPE svg PUBLIC "-//W3C//DTD SVG 1.1//EN"
 "http://www.w3.org/Graphics/SVG/1.1/DTD/svg11.dtd">
<!-- Generated by graphviz version 2.38.0 (20140413.2041)
 -->
<!-- Title: adf7030_1__XferPatch Pages: 1 -->
<svg width="279pt" height="104pt"
 viewBox="0.00 0.00 279.00 104.00" xmlns="http://www.w3.org/2000/svg" xmlns:xlink="http://www.w3.org/1999/xlink">
<g id="graph0" class="graph" transform="scale(1 1) rotate(0) translate(4 100)">
<title>adf7030_1__XferPatch</title>
<polygon fill="white" stroke="none" points="-4,4 -4,-100 275,-100 275,4 -4,4"/>
<!-- Node72 -->
<g id="node1" class="node"><title>Node72</title>
<polygon fill="#bfbfbf" stroke="black" points="0,-38.5 0,-57.5 113,-57.5 113,-38.5 0,-38.5"/>
<text text-anchor="middle" x="56.5" y="-45.5" font-family="Helvetica,sans-Serif" font-size="10.00">adf7030_1__XferPatch</text>
</g>
<!-- Node73 -->
<g id="node2" class="node"><title>Node73</title>
<g id="a_node2"><a xlink:href="group__adf7030-1____patch.html#ga7c495e105742698cc777a712e2da9ad2" target="_top" xlink:title="Function call to readback the patch from Radio PHY. ">
<polygon fill="white" stroke="black" points="150.5,-76.5 150.5,-95.5 269.5,-95.5 269.5,-76.5 150.5,-76.5"/>
<text text-anchor="middle" x="210" y="-83.5" font-family="Helvetica,sans-Serif" font-size="10.00">adf7030_1__ReadPatch</text>
</a>
</g>
</g>
<!-- Node72&#45;&gt;Node73 -->
<g id="edge1" class="edge"><title>Node72&#45;&gt;Node73</title>
<path fill="none" stroke="midnightblue" d="M105.502,-60.04C126.667,-65.3488 151.186,-71.4988 171.045,-76.4799"/>
<polygon fill="midnightblue" stroke="midnightblue" points="106.281,-56.6271 95.7298,-57.589 104.578,-63.4168 106.281,-56.6271"/>
</g>
<!-- Node74 -->
<g id="node3" class="node"><title>Node74</title>
<g id="a_node3"><a xlink:href="group__adf7030-1____patch.html#ga1f1e316b541da1c27fb0a24f0b7efc7d" target="_top" xlink:title="Function call to verify the integrity of the patch. ">
<polygon fill="white" stroke="black" points="149,-38.5 149,-57.5 271,-57.5 271,-38.5 149,-38.5"/>
<text text-anchor="middle" x="210" y="-45.5" font-family="Helvetica,sans-Serif" font-size="10.00">adf7030_1__VerifyPatch</text>
</a>
</g>
</g>
<!-- Node72&#45;&gt;Node74 -->
<g id="edge2" class="edge"><title>Node72&#45;&gt;Node74</title>
<path fill="none" stroke="midnightblue" d="M123.302,-48C131.798,-48 140.463,-48 148.861,-48"/>
<polygon fill="midnightblue" stroke="midnightblue" points="123.053,-44.5001 113.053,-48 123.053,-51.5001 123.053,-44.5001"/>
</g>
<!-- Node75 -->
<g id="node4" class="node"><title>Node75</title>
<g id="a_node4"><a xlink:href="group__adf7030-1____patch.html#gaf6c0681c1cf8597650889b34d1b4bd2f" target="_top" xlink:title="Function call to write patch to Radio PHY. ">
<polygon fill="white" stroke="black" points="150,-0.5 150,-19.5 270,-19.5 270,-0.5 150,-0.5"/>
<text text-anchor="middle" x="210" y="-7.5" font-family="Helvetica,sans-Serif" font-size="10.00">adf7030_1__WritePatch</text>
</a>
</g>
</g>
<!-- Node72&#45;&gt;Node75 -->
<g id="edge3" class="edge"><title>Node72&#45;&gt;Node75</title>
<path fill="none" stroke="midnightblue" d="M105.502,-35.96C126.667,-30.6512 151.186,-24.5012 171.045,-19.5201"/>
<polygon fill="midnightblue" stroke="midnightblue" points="104.578,-32.5832 95.7298,-38.411 106.281,-39.3729 104.578,-32.5832"/>
</g>
</g>
</svg>
