<?xml version="1.0" encoding="UTF-8" standalone="no"?>
<!DOCTYPE svg PUBLIC "-//W3C//DTD SVG 1.1//EN"
 "http://www.w3.org/Graphics/SVG/1.1/DTD/svg11.dtd">
<!-- Generated by graphviz version 2.38.0 (20140413.2041)
 -->
<!-- Title: PATCH_DESCRIPTOR_Type Pages: 1 -->
<svg width="424pt" height="162pt"
 viewBox="0.00 0.00 424.00 162.00" xmlns="http://www.w3.org/2000/svg" xmlns:xlink="http://www.w3.org/1999/xlink">
<g id="graph0" class="graph" transform="scale(1 1) rotate(0) translate(4 158)">
<title>PATCH_DESCRIPTOR_Type</title>
<polygon fill="white" stroke="none" points="-4,4 -4,-158 420,-158 420,4 -4,4"/>
<!-- Node1 -->
<g id="node1" class="node"><title>Node1</title>
<polygon fill="#bfbfbf" stroke="black" points="205.5,-0.5 205.5,-19.5 348.5,-19.5 348.5,-0.5 205.5,-0.5"/>
<text text-anchor="middle" x="277" y="-7.5" font-family="Helvetica,sans-Serif" font-size="10.00">PATCH_DESCRIPTOR_Type</text>
</g>
<!-- Node2 -->
<g id="node2" class="node"><title>Node2</title>
<g id="a_node2"><a xlink:href="struct_p_a_t_c_h___c_h_e_c_k_s_u_m___d_e_s_c_r_i_p_t_o_r___type.html" target="_top" xlink:title="PATCH_CHECKSUM_DESCRIPTOR_Type">
<polygon fill="white" stroke="black" points="20.5,-67.5 20.5,-86.5 223.5,-86.5 223.5,-67.5 20.5,-67.5"/>
<text text-anchor="middle" x="122" y="-74.5" font-family="Helvetica,sans-Serif" font-size="10.00">PATCH_CHECKSUM_DESCRIPTOR_Type</text>
</a>
</g>
</g>
<!-- Node2&#45;&gt;Node1 -->
<g id="edge1" class="edge"><title>Node2&#45;&gt;Node1</title>
<path fill="none" stroke="#9a32cd" stroke-dasharray="5,2" d="M151.931,-63.4485C182.62,-50.5787 229.539,-30.9032 256.332,-19.6672"/>
<polygon fill="#9a32cd" stroke="#9a32cd" points="150.451,-60.2735 142.583,-67.3685 153.158,-66.7289 150.451,-60.2735"/>
<text text-anchor="middle" x="236.5" y="-41" font-family="Helvetica,sans-Serif" font-size="10.00"> pChecksum</text>
</g>
<!-- Node3 -->
<g id="node3" class="node"><title>Node3</title>
<g id="a_node3"><a xlink:href="struct_p_a_t_c_h___s_e_c_t_i_o_n___type.html" target="_top" xlink:title="PATCH_SECTION_Type">
<polygon fill="white" stroke="black" points="0,-134.5 0,-153.5 122,-153.5 122,-134.5 0,-134.5"/>
<text text-anchor="middle" x="61" y="-141.5" font-family="Helvetica,sans-Serif" font-size="10.00">PATCH_SECTION_Type</text>
</a>
</g>
</g>
<!-- Node3&#45;&gt;Node2 -->
<g id="edge2" class="edge"><title>Node3&#45;&gt;Node2</title>
<path fill="none" stroke="#9a32cd" stroke-dasharray="5,2" d="M76.3581,-126.635C88.2879,-113.923 104.359,-96.7978 113.904,-86.6273"/>
<polygon fill="#9a32cd" stroke="#9a32cd" points="73.5177,-124.547 69.2267,-134.234 78.6221,-129.337 73.5177,-124.547"/>
<text text-anchor="middle" x="117" y="-108" font-family="Helvetica,sans-Serif" font-size="10.00"> Sections</text>
</g>
<!-- Node4 -->
<g id="node4" class="node"><title>Node4</title>
<g id="a_node4"><a xlink:href="unioncrc__config__type.html" target="_top" xlink:title="crc_config_type">
<polygon fill="white" stroke="black" points="140.5,-134.5 140.5,-153.5 225.5,-153.5 225.5,-134.5 140.5,-134.5"/>
<text text-anchor="middle" x="183" y="-141.5" font-family="Helvetica,sans-Serif" font-size="10.00">crc_config_type</text>
</a>
</g>
</g>
<!-- Node4&#45;&gt;Node2 -->
<g id="edge3" class="edge"><title>Node4&#45;&gt;Node2</title>
<path fill="none" stroke="#9a32cd" stroke-dasharray="5,2" d="M167.642,-126.635C155.712,-113.923 139.641,-96.7978 130.096,-86.6273"/>
<polygon fill="#9a32cd" stroke="#9a32cd" points="165.378,-129.337 174.773,-134.234 170.482,-124.547 165.378,-129.337"/>
<text text-anchor="middle" x="181" y="-108" font-family="Helvetica,sans-Serif" font-size="10.00"> crc_config</text>
</g>
<!-- Node5 -->
<g id="node5" class="node"><title>Node5</title>
<g id="a_node5"><a xlink:href="struct_d_a_t_a___b_l_o_c_k___d_e_s_c_r_i_p_t_o_r___type.html" target="_top" xlink:title="DATA_BLOCK_DESCRIPTOR_Type">
<polygon fill="white" stroke="black" points="242,-67.5 242,-86.5 416,-86.5 416,-67.5 242,-67.5"/>
<text text-anchor="middle" x="329" y="-74.5" font-family="Helvetica,sans-Serif" font-size="10.00">DATA_BLOCK_DESCRIPTOR_Type</text>
</a>
</g>
</g>
<!-- Node5&#45;&gt;Node1 -->
<g id="edge4" class="edge"><title>Node5&#45;&gt;Node1</title>
<path fill="none" stroke="#9a32cd" stroke-dasharray="5,2" d="M315.616,-59.2705C305.478,-46.5972 291.961,-29.701 283.902,-19.6273"/>
<polygon fill="#9a32cd" stroke="#9a32cd" points="313.007,-61.6115 321.987,-67.2338 318.473,-57.2387 313.007,-61.6115"/>
<text text-anchor="middle" x="328.5" y="-41" font-family="Helvetica,sans-Serif" font-size="10.00"> BLOCKS</text>
</g>
</g>
</svg>
