<?xml version="1.0" encoding="UTF-8" standalone="no"?>
<!DOCTYPE svg PUBLIC "-//W3C//DTD SVG 1.1//EN"
 "http://www.w3.org/Graphics/SVG/1.1/DTD/svg11.dtd">
<!-- Generated by graphviz version 2.38.0 (20140413.2041)
 -->
<!-- Title: adi_adf7030_1_info Pages: 1 -->
<svg width="870pt" height="362pt"
 viewBox="0.00 0.00 870.00 361.50" xmlns="http://www.w3.org/2000/svg" xmlns:xlink="http://www.w3.org/1999/xlink">
<g id="graph0" class="graph" transform="scale(1 1) rotate(0) translate(4 357.5)">
<title>adi_adf7030_1_info</title>
<polygon fill="white" stroke="none" points="-4,4 -4,-357.5 866,-357.5 866,4 -4,4"/>
<!-- Node1 -->
<g id="node1" class="node"><title>Node1</title>
<polygon fill="#bfbfbf" stroke="black" points="763,-143 763,-162 862,-162 862,-143 763,-143"/>
<text text-anchor="middle" x="812.5" y="-150" font-family="Helvetica,sans-Serif" font-size="10.00">adi_adf7030_1_info</text>
</g>
<!-- Node1&#45;&gt;Node1 -->
<g id="edge16" class="edge"><title>Node1&#45;&gt;Node1</title>
<path fill="none" stroke="#9a32cd" stroke-dasharray="5,2" d="M793.982,-171.9C795.219,-176.815 801.392,-180.5 812.5,-180.5 830.273,-180.5 835.411,-171.065 827.913,-162.257"/>
<polygon fill="#9a32cd" stroke="#9a32cd" points="797.354,-172.849 797.087,-162.257 790.691,-170.703 797.354,-172.849"/>
<text text-anchor="middle" x="812.5" y="-194.5" font-family="Helvetica,sans-Serif" font-size="10.00"> pfEnableFunc</text>
<text text-anchor="middle" x="812.5" y="-183.5" font-family="Helvetica,sans-Serif" font-size="10.00">pfDisableFunc</text>
</g>
<!-- Node2 -->
<g id="node2" class="node"><title>Node2</title>
<g id="a_node2"><a xlink:href="struct_m_e_m___c_f_g___d_e_s_c_r_i_p_t_o_r___type.html" target="_top" xlink:title="MEM_CFG_DESCRIPTOR_Type">
<polygon fill="white" stroke="black" points="500,-305 500,-324 659,-324 659,-305 500,-305"/>
<text text-anchor="middle" x="579.5" y="-312" font-family="Helvetica,sans-Serif" font-size="10.00">MEM_CFG_DESCRIPTOR_Type</text>
</a>
</g>
</g>
<!-- Node2&#45;&gt;Node1 -->
<g id="edge1" class="edge"><title>Node2&#45;&gt;Node1</title>
<path fill="none" stroke="#9a32cd" stroke-dasharray="5,2" d="M646.277,-302.463C678.722,-293.922 716.831,-279.711 745,-256.5 777.583,-229.652 799.399,-182.538 807.724,-162.248"/>
<polygon fill="#9a32cd" stroke="#9a32cd" points="645.256,-299.111 636.407,-304.936 646.957,-305.901 645.256,-299.111"/>
<text text-anchor="middle" x="711" y="-294.5" font-family="Helvetica,sans-Serif" font-size="10.00"> pCfg</text>
</g>
<!-- Node2&#45;&gt;Node2 -->
<g id="edge2" class="edge"><title>Node2&#45;&gt;Node2</title>
<path fill="none" stroke="#9a32cd" stroke-dasharray="5,2" d="M556.435,-333.529C557.693,-338.628 565.381,-342.5 579.5,-342.5 601.539,-342.5 607.91,-333.065 598.612,-324.257"/>
<polygon fill="#9a32cd" stroke="#9a32cd" points="559.685,-334.829 560.388,-324.257 553.246,-332.083 559.685,-334.829"/>
<text text-anchor="middle" x="579.5" y="-345.5" font-family="Helvetica,sans-Serif" font-size="10.00"> pNext</text>
</g>
<!-- Node3 -->
<g id="node3" class="node"><title>Node3</title>
<g id="a_node3"><a xlink:href="struct_d_a_t_a___b_l_o_c_k___d_e_s_c_r_i_p_t_o_r___type.html" target="_top" xlink:title="DATA_BLOCK_DESCRIPTOR_Type">
<polygon fill="white" stroke="black" points="220.5,-233 220.5,-252 394.5,-252 394.5,-233 220.5,-233"/>
<text text-anchor="middle" x="307.5" y="-240" font-family="Helvetica,sans-Serif" font-size="10.00">DATA_BLOCK_DESCRIPTOR_Type</text>
</a>
</g>
</g>
<!-- Node3&#45;&gt;Node1 -->
<g id="edge5" class="edge"><title>Node3&#45;&gt;Node1</title>
<path fill="none" stroke="#9a32cd" stroke-dasharray="5,2" d="M404.652,-247.822C495.856,-249.313 634.932,-242.198 745,-195.5 765.504,-186.801 786.687,-171.892 799.48,-162.117"/>
<polygon fill="#9a32cd" stroke="#9a32cd" points="404.67,-244.322 394.601,-247.62 404.529,-251.32 404.67,-244.322"/>
<text text-anchor="middle" x="579.5" y="-281.5" font-family="Helvetica,sans-Serif" font-size="10.00"> pPACKET_CFG__BLOCK</text>
<text text-anchor="middle" x="579.5" y="-270.5" font-family="Helvetica,sans-Serif" font-size="10.00">pRX_PCKBUFF__BLOCK</text>
<text text-anchor="middle" x="579.5" y="-259.5" font-family="Helvetica,sans-Serif" font-size="10.00">pTX_PCKBUFF__BLOCK</text>
<text text-anchor="middle" x="579.5" y="-248.5" font-family="Helvetica,sans-Serif" font-size="10.00">pPROFILE__BLOCK</text>
</g>
<!-- Node3&#45;&gt;Node2 -->
<g id="edge3" class="edge"><title>Node3&#45;&gt;Node2</title>
<path fill="none" stroke="#9a32cd" stroke-dasharray="5,2" d="M354.189,-254.684C407.314,-268.851 493.906,-291.942 542.498,-304.899"/>
<polygon fill="#9a32cd" stroke="#9a32cd" points="354.918,-251.256 344.354,-252.061 353.114,-258.02 354.918,-251.256"/>
<text text-anchor="middle" x="454.5" y="-289.5" font-family="Helvetica,sans-Serif" font-size="10.00"> BLOCKS</text>
</g>
<!-- Node5 -->
<g id="node5" class="node"><title>Node5</title>
<g id="a_node5"><a xlink:href="struct_p_a_t_c_h___d_e_s_c_r_i_p_t_o_r___type.html" target="_top" xlink:title="PATCH_DESCRIPTOR_Type">
<polygon fill="white" stroke="black" points="508,-187 508,-206 651,-206 651,-187 508,-187"/>
<text text-anchor="middle" x="579.5" y="-194" font-family="Helvetica,sans-Serif" font-size="10.00">PATCH_DESCRIPTOR_Type</text>
</a>
</g>
</g>
<!-- Node3&#45;&gt;Node5 -->
<g id="edge10" class="edge"><title>Node3&#45;&gt;Node5</title>
<path fill="none" stroke="#9a32cd" stroke-dasharray="5,2" d="M359.933,-230.828C380.699,-226.33 404.928,-221.353 427,-217.5 453.289,-212.911 482.286,-208.688 507.813,-205.252"/>
<polygon fill="#9a32cd" stroke="#9a32cd" points="359.063,-227.435 350.041,-232.99 360.558,-234.274 359.063,-227.435"/>
<text text-anchor="middle" x="454.5" y="-220.5" font-family="Helvetica,sans-Serif" font-size="10.00"> BLOCKS</text>
</g>
<!-- Node4 -->
<g id="node4" class="node"><title>Node4</title>
<g id="a_node4"><a xlink:href="structconfig__info__t.html" target="_top" xlink:title="config_info_t">
<polygon fill="white" stroke="black" points="272,-305 272,-324 343,-324 343,-305 272,-305"/>
<text text-anchor="middle" x="307.5" y="-312" font-family="Helvetica,sans-Serif" font-size="10.00">config_info_t</text>
</a>
</g>
</g>
<!-- Node4&#45;&gt;Node2 -->
<g id="edge4" class="edge"><title>Node4&#45;&gt;Node2</title>
<path fill="none" stroke="#9a32cd" stroke-dasharray="5,2" d="M353.441,-314.5C393.274,-314.5 452.339,-314.5 499.966,-314.5"/>
<polygon fill="#9a32cd" stroke="#9a32cd" points="353.245,-311 343.245,-314.5 353.245,-318 353.245,-311"/>
<text text-anchor="middle" x="454.5" y="-317.5" font-family="Helvetica,sans-Serif" font-size="10.00"> pInfo</text>
</g>
<!-- Node5&#45;&gt;Node1 -->
<g id="edge6" class="edge"><title>Node5&#45;&gt;Node1</title>
<path fill="none" stroke="#9a32cd" stroke-dasharray="5,2" d="M648.728,-185.217C678.372,-180.122 713.463,-173.833 745,-167.5 753.355,-165.822 762.27,-163.902 770.77,-162.008"/>
<polygon fill="#9a32cd" stroke="#9a32cd" points="647.752,-181.833 638.484,-186.967 648.931,-188.733 647.752,-181.833"/>
<text text-anchor="middle" x="711" y="-183.5" font-family="Helvetica,sans-Serif" font-size="10.00"> pPatch</text>
</g>
<!-- Node6 -->
<g id="node6" class="node"><title>Node6</title>
<g id="a_node6"><a xlink:href="struct_p_a_t_c_h___c_h_e_c_k_s_u_m___d_e_s_c_r_i_p_t_o_r___type.html" target="_top" xlink:title="PATCH_CHECKSUM_DESCRIPTOR_Type">
<polygon fill="white" stroke="black" points="206,-173 206,-192 409,-192 409,-173 206,-173"/>
<text text-anchor="middle" x="307.5" y="-180" font-family="Helvetica,sans-Serif" font-size="10.00">PATCH_CHECKSUM_DESCRIPTOR_Type</text>
</a>
</g>
</g>
<!-- Node6&#45;&gt;Node5 -->
<g id="edge7" class="edge"><title>Node6&#45;&gt;Node5</title>
<path fill="none" stroke="#9a32cd" stroke-dasharray="5,2" d="M419.22,-181.021C440.093,-181.342 461.729,-182.082 482,-183.5 493.299,-184.29 505.293,-185.557 516.845,-186.998"/>
<polygon fill="#9a32cd" stroke="#9a32cd" points="419.086,-177.519 409.043,-180.896 419,-184.519 419.086,-177.519"/>
<text text-anchor="middle" x="454.5" y="-186.5" font-family="Helvetica,sans-Serif" font-size="10.00"> pChecksum</text>
</g>
<!-- Node7 -->
<g id="node7" class="node"><title>Node7</title>
<g id="a_node7"><a xlink:href="struct_p_a_t_c_h___s_e_c_t_i_o_n___type.html" target="_top" xlink:title="PATCH_SECTION_Type">
<polygon fill="white" stroke="black" points="0,-192 0,-211 122,-211 122,-192 0,-192"/>
<text text-anchor="middle" x="61" y="-199" font-family="Helvetica,sans-Serif" font-size="10.00">PATCH_SECTION_Type</text>
</a>
</g>
</g>
<!-- Node7&#45;&gt;Node6 -->
<g id="edge8" class="edge"><title>Node7&#45;&gt;Node6</title>
<path fill="none" stroke="#9a32cd" stroke-dasharray="5,2" d="M132.391,-196.03C155.221,-194.256 181.014,-192.252 205.615,-190.34"/>
<polygon fill="#9a32cd" stroke="#9a32cd" points="131.823,-192.563 122.125,-196.828 132.366,-199.542 131.823,-192.563"/>
<text text-anchor="middle" x="164" y="-198.5" font-family="Helvetica,sans-Serif" font-size="10.00"> Sections</text>
</g>
<!-- Node8 -->
<g id="node8" class="node"><title>Node8</title>
<g id="a_node8"><a xlink:href="unioncrc__config__type.html" target="_top" xlink:title="crc_config_type">
<polygon fill="white" stroke="black" points="18.5,-154 18.5,-173 103.5,-173 103.5,-154 18.5,-154"/>
<text text-anchor="middle" x="61" y="-161" font-family="Helvetica,sans-Serif" font-size="10.00">crc_config_type</text>
</a>
</g>
</g>
<!-- Node8&#45;&gt;Node6 -->
<g id="edge9" class="edge"><title>Node8&#45;&gt;Node6</title>
<path fill="none" stroke="#9a32cd" stroke-dasharray="5,2" d="M114.031,-167.543C140.793,-169.623 174.348,-172.231 205.913,-174.683"/>
<polygon fill="#9a32cd" stroke="#9a32cd" points="113.994,-164.03 103.753,-166.745 113.452,-171.009 113.994,-164.03"/>
<text text-anchor="middle" x="164" y="-176.5" font-family="Helvetica,sans-Serif" font-size="10.00"> crc_config</text>
</g>
<!-- Node9 -->
<g id="node9" class="node"><title>Node9</title>
<g id="a_node9"><a xlink:href="structadi__adf7030__1___g_p_i_o___trig__info.html" target="_top" xlink:title="adi_adf7030_1_GPIO\l_Trig_info">
<polygon fill="white" stroke="black" points="525.5,-137.5 525.5,-167.5 633.5,-167.5 633.5,-137.5 525.5,-137.5"/>
<text text-anchor="start" x="533.5" y="-155.5" font-family="Helvetica,sans-Serif" font-size="10.00">adi_adf7030_1_GPIO</text>
<text text-anchor="middle" x="579.5" y="-144.5" font-family="Helvetica,sans-Serif" font-size="10.00">_Trig_info</text>
</a>
</g>
</g>
<!-- Node9&#45;&gt;Node1 -->
<g id="edge11" class="edge"><title>Node9&#45;&gt;Node1</title>
<path fill="none" stroke="#9a32cd" stroke-dasharray="5,2" d="M644.096,-152.5C681.58,-152.5 728.272,-152.5 762.813,-152.5"/>
<polygon fill="#9a32cd" stroke="#9a32cd" points="643.786,-149 633.786,-152.5 643.786,-156 643.786,-149"/>
<text text-anchor="middle" x="711" y="-155.5" font-family="Helvetica,sans-Serif" font-size="10.00"> TrigGPIOInfo</text>
</g>
<!-- Node10 -->
<g id="node10" class="node"><title>Node10</title>
<g id="a_node10"><a xlink:href="structadi__adf7030__1___g_p_i_o___int__info.html" target="_top" xlink:title="adi_adf7030_1_GPIO\l_Int_info">
<polygon fill="white" stroke="black" points="525.5,-88.5 525.5,-118.5 633.5,-118.5 633.5,-88.5 525.5,-88.5"/>
<text text-anchor="start" x="533.5" y="-106.5" font-family="Helvetica,sans-Serif" font-size="10.00">adi_adf7030_1_GPIO</text>
<text text-anchor="middle" x="579.5" y="-95.5" font-family="Helvetica,sans-Serif" font-size="10.00">_Int_info</text>
</a>
</g>
</g>
<!-- Node10&#45;&gt;Node1 -->
<g id="edge12" class="edge"><title>Node10&#45;&gt;Node1</title>
<path fill="none" stroke="#9a32cd" stroke-dasharray="5,2" d="M643.637,-116.272C674.267,-122.539 711.579,-130.278 745,-137.5 752.982,-139.225 761.492,-141.11 769.666,-142.943"/>
<polygon fill="#9a32cd" stroke="#9a32cd" points="644.019,-112.778 633.521,-114.206 642.618,-119.636 644.019,-112.778"/>
<text text-anchor="middle" x="711" y="-140.5" font-family="Helvetica,sans-Serif" font-size="10.00"> IntGPIOInfo</text>
</g>
<!-- Node11 -->
<g id="node11" class="node"><title>Node11</title>
<g id="a_node11"><a xlink:href="structadi__adf7030__1___s_p_i___info.html" target="_top" xlink:title="adi_adf7030_1_SPI_Info">
<polygon fill="white" stroke="black" points="519.5,-50 519.5,-69 639.5,-69 639.5,-50 519.5,-50"/>
<text text-anchor="middle" x="579.5" y="-57" font-family="Helvetica,sans-Serif" font-size="10.00">adi_adf7030_1_SPI_Info</text>
</a>
</g>
</g>
<!-- Node11&#45;&gt;Node1 -->
<g id="edge13" class="edge"><title>Node11&#45;&gt;Node1</title>
<path fill="none" stroke="#9a32cd" stroke-dasharray="5,2" d="M637.631,-71.4244C670.13,-79.4425 711.003,-91.6527 745,-108.5 764.846,-118.335 785.861,-133.064 798.832,-142.727"/>
<polygon fill="#9a32cd" stroke="#9a32cd" points="638.372,-68.0029 627.831,-69.0701 636.737,-74.8092 638.372,-68.0029"/>
<text text-anchor="middle" x="711" y="-111.5" font-family="Helvetica,sans-Serif" font-size="10.00"> SPIInfo</text>
</g>
<!-- Node12 -->
<g id="node12" class="node"><title>Node12</title>
<g id="a_node12"><a xlink:href="structadi__adf7030__1___s_p_i___status.html" target="_top" xlink:title="adi_adf7030_1_SPI_Status">
<polygon fill="white" stroke="black" points="240.5,-50 240.5,-69 374.5,-69 374.5,-50 240.5,-50"/>
<text text-anchor="middle" x="307.5" y="-57" font-family="Helvetica,sans-Serif" font-size="10.00">adi_adf7030_1_SPI_Status</text>
</a>
</g>
</g>
<!-- Node12&#45;&gt;Node11 -->
<g id="edge14" class="edge"><title>Node12&#45;&gt;Node11</title>
<path fill="none" stroke="#9a32cd" stroke-dasharray="5,2" d="M384.598,-59.5C427.206,-59.5 479.553,-59.5 519.113,-59.5"/>
<polygon fill="#9a32cd" stroke="#9a32cd" points="384.549,-56.0001 374.549,-59.5 384.549,-63.0001 384.549,-56.0001"/>
<text text-anchor="middle" x="454.5" y="-62.5" font-family="Helvetica,sans-Serif" font-size="10.00"> nStatus</text>
</g>
<!-- Node13 -->
<g id="node13" class="node"><title>Node13</title>
<g id="a_node13"><a xlink:href="structadi__adf7030__1___g_p_i_o___reset__info.html" target="_top" xlink:title="adi_adf7030_1_GPIO\l_Reset_info">
<polygon fill="white" stroke="black" points="525.5,-0.5 525.5,-30.5 633.5,-30.5 633.5,-0.5 525.5,-0.5"/>
<text text-anchor="start" x="533.5" y="-18.5" font-family="Helvetica,sans-Serif" font-size="10.00">adi_adf7030_1_GPIO</text>
<text text-anchor="middle" x="579.5" y="-7.5" font-family="Helvetica,sans-Serif" font-size="10.00">_Reset_info</text>
</a>
</g>
</g>
<!-- Node13&#45;&gt;Node1 -->
<g id="edge15" class="edge"><title>Node13&#45;&gt;Node1</title>
<path fill="none" stroke="#9a32cd" stroke-dasharray="5,2" d="M643.559,-26.609C675.967,-34.5007 714.869,-47.5322 745,-68.5 774.16,-88.7923 796.826,-125.564 806.455,-142.929"/>
<polygon fill="#9a32cd" stroke="#9a32cd" points="644.259,-23.1786 633.726,-24.3217 642.673,-29.9965 644.259,-23.1786"/>
<text text-anchor="middle" x="711" y="-71.5" font-family="Helvetica,sans-Serif" font-size="10.00"> ResetGPIOInfo</text>
</g>
</g>
</svg>
