<?xml version="1.0" encoding="UTF-8" standalone="no"?>
<!DOCTYPE svg PUBLIC "-//W3C//DTD SVG 1.1//EN"
 "http://www.w3.org/Graphics/SVG/1.1/DTD/svg11.dtd">
<!-- Generated by graphviz version 2.38.0 (20140413.2041)
 -->
<!-- Title: PATCH_CHECKSUM_DESCRIPTOR_Type Pages: 1 -->
<svg width="234pt" height="95pt"
 viewBox="0.00 0.00 233.50 95.00" xmlns="http://www.w3.org/2000/svg" xmlns:xlink="http://www.w3.org/1999/xlink">
<g id="graph0" class="graph" transform="scale(1 1) rotate(0) translate(4 91)">
<title>PATCH_CHECKSUM_DESCRIPTOR_Type</title>
<polygon fill="white" stroke="none" points="-4,4 -4,-91 229.5,-91 229.5,4 -4,4"/>
<!-- Node1 -->
<g id="node1" class="node"><title>Node1</title>
<polygon fill="#bfbfbf" stroke="black" points="20.5,-0.5 20.5,-19.5 223.5,-19.5 223.5,-0.5 20.5,-0.5"/>
<text text-anchor="middle" x="122" y="-7.5" font-family="Helvetica,sans-Serif" font-size="10.00">PATCH_CHECKSUM_DESCRIPTOR_Type</text>
</g>
<!-- Node2 -->
<g id="node2" class="node"><title>Node2</title>
<g id="a_node2"><a xlink:href="struct_p_a_t_c_h___s_e_c_t_i_o_n___type.html" target="_top" xlink:title="PATCH_SECTION_Type">
<polygon fill="white" stroke="black" points="0,-67.5 0,-86.5 122,-86.5 122,-67.5 0,-67.5"/>
<text text-anchor="middle" x="61" y="-74.5" font-family="Helvetica,sans-Serif" font-size="10.00">PATCH_SECTION_Type</text>
</a>
</g>
</g>
<!-- Node2&#45;&gt;Node1 -->
<g id="edge1" class="edge"><title>Node2&#45;&gt;Node1</title>
<path fill="none" stroke="#9a32cd" stroke-dasharray="5,2" d="M76.3581,-59.6348C88.2879,-46.9228 104.359,-29.7978 113.904,-19.6273"/>
<polygon fill="#9a32cd" stroke="#9a32cd" points="73.5177,-57.5468 69.2267,-67.2338 78.6221,-62.337 73.5177,-57.5468"/>
<text text-anchor="middle" x="117" y="-41" font-family="Helvetica,sans-Serif" font-size="10.00"> Sections</text>
</g>
<!-- Node3 -->
<g id="node3" class="node"><title>Node3</title>
<g id="a_node3"><a xlink:href="unioncrc__config__type.html" target="_top" xlink:title="crc_config_type">
<polygon fill="white" stroke="black" points="140.5,-67.5 140.5,-86.5 225.5,-86.5 225.5,-67.5 140.5,-67.5"/>
<text text-anchor="middle" x="183" y="-74.5" font-family="Helvetica,sans-Serif" font-size="10.00">crc_config_type</text>
</a>
</g>
</g>
<!-- Node3&#45;&gt;Node1 -->
<g id="edge2" class="edge"><title>Node3&#45;&gt;Node1</title>
<path fill="none" stroke="#9a32cd" stroke-dasharray="5,2" d="M167.642,-59.6348C155.712,-46.9228 139.641,-29.7978 130.096,-19.6273"/>
<polygon fill="#9a32cd" stroke="#9a32cd" points="165.378,-62.337 174.773,-67.2338 170.482,-57.5468 165.378,-62.337"/>
<text text-anchor="middle" x="181" y="-41" font-family="Helvetica,sans-Serif" font-size="10.00"> crc_config</text>
</g>
</g>
</svg>
