<?xml version="1.0" encoding="UTF-8" standalone="no"?>
<!DOCTYPE svg PUBLIC "-//W3C//DTD SVG 1.1//EN"
 "http://www.w3.org/Graphics/SVG/1.1/DTD/svg11.dtd">
<!-- Generated by graphviz version 2.38.0 (20140413.2041)
 -->
<!-- Title: MEM_DESCRIPTOR_Type Pages: 1 -->
<svg width="382pt" height="95pt"
 viewBox="0.00 0.00 382.00 95.00" xmlns="http://www.w3.org/2000/svg" xmlns:xlink="http://www.w3.org/1999/xlink">
<g id="graph0" class="graph" transform="scale(1 1) rotate(0) translate(4 91)">
<title>MEM_DESCRIPTOR_Type</title>
<polygon fill="white" stroke="none" points="-4,4 -4,-91 378,-91 378,4 -4,4"/>
<!-- Node1 -->
<g id="node1" class="node"><title>Node1</title>
<polygon fill="#bfbfbf" stroke="black" points="117.5,-0.5 117.5,-19.5 251.5,-19.5 251.5,-0.5 117.5,-0.5"/>
<text text-anchor="middle" x="184.5" y="-7.5" font-family="Helvetica,sans-Serif" font-size="10.00">MEM_DESCRIPTOR_Type</text>
</g>
<!-- Node1&#45;&gt;Node1 -->
<g id="edge2" class="edge"><title>Node1&#45;&gt;Node1</title>
<path fill="none" stroke="#9a32cd" stroke-dasharray="5,2" d="M262.041,-14.1474C266.703,-13.1598 269.5,-11.7773 269.5,-10 269.5,-7.15625 262.34,-5.32336 251.837,-4.50134"/>
<polygon fill="#9a32cd" stroke="#9a32cd" points="261.291,-10.7161 251.837,-15.4987 262.21,-17.6555 261.291,-10.7161"/>
<text text-anchor="middle" x="294" y="-7.5" font-family="Helvetica,sans-Serif" font-size="10.00"> pNextBloc</text>
</g>
<!-- Node2 -->
<g id="node2" class="node"><title>Node2</title>
<g id="a_node2"><a xlink:href="struct_b_l_o_c_k___x_f_e_r___d_e_s_c_r_i_p_t_o_r___type.html" target="_top" xlink:title="BLOCK_XFER_DESCRIPTOR_Type">
<polygon fill="white" stroke="black" points="0,-67.5 0,-86.5 173,-86.5 173,-67.5 0,-67.5"/>
<text text-anchor="middle" x="86.5" y="-74.5" font-family="Helvetica,sans-Serif" font-size="10.00">BLOCK_XFER_DESCRIPTOR_Type</text>
</a>
</g>
</g>
<!-- Node2&#45;&gt;Node1 -->
<g id="edge1" class="edge"><title>Node2&#45;&gt;Node1</title>
<path fill="none" stroke="#9a32cd" stroke-dasharray="5,2" d="M108.219,-61.5945C127.606,-48.7359 155.355,-30.3306 171.493,-19.6273"/>
<polygon fill="#9a32cd" stroke="#9a32cd" points="106.116,-58.7897 99.7167,-67.2338 109.985,-64.6232 106.116,-58.7897"/>
<text text-anchor="middle" x="163.5" y="-41" font-family="Helvetica,sans-Serif" font-size="10.00"> BlockXfer</text>
</g>
<!-- Node3 -->
<g id="node3" class="node"><title>Node3</title>
<g id="a_node3"><a xlink:href="struct_r_a_n_d_o_m___x_f_e_r___d_e_s_c_r_i_p_t_o_r___type.html" target="_top" xlink:title="RANDOM_XFER_DESCRIPTOR_Type">
<polygon fill="white" stroke="black" points="191,-67.5 191,-86.5 374,-86.5 374,-67.5 191,-67.5"/>
<text text-anchor="middle" x="282.5" y="-74.5" font-family="Helvetica,sans-Serif" font-size="10.00">RANDOM_XFER_DESCRIPTOR_Type</text>
</a>
</g>
</g>
<!-- Node3&#45;&gt;Node1 -->
<g id="edge3" class="edge"><title>Node3&#45;&gt;Node1</title>
<path fill="none" stroke="#9a32cd" stroke-dasharray="5,2" d="M260.781,-61.5945C241.394,-48.7359 213.645,-30.3306 197.507,-19.6273"/>
<polygon fill="#9a32cd" stroke="#9a32cd" points="259.015,-64.6232 269.283,-67.2338 262.884,-58.7897 259.015,-64.6232"/>
<text text-anchor="middle" x="259.5" y="-41" font-family="Helvetica,sans-Serif" font-size="10.00"> RandXfer</text>
</g>
</g>
</svg>
