<?xml version="1.0" encoding="UTF-8" standalone="no"?>
<!DOCTYPE svg PUBLIC "-//W3C//DTD SVG 1.1//EN"
 "http://www.w3.org/Graphics/SVG/1.1/DTD/svg11.dtd">
<!-- Generated by graphviz version 2.38.0 (20140413.2041)
 -->
<!-- Title: MEM_CFG_DESCRIPTOR_Type Pages: 1 -->
<svg width="292pt" height="95pt"
 viewBox="0.00 0.00 291.50 95.00" xmlns="http://www.w3.org/2000/svg" xmlns:xlink="http://www.w3.org/1999/xlink">
<g id="graph0" class="graph" transform="scale(1 1) rotate(0) translate(4 91)">
<title>MEM_CFG_DESCRIPTOR_Type</title>
<polygon fill="white" stroke="none" points="-4,4 -4,-91 287.5,-91 287.5,4 -4,4"/>
<!-- Node1 -->
<g id="node1" class="node"><title>Node1</title>
<polygon fill="#bfbfbf" stroke="black" points="77.5,-0.5 77.5,-19.5 236.5,-19.5 236.5,-0.5 77.5,-0.5"/>
<text text-anchor="middle" x="157" y="-7.5" font-family="Helvetica,sans-Serif" font-size="10.00">MEM_CFG_DESCRIPTOR_Type</text>
</g>
<!-- Node1&#45;&gt;Node1 -->
<g id="edge1" class="edge"><title>Node1&#45;&gt;Node1</title>
<path fill="none" stroke="#9a32cd" stroke-dasharray="5,2" d="M246.616,-14.0191C251.559,-13.0414 254.5,-11.7017 254.5,-10 254.5,-7.34375 247.334,-5.56946 236.571,-4.67712"/>
<polygon fill="#9a32cd" stroke="#9a32cd" points="246.037,-10.5647 236.571,-15.3229 246.939,-17.5065 246.037,-10.5647"/>
<text text-anchor="middle" x="269" y="-7.5" font-family="Helvetica,sans-Serif" font-size="10.00"> pNext</text>
</g>
<!-- Node2 -->
<g id="node2" class="node"><title>Node2</title>
<g id="a_node2"><a xlink:href="struct_d_a_t_a___b_l_o_c_k___d_e_s_c_r_i_p_t_o_r___type.html" target="_top" xlink:title="DATA_BLOCK_DESCRIPTOR_Type">
<polygon fill="white" stroke="black" points="0,-67.5 0,-86.5 174,-86.5 174,-67.5 0,-67.5"/>
<text text-anchor="middle" x="87" y="-74.5" font-family="Helvetica,sans-Serif" font-size="10.00">DATA_BLOCK_DESCRIPTOR_Type</text>
</a>
</g>
</g>
<!-- Node2&#45;&gt;Node1 -->
<g id="edge2" class="edge"><title>Node2&#45;&gt;Node1</title>
<path fill="none" stroke="#9a32cd" stroke-dasharray="5,2" d="M103.847,-60.3564C117.609,-47.5777 136.548,-29.9915 147.709,-19.6273"/>
<polygon fill="#9a32cd" stroke="#9a32cd" points="101.387,-57.8645 96.4405,-67.2338 106.15,-62.9941 101.387,-57.8645"/>
<text text-anchor="middle" x="148.5" y="-41" font-family="Helvetica,sans-Serif" font-size="10.00"> BLOCKS</text>
</g>
<!-- Node3 -->
<g id="node3" class="node"><title>Node3</title>
<g id="a_node3"><a xlink:href="structconfig__info__t.html" target="_top" xlink:title="config_info_t">
<polygon fill="white" stroke="black" points="192.5,-67.5 192.5,-86.5 263.5,-86.5 263.5,-67.5 192.5,-67.5"/>
<text text-anchor="middle" x="228" y="-74.5" font-family="Helvetica,sans-Serif" font-size="10.00">config_info_t</text>
</a>
</g>
</g>
<!-- Node3&#45;&gt;Node1 -->
<g id="edge3" class="edge"><title>Node3&#45;&gt;Node1</title>
<path fill="none" stroke="#9a32cd" stroke-dasharray="5,2" d="M210.912,-60.3564C196.954,-47.5777 177.745,-29.9915 166.424,-19.6273"/>
<polygon fill="#9a32cd" stroke="#9a32cd" points="208.685,-63.0628 218.425,-67.2338 213.412,-57.8997 208.685,-63.0628"/>
<text text-anchor="middle" x="209" y="-41" font-family="Helvetica,sans-Serif" font-size="10.00"> pInfo</text>
</g>
</g>
</svg>
